<svg version="1.2" xmlns="http://www.w3.org/2000/svg" viewBox="0 0 1920 1080" width="1920" height="1080"><defs><linearGradient id="P" gradientUnits="userSpaceOnUse"/><linearGradient id="g1" x2="1" href="#P" gradientTransform="matrix(0,647.341,-647.351,0,726.386,-38.324)"><stop offset=".19" stop-color="#bebfbd"/><stop offset=".23" stop-color="#dce0df"/><stop offset=".25"/><stop offset="1" stop-color="#0a0b14"/></linearGradient><linearGradient id="g2" x2="1" href="#P" gradientTransform="matrix(880.218,0,0,191.318,711.654,833.107)"><stop stop-color="#f1f2f2"/><stop offset="1" stop-color="#fff"/></linearGradient><linearGradient id="g3" x2="1" href="#P" gradientTransform="matrix(876.698,0,0,187.773,645.104,834.879)"><stop offset=".19" stop-color="#414042"/><stop offset=".23" stop-color="#231f20"/><stop offset=".25" stop-color="#fff"/><stop offset="1" stop-color="#f5f4eb"/></linearGradient></defs><style>.a{fill:#fff}.b{fill:#fcfcfc}.c{fill:#fafafa}.d{fill:#f7f7f7}.e{fill:#f5f5f5}.f{fill:#f2f2f2}.g{fill:#f0f0f0}.h{fill:#ededed}.i{fill:#ebebeb}.j{fill:#e8e8e8}.k{fill:#e6e6e6}.l{fill:#e3e3e3}.m{fill:#e1e1e1}.n{fill:#dedede}.o{fill:#dcdcdc}.p{fill:#d9d9d9}.q{fill:#d7d7d7}.r{fill:#d4d4d4}.s{fill:#d2d2d2}.t{fill:#cfcfcf}.u{fill:#cdcdcd}.v{fill:#cacaca}.w{fill:#c7c7c7}.x{fill:#c5c5c5}.y{fill:#c2c2c2}.z{fill:#c0c0c0}.A{fill:#bdbdbd}.B{fill:#bbb}.C{fill:#b8b8b8}.D{fill:#b6b6b6}.E{fill:#b3b3b3}.F{fill:#b1b1b1}.G{fill:#aeaeae}.H{fill:#acacac}.I{fill:#a9a9a9}.J{fill:#a7a7a7}.K{fill:#a4a4a4}.L{fill:#a2a2a2}.M{fill:#9f9f9f}.N{fill:#9d9d9d}.O{fill:#9a9a9a}.P{fill:#979797}.Q{fill:#959595}.R{fill:#929292}.S{fill:#909090}.T{fill:#8d8d8d}.U{fill:#8b8b8b}.V{fill:#888}.W{fill:#868686}.X{fill:#838383}.Y{fill:#818181}.Z{fill:#7e7e7e}.a0{fill:#7c7c7c}.a1{fill:#797979}.a2{fill:#777}.a3{fill:#747474}.a4{fill:#727272}.a5{fill:#6f6f6f}.a6{fill:#6d6d6d}.a7{fill:#6a6a6a}.a8{fill:#686868}.a9{fill:#656565}.aa{fill:#626262}.ab{fill:#606060}.ac{fill:#5d5d5d}.ad{fill:#5b5b5b}.ae{fill:#585858}.af{fill:#565656}.ag{fill:#535353}.ah{fill:#515151}.ai{fill:#4e4e4e}.aj{fill:#4c4c4c}.ak{fill:#494949}.al{fill:#474747}.am{fill:#444}.an{fill:#424242}.ao{fill:#3f3f3f}.ap{fill:#3d3d3d}.aq{fill:#3a3a3a}.ar{fill:#383838}.as{fill:#353535}.at{fill:#323232}.au{fill:#303030}.av{fill:#2d2d2d}.aw{fill:#2b2b2b}.ax{fill:#282828}.ay{fill:#262626}.az{fill:#232323}.aA{fill:#212121}.aB{fill:#1e1e1e}.aC{fill:#1c1c1c}.aD{fill:#191919}.aE{fill:#171717}.aF{fill:#141414}.aG{fill:#121212}.aH{fill:#0f0f0f}.aI{fill:#0d0d0d}.aJ{fill:#0a0a0a}.aK{fill:#080808}.aL{fill:#050505}.aM{fill:#030303}.aN{fill:#f9928b}.aO{fill:#fdfdfd}.aP{fill:#fbfbfb}.aQ{fill:#f8f8f8}.aR{fill:#f6f6f6}.aS{fill:#f4f4f4}.aT{fill:#f0eff0}.aU{fill:#eeeded}.aV{fill:#e9e9e9}.aW{fill:#e7e7e7}.aX{fill:#e5e4e5}.aY{fill:#e3e2e2}.aZ{fill:#e1e0e0}.b0{fill:#dad9d9}.b1{fill:#d8d7d7}.b2{fill:#d6d5d5}.b3{fill:#d3d3d3}.b4{fill:#d1d0d1}.b5{fill:#cfcece}.b6{fill:#cdcccc}.b7{fill:#cbcaca}.b8{fill:#c9c8c8}.b9{fill:#c6c5c6}.ba{fill:#c4c3c3}.bb{fill:#c2c1c1}.bc{fill:#c0bfbf}.bd{fill:#bebcbd}.be{fill:#bbbabb}.bf{fill:#b9b8b8}.bg{fill:#b7b6b6}.bh{fill:#b5b4b4}.bi{fill:#b3b1b2}.bj{fill:#b1afb0}.bk{fill:#aeadad}.bl{fill:#acabab}.bm{fill:#aaa9a9}.bn{fill:#a8a6a7}.bo{fill:#a6a4a4}.bp{fill:#a4a2a2}.bq{fill:#a1a0a0}.br{fill:#9f9d9e}.bs{fill:#9d9b9c}.bt{fill:#9b9999}.bu{fill:#999797}.bv{fill:#969595}.bw{fill:#949293}.bx{fill:#929091}.by{fill:#908e8e}.bz{fill:#8e8c8c}.bA{fill:#8c898a}.bB{fill:#898788}.bC{fill:#878586}.bD{fill:#858383}.bE{fill:#838181}.bF{fill:#817e7f}.bG{fill:#7e7c7d}.bH{fill:#7c7a7b}.bI{fill:#7a7878}.bJ{fill:#787576}.bK{fill:#767374}.bL{fill:#747172}.bM{fill:#716f6f}.bN{fill:#6f6d6d}.bO{fill:#6d6a6b}.bP{fill:#6b6869}.bQ{fill:#696667}.bR{fill:#676464}.bS{fill:#646262}.bT{fill:#625f60}.bU{fill:#605d5e}.bV{fill:#5e5b5c}.bW{fill:#5c5959}.bX{fill:#595657}.bY{fill:#575455}.bZ{fill:#555253}.c0{fill:#535051}.c1{fill:#514e4e}.c2{fill:#4f4b4c}.c3{fill:#4c494a}.c4{fill:#4a4748}.c5{fill:#484546}.c6{fill:#464243}.c7{fill:#444041}.c8{fill:#413e3f}.c9{fill:#3f3c3d}.ca{fill:#3d3a3a}.cb{fill:#3b3738}.cc{fill:#393536}.cd{fill:#373334}.ce{fill:#343132}.cf{fill:#322f2f}.cg{fill:#302c2d}.ch{fill:#2e2a2b}.ci{fill:#2c2829}.cj{fill:#2a2627}.ck{fill:#272324}.cl{fill:#252122}.cm{fill:#231f20}.cn{fill:#fef6ad}.co{opacity:.3;mix-blend-mode:screen;fill:url(#g1)}.cp{mix-blend-mode:overlay;fill:url(#g2)}.cq{fill:#d2ee7f}.cr{opacity:.1;mix-blend-mode:color-burn;fill:url(#g3)}</style><g style="opacity:.5;mix-blend-mode:multiply"><path class="a" d="m1555.2 647.5l76.6-98.4c21.7-27.8 57.2-73.4 78.8-101.2l76.6-98.3c21.7-27.9 14.1-64.6-16.8-81.6l-109.2-60c-30.9-17-81.5-44.8-112.5-61.8l-109.2-60.1c-30.9-16.9-50.4-2.6-43.3 32l14.5 70-245.1 50.6c-17.4 3.5-28.5 20.5-24.9 37.9l46.6 342.6c3.6 17.3 20.5 28.5 37.9 24.9l263.2-78.9 14.5 70c7.1 34.6 30.7 40.1 52.3 12.3z"/><path class="b" d="m1555.2 647.5l76.6-98.4c21.7-27.8 57.2-73.4 78.8-101.2l76.6-98.3c21.7-27.9 14.1-64.6-16.8-81.6l-109.2-60c-30.9-17-81.5-44.8-112.5-61.8l-109.2-60.1c-30.9-16.9-50.4-2.6-43.3 32l14.5 70-245.1 50.6c-17.4 3.5-28.5 20.5-24.9 37.9l46.8 342.3c3.5 17.4 20.5 28.5 37.9 25l263-78.7 14.5 70c7.1 34.6 30.7 40.1 52.3 12.3z"/><path class="c" d="m1555.2 647.5l76.6-98.4c21.7-27.8 57.2-73.4 78.8-101.2l76.6-98.3c21.7-27.9 14.1-64.6-16.8-81.6l-109.2-60c-30.9-17-81.5-44.8-112.5-61.8l-109.2-60.1c-30.9-16.9-50.4-2.6-43.3 32l14.5 70-245.1 50.6c-17.4 3.5-28.5 20.5-24.9 37.9l46.9 342c3.6 17.4 20.6 28.5 38 25l262.8-78.4 14.5 70c7.1 34.6 30.7 40.1 52.3 12.3z"/><path class="d" d="m1555.2 647.5l76.6-98.4c21.7-27.8 57.2-73.4 78.8-101.2l76.6-98.3c21.7-27.9 14.1-64.6-16.8-81.6l-109.2-60c-30.9-17-81.5-44.8-112.5-61.8l-109.2-60.1c-30.9-16.9-50.4-2.6-43.3 32l14.5 70-245.1 50.6c-17.4 3.5-28.5 20.5-24.9 37.9l47.1 341.7c3.6 17.4 20.6 28.6 37.9 25l262.7-78.1 14.5 70c7.1 34.6 30.7 40.1 52.3 12.3z"/><path class="e" d="m1555.2 647.5l76.6-98.4c21.7-27.8 57.2-73.4 78.8-101.2l76.6-98.3c21.7-27.9 14.1-64.6-16.8-81.6l-109.2-60c-30.9-17-81.5-44.8-112.5-61.8l-109.2-60.1c-30.9-16.9-50.4-2.6-43.3 32l14.5 70-245.1 50.6c-17.4 3.5-28.5 20.5-24.9 37.9l47.3 341.5c3.6 17.3 20.6 28.5 37.9 24.9l262.5-77.8 14.5 70c7.1 34.6 30.7 40.1 52.3 12.3z"/><path class="f" d="m1555.2 647.5l76.6-98.4c21.7-27.8 57.2-73.4 78.8-101.2l76.6-98.3c21.7-27.9 14.1-64.6-16.8-81.6l-109.2-60c-30.9-17-81.5-44.8-112.5-61.8l-109.2-60.1c-30.9-16.9-50.4-2.6-43.3 32l14.5 70-245.1 50.6c-17.4 3.5-28.5 20.5-24.9 37.9l47.5 341.2c3.6 17.3 20.5 28.5 37.9 24.9l262.3-77.5 14.5 70c7.1 34.6 30.7 40.1 52.3 12.3z"/><path class="g" d="m1555.2 647.5l76.6-98.4c21.7-27.8 57.2-73.4 78.8-101.2l76.6-98.3c21.7-27.9 14.1-64.6-16.8-81.6l-109.2-60c-30.9-17-81.5-44.8-112.5-61.8l-109.2-60.1c-30.9-16.9-50.4-2.6-43.3 32l14.5 70-245.1 50.6c-17.4 3.5-28.5 20.5-24.9 37.9l47.7 340.9c3.5 17.3 20.5 28.5 37.9 24.9l262.1-77.2 14.5 70c7.1 34.6 30.7 40.1 52.3 12.3z"/><path class="h" d="m1555.2 647.5l76.6-98.4c21.7-27.8 57.2-73.4 78.8-101.2l76.6-98.3c21.7-27.9 14.1-64.6-16.8-81.6l-109.2-60c-30.9-17-81.5-44.8-112.5-61.8l-109.2-60.1c-30.9-16.9-50.4-2.6-43.3 32l14.5 70-245.1 50.6c-17.4 3.5-28.5 20.5-24.9 37.9l47.8 340.6c3.6 17.4 20.6 28.5 38 25l261.9-77 14.5 70c7.1 34.6 30.7 40.1 52.3 12.3z"/><path class="i" d="m1555.2 647.5l76.6-98.4c21.7-27.8 57.2-73.4 78.8-101.2l76.6-98.3c21.7-27.9 14.1-64.6-16.8-81.6l-109.2-60c-30.9-17-81.5-44.8-112.5-61.8l-109.2-60.1c-30.9-16.9-50.4-2.6-43.3 32l14.5 70-245.1 50.6c-17.4 3.5-28.5 20.5-24.9 37.9l48 340.3c3.6 17.4 20.6 28.6 37.9 25l261.8-76.7 14.5 70c7.1 34.6 30.7 40.1 52.3 12.3z"/><path class="j" d="m1555.2 647.5l76.6-98.4c21.7-27.8 57.2-73.4 78.8-101.2l76.6-98.3c21.7-27.9 14.1-64.6-16.8-81.6l-109.2-60c-30.9-17-81.5-44.8-112.5-61.8l-109.2-60.1c-30.9-16.9-50.4-2.6-43.3 32l14.5 70-245.1 50.6c-17.4 3.5-28.5 20.5-24.9 37.9l48.2 340.1c3.6 17.3 20.6 28.5 37.9 24.9l261.6-76.4 14.5 70c7.1 34.6 30.7 40.1 52.3 12.3z"/><path class="k" d="m1555.2 647.5l76.6-98.4c21.7-27.8 57.2-73.4 78.8-101.2l76.6-98.3c21.7-27.9 14.1-64.6-16.8-81.6l-109.2-60c-30.9-17-81.5-44.8-112.5-61.8l-109.2-60.1c-30.9-16.9-50.4-2.6-43.3 32l14.5 70-245.1 50.6c-17.4 3.5-28.5 20.5-24.9 37.9l48.4 339.8c3.6 17.3 20.5 28.5 37.9 24.9l261.4-76.1 14.5 70c7.1 34.6 30.7 40.1 52.3 12.3z"/><path class="l" d="m1555.2 647.5l76.6-98.4c21.7-27.8 57.2-73.4 78.8-101.2l76.6-98.3c21.7-27.9 14.1-64.6-16.8-81.6l-109.2-60c-30.9-17-81.5-44.8-112.5-61.8l-109.2-60.1c-30.9-16.9-50.4-2.6-43.3 32l14.5 70-245.1 50.6c-17.4 3.5-28.5 20.5-24.9 37.9l48.6 339.5c3.5 17.3 20.5 28.5 37.9 24.9l261.2-75.8 14.5 70c7.1 34.6 30.7 40.1 52.3 12.3z"/><path class="m" d="m1555.2 647.5l76.6-98.4c21.7-27.8 57.2-73.4 78.8-101.2l76.6-98.3c21.7-27.9 14.1-64.6-16.8-81.6l-109.2-60c-30.9-17-81.5-44.8-112.5-61.8l-109.2-60.1c-30.9-16.9-50.4-2.6-43.3 32l14.5 70-245.1 50.6c-17.4 3.5-28.5 20.5-24.9 37.9l48.7 339.2c3.6 17.4 20.6 28.5 38 25l261-75.6 14.5 70c7.1 34.6 30.7 40.1 52.3 12.3z"/><path class="n" d="m1555.2 647.5l76.6-98.4c21.7-27.8 57.2-73.4 78.8-101.2l76.6-98.3c21.7-27.9 14.1-64.6-16.8-81.6l-109.2-60c-30.9-17-81.5-44.8-112.5-61.8l-109.2-60.1c-30.9-16.9-50.4-2.6-43.3 32l14.5 70-245.1 50.6c-17.4 3.5-28.5 20.5-24.9 37.9l48.9 338.9c3.6 17.4 20.6 28.6 37.9 25l260.9-75.3 14.5 70c7.1 34.6 30.7 40.1 52.3 12.3z"/><path class="o" d="m1555.2 647.5l76.6-98.4c21.7-27.8 57.2-73.4 78.8-101.2l76.6-98.3c21.7-27.9 14.1-64.6-16.8-81.6l-109.2-60c-30.9-17-81.5-44.8-112.5-61.8l-109.2-60.1c-30.9-16.9-50.4-2.6-43.3 32l14.5 70-245.1 50.6c-17.4 3.5-28.5 20.5-24.9 37.9l49.1 338.6c3.6 17.4 20.6 28.6 37.9 25l260.7-75 14.5 70c7.1 34.6 30.7 40.1 52.3 12.3z"/><path class="p" d="m1555.2 647.5l76.6-98.4c21.7-27.8 57.2-73.4 78.8-101.2l76.6-98.3c21.7-27.9 14.1-64.6-16.8-81.6l-109.2-60c-30.9-17-81.5-44.8-112.5-61.8l-109.2-60.1c-30.9-16.9-50.4-2.6-43.3 32l14.5 70-245.1 50.6c-17.4 3.5-28.5 20.5-24.9 37.9l49.3 338.4c3.6 17.3 20.5 28.5 37.9 24.9l260.5-74.7 14.5 70c7.1 34.6 30.7 40.1 52.3 12.3z"/><path class="q" d="m1555.2 647.5l76.6-98.4c21.7-27.8 57.2-73.4 78.8-101.2l76.6-98.3c21.7-27.9 14.1-64.6-16.8-81.6l-109.2-60c-30.9-17-81.5-44.8-112.5-61.8l-109.2-60.1c-30.9-16.9-50.4-2.6-43.3 32l14.5 70-245.1 50.6c-17.4 3.5-28.5 20.5-24.9 37.9l49.5 338.1c3.5 17.3 20.5 28.5 37.9 24.9l260.3-74.4 14.5 70c7.1 34.6 30.7 40.1 52.3 12.3z"/><path class="r" d="m1555.2 647.5l76.6-98.4c21.7-27.8 57.2-73.4 78.8-101.2l76.6-98.3c21.7-27.9 14.1-64.6-16.8-81.6l-109.2-60c-30.9-17-81.5-44.8-112.5-61.8l-109.2-60.1c-30.9-16.9-50.4-2.6-43.3 32l14.5 70-245.1 50.6c-17.4 3.5-28.5 20.5-24.9 37.9l49.6 337.8c3.6 17.4 20.6 28.5 38 25l260.1-74.2 14.5 70c7.1 34.6 30.7 40.1 52.3 12.3z"/><path class="s" d="m1555.2 647.5l76.6-98.4c21.7-27.8 57.2-73.4 78.8-101.2l76.6-98.3c21.7-27.9 14.1-64.6-16.8-81.6l-109.2-60c-30.9-17-81.5-44.8-112.5-61.8l-109.2-60.1c-30.9-16.9-50.4-2.6-43.3 32l14.5 70-245.1 50.6c-17.4 3.5-28.5 20.5-24.9 37.9l49.8 337.5c3.6 17.4 20.6 28.5 37.9 25l260-73.9 14.5 70c7.1 34.6 30.7 40.1 52.3 12.3z"/><path class="t" d="m1555.2 647.5l76.6-98.4c21.7-27.8 57.2-73.4 78.8-101.2l76.6-98.3c21.7-27.9 14.1-64.6-16.8-81.6l-109.2-60c-30.9-17-81.5-44.8-112.5-61.8l-109.2-60.1c-30.9-16.9-50.4-2.6-43.3 32l14.5 70-245.1 50.6c-17.4 3.5-28.5 20.5-24.9 37.9l50 337.2c3.6 17.4 20.6 28.6 37.9 25l259.8-73.6 14.5 70c7.1 34.6 30.7 40.1 52.3 12.3z"/><path class="u" d="m1555.2 647.5l76.6-98.4c21.7-27.8 57.2-73.4 78.8-101.2l76.6-98.3c21.7-27.9 14.1-64.6-16.8-81.6l-109.2-60c-30.9-17-81.5-44.8-112.5-61.8l-109.2-60.1c-30.9-16.9-50.4-2.6-43.3 32l14.5 70-245.1 50.6c-17.4 3.5-28.5 20.5-24.9 37.9l50.2 337c3.6 17.3 20.5 28.5 37.9 24.9l259.6-73.3 14.5 70c7.1 34.6 30.7 40.1 52.3 12.3z"/><path class="v" d="m1555.2 647.5l76.6-98.4c21.7-27.8 57.2-73.4 78.8-101.2l76.6-98.3c21.7-27.9 14.1-64.6-16.8-81.6l-109.2-60c-30.9-17-81.5-44.8-112.5-61.8l-109.2-60.1c-30.9-16.9-50.4-2.6-43.3 32l14.5 70-245.1 50.6c-17.4 3.5-28.5 20.5-24.9 37.9l50.4 336.7c3.5 17.3 20.5 28.5 37.9 24.9l259.4-73 14.5 70c7.1 34.6 30.7 40.1 52.3 12.3z"/><path class="w" d="m1555.2 647.5l76.6-98.4c21.7-27.8 57.2-73.4 78.8-101.2l76.6-98.3c21.7-27.9 14.1-64.6-16.8-81.6l-109.2-60c-30.9-17-81.5-44.8-112.5-61.8l-109.2-60.1c-30.9-16.9-50.4-2.6-43.3 32l14.5 70-245.1 50.6c-17.4 3.5-28.5 20.5-24.9 37.9l50.5 336.4c3.6 17.3 20.6 28.5 38 24.9l259.2-72.7 14.5 70c7.1 34.6 30.7 40.1 52.3 12.3z"/><path class="x" d="m1555.2 647.5l76.6-98.4c21.7-27.8 57.2-73.4 78.8-101.2l76.6-98.3c21.7-27.9 14.1-64.6-16.8-81.6l-109.2-60c-30.9-17-81.5-44.8-112.5-61.8l-109.2-60.1c-30.9-16.9-50.4-2.6-43.3 32l14.5 70-245.1 50.6c-17.4 3.5-28.5 20.5-24.9 37.9l50.7 336.1c3.6 17.4 20.6 28.5 37.9 25l259.1-72.5 14.5 70c7.1 34.6 30.7 40.1 52.3 12.3z"/><path class="y" d="m1555.2 647.5l76.6-98.4c21.7-27.8 57.2-73.4 78.8-101.2l76.6-98.3c21.7-27.9 14.1-64.6-16.8-81.6l-109.2-60c-30.9-17-81.5-44.8-112.5-61.8l-109.2-60.1c-30.9-16.9-50.4-2.6-43.3 32l14.5 70-245.1 50.6c-17.4 3.5-28.5 20.5-24.9 37.9l50.9 335.8c3.6 17.4 20.6 28.6 37.9 25l258.9-72.2 14.5 70c7.1 34.6 30.7 40.1 52.3 12.3z"/><path class="z" d="m1555.2 647.5l76.6-98.4c21.7-27.8 57.2-73.4 78.8-101.2l76.6-98.3c21.7-27.9 14.1-64.6-16.8-81.6l-109.2-60c-30.9-17-81.5-44.8-112.5-61.8l-109.2-60.1c-30.9-16.9-50.4-2.6-43.3 32l14.5 70-245.1 50.6c-17.4 3.5-28.5 20.5-24.9 37.9l51.1 335.6c3.6 17.3 20.5 28.5 37.9 24.9l258.7-71.9 14.5 70c7.1 34.6 30.7 40.1 52.3 12.3z"/><path class="A" d="m1555.2 647.5l76.6-98.4c21.7-27.8 57.2-73.4 78.8-101.2l76.6-98.3c21.7-27.9 14.1-64.6-16.8-81.6l-109.2-60c-30.9-17-81.5-44.8-112.5-61.8l-109.2-60.1c-30.9-16.9-50.4-2.6-43.3 32l14.5 70-245.1 50.6c-17.4 3.5-28.5 20.5-24.9 37.9l51.3 335.3c3.5 17.3 20.5 28.5 37.9 24.9l258.5-71.6 14.5 70c7.1 34.6 30.7 40.1 52.3 12.3z"/><path class="B" d="m1555.2 647.5l76.6-98.4c21.7-27.8 57.2-73.4 78.8-101.2l76.6-98.3c21.7-27.9 14.1-64.6-16.8-81.6l-109.2-60c-30.9-17-81.5-44.8-112.5-61.8l-109.2-60.1c-30.9-16.9-50.4-2.6-43.3 32l14.5 70-245.1 50.6c-17.4 3.5-28.5 20.5-24.9 37.9l51.4 335c3.6 17.3 20.6 28.5 38 24.9l258.3-71.3 14.5 70c7.1 34.6 30.7 40.1 52.3 12.3z"/><path class="C" d="m1555.2 647.5l76.6-98.4c21.7-27.8 57.2-73.4 78.8-101.2l76.6-98.3c21.7-27.9 14.1-64.6-16.8-81.6l-109.2-60c-30.9-17-81.5-44.8-112.5-61.8l-109.2-60.1c-30.9-16.9-50.4-2.6-43.3 32l14.5 70-245.1 50.6c-17.4 3.5-28.5 20.5-24.9 37.9l51.6 334.7c3.6 17.4 20.6 28.5 37.9 25l258.2-71.1 14.5 70c7.1 34.6 30.7 40.1 52.3 12.3z"/><path class="D" d="m1555.2 647.5l76.6-98.4c21.7-27.8 57.2-73.4 78.8-101.2l76.6-98.3c21.7-27.9 14.1-64.6-16.8-81.6l-109.2-60c-30.9-17-81.5-44.8-112.5-61.8l-109.2-60.1c-30.9-16.9-50.4-2.6-43.3 32l14.5 70-245.1 50.6c-17.4 3.5-28.5 20.5-24.9 37.9l51.8 334.4c3.6 17.4 20.6 28.6 37.9 25l258-70.8 14.5 70c7.1 34.6 30.7 40.1 52.3 12.3z"/><path class="E" d="m1555.2 647.5l76.6-98.4c21.7-27.8 57.2-73.4 78.8-101.2l76.6-98.3c21.7-27.9 14.1-64.6-16.8-81.6l-109.2-60c-30.9-17-81.5-44.8-112.5-61.8l-109.2-60.1c-30.9-16.9-50.4-2.6-43.3 32l14.5 70-245.1 50.6c-17.4 3.5-28.5 20.5-24.9 37.9l52 334.1c3.6 17.4 20.5 28.6 37.9 25l257.8-70.5 14.5 70c7.1 34.6 30.7 40.1 52.3 12.3z"/><path class="F" d="m1555.2 647.5l76.6-98.4c21.7-27.8 57.2-73.4 78.8-101.2l76.6-98.3c21.7-27.9 14.1-64.6-16.8-81.6l-109.2-60c-30.9-17-81.5-44.8-112.5-61.8l-109.2-60.1c-30.9-16.9-50.4-2.6-43.3 32l14.5 70-245.1 50.6c-17.4 3.5-28.5 20.5-24.9 37.9l52.2 333.9c3.5 17.3 20.5 28.5 37.9 24.9l257.6-70.2 14.5 70c7.1 34.6 30.7 40.1 52.3 12.3z"/><path class="G" d="m1555.2 647.5l76.6-98.4c21.7-27.8 57.2-73.4 78.8-101.2l76.6-98.3c21.7-27.9 14.1-64.6-16.8-81.6l-109.2-60c-30.9-17-81.5-44.8-112.5-61.8l-109.2-60.1c-30.9-16.9-50.4-2.6-43.3 32l14.5 70-245.1 50.6c-17.4 3.5-28.5 20.5-24.9 37.9l52.3 333.6c3.6 17.3 20.6 28.5 37.9 24.9l257.5-69.9 14.5 70c7.1 34.6 30.7 40.1 52.3 12.3z"/><path class="H" d="m1555.2 647.5l76.6-98.4c21.7-27.8 57.2-73.4 78.8-101.2l76.6-98.3c21.7-27.9 14.1-64.6-16.8-81.6l-109.2-60c-30.9-17-81.5-44.8-112.5-61.8l-109.2-60.1c-30.9-16.9-50.4-2.6-43.3 32l14.5 70-245.1 50.6c-17.4 3.5-28.5 20.5-24.9 37.9l52.5 333.3c3.6 17.4 20.6 28.5 37.9 25l257.3-69.7 14.5 70c7.1 34.6 30.7 40.1 52.3 12.3z"/><path class="I" d="m1555.2 647.5l76.6-98.4c21.7-27.8 57.2-73.4 78.8-101.2l76.6-98.3c21.7-27.9 14.1-64.6-16.8-81.6l-109.2-60c-30.9-17-81.5-44.8-112.5-61.8l-109.2-60.1c-30.9-16.9-50.4-2.6-43.3 32l14.5 70-245.1 50.6c-17.4 3.5-28.5 20.5-24.9 37.9l52.7 333c3.6 17.4 20.6 28.6 37.9 25l257.1-69.4 14.5 70c7.1 34.6 30.7 40.1 52.3 12.3z"/><path class="J" d="m1555.2 647.5l76.6-98.4c21.7-27.8 57.2-73.4 78.8-101.2l76.6-98.3c21.7-27.9 14.1-64.6-16.8-81.6l-109.2-60c-30.9-17-81.5-44.8-112.5-61.8l-109.2-60.1c-30.9-16.9-50.4-2.6-43.3 32l14.5 70-245.1 50.6c-17.4 3.5-28.5 20.5-24.9 37.9l52.9 332.7c3.6 17.4 20.5 28.6 37.9 25l256.9-69.1 14.5 70c7.1 34.6 30.7 40.1 52.3 12.3z"/><path class="K" d="m1555.2 647.5l76.6-98.4c21.7-27.8 57.2-73.4 78.8-101.2l76.6-98.3c21.7-27.9 14.1-64.6-16.8-81.6l-109.2-60c-30.9-17-81.5-44.8-112.5-61.8l-109.2-60.1c-30.9-16.9-50.4-2.6-43.3 32l14.5 70-245.1 50.6c-17.4 3.5-28.5 20.5-24.9 37.9l53.1 332.5c3.5 17.3 20.5 28.5 37.9 24.9l256.7-68.8 14.5 70c7.1 34.6 30.7 40.1 52.3 12.3z"/><path class="L" d="m1555.2 647.5l76.6-98.4c21.7-27.8 57.2-73.4 78.8-101.2l76.6-98.3c21.7-27.9 14.1-64.6-16.8-81.6l-109.2-60c-30.9-17-81.5-44.8-112.5-61.8l-109.2-60.1c-30.9-16.9-50.4-2.6-43.3 32l14.5 70-245.1 50.6c-17.4 3.5-28.5 20.5-24.9 37.9l53.2 332.2c3.6 17.3 20.6 28.5 37.9 24.9l256.6-68.5 14.5 70c7.1 34.6 30.7 40.1 52.3 12.3z"/><path class="M" d="m1555.2 647.5l76.6-98.4c21.7-27.8 57.2-73.4 78.8-101.2l76.6-98.3c21.7-27.9 14.1-64.6-16.8-81.6l-109.2-60c-30.9-17-81.5-44.8-112.5-61.8l-109.2-60.1c-30.9-16.9-50.4-2.6-43.3 32l14.5 70-245.1 50.6c-17.4 3.5-28.5 20.5-24.9 37.9l53.4 331.9c3.6 17.3 20.6 28.5 37.9 24.9l256.4-68.2 14.5 70c7.1 34.6 30.7 40.1 52.3 12.3z"/><path class="N" d="m1555.2 647.5l76.6-98.4c21.7-27.8 57.2-73.4 78.8-101.2l76.6-98.3c21.7-27.9 14.1-64.6-16.8-81.6l-109.2-60c-30.9-17-81.5-44.8-112.5-61.8l-109.2-60.1c-30.9-16.9-50.4-2.6-43.3 32l14.5 70-245.1 50.6c-17.4 3.5-28.5 20.5-24.9 37.9l53.6 331.6c3.6 17.4 20.5 28.5 37.9 25l256.2-68 14.5 70c7.1 34.6 30.7 40.1 52.3 12.3z"/><path class="O" d="m1555.2 647.5l76.6-98.4c21.7-27.8 57.2-73.4 78.8-101.2l76.6-98.3c21.7-27.9 14.1-64.6-16.8-81.6l-109.2-60c-30.9-17-81.5-44.8-112.5-61.8l-109.2-60.1c-30.9-16.9-50.4-2.6-43.3 32l14.5 70-245.1 50.6c-17.4 3.5-28.5 20.5-24.9 37.9l53.8 331.3c3.6 17.4 20.5 28.6 37.9 25l256-67.7 14.5 70c7.1 34.6 30.7 40.1 52.3 12.3z"/><path class="P" d="m1555.2 647.5l76.6-98.4c21.7-27.8 57.2-73.4 78.8-101.2l76.6-98.3c21.7-27.9 14.1-64.6-16.8-81.6l-109.2-60c-30.9-17-81.5-44.8-112.5-61.8l-109.2-60.1c-30.9-16.9-50.4-2.6-43.3 32l14.5 70-245.1 50.6c-17.4 3.5-28.5 20.5-24.9 37.9l54 331.1c3.5 17.3 20.5 28.5 37.9 24.9l255.8-67.4 14.5 70c7.1 34.6 30.7 40.1 52.3 12.3z"/><path class="Q" d="m1555.2 647.5l76.6-98.4c21.7-27.8 57.2-73.4 78.8-101.2l76.6-98.3c21.7-27.9 14.1-64.6-16.8-81.6l-109.2-60c-30.9-17-81.5-44.8-112.5-61.8l-109.2-60.1c-30.9-16.9-50.4-2.6-43.3 32l14.5 70-245.1 50.6c-17.4 3.5-28.5 20.5-24.9 37.9l54.1 330.8c3.6 17.3 20.6 28.5 37.9 24.9l255.7-67.1 14.5 70c7.1 34.6 30.7 40.1 52.3 12.3z"/><path class="R" d="m1555.2 647.5l76.6-98.4c21.7-27.8 57.2-73.4 78.8-101.2l76.6-98.3c21.7-27.9 14.1-64.6-16.8-81.6l-109.2-60c-30.9-17-81.5-44.8-112.5-61.8l-109.2-60.1c-30.9-16.9-50.4-2.6-43.3 32l14.5 70-245.1 50.6c-17.4 3.5-28.5 20.5-24.9 37.9l54.3 330.5c3.6 17.3 20.6 28.5 37.9 24.9l255.5-66.8 14.5 70c7.1 34.6 30.7 40.1 52.3 12.3z"/><path class="S" d="m1555.2 647.5l76.6-98.4c21.7-27.8 57.2-73.4 78.8-101.2l76.6-98.3c21.7-27.9 14.1-64.6-16.8-81.6l-109.2-60c-30.9-17-81.5-44.8-112.5-61.8l-109.2-60.1c-30.9-16.9-50.4-2.6-43.3 32l14.5 70-245.1 50.6c-17.4 3.5-28.5 20.5-24.9 37.9l54.5 330.2c3.6 17.4 20.5 28.5 37.9 25l255.3-66.6 14.5 70c7.1 34.6 30.7 40.1 52.3 12.3z"/><path class="T" d="m1555.2 647.5l76.6-98.4c21.7-27.8 57.2-73.4 78.8-101.2l76.6-98.3c21.7-27.9 14.1-64.6-16.8-81.6l-109.2-60c-30.9-17-81.5-44.8-112.5-61.8l-109.2-60.1c-30.9-16.9-50.4-2.6-43.3 32l14.5 70-245.1 50.6c-17.4 3.5-28.5 20.5-24.9 37.9l54.7 329.9c3.6 17.4 20.5 28.6 37.9 25l255.1-66.3 14.5 70c7.1 34.6 30.7 40.1 52.3 12.3z"/><path class="U" d="m1555.2 647.5l76.6-98.4c21.7-27.8 57.2-73.4 78.8-101.2l76.6-98.3c21.7-27.9 14.1-64.6-16.8-81.6l-109.2-60c-30.9-17-81.5-44.8-112.5-61.8l-109.2-60.1c-30.9-16.9-50.4-2.6-43.3 32l14.5 70-245.1 50.6c-17.4 3.5-28.5 20.5-24.9 37.9l54.9 329.6c3.5 17.4 20.5 28.6 37.9 25l254.9-66 14.5 70c7.1 34.6 30.7 40.1 52.3 12.3z"/><path class="V" d="m1555.2 647.5l76.6-98.4c21.7-27.8 57.2-73.4 78.8-101.2l76.6-98.3c21.7-27.9 14.1-64.6-16.8-81.6l-109.2-60c-30.9-17-81.5-44.8-112.5-61.8l-109.2-60.1c-30.9-16.9-50.4-2.6-43.3 32l14.5 70-245.1 50.6c-17.4 3.5-28.5 20.5-24.9 37.9l55 329.4c3.6 17.3 20.6 28.5 37.9 24.9l254.8-65.7 14.5 70c7.1 34.6 30.7 40.1 52.3 12.3z"/><path class="W" d="m1555.2 647.5l76.6-98.4c21.7-27.8 57.2-73.4 78.8-101.2l76.6-98.3c21.7-27.9 14.1-64.6-16.8-81.6l-109.2-60c-30.9-17-81.5-44.8-112.5-61.8l-109.2-60.1c-30.9-16.9-50.4-2.6-43.3 32l14.5 70-245.1 50.6c-17.4 3.5-28.5 20.5-24.9 37.9l55.2 329.1c3.6 17.3 20.6 28.5 37.9 24.9l254.6-65.4 14.5 70c7.1 34.6 30.7 40.1 52.3 12.3z"/><path class="X" d="m1555.2 647.5l76.6-98.4c21.7-27.8 57.2-73.4 78.8-101.2l76.6-98.3c21.7-27.9 14.1-64.6-16.8-81.6l-109.2-60c-30.9-17-81.5-44.8-112.5-61.8l-109.2-60.1c-30.9-16.9-50.4-2.6-43.3 32l14.5 70-245.1 50.6c-17.4 3.5-28.5 20.5-24.9 37.9l55.4 328.8c3.6 17.4 20.5 28.5 37.9 25l254.4-65.2 14.5 70c7.1 34.6 30.7 40.1 52.3 12.3z"/><path class="Y" d="m1555.2 647.5l76.6-98.4c21.7-27.8 57.2-73.4 78.8-101.2l76.6-98.3c21.7-27.9 14.1-64.6-16.8-81.6l-109.2-60c-30.9-17-81.5-44.8-112.5-61.8l-109.2-60.1c-30.9-16.9-50.4-2.6-43.3 32l14.5 70-245.1 50.6c-17.4 3.5-28.5 20.5-24.9 37.9l55.6 328.5c3.6 17.4 20.5 28.6 37.9 25l254.2-64.9 14.5 70c7.1 34.6 30.7 40.1 52.3 12.3z"/><path class="Z" d="m1555.2 647.5l76.6-98.4c21.7-27.8 57.2-73.4 78.8-101.2l76.6-98.3c21.7-27.9 14.1-64.6-16.8-81.6l-109.2-60c-30.9-17-81.5-44.8-112.5-61.8l-109.2-60.1c-30.9-16.9-50.4-2.6-43.3 32l14.5 70-245.1 50.6c-17.4 3.5-28.5 20.5-24.9 37.9l55.8 328.2c3.5 17.4 20.5 28.6 37.9 25l254-64.6 14.5 70c7.1 34.6 30.7 40.1 52.3 12.3z"/><path class="a0" d="m1555.2 647.5l76.6-98.4c21.7-27.8 57.2-73.4 78.8-101.2l76.6-98.3c21.7-27.9 14.1-64.6-16.8-81.6l-109.2-60c-30.9-17-81.5-44.8-112.5-61.8l-109.2-60.1c-30.9-16.9-50.4-2.6-43.3 32l14.5 70-245.1 50.6c-17.4 3.5-28.5 20.5-24.9 37.9l55.9 328c3.6 17.3 20.6 28.5 37.9 24.9l253.9-64.3 14.5 70c7.1 34.6 30.7 40.1 52.3 12.3z"/><path class="a1" d="m1555.2 647.5l76.6-98.4c21.7-27.8 57.2-73.4 78.8-101.2l76.6-98.3c21.7-27.9 14.1-64.6-16.8-81.6l-109.2-60c-30.9-17-81.5-44.8-112.5-61.8l-109.2-60.1c-30.9-16.9-50.4-2.6-43.3 32l14.5 70-245.1 50.6c-17.4 3.5-28.5 20.5-24.9 37.9l56.1 327.7c3.6 17.3 20.6 28.5 37.9 24.9l253.7-64 14.5 70c7.1 34.6 30.7 40.1 52.3 12.3z"/><path class="a2" d="m1555.2 647.5l76.6-98.4c21.7-27.8 57.2-73.4 78.8-101.2l76.6-98.3c21.7-27.9 14.1-64.6-16.8-81.6l-109.2-60c-30.9-17-81.5-44.8-112.5-61.8l-109.2-60.1c-30.9-16.9-50.4-2.6-43.3 32l14.5 70-245.1 50.6c-17.4 3.5-28.5 20.5-24.9 37.9l56.3 327.4c3.6 17.3 20.5 28.5 37.9 25l253.5-63.8 14.5 70c7.1 34.6 30.7 40.1 52.3 12.3z"/><path class="a3" d="m1555.2 647.5l76.6-98.4c21.7-27.8 57.2-73.4 78.8-101.2l76.6-98.3c21.7-27.9 14.1-64.6-16.8-81.6l-109.2-60c-30.9-17-81.5-44.8-112.5-61.8l-109.2-60.1c-30.9-16.9-50.4-2.6-43.3 32l14.5 70-245.1 50.6c-17.4 3.5-28.5 20.5-24.9 37.9l56.5 327.1c3.6 17.4 20.5 28.5 37.9 25l253.3-63.5 14.5 70c7.1 34.6 30.7 40.1 52.3 12.3z"/><path class="a4" d="m1555.2 647.5l76.6-98.4c21.7-27.8 57.2-73.4 78.8-101.2l76.6-98.3c21.7-27.9 14.1-64.6-16.8-81.6l-109.2-60c-30.9-17-81.5-44.8-112.5-61.8l-109.2-60.1c-30.9-16.9-50.4-2.6-43.3 32l14.5 70-245.1 50.6c-17.4 3.5-28.5 20.5-24.9 37.9l56.7 326.8c3.5 17.4 20.5 28.6 37.9 25l253.1-63.2 14.5 70c7.1 34.6 30.7 40.1 52.3 12.3z"/><path class="a5" d="m1555.2 647.5l76.6-98.4c21.7-27.8 57.2-73.4 78.8-101.2l76.6-98.3c21.7-27.9 14.1-64.6-16.8-81.6l-109.2-60c-30.9-17-81.5-44.8-112.5-61.8l-109.2-60.1c-30.9-16.9-50.4-2.6-43.3 32l14.5 70-245.1 50.6c-17.4 3.5-28.5 20.5-24.9 37.9l56.8 326.6c3.6 17.3 20.6 28.5 37.9 24.9l253-62.9 14.5 70c7.1 34.6 30.7 40.1 52.3 12.3z"/><path class="a6" d="m1555.2 647.5l76.6-98.4c21.7-27.8 57.2-73.4 78.8-101.2l76.6-98.3c21.7-27.9 14.1-64.6-16.8-81.6l-109.2-60c-30.9-17-81.5-44.8-112.5-61.8l-109.2-60.1c-30.9-16.9-50.4-2.6-43.3 32l14.5 70-245.1 50.6c-17.4 3.5-28.5 20.5-24.9 37.9l57 326.3c3.6 17.3 20.6 28.5 37.9 24.9l252.8-62.6 14.5 70c7.1 34.6 30.7 40.1 52.3 12.3z"/><path class="a7" d="m1555.2 647.5l76.6-98.4c21.7-27.8 57.2-73.4 78.8-101.2l76.6-98.3c21.7-27.9 14.1-64.6-16.8-81.6l-109.2-60c-30.9-17-81.5-44.8-112.5-61.8l-109.2-60.1c-30.9-16.9-50.4-2.6-43.3 32l14.5 70-245.1 50.6c-17.4 3.5-28.5 20.5-24.9 37.9l57.2 326c3.6 17.3 20.5 28.5 37.9 24.9l252.6-62.3 14.5 70c7.1 34.6 30.7 40.1 52.3 12.3z"/><path class="a8" d="m1555.2 647.5l76.6-98.4c21.7-27.8 57.2-73.4 78.8-101.2l76.6-98.3c21.7-27.9 14.1-64.6-16.8-81.6l-109.2-60c-30.9-17-81.5-44.8-112.5-61.8l-109.2-60.1c-30.9-16.9-50.4-2.6-43.3 32l14.5 70-245.1 50.6c-17.4 3.5-28.5 20.5-24.9 37.9l57.4 325.7c3.6 17.4 20.5 28.5 37.9 25l252.4-62.1 14.5 70c7.1 34.6 30.7 40.1 52.3 12.3z"/><path class="a9" d="m1555.2 647.5l76.6-98.4c21.7-27.8 57.2-73.4 78.8-101.2l76.6-98.3c21.7-27.9 14.1-64.6-16.8-81.6l-109.2-60c-30.9-17-81.5-44.8-112.5-61.8l-109.2-60.1c-30.9-16.9-50.4-2.6-43.3 32l14.5 70-245.1 50.6c-17.4 3.5-28.5 20.5-24.9 37.9l57.6 325.4c3.5 17.4 20.5 28.6 37.9 25l252.2-61.8 14.5 70c7.1 34.6 30.7 40.1 52.3 12.3z"/><path class="aa" d="m1555.2 647.5l76.6-98.4c21.7-27.8 57.2-73.4 78.8-101.2l76.6-98.3c21.7-27.9 14.1-64.6-16.8-81.6l-109.2-60c-30.9-17-81.5-44.8-112.5-61.8l-109.2-60.1c-30.9-16.9-50.4-2.6-43.3 32l14.5 70-245.1 50.6c-17.4 3.5-28.5 20.5-24.9 37.9l57.7 325.1c3.6 17.4 20.6 28.6 37.9 25l252.1-61.5 14.5 70c7.1 34.6 30.7 40.1 52.3 12.3z"/><path class="ab" d="m1555.2 647.5l76.6-98.4c21.7-27.8 57.2-73.4 78.8-101.2l76.6-98.3c21.7-27.9 14.1-64.6-16.8-81.6l-109.2-60c-30.9-17-81.5-44.8-112.5-61.8l-109.2-60.1c-30.9-16.9-50.4-2.6-43.3 32l14.5 70-245.1 50.6c-17.4 3.5-28.5 20.5-24.9 37.9l57.9 324.9c3.6 17.3 20.6 28.5 37.9 24.9l251.9-61.2 14.5 70c7.1 34.6 30.7 40.1 52.3 12.3z"/><path class="ac" d="m1555.2 647.5l76.6-98.4c21.7-27.8 57.2-73.4 78.8-101.2l76.6-98.3c21.7-27.9 14.1-64.6-16.8-81.6l-109.2-60c-30.9-17-81.5-44.8-112.5-61.8l-109.2-60.1c-30.9-16.9-50.4-2.6-43.3 32l14.5 70-245.1 50.6c-17.4 3.5-28.5 20.5-24.9 37.9l58.1 324.6c3.6 17.3 20.5 28.5 37.9 24.9l251.7-60.9 14.5 70c7.1 34.6 30.7 40.1 52.3 12.3z"/><path class="ad" d="m1555.2 647.5l76.6-98.4c21.7-27.8 57.2-73.4 78.8-101.2l76.6-98.3c21.7-27.9 14.1-64.6-16.8-81.6l-109.2-60c-30.9-17-81.5-44.8-112.5-61.8l-109.2-60.1c-30.9-16.9-50.4-2.6-43.3 32l14.5 70-245.1 50.6c-17.4 3.5-28.5 20.5-24.9 37.9l58.3 324.3c3.6 17.4 20.5 28.5 37.9 25l251.5-60.7 14.5 70c7.1 34.6 30.7 40.1 52.3 12.3z"/><path class="ae" d="m1555.2 647.5l76.6-98.4c21.7-27.8 57.2-73.4 78.8-101.2l76.6-98.3c21.7-27.9 14.1-64.6-16.8-81.6l-109.2-60c-30.9-17-81.5-44.8-112.5-61.8l-109.2-60.1c-30.9-16.9-50.4-2.6-43.3 32l14.5 70-245.1 50.6c-17.4 3.5-28.5 20.5-24.9 37.9l58.5 324c3.5 17.4 20.5 28.6 37.9 25l251.3-60.4 14.5 70c7.1 34.6 30.7 40.1 52.3 12.3z"/><path class="af" d="m1555.2 647.5l76.6-98.4c21.7-27.8 57.2-73.4 78.8-101.2l76.6-98.3c21.7-27.9 14.1-64.6-16.8-81.6l-109.2-60c-30.9-17-81.5-44.8-112.5-61.8l-109.2-60.1c-30.9-16.9-50.4-2.6-43.3 32l14.5 70-245.1 50.6c-17.4 3.5-28.5 20.5-24.9 37.9l58.6 323.7c3.6 17.4 20.6 28.6 37.9 25l251.2-60.1 14.5 70c7.1 34.6 30.7 40.1 52.3 12.3z"/><path class="ag" d="m1555.2 647.5l76.6-98.4c21.7-27.8 57.2-73.4 78.8-101.2l76.6-98.3c21.7-27.9 14.1-64.6-16.8-81.6l-109.2-60c-30.9-17-81.5-44.8-112.5-61.8l-109.2-60.1c-30.9-16.9-50.4-2.6-43.3 32l14.5 70-245.1 50.6c-17.4 3.5-28.5 20.5-24.9 37.9l58.8 323.5c3.6 17.3 20.6 28.5 37.9 24.9l251-59.8 14.5 70c7.1 34.6 30.7 40.1 52.3 12.3z"/><path class="ah" d="m1555.2 647.5l76.6-98.4c21.7-27.8 57.2-73.4 78.8-101.2l76.6-98.3c21.7-27.9 14.1-64.6-16.8-81.6l-109.2-60c-30.9-17-81.5-44.8-112.5-61.8l-109.2-60.1c-30.9-16.9-50.4-2.6-43.3 32l14.5 70-245.1 50.6c-17.4 3.5-28.5 20.5-24.9 37.9l59 323.2c3.6 17.3 20.5 28.5 37.9 24.9l250.8-59.5 14.5 70c7.1 34.6 30.7 40.1 52.3 12.3z"/><path class="ai" d="m1555.2 647.5l76.6-98.4c21.7-27.8 57.2-73.4 78.8-101.2l76.6-98.3c21.7-27.9 14.1-64.6-16.8-81.6l-109.2-60c-30.9-17-81.5-44.8-112.5-61.8l-109.2-60.1c-30.9-16.9-50.4-2.6-43.3 32l14.5 70-245.1 50.6c-17.4 3.5-28.5 20.5-24.9 37.9l59.2 322.9c3.5 17.3 20.5 28.5 37.9 25l250.6-59.3 14.5 70c7.1 34.6 30.7 40.1 52.3 12.3z"/><path class="aj" d="m1555.2 647.5l76.6-98.4c21.7-27.8 57.2-73.4 78.8-101.2l76.6-98.3c21.7-27.9 14.1-64.6-16.8-81.6l-109.2-60c-30.9-17-81.5-44.8-112.5-61.8l-109.2-60.1c-30.9-16.9-50.4-2.6-43.3 32l14.5 70-245.1 50.6c-17.4 3.5-28.5 20.5-24.9 37.9l59.4 322.6c3.5 17.4 20.5 28.5 37.8 25l250.5-59 14.5 70c7.1 34.6 30.7 40.1 52.3 12.3z"/><path class="ak" d="m1555.2 647.5l76.6-98.4c21.7-27.8 57.2-73.4 78.8-101.2l76.6-98.3c21.7-27.9 14.1-64.6-16.8-81.6l-109.2-60c-30.9-17-81.5-44.8-112.5-61.8l-109.2-60.1c-30.9-16.9-50.4-2.6-43.3 32l14.5 70-245.1 50.6c-17.4 3.5-28.5 20.5-24.9 37.9l59.5 322.3c3.6 17.4 20.6 28.6 37.9 25l250.3-58.7 14.5 70c7.1 34.6 30.7 40.1 52.3 12.3z"/><path class="al" d="m1555.2 647.5l76.6-98.4c21.7-27.8 57.2-73.4 78.8-101.2l76.6-98.3c21.7-27.9 14.1-64.6-16.8-81.6l-109.2-60c-30.9-17-81.5-44.8-112.5-61.8l-109.2-60.1c-30.9-16.9-50.4-2.6-43.3 32l14.5 70-245.1 50.6c-17.4 3.5-28.5 20.5-24.9 37.9l59.7 322.1c3.6 17.3 20.6 28.5 37.9 24.9l250.1-58.4 14.5 70c7.1 34.6 30.7 40.1 52.3 12.3z"/><path class="am" d="m1555.2 647.5l76.6-98.4c21.7-27.8 57.2-73.4 78.8-101.2l76.6-98.3c21.7-27.9 14.1-64.6-16.8-81.6l-109.2-60c-30.9-17-81.5-44.8-112.5-61.8l-109.2-60.1c-30.9-16.9-50.4-2.6-43.3 32l14.5 70-245.1 50.6c-17.4 3.5-28.5 20.5-24.9 37.9l59.9 321.8c3.6 17.3 20.5 28.5 37.9 24.9l249.9-58.1 14.5 70c7.1 34.6 30.7 40.1 52.3 12.3z"/><path class="an" d="m1555.2 647.5l76.6-98.4c21.7-27.8 57.2-73.4 78.8-101.2l76.6-98.3c21.7-27.9 14.1-64.6-16.8-81.6l-109.2-60c-30.9-17-81.5-44.8-112.5-61.8l-109.2-60.1c-30.9-16.9-50.4-2.6-43.3 32l14.5 70-245.1 50.6c-17.4 3.5-28.5 20.5-24.9 37.9l60.1 321.5c3.5 17.3 20.5 28.5 37.9 24.9l249.7-57.8 14.5 70c7.1 34.6 30.7 40.1 52.3 12.3z"/><path class="ao" d="m1555.2 647.5l76.6-98.4c21.7-27.8 57.2-73.4 78.8-101.2l76.6-98.3c21.7-27.9 14.1-64.6-16.8-81.6l-109.2-60c-30.9-17-81.5-44.8-112.5-61.8l-109.2-60.1c-30.9-16.9-50.4-2.6-43.3 32l14.5 70-245.1 50.6c-17.4 3.5-28.5 20.5-24.9 37.9l60.3 321.2c3.5 17.4 20.5 28.5 37.8 25l249.6-57.6 14.5 70c7.1 34.6 30.7 40.1 52.3 12.3z"/><path class="ap" d="m1555.2 647.5l76.6-98.4c21.7-27.8 57.2-73.4 78.8-101.2l76.6-98.3c21.7-27.9 14.1-64.6-16.8-81.6l-109.2-60c-30.9-17-81.5-44.8-112.5-61.8l-109.2-60.1c-30.9-16.9-50.4-2.6-43.3 32l14.5 70-245.1 50.6c-17.4 3.5-28.5 20.5-24.9 37.9l60.4 320.9c3.6 17.4 20.6 28.6 37.9 25l249.4-57.3 14.5 70c7.1 34.6 30.7 40.1 52.3 12.3z"/><path class="aq" d="m1555.2 647.5l76.6-98.4c21.7-27.8 57.2-73.4 78.8-101.2l76.6-98.3c21.7-27.9 14.1-64.6-16.8-81.6l-109.2-60c-30.9-17-81.5-44.8-112.5-61.8l-109.2-60.1c-30.9-16.9-50.4-2.6-43.3 32l14.5 70-245.1 50.6c-17.4 3.5-28.5 20.5-24.9 37.9l60.6 320.6c3.6 17.4 20.6 28.6 37.9 25l249.2-57 14.5 70c7.1 34.6 30.7 40.1 52.3 12.3z"/><path class="ar" d="m1555.2 647.5l76.6-98.4c21.7-27.8 57.2-73.4 78.8-101.2l76.6-98.3c21.7-27.9 14.1-64.6-16.8-81.6l-109.2-60c-30.9-17-81.5-44.8-112.5-61.8l-109.2-60.1c-30.9-16.9-50.4-2.6-43.3 32l14.5 70-245.1 50.6c-17.4 3.5-28.5 20.5-24.9 37.9l60.8 320.4c3.6 17.3 20.5 28.5 37.9 24.9l249-56.7 14.5 70c7.1 34.6 30.7 40.1 52.3 12.3z"/><path class="as" d="m1555.2 647.5l76.6-98.4c21.7-27.8 57.2-73.4 78.8-101.2l76.6-98.3c21.7-27.9 14.1-64.6-16.8-81.6l-109.2-60c-30.9-17-81.5-44.8-112.5-61.8l-109.2-60.1c-30.9-16.9-50.4-2.6-43.3 32l14.5 70-245.1 50.6c-17.4 3.5-28.5 20.5-24.9 37.9l61 320.1c3.5 17.3 20.5 28.5 37.9 24.9l248.8-56.4 14.5 70c7.1 34.6 30.7 40.1 52.3 12.3z"/><path class="at" d="m1555.2 647.5l76.6-98.4c21.7-27.8 57.2-73.4 78.8-101.2l76.6-98.3c21.7-27.9 14.1-64.6-16.8-81.6l-109.2-60c-30.9-17-81.5-44.8-112.5-61.8l-109.2-60.1c-30.9-16.9-50.4-2.6-43.3 32l14.5 70-245.1 50.6c-17.4 3.5-28.5 20.5-24.9 37.9l61.2 319.8c3.5 17.4 20.5 28.5 37.8 25l248.7-56.2 14.5 70c7.1 34.6 30.7 40.1 52.3 12.3z"/><path class="au" d="m1555.2 647.5l76.6-98.4c21.7-27.8 57.2-73.4 78.8-101.2l76.6-98.3c21.7-27.9 14.1-64.6-16.8-81.6l-109.2-60c-30.9-17-81.5-44.8-112.5-61.8l-109.2-60.1c-30.9-16.9-50.4-2.6-43.3 32l14.5 70-245.1 50.6c-17.4 3.5-28.5 20.5-24.9 37.9l61.3 319.5c3.6 17.4 20.6 28.6 37.9 25l248.5-55.9 14.5 70c7.1 34.6 30.7 40.1 52.3 12.3z"/><path class="av" d="m1555.2 647.5l76.6-98.4c21.7-27.8 57.2-73.4 78.8-101.2l76.6-98.3c21.7-27.9 14.1-64.6-16.8-81.6l-109.2-60c-30.9-17-81.5-44.8-112.5-61.8l-109.2-60.1c-30.9-16.9-50.4-2.6-43.3 32l14.5 70-245.1 50.6c-17.4 3.5-28.5 20.5-24.9 37.9l61.5 319.2c3.6 17.4 20.5 28.6 37.9 25l248.3-55.6 14.5 70c7.1 34.6 30.7 40.1 52.3 12.3z"/><path class="aw" d="m1555.2 647.5l76.6-98.4c21.7-27.8 57.2-73.4 78.8-101.2l76.6-98.3c21.7-27.9 14.1-64.6-16.8-81.6l-109.2-60c-30.9-17-81.5-44.8-112.5-61.8l-109.2-60.1c-30.9-16.9-50.4-2.6-43.3 32l14.5 70-245.1 50.6c-17.4 3.5-28.5 20.5-24.9 37.9l61.7 319c3.6 17.3 20.5 28.5 37.9 24.9l248.1-55.3 14.5 70c7.1 34.6 30.7 40.1 52.3 12.3z"/><path class="ax" d="m1555.2 647.5l76.6-98.4c21.7-27.8 57.2-73.4 78.8-101.2l76.6-98.3c21.7-27.9 14.1-64.6-16.8-81.6l-109.2-60c-30.9-17-81.5-44.8-112.5-61.8l-109.2-60.1c-30.9-16.9-50.4-2.6-43.3 32l14.5 70-245.1 50.6c-17.4 3.5-28.5 20.5-24.9 37.9l61.9 318.7c3.5 17.3 20.5 28.5 37.9 24.9l247.9-55 14.5 70c7.1 34.6 30.7 40.1 52.3 12.3z"/><path class="ay" d="m1555.2 647.5l76.6-98.4c21.7-27.8 57.2-73.4 78.8-101.2l76.6-98.3c21.7-27.9 14.1-64.6-16.8-81.6l-109.2-60c-30.9-17-81.5-44.8-112.5-61.8l-109.2-60.1c-30.9-16.9-50.4-2.6-43.3 32l14.5 70-245.1 50.6c-17.4 3.5-28.5 20.5-24.9 37.9l62 318.4c3.6 17.4 20.6 28.5 37.9 25l247.8-54.8 14.5 70c7.1 34.6 30.7 40.1 52.3 12.3z"/><path class="az" d="m1555.2 647.5l76.6-98.4c21.7-27.8 57.2-73.4 78.8-101.2l76.6-98.3c21.7-27.9 14.1-64.6-16.8-81.6l-109.2-60c-30.9-17-81.5-44.8-112.5-61.8l-109.2-60.1c-30.9-16.9-50.4-2.6-43.3 32l14.5 70-245.1 50.6c-17.4 3.5-28.5 20.5-24.9 37.9l62.2 318.1c3.6 17.4 20.6 28.5 37.9 25l247.6-54.5 14.5 70c7.1 34.6 30.7 40.1 52.3 12.3z"/><path class="aA" d="m1555.2 647.5l76.6-98.4c21.7-27.8 57.2-73.4 78.8-101.2l76.6-98.3c21.7-27.9 14.1-64.6-16.8-81.6l-109.2-60c-30.9-17-81.5-44.8-112.5-61.8l-109.2-60.1c-30.9-16.9-50.4-2.6-43.3 32l14.5 70-245.1 50.6c-17.4 3.5-28.5 20.5-24.9 37.9l62.4 317.8c3.6 17.4 20.5 28.6 37.9 25l247.4-54.2 14.5 70c7.1 34.6 30.7 40.1 52.3 12.3z"/><path class="aB" d="m1555.2 647.5l76.6-98.4c21.7-27.8 57.2-73.4 78.8-101.2l76.6-98.3c21.7-27.9 14.1-64.6-16.8-81.6l-109.2-60c-30.9-17-81.5-44.8-112.5-61.8l-109.2-60.1c-30.9-16.9-50.4-2.6-43.3 32l14.5 70-245.1 50.6c-17.4 3.5-28.5 20.5-24.9 37.9l62.6 317.6c3.6 17.3 20.5 28.5 37.9 24.9l247.2-53.9 14.5 70c7.1 34.6 30.7 40.1 52.3 12.3z"/><path class="aC" d="m1555.2 647.5l76.6-98.4c21.7-27.8 57.2-73.4 78.8-101.2l76.6-98.3c21.7-27.9 14.1-64.6-16.8-81.6l-109.2-60c-30.9-17-81.5-44.8-112.5-61.8l-109.2-60.1c-30.9-16.9-50.4-2.6-43.3 32l14.5 70-245.1 50.6c-17.4 3.5-28.5 20.5-24.9 37.9l62.8 317.3c3.5 17.3 20.5 28.5 37.9 24.9l247-53.6 14.5 70c7.1 34.6 30.7 40.1 52.3 12.3z"/><path class="aD" d="m1555.2 647.5l76.6-98.4c21.7-27.8 57.2-73.4 78.8-101.2l76.6-98.3c21.7-27.9 14.1-64.6-16.8-81.6l-109.2-60c-30.9-17-81.5-44.8-112.5-61.8l-109.2-60.1c-30.9-16.9-50.4-2.6-43.3 32l14.5 70-245.1 50.6c-17.4 3.5-28.5 20.5-24.9 37.9l62.9 317c3.6 17.3 20.6 28.5 37.9 24.9l246.9-53.3 14.5 70c7.1 34.6 30.7 40.1 52.3 12.3z"/><path class="aE" d="m1555.2 647.5l76.6-98.4c21.7-27.8 57.2-73.4 78.8-101.2l76.6-98.3c21.7-27.9 14.1-64.6-16.8-81.6l-109.2-60c-30.9-17-81.5-44.8-112.5-61.8l-109.2-60.1c-30.9-16.9-50.4-2.6-43.3 32l14.5 70-245.1 50.6c-17.4 3.5-28.5 20.5-24.9 37.9l63.1 316.7c3.6 17.4 20.6 28.5 37.9 25l246.7-53.1 14.5 70c7.1 34.6 30.7 40.1 52.3 12.3z"/><path class="aF" d="m1555.2 647.5l76.6-98.4c21.7-27.8 57.2-73.4 78.8-101.2l76.6-98.3c21.7-27.9 14.1-64.6-16.8-81.6l-109.2-60c-30.9-17-81.5-44.8-112.5-61.8l-109.2-60.1c-30.9-16.9-50.4-2.6-43.3 32l14.5 70-245.1 50.6c-17.4 3.5-28.5 20.5-24.9 37.9l63.3 316.4c3.6 17.4 20.5 28.6 37.9 25l246.5-52.8 14.5 70c7.1 34.6 30.7 40.1 52.3 12.3z"/><path class="aG" d="m1555.2 647.5l76.6-98.4c21.7-27.8 57.2-73.4 78.8-101.2l76.6-98.3c21.7-27.9 14.1-64.6-16.8-81.6l-109.2-60c-30.9-17-81.5-44.8-112.5-61.8l-109.2-60.1c-30.9-16.9-50.4-2.6-43.3 32l14.5 70-245.1 50.6c-17.4 3.5-28.5 20.5-24.9 37.9l63.5 316.1c3.6 17.4 20.5 28.6 37.9 25l246.3-52.5 14.5 70c7.1 34.6 30.7 40.1 52.3 12.3z"/><path class="aH" d="m1555.2 647.5l76.6-98.4c21.7-27.8 57.2-73.4 78.8-101.2l76.6-98.3c21.7-27.9 14.1-64.6-16.8-81.6l-109.2-60c-30.9-17-81.5-44.8-112.5-61.8l-109.2-60.1c-30.9-16.9-50.4-2.6-43.3 32l14.5 70-245.1 50.6c-17.4 3.5-28.5 20.5-24.9 37.9l63.7 315.9c3.5 17.3 20.5 28.5 37.9 24.9l246.1-52.2 14.5 70c7.1 34.6 30.7 40.1 52.3 12.3z"/><path class="aI" d="m1555.2 647.5l76.6-98.4c21.7-27.8 57.2-73.4 78.8-101.2l76.6-98.3c21.7-27.9 14.1-64.6-16.8-81.6l-109.2-60c-30.9-17-81.5-44.8-112.5-61.8l-109.2-60.1c-30.9-16.9-50.4-2.6-43.3 32l14.5 70-245.1 50.6c-17.4 3.5-28.5 20.5-24.9 37.9l63.8 315.6c3.6 17.3 20.6 28.5 37.9 24.9l246-51.9 14.5 70c7.1 34.6 30.7 40.1 52.3 12.3z"/><path class="aJ" d="m1555.2 647.5l76.6-98.4c21.7-27.8 57.2-73.4 78.8-101.2l76.6-98.3c21.7-27.9 14.1-64.6-16.8-81.6l-109.2-60c-30.9-17-81.5-44.8-112.5-61.8l-109.2-60.1c-30.9-16.9-50.4-2.6-43.3 32l14.5 70-245.1 50.6c-17.4 3.5-28.5 20.5-24.9 37.9l64 315.3c3.6 17.4 20.6 28.5 37.9 25l245.8-51.7 14.5 70c7.1 34.6 30.7 40.1 52.3 12.3z"/><path class="aK" d="m1555.2 647.5l76.6-98.4c21.7-27.8 57.2-73.4 78.8-101.2l76.6-98.3c21.7-27.9 14.1-64.6-16.8-81.6l-109.2-60c-30.9-17-81.5-44.8-112.5-61.8l-109.2-60.1c-30.9-16.9-50.4-2.6-43.3 32l14.5 70-245.1 50.6c-17.4 3.5-28.5 20.5-24.9 37.9l64.2 315c3.6 17.4 20.5 28.6 37.9 25l245.6-51.4 14.5 70c7.1 34.6 30.7 40.1 52.3 12.3z"/><path class="aL" d="m1555.2 647.5l76.6-98.4c21.7-27.8 57.2-73.4 78.8-101.2l76.6-98.3c21.7-27.9 14.1-64.6-16.8-81.6l-109.2-60c-30.9-17-81.5-44.8-112.5-61.8l-109.2-60.1c-30.9-16.9-50.4-2.6-43.3 32l14.5 70-245.1 50.6c-17.4 3.5-28.5 20.5-24.9 37.9l64.4 314.7c3.6 17.4 20.5 28.6 37.9 25l245.4-51.1 14.5 70c7.1 34.6 30.7 40.1 52.3 12.3z"/><path class="aM" d="m1555.2 647.5l76.6-98.4c21.7-27.8 57.2-73.4 78.8-101.2l76.6-98.3c21.7-27.9 14.1-64.6-16.8-81.6l-109.2-60c-30.9-17-81.5-44.8-112.5-61.8l-109.2-60.1c-30.9-16.9-50.4-2.6-43.3 32l14.5 70-245.1 50.6c-17.4 3.5-28.5 20.5-24.9 37.9l64.6 314.5c3.5 17.3 20.5 28.5 37.9 24.9l245.2-50.8 14.5 70c7.1 34.6 30.7 40.1 52.3 12.3z"/><path  d="m1555.2 647.5l76.6-98.4c21.7-27.8 57.2-73.4 78.8-101.2l76.6-98.3c21.7-27.9 14.1-64.6-16.8-81.6l-109.2-60c-30.9-17-81.5-44.8-112.5-61.8l-109.2-60.1c-30.9-16.9-50.4-2.6-43.3 32l14.5 70-245.1 50.6c-17.4 3.5-28.5 20.5-24.9 37.9l64.7 314.2c3.6 17.3 20.6 28.5 37.9 24.9l245.1-50.5 14.5 70c7.1 34.6 30.7 40.1 52.3 12.3z"/></g><path class="aN" d="m1555.2 647.5l76.6-98.4c21.7-27.8 57.2-73.4 78.8-101.2l76.6-98.3c21.7-27.9 14.1-64.6-16.8-81.6l-109.2-60c-30.9-17-81.5-44.8-112.5-61.8l-109.2-60.1c-30.9-16.9-50.4-2.6-43.3 32l14.5 70-245.1 50.6c-17.4 3.5-28.5 20.5-24.9 37.9l64.7 314.2c3.6 17.3 20.6 28.5 37.9 24.9l245.1-50.5 14.5 70c7.1 34.6 30.7 40.1 52.3 12.3z"/><path class="av" d="m1233.7 375.2l4.9-1 0.5 3-4.1 1q0.1 5.6-1.3 9.3-1.3 3.6-5.2 8.4-4 4.8-10.1 8.7-6.1 3.9-10.5 4.8-4.4 0.8-7.1-0.4-2.6-1.4-3.2-4.3-0.9-4.4 3.4-9.9 4.3-5.6 11.1-10 6.9-4.6 14-7.2-1.5-1.6-4.1-2.4-2.6-0.7-8.4-1.1-3.3-0.3-3.6-2.2-0.3-1.1 0.5-2.2 0.8-1.2 2.7-2.9 2-1.9 3.7-3.7 1.8-1.8 3.8-4.3 2.1-2.5 3.4-5 1.2-2.4 0.9-4-0.5-2.7-3.2-2.2-2.1 0.4-5.2 3.1-3.2 2.7-6 6.4l-1.2 11q-1.2 11.7-4.2 18.5-2.9 6.9-6.6 7.6-4 0.8-5-4-1-4.9 2.2-13.4 3.2-8.6 10-18.3 0-0.1 0.1-1.5 0.2-1.4 0.3-2.9 0.5-4.4 0.9-5.7l3.9-0.1q0.3 1.4 0.1 3.6 3.6-4.1 7.8-7.4 4.4-3.4 6.6-3.9 2.3-0.5 3.9 0.7 1.7 1.1 2.2 3.9 0.6 2.6-1.3 6.7-1.8 4-5.1 7.6-5.9 6.6-10.3 9.8 8.2-0.3 12.3 1 4 1.2 6.5 4.9zm-33.9 11.4q2.1-0.4 4.2-11.1 0.9-4.7 1.1-7.8 0.4-3 0.3-3.3-3.2 5.3-5.4 11.8-2.2 6.4-1.6 9 0.3 1.6 1.4 1.4zm23.1 9.6q3.2-3.2 4.8-6.8 1.6-3.6 1-6.3-0.2-1.3-0.9-2.5-11.1 3.6-17.6 9.8-6.5 6.1-5.6 10.3 0.3 1.8 2 2.6 1.7 0.8 4.2 0.3 6.2-1.2 12.1-7.4zm42.6-22.4l2.1 1q-1.7 3.8-5.4 6.8-3.7 3-7.6 3.8-3.9 0.8-6.7-1-2.8-1.8-3.6-5.6-1.4-7 4.6-15.3 6.1-8.3 13.8-9.8 5-1 5.8 2.9 0.8 4.1-3.7 9.4-4.4 5.3-13.3 10.7 1 1.6 2.7 2.3 1.6 0.7 3.2 0.4 3.2-0.7 8.1-5.6zm-14.9 0.6q5.8-3.3 9.6-7.4 3.8-4.1 3.2-6.8-0.2-1-1.1-1.6-0.9-0.6-1.9-0.4-3.6 0.7-6.9 6.1-3.2 5.2-2.9 10.1zm21.6 0.4l3.5-2.6q0.3 1.3 1.4 2.1 1.3 0.8 2.7 0.5 6.5-1.3 11.3-20 0.3-1.1 0.7-2.5 0.3-1.4 0.5-2.1 0.2-0.7 0.4-1.6 0.3-1 0.4-1.4 0.2-0.5 0.5-1 0.5-0.8 1.3-0.9 1-0.2 1.8 0.5 0.9 0.7 1.1 1.8 0.2 1.1-1 10.1-1.1 8.8-0.8 10.6 0.4 1.8 1.2 2.5 1 0.6 1.7 0.5 0.7-0.2 1.1-0.3 0.3-0.2 0.7-0.5 0.3-0.3 0.5-0.5 0.3-0.2 0.6-0.6l0.4-0.8q0.2-0.2 0.5-0.7 0.3-0.6 0.5-0.8l1.8 1q-0.6 3.4-3 6.2-2.3 2.8-4.6 3.2-2.2 0.5-3.8-0.8-1.6-1.3-2.1-3.8-0.5-2.5-0.5-6.7-2.4 6.2-6 10-3.6 3.6-6.2 4.2-2.6 0.5-4.3-1.2-1.7-1.6-2.3-4.4zm71.9-16.8l1.8 1q-0.6 3.5-3 6.3-2.3 2.7-4.6 3.2-2.2 0.4-3.8-0.8-1.6-1.4-2.1-3.9-0.5-2.5-0.5-6.6-2.5 6.3-5.9 10.4-3.5 4-6.3 4.6-4.3 0.8-5.3-4.3-1.1-5.1 0.7-14.4 1.8-9.4 3.1-11l4 0.9q-2.1 5.7-2.7 10.9-0.6 5.2-0.3 6.9 0.3 1.6 1.5 2.4 1.3 0.7 2.7 0.5 3-0.7 6.4-7.1 3.4-6.6 5.9-18.7l4.3 1q-0.1 0.6-1.8 9.5-1.6 8.9-1.3 10.6 0.4 1.6 1.2 2.3 1 0.7 1.6 0.6 0.8-0.2 1.2-0.4 0.3-0.1 0.7-0.4 0.3-0.3 0.5-0.5 0.3-0.2 0.6-0.7l0.4-0.7q0.2-0.2 0.5-0.7 0.3-0.7 0.5-0.9zm33.9-6.3l2.3 1.3q-3 8.1-7.9 9.1-2.9 0.6-6.6-2.5-3.6-3.1-4.9-6.4-0.3 1-1.7 5-1.4 4-1.9 6.5l-4.9-0.7q-0.3-9.7 0.3-18.5 0.7-8.8 2.1-12.6l3.3 0.4q-0.6 3.8-0.8 19.6 2.5-9.5 5.9-14.3 3.5-4.9 8.4-7.2l1 5q-5.5 1.3-9.1 9.6 1.3 4.9 4.5 7.6 3.4 2.8 5.7 2.3 1.2-0.3 4.3-4.2zm20.7-17.7l3.7-2q2.7 2.9 3.5 6.8 1.2 6.2-2.1 12-3.3 5.6-9.1 6.8-4.4 0.9-7.4-1.1-3-2.1-3.9-6.6-1.5-7.3 3-14.1 4.5-7 11.5-8.4 1.3-0.3 1.9-0.3l0.7 2.5q-6.1 1.2-9.4 5.5-3.4 4.4-2.3 9.9 0.7 3.2 2.7 5 2 1.6 5.1 1 3.1-0.6 4.4-3.7 1.2-3.1 0.5-6.8-0.8-3.7-2.8-6.5zm73.2-36.4l-11 2q-16.7 3.4-15.2 10.7 0.4 1.9 2 2.9 1.7 0.8 4.5 0.2 2.8-0.5 6.9-4.1l1.5 1.8q-1.9 3-4.5 5-2.7 2.1-5.7 2.7-3 0.6-5.5-1-2.5-1.5-3.1-4.5-1.3-6 4.3-11.8 5.7-5.9 16.8-8.1 0.2 0 4.9-0.8 12.9-1.7 18.3-2.8 12-2.5 14.5-4.1 1-0.5 1.2-0.5 1.1-0.3 1.4 1.5 0.4 1.7-1.8 3.5-2.1 1.9-6.4 2.8-2.1 2-3.8 7.3-1.6 5.3-2.3 14.6-0.7 9.3 0 12.7 0.7 3.4 2.6 4.5 2.1 1 5.9 1l-1.1 3.1q-1.9 0.6-2.9 0.8-3.6 0.7-6.1-1.3-2.4-2-3.2-6.2-1.6-8 0.4-19.3 2-11.3 5.7-16.4l-4.7 1q-2.2 3.3-3.3 7.4-1 4-1.5 9.4-0.4 5.4-0.5 7.5-0.2 2-0.6 5.4-0.4 3.4-0.7 5-0.4 1.5-0.9 3.8-0.6 2.4-1.3 3.5-0.7 1-1.7 2.3-1.6 2.1-5.1 2.8l-0.5-3.9q3.4-1.3 4.2-4.5 1-3.2 2.1-15.2 1.2-12 2-15.1 0.8-3.2 4.2-7.6l-4.5 1-0.9 0.2q-4 5.9-5.4 18.8-1.3 12.9-5.2 20.4-3.9 7.4-11.1 8.8-2.8 0.6-5.7-0.7l1.1-3.3q2.4 0.7 4.5 0.2 3.9-0.7 6.1-5 2.3-4.3 3.5-15.1 1.3-10.9 2.5-14.5 1.2-3.8 5.1-8.8zm43.1 19.1q5.6-4 8.3-4.5 2.7-0.6 3.9 0.1 1.1 0.6 1.5 2.4 1 4.9-3.7 10.9-4.7 6-9.9 7.1-2.2 0.4-3.8-0.5-1.5-1-1.9-2.9-0.4-1.9 1.1-9.9 1.5-8 1-10.3-0.6-2.9-3.3-2.4-1.6 0.4-2.9 1.7-1.1 1.3-2.2 2.5-1 1-1.3 1.3l-1.6-2.3q2.3-3.1 5.2-5.3 3-2.3 5.3-2.7 5-1.1 5.6 2 0.5 2.4-1.3 12.8zm3.6 10.5q1.5-0.3 3.2-2.3 1.8-2.1 2.1-3.9 0.4-2 0.3-2.7-0.7-2.1-4.1-1.4-1.7 0.3-5.5 2.5-0.2 4 0 5.1 0.2 1.1 1.4 2.1 1.1 0.9 2.6 0.6zm24-14.5q4-9.9 7.6-13.9 3.7-4.1 6.9-4.7 3.2-0.7 5.3 1 2.2 1.5 2.8 4.5 1.6 8.2-2.9 16.5-4.5 8.1-11.9 9.6-3.3 0.6-5.4-0.1l1.2-3.7q4.1-0.2 5-0.4 4.2-0.9 6.8-6.4 2.6-5.5 1.6-10.6-0.4-1.9-1.8-2.9-1.3-1-3.1-0.7-4.2 0.9-8 9.3-3.8 8.5-6.2 20.4-2.4 11.9-3.3 24.9l-4.9-0.7q0-0.4 1.2-8.4 1.2-8 2.3-15.9 3.1-21.6 2.8-23.5-1-4.8-3.8-8.4l3.4-2.7q3 2.8 3.8 6.5 0.7 3.6 0.6 10.3zm55.5-27.5l3.1 0.1q0 0.5-1.3 5.1-1.2 4.4-2.3 11.5-1 7.1-0.3 13.9l-5 0.6q-0.8-4.2 0.5-11.3-0.7 0-2.8 0.5-2.1 0.4-7.5 2.5-2.1 9.5-0.9 15.7l-5.2 0.3q-1.1-5.4 1.3-14.2-3.7 1.4-7.4 3.4l-1.3-2.8q-0.1-0.2 3.7-2.1 3.9-1.9 5.9-2.6 3.2-15.3 5-17.9l3.6 0.6q-0.3 0.8-1.1 3.8-2.1 7.3-2.6 11.3 6.5-2 7.8-2.3 1.4-0.3 2.3-0.4 2.9-13.3 4.5-15.7zm25.8 3.3l3.7-2q2.7 2.9 3.5 6.9 1.2 6.1-2 11.9-3.3 5.7-9.1 6.8-4.5 0.9-7.5-1.1-3-2.1-3.9-6.6-1.4-7.2 3.1-14.1 4.4-6.9 11.5-8.4 1.2-0.2 1.8-0.2l0.7 2.4q-6.1 1.3-9.4 5.6-3.3 4.3-2.2 9.8 0.6 3.3 2.6 5 2.1 1.7 5.1 1.1 3.1-0.7 4.4-3.8 1.3-3.1 0.5-6.8-0.7-3.7-2.8-6.5zm17.7-6.1q-0.1 9 0.6 13 1.1 5.4 4.2 4.8 3.4-0.7 5.5-4.1 2.1-3.5 1.3-7.4-0.8-3.8-3.7-3.3-0.8 0.2-3.5 1.8l-1.3-2.1q4.2-4.5 7-5 5.2-1.1 6.3 4.2 1.3 6.2-2.6 13.6-3.9 7.4-9.5 8.5-6.2 1.3-8-7.6-0.8-4.2-0.4-14.3l-5.7 3.5-0.5-1.8q0.7-0.6 6.4-4.2-0.5-15.8 2.9-22.8 3.3-7.1 10.3-8.5 3.2-0.7 5.5 1 2.4 1.7 3 5 1.3 6.5-3.5 13.5-4.9 6.8-14.3 12.2zm0-2.4q6-4.4 9.5-9.6 3.5-5.1 2.8-8.6-0.4-1.9-1.7-2.8-1.3-0.9-2.9-0.6-3.2 0.7-5.4 5.8-2.3 5.1-2.3 15.8zm42.8-3.7l3.7-2q2.6 2.9 3.4 6.9 1.3 6.1-2 11.9-3.3 5.7-9.1 6.8-4.4 0.9-7.5-1.1-2.9-2.1-3.8-6.6-1.5-7.2 3-14.1 4.5-6.9 11.5-8.4 1.3-0.2 1.8-0.2l0.8 2.4q-6.1 1.3-9.5 5.6-3.3 4.3-2.2 9.8 0.7 3.3 2.7 5 2 1.7 5 1.1 3.2-0.7 4.4-3.8 1.3-3.1 0.6-6.8-0.8-3.7-2.8-6.5zm11.1 17.5q-0.3-1.4 0.5-2.5 0.9-1.2 2.3-1.5 1.6-0.3 2.6 0.4 1 0.7 1.3 2.2 0.7 3.3-4.3 8.7l-2.1-2.1q2.5-3.1 2.6-3.3-2.6-0.2-2.9-1.9zm-453.3 179.8l1.8 0.9q-1 3.7-3.5 6.6-2.5 2.8-4.8 3.3-2.4 0.5-4-0.6-1.7-1.1-2.1-3.1-0.4-2.1 1.1-7.7 1.7-5.8 1.2-8.2-0.2-1.1-1.3-1.7-1-0.8-2.3-0.5-3.9 0.7-6.6 7.5-2.8 6.7-5.4 18.8l-4.9-0.7q-0.4-9.1 0.6-18.1 1-9 2.6-13.1l3.3 0.4q-1 5.8-1.6 19.7 6.9-20.1 15.7-21.9 1.9-0.4 3.4 0.7 1.6 1 1.9 2.8 0.4 1.7 0.2 3.3-0.2 1.4-1.6 7.1-1.3 5.6-1 6.9 0.2 1.3 1.1 1.9 0.9 0.6 1.6 0.4 0.7-0.1 1.1-0.4 0.4-0.4 0.9-0.9 0.5-0.6 0.9-1.1 0.4-0.5 0.8-1.2 0.6-0.8 0.9-1.1zm38-6.1l2 1q-0.6 2.5-3.1 5.1-2.4 2.6-4.8 3.1-4.5 0.9-5.5-3.8-0.4-2.2 0.1-5.5l-2.2 3.5q-3.3 5-6 7.1-2.7 2-5.6 2.6-2.9 0.6-4.8-0.7-1.8-1.4-2.3-4.3-1.1-5.3 2-11.4 3-6.1 8.8-10.6 5.7-4.6 12.1-6l0.7 2.5-3.1 1.3q-6.6 3-11.1 8.6-4.3 5.7-3.4 10.2 0.9 4.5 4.6 3.8 3.4-0.7 7.5-6.5 4.1-5.8 6.1-13l3.6 1.3q-2.8 10.5-2.3 13 0.2 1.1 1.1 1.7 0.9 0.6 1.6 0.4 0.7-0.1 0.9-0.2 0.2-0.2 0.5-0.3 0.2-0.2 0.4-0.5 0.4-0.3 0.5-0.6 0.3-0.2 0.8-0.8 0.5-0.6 0.9-1zm14.6-9.5q4.1-9.9 7.7-13.9 3.6-4.1 6.8-4.7 3.2-0.7 5.4 1 2.1 1.5 2.7 4.5 1.7 8.2-2.8 16.5-4.5 8.1-11.9 9.6-3.3 0.6-5.4-0.1l1.1-3.7q4.2-0.2 5.1-0.4 4.1-0.9 6.7-6.4 2.7-5.5 1.6-10.6-0.3-1.9-1.7-2.9-1.4-1-3.1-0.7-4.2 0.9-8.1 9.3-3.7 8.5-6.2 20.4-2.3 11.9-3.3 24.9l-4.9-0.7q0.1-0.4 1.3-8.4 1.2-8 2.3-15.9 3.1-21.6 2.7-23.5-1-4.9-3.7-8.4l3.4-2.7q3 2.8 3.8 6.5 0.7 3.6 0.5 10.3zm56.5-5.7l2.3 1.3q-3 8.2-7.9 9.2-2.9 0.6-6.6-2.5-3.6-3.1-4.9-6.4-0.3 0.9-1.7 5-1.4 4-1.9 6.4l-4.9-0.6q-0.3-9.7 0.3-18.5 0.7-8.8 2.1-12.6l3.3 0.4q-0.6 3.8-0.8 19.6 2.5-9.5 6-14.3 3.4-4.9 8.3-7.2l1 5q-5.5 1.3-9.1 9.5 1.3 4.9 4.5 7.7 3.4 2.7 5.7 2.3 1.2-0.3 4.3-4.3zm98.4-58.6l5.3 1.4q-3.3 8.9-8.7 16.4-5.4 7.5-15.3 15.9 4.4 10.6 8.9 16.7 4.5 6 9.6 5.7l0.7 3.5q-0.5 0.2-1.5 0.4-5.2 1.1-11.4-5-6.2-6.2-12.8-19.3-1.2 11-6.7 18.3-5.5 7.3-12.7 8.8-3.8 0.8-6.6-0.7-2.8-1.6-3.5-5.1-0.7-3.6 1.7-8.1 2.4-4.4 7.5-8.1l2.3 2.3q-5.9 6.3-5 10.6 0.4 2 2 3.1 1.7 0.9 3.9 0.5 5.2-1.1 8-6.2 2.9-5.2 3.7-16.8 0.9-14.5 4-19.6 1.3-2.3 4.2-5.4-5.2 1.2-10.4 4-5.2 2.7-8.6 6.9-3.5 4-2.7 8 1 5.1 6.3 7.2l-1 2.7q-4.7-1.2-7.8-4-3.1-2.8-3.8-6.3-1-4.8 3.4-10.2 4.4-5.3 11.6-9.2 7.2-3.9 14.6-5.4 4.6-1 5 1 0.2 1.3-2 3.9-4.2 4.6-5.7 11-1.4 6.4-1.5 14.6 8.1-4.9 14.5-14 6.5-9 10.5-19.5zm25.8 31.1l2.2 1.2q-1 4.5-4.5 7.9-3.6 3.3-7.4 4.1-3.7 0.7-6.7-1.1-2.9-1.9-3.8-6-0.8-4.1 1.8-9.7 2.6-5.5 7.6-9.8 5.1-4.3 10.6-5.4 0.8-0.1 2.3-0.3l0.4 3.1q-8.3 2-12.9 7.9-4.6 5.8-3.5 11.2 0.5 2.2 2.1 3.3 1.7 1.1 3.9 0.6 3.5-0.7 7.9-7zm40.9-6.2l1.8 0.9q-0.6 3.5-3 6.3-2.3 2.8-4.6 3.2-2.2 0.5-3.8-0.8-1.6-1.3-2.1-3.9-0.5-2.5-0.5-6.6-2.5 6.4-5.9 10.4-3.5 4-6.3 4.6-4.3 0.9-5.3-4.3-1.1-5.1 0.7-14.4 1.8-9.4 3.1-10.9l4 0.8q-2.1 5.7-2.7 10.9-0.6 5.2-0.3 6.9 0.3 1.6 1.5 2.4 1.3 0.7 2.7 0.5 3-0.6 6.4-7.1 3.4-6.6 5.9-18.7l4.3 1q-0.1 0.6-1.8 9.5-1.6 8.9-1.2 10.6 0.3 1.6 1.1 2.3 1 0.7 1.7 0.6 0.7-0.2 1.1-0.3 0.3-0.2 0.7-0.5 0.3-0.3 0.5-0.5 0.3-0.2 0.6-0.7l0.4-0.7q0.2-0.2 0.5-0.7 0.3-0.7 0.5-0.8zm10.3 0.2l3.4-2.7q0.3 1.4 1.5 2.2 1.2 0.8 2.6 0.5 6.5-1.3 11.3-20.1 0.3-1.1 0.7-2.4 0.3-1.5 0.5-2.1 0.2-0.8 0.4-1.7 0.3-0.9 0.4-1.3 0.2-0.6 0.5-1 0.5-0.8 1.3-1 1-0.2 1.8 0.5 0.9 0.7 1.1 1.9 0.2 1-1 10-1.1 8.9-0.8 10.6 0.4 1.8 1.2 2.5 1 0.7 1.7 0.5 0.7-0.1 1.1-0.3 0.4-0.1 0.7-0.4 0.3-0.3 0.5-0.5 0.3-0.2 0.6-0.7l0.4-0.7q0.2-0.2 0.5-0.8 0.3-0.6 0.5-0.8l1.8 1q-0.6 3.5-3 6.3-2.3 2.7-4.6 3.2-2.2 0.4-3.8-0.8-1.6-1.4-2.1-3.9-0.5-2.5-0.5-6.6-2.4 6.2-6 9.9-3.6 3.7-6.2 4.2-2.6 0.5-4.3-1.1-1.7-1.7-2.2-4.4zm71.8-16.8l1.8 1q-0.6 3.4-3 6.2-2.3 2.8-4.6 3.2-2.2 0.5-3.8-0.8-1.6-1.3-2.1-3.8-0.5-2.6-0.5-6.7-2.5 6.4-5.9 10.4-3.5 4.1-6.3 4.6-4.3 0.9-5.3-4.2-1.1-5.1 0.7-14.5 1.8-9.4 3.1-10.9l4 0.8q-2.1 5.7-2.7 10.9-0.6 5.2-0.3 6.9 0.3 1.6 1.5 2.4 1.3 0.8 2.7 0.5 3-0.6 6.4-7.1 3.4-6.6 5.9-18.7l4.3 1q-0.1 0.6-1.8 9.6-1.6 8.9-1.2 10.5 0.3 1.6 1.1 2.4 1 0.6 1.7 0.5 0.7-0.2 1.1-0.3 0.3-0.2 0.7-0.5 0.3-0.3 0.5-0.5 0.3-0.2 0.6-0.6l0.4-0.8q0.2-0.2 0.5-0.7 0.3-0.6 0.5-0.8zm32.3-18.1q1.1 5.5-2 11.1-3 5.6-8 8.1 0.4 6.3 0.9 11.4l-4.1-1.9q-0.6-7-0.7-8.1-4.8 0.8-8.8-1-4.2-1.9-5-6-1.3-6.5 2-12.8 3.3-6.4 9.9-9.2-0.6-10.5-0.4-11.4l4.4 0.5q0.2 0.9 0.7 13.9 0.5 12.9 0.8 18.8 3.7-1.8 5.2-5.4 1.4-3.6 0.7-7.1-0.8-3.6-2.7-5.2l3.7-2q1.2 0.9 2.2 2.9 0.9 2.1 1.2 3.4zm-22.2 8.7q0.4 2.3 2.8 3.6 2.3 1.4 5 1.7l-1.2-19.5q-3.8 2-5.7 6-1.8 3.8-0.9 8.2zm42.6-14.3l3.7-2q2.6 2.9 3.4 6.9 1.3 6.1-2 11.9-3.3 5.7-9.1 6.8-4.4 0.9-7.4-1.1-3-2.1-3.9-6.6-1.5-7.2 3-14.1 4.5-6.9 11.5-8.4 1.3-0.2 1.9-0.3l0.7 2.5q-6.1 1.2-9.4 5.6-3.4 4.3-2.3 9.8 0.7 3.3 2.7 5 2 1.7 5.1 1.1 3.1-0.7 4.4-3.8 1.2-3.1 0.5-6.8-0.8-3.7-2.8-6.5zm21.8 3.3q4.1-9.9 7.7-13.8 3.7-4.1 6.9-4.8 3.2-0.6 5.3 1 2.2 1.6 2.8 4.6 1.6 8.2-2.9 16.4-4.5 8.1-11.9 9.6-3.3 0.7-5.4-0.1l1.2-3.6q4.1-0.3 5-0.5 4.2-0.8 6.8-6.3 2.6-5.6 1.6-10.6-0.4-1.9-1.8-2.9-1.3-1.1-3.1-0.7-4.2 0.8-8 9.3-3.8 8.5-6.2 20.4-2.4 11.8-3.4 24.9l-4.9-0.7q0.1-0.5 1.3-8.4 1.2-8.1 2.3-15.9 3.1-21.6 2.8-23.5-1-4.9-3.8-8.5l3.4-2.6q3 2.8 3.8 6.4 0.7 3.6 0.5 10.3z"/><g style="opacity:.4;mix-blend-mode:multiply"><path class="a" d="m780.6 741.2l-711.6-65.2 7.2-511h644.8z"/><path class="aO" d="m780 740.5l-710.9-64.6 7.1-510.9h644.8z"/><path class="aP" d="m779.5 739.7l-710.4-63.9 7.1-510.8h644.8z"/><path class="aQ" d="m778.9 739l-709.7-63.3 7-510.7h644.8z"/><path class="aR" d="m778.3 738.3l-709-62.7 6.9-510.6h644.8z"/><path class="aS" d="m777.7 737.5l-708.3-61.9 6.8-510.6h644.8z"/><path class="f" d="m777.1 736.8l-707.7-61.3 6.8-510.5h644.8z"/><path class="aT" d="m776.5 736l-707-60.6 6.7-510.4h644.8z"/><path class="aU" d="m775.9 735.3l-706.3-60 6.6-510.3h644.8z"/><path class="i" d="m775.3 734.6l-705.7-59.4 6.6-510.2h644.8z"/><path class="aV" d="m774.7 733.8l-705-58.7 6.5-510.1h644.8z"/><path class="aW" d="m774.1 733.1l-704.3-58.1 6.4-510h644.8z"/><path class="aX" d="m773.6 732.3l-703.8-57.4 6.4-509.9h644.8z"/><path class="aY" d="m773 731.6l-703.1-56.8 6.3-509.8h644.8z"/><path class="aZ" d="m772.4 730.9l-702.4-56.2 6.2-509.7h644.8z"/><path class="n" d="m771.8 730.1l-701.7-55.5 6.1-509.6h644.8z"/><path class="o" d="m771.2 729.4l-701.1-54.9 6.1-509.5h644.8z"/><path class="b0" d="m770.6 728.6l-700.4-54.2 6-509.4h644.8z"/><path class="b1" d="m770 727.9l-699.7-53.6 5.9-509.3h644.8z"/><path class="b2" d="m769.4 727.2l-699.1-53 5.9-509.2h644.8z"/><path class="b3" d="m768.8 726.4l-698.4-52.3 5.8-509.1h644.8z"/><path class="b4" d="m768.2 725.7l-697.7-51.6 5.7-509.1h644.8z"/><path class="b5" d="m767.7 724.9l-697.1-50.9 5.6-509h644.8z"/><path class="b6" d="m767.1 724.2l-696.5-50.3 5.6-508.9h644.8z"/><path class="b7" d="m766.5 723.5l-695.8-49.7 5.5-508.8h644.8z"/><path class="b8" d="m765.9 722.7l-695.1-49 5.4-508.7h644.8z"/><path class="b9" d="m765.3 722l-694.5-48.4 5.4-508.6h644.8z"/><path class="ba" d="m764.7 721.2l-693.8-47.7 5.3-508.5h644.8z"/><path class="bb" d="m764.1 720.5l-693.1-47.1 5.2-508.4h644.8z"/><path class="bc" d="m763.5 719.8l-692.4-46.5 5.1-508.3h644.8z"/><path class="bd" d="m762.9 719l-691.8-45.8 5.1-508.2h644.8z"/><path class="be" d="m762.3 718.3l-691.1-45.2 5-508.1h644.8z"/><path class="bf" d="m761.8 717.6l-690.5-44.6 4.9-508h644.8z"/><path class="bg" d="m761.2 716.8l-689.9-43.9 4.9-507.9h644.8z"/><path class="bh" d="m760.6 716.1l-689.2-43.3 4.8-507.8h644.8z"/><path class="bi" d="m760 715.3l-688.5-42.6 4.7-507.7h644.8z"/><path class="bj" d="m759.4 714.6l-687.9-42 4.7-507.6h644.8z"/><path class="bk" d="m758.8 713.9l-687.2-41.3 4.6-507.6h644.8z"/><path class="bl" d="m758.2 713.1l-686.5-40.6 4.5-507.5h644.8z"/><path class="bm" d="m757.6 712.4l-685.8-40 4.4-507.4h644.8z"/><path class="bn" d="m757 711.6l-685.2-39.3 4.4-507.3h644.8z"/><path class="bo" d="m756.4 710.9l-684.5-38.7 4.3-507.2h644.8z"/><path class="bp" d="m755.9 710.2l-683.9-38.1 4.2-507.1h644.8z"/><path class="bq" d="m755.3 709.4l-683.3-37.4 4.2-507h644.8z"/><path class="br" d="m754.7 708.7l-682.6-36.8 4.1-506.9h644.8z"/><path class="bs" d="m754.1 707.9l-681.9-36.1 4-506.8h644.8z"/><path class="bt" d="m753.5 707.2l-681.2-35.5 3.9-506.7h644.8z"/><path class="bu" d="m752.9 706.5l-680.6-34.9 3.9-506.6h644.8z"/><path class="bv" d="m752.3 705.7l-679.9-34.2 3.8-506.5h644.8z"/><path class="bw" d="m751.7 705l-679.2-33.6 3.7-506.4h644.8z"/><path class="bx" d="m751.1 704.2l-678.6-32.9 3.7-506.3h644.8z"/><path class="by" d="m750.5 703.5l-677.9-32.3 3.6-506.2h644.8z"/><path class="bz" d="m750 702.8l-677.3-31.7 3.5-506.1h644.8z"/><path class="bA" d="m749.4 702l-676.6-30.9 3.4-506.1h644.8z"/><path class="bB" d="m748.8 701.3l-676-30.3 3.4-506h644.8z"/><path class="bC" d="m748.2 700.6l-675.3-29.7 3.3-505.9h644.8z"/><path class="bD" d="m747.6 699.8l-674.6-29 3.2-505.8h644.8z"/><path class="bE" d="m747 699.1l-674-28.4 3.2-505.7h644.8z"/><path class="bF" d="m746.4 698.3l-673.3-27.7 3.1-505.6h644.8z"/><path class="bG" d="m745.8 697.6l-672.6-27.1 3-505.5h644.8z"/><path class="bH" d="m745.2 696.9l-672-26.5 3-505.4h644.8z"/><path class="bI" d="m744.6 696.1l-671.3-25.8 2.9-505.3h644.8z"/><path class="bJ" d="m744.1 695.4l-670.7-25.2 2.8-505.2h644.8z"/><path class="bK" d="m743.5 694.6l-670-24.5 2.7-505.1h644.8z"/><path class="bL" d="m742.9 693.9l-669.4-23.9 2.7-505h644.8z"/><path class="bM" d="m742.3 693.2l-668.7-23.3 2.6-504.9h644.8z"/><path class="bN" d="m741.7 692.4l-668-22.6 2.5-504.8h644.8z"/><path class="bO" d="m741.1 691.7l-667.4-22 2.5-504.7h644.8z"/><path class="bP" d="m740.5 690.9l-666.7-21.3 2.4-504.6h644.8z"/><path class="bQ" d="m739.9 690.2l-666-20.6 2.3-504.6h644.8z"/><path class="bR" d="m739.3 689.5l-665.3-20 2.2-504.5h644.8z"/><path class="bS" d="m738.7 688.7l-664.7-19.3 2.2-504.4h644.8z"/><path class="bT" d="m738.2 688l-664.1-18.7 2.1-504.3h644.8z"/><path class="bU" d="m737.6 687.2l-663.4-18 2-504.2h644.8z"/><path class="bV" d="m737 686.5l-662.8-17.4 2-504.1h644.8z"/><path class="bW" d="m736.4 685.8l-662.1-16.8 1.9-504h644.8z"/><path class="bX" d="m735.8 685l-661.4-16.1 1.8-503.9h644.8z"/><path class="bY" d="m735.2 684.3l-660.7-15.5 1.7-503.8h644.8z"/><path class="bZ" d="m734.6 683.6l-660.1-14.9 1.7-503.7h644.8z"/><path class="c0" d="m734 682.8l-659.4-14.2 1.6-503.6h644.8z"/><path class="c1" d="m733.4 682.1l-658.7-13.6 1.5-503.5h644.8z"/><path class="c2" d="m732.8 681.3l-658.1-12.9 1.5-503.4h644.8z"/><path class="c3" d="m732.3 680.6l-657.5-12.3 1.4-503.3h644.8z"/><path class="c4" d="m731.7 679.9l-656.8-11.7 1.3-503.2h644.8z"/><path class="c5" d="m731.1 679.1l-656.2-11 1.3-503.1h644.8z"/><path class="c6" d="m730.5 678.4l-655.5-10.3 1.2-503.1h644.8z"/><path class="c7" d="m729.9 677.6l-654.8-9.6 1.1-503h644.8z"/><path class="c8" d="m729.3 676.9l-654.1-9 1-502.9h644.8z"/><path class="c9" d="m728.7 676.2l-653.5-8.4 1-502.8h644.8z"/><path class="ca" d="m728.1 675.4l-652.8-7.7 0.9-502.7h644.8z"/><path class="cb" d="m727.5 674.7l-652.1-7.1 0.8-502.6h644.8z"/><path class="cc" d="m726.9 673.9l-651.5-6.4 0.8-502.5h644.8z"/><path class="cd" d="m726.4 673.2l-650.9-5.8 0.7-502.4h644.8z"/><path class="ce" d="m725.8 672.5l-650.2-5.2 0.6-502.3h644.8z"/><path class="cf" d="m725.2 671.7l-649.5-4.5 0.5-502.2h644.8z"/><path class="cg" d="m724.6 671l-648.9-3.9 0.5-502.1h644.8z"/><path class="ch" d="m724 670.2l-648.2-3.2 0.4-502h644.8z"/><path class="ci" d="m723.4 669.5l-647.5-2.6 0.3-501.9h644.8z"/><path class="cj" d="m722.8 668.8l-646.9-2 0.3-501.8h644.8z"/><path class="ck" d="m722.2 668l-646.2-1.3 0.2-501.7h644.8z"/><path class="cl" d="m721.6 667.3l-645.5-0.7 0.1-501.6h644.8z"/><path class="cm" d="m721 165v501.5h-644.8v-501.5z"/></g><path class="cn" d="m726.4 11v655.5h-655.6v-655.5z"/><path class="co" d="m726.4 11v655.5h-655.6v-655.5z"/><path class="av" d="m203.6 226.9q-0.3 2.6-5.1 13.5-15.5 33.7-14.8 56.5l-9.5 2.2q-1-2.3-1.5-7.8-1-13.3 13.6-50-5.5 2.7-9.1 3-3.6 0.3-6.8-0.7l2.7-7.9q1.8 0.3 3.6 0.2 4.8-0.4 9.5-3.8 4.7-3.3 7.1-7.3 2.4-3.9 4.4-4.1 1.9-0.1 3.8 1.1 2.1 1.2 2.2 2.8 0.1 1.7-0.1 2.3zm63.3-6.4l0.1 9.2q-2 0-9.2 0.5-7 0.6-11.9 1.6-4.7 0.9-11.9 3.4-7.7 13.4-9.2 18.8 4-0.8 7.1-1 10.2-0.8 17.7 3.6 7.6 4.4 8.2 11.7 0.8 10.3-9.4 18.5-10.2 8.1-24.1 9.2-13.8 1.1-19.9-5.7l5.9-6.1q1.9 1.9 6.4 3.2 4.4 1.3 8 1.1 8.4-0.7 14.3-6 5.9-5.2 5.4-12.1-0.4-4.8-6.2-7.5-5.7-2.7-14.6-2-8.8 0.6-9.2-4.7-0.2-2.4 3.4-10.1 3.8-7.7 4.2-8.7 0.5-1.1 1.4-2.9 1.1-1.7 1.5-2.2 0.4-0.6 1.4-1.9 0.9-1.3 1.6-1.9 2.2-1.4 5.1-2.5 11.6-3.8 26.8-4.9zm162.7 42.6l3.3 2.3q-2.1 6.5-7.3 11.3-5 4.7-9.5 5.1-4.3 0.3-7.1-2.5-2.8-2.9-3.2-7.9-0.4-4.9 0.7-12.8-6.2 11.6-13.8 18.5-7.6 6.9-13.1 7.3-8.4 0.7-9.2-9.9-0.1-1.1 1.1-13.1-6.2 11.5-12.9 17.6-6.6 5.9-12.3 6.3-8.4 0.7-9.2-9.9l5.2-5.8q0.3 2.6 2.3 4.4 2.3 1.8 5 1.6 4.9-0.4 12.6-9.4 7.9-9 13.9-23.2 1.3-3.1 2.9-7.3 1.8-4.3 2.5-6.2 0.8-1.8 1.8-4 1.7-3.5 3.8-3.6 2.1-0.2 3.6 1.3 1.4 1.6 1.6 3.8 0.2 2.1-0.9 5.1-1 2.9-3.5 8.1-2.5 5-3.9 8.2-3.1 10.5-2.8 14.2 0.3 3.8 2.4 5.6 2.3 1.8 4.9 1.5 5.1-0.3 11.6-8.7 6.5-8.4 13-24.6 0.7-2 1.7-4.5 1-2.6 1.5-3.9 0.5-1.4 1.1-3.1 0.8-1.7 1.2-2.5 0.5-0.9 1.1-1.7 1.2-1.4 2.9-1.6 1.7-0.1 3.2 1.4 1.5 1.6 1.7 3.8 0.1 2.1-6.1 19.1-6 16.9-5.8 20.3 0.3 3.5 1.8 5 1.6 1.6 2.9 1.5 1.5-0.2 2.3-0.4 0.7-0.2 1.4-0.7 0.7-0.5 1.1-0.8 0.6-0.4 1.3-1.2l1-1.1q0.4-0.5 1.1-1.4 0.8-1.2 1.1-1.5zm74.9-5.9l3.3 2.3q-2 6.5-7.2 11.2-5.1 4.8-9.6 5.1-4.3 0.4-7.1-2.4-2.8-3-3.2-7.9-0.3-4.9 0.7-12.8-6.2 11.6-13.8 18.5-7.6 6.9-13.1 7.3-8.4 0.6-9.1-9.4-0.8-10 4.8-27.4 5.7-17.6 8.5-20.2l7.4 2.5q-5.4 10.4-7.8 20.2-2.4 9.8-2.1 13.1 0.2 3.1 2.3 4.9 2.3 1.8 5 1.6 5.9-0.4 13.9-12 8.1-11.8 15.7-34.4l7.9 2.9q-0.2 1.2-5.5 17.9-5.2 16.6-4.9 19.9 0.2 3.2 1.7 4.7 1.6 1.5 2.9 1.4 1.5-0.1 2.3-0.3 0.7-0.2 1.4-0.7 0.7-0.5 1.2-0.9 0.5-0.3 1.2-1.1l1-1.3q0.4-0.3 1.1-1.3 0.8-1.1 1.1-1.4zm69.7-46.3l5.9 0.9q-0.1 1.1-3.6 9.4-3.5 8.3-7.1 21.7-3.6 13.2-4 26.4h-9.6q-0.6-8.2 3.6-21.6-1.4-0.1-5.5 0.3-4.1 0.3-14.8 3.1-6.4 17.6-5.4 29.7l-10.1-0.6q-0.9-10.6 5.9-26.7-7.6 1.7-15 4.7l-2-5.7q0-0.4 7.8-3.1 7.9-2.8 11.7-3.7 9.9-28.4 13.9-33.1l6.6 2.1q-0.6 1.5-2.9 7-5.8 13.5-7.6 21 12.9-2.3 15.5-2.5 2.7-0.2 4.5-0.2 8.6-24.9 12.2-29.1zm15.6 56.4q-1.9-1.6-2.1-4.2-0.2-2.5 1.4-4.5 1.7-1.9 4.2-2.1 2.6-0.2 4.5 1.5 1.9 1.6 2.1 4.2 0.2 2.5-1.4 4.4-1.7 2-4.2 2.2-2.6 0.2-4.5-1.5z"/><path class="av" d="m172.7 406.3l2.2 1.5q-2 4.6-5.8 7.9-3.7 3.3-6.8 3.4-3.2 0.2-5.1-1.5-1.9-1.7-2.1-4.5-0.2-2.7 2.9-9.8 3.2-7.1 3-10.3-0.1-1.5-1.4-2.5-1.2-1.2-2.8-1.1-5.2 0.3-10 8.6-4.9 8.1-10.5 23.3l-6.3-1.8q1.3-11.9 4.2-23.3 3-11.5 5.8-16.6l4.3 1.1q-2.5 7.4-5.8 25.4 12.6-24.8 24.4-25.5 2.6-0.2 4.3 1.5 1.9 1.6 2 4 0.1 2.3-0.4 4.3-0.5 1.8-3.4 8.9-2.7 7-2.6 8.8 0.1 1.7 1.2 2.7 1 0.8 1.9 0.8 1-0.1 1.6-0.4 0.5-0.4 1.2-1 0.8-0.7 1.4-1.2 0.6-0.6 1.3-1.4 0.9-1 1.3-1.3zm21.4-7.7q7.1-12 12.6-16.5 5.4-4.6 9.7-4.9 4.3-0.2 6.8 2.3 2.5 2.4 2.7 6.4 0.6 11-6.8 20.8-7.3 9.7-17.2 10.3-4.4 0.2-7-1.1l2.2-4.6q5.4 0.4 6.6 0.4 5.5-0.3 10-7 4.4-6.7 4-13.4-0.1-2.6-1.8-4.1-1.5-1.7-3.8-1.5-5.6 0.3-12.2 10.6-6.5 10.2-11.8 25.3-5.3 14.9-9 31.6l-6.2-1.8q0.2-0.6 3.2-10.7 3.1-10.2 6-20.1 8-27.5 7.9-30-0.4-6.5-3.3-11.7l4.9-2.8q3.4 4.2 3.7 9.1 0.3 4.8-1.2 13.4zm66.2 3l2.4 1.7q-2.9 4.6-8.2 7.8-5.3 3.2-10.5 3.5-5.2 0.3-8.6-2.6-3.3-2.9-3.6-7.9-0.5-9.3 8.9-18.9 9.4-9.7 19.6-10.3 6.7-0.3 7 5 0.3 5.5-6.5 11.5-6.7 6-19.3 11.3 1.1 2.3 3.1 3.5 2 1.2 4.1 1.1 4.3-0.3 11.6-5.7zm-19.4-2q8-3.3 13.7-7.9 5.7-4.6 5.5-8.2-0.1-1.3-1.2-2.2-1.1-1-2.4-0.9-4.8 0.2-10 6.6-5.2 6.2-5.6 12.6zm62.5-23.2q0.4 7.4-13 13.1 3.8 2 5.7 3.7 1.9 1.7 2 3.9 0.4 5.7-5.8 10.4-6.2 4.7-13.5 5.1-3.6 0.2-7.2-0.7-3.6-0.9-5-2.5l3.6-3.8q1.3 1.2 3.4 2 2.2 0.8 3.6 0.7 5.1-0.3 9.1-3.1 4.2-2.9 3.9-6.6-0.1-2.1-1.7-3.3-1.6-1.3-3.4-1.7-1.8-0.6-3.4-1.3-1.6-0.8-1.6-1.9-0.1-1.2 2.2-2.2 2.4-1.2 5.3-1.9 2.9-0.9 5.2-2.6 2.3-1.8 2.2-3.7-0.1-1.9-1.5-3-1.4-1-3.4-0.9-1.9 0.1-6 2.5-4 2.4-8.1 6l-1.6-2.8q3.4-4.5 9.4-8.1 6.2-3.7 9.9-3.9 3.9-0.3 6.7 1.7 2.8 1.9 3 4.9zm33.4 20.9l2.4 1.7q-2.9 4.5-8.2 7.8-5.4 3.1-10.6 3.4-5.2 0.3-8.5-2.5-3.3-2.9-3.6-7.9-0.5-9.4 8.8-19 9.5-9.6 19.7-10.2 6.7-0.4 7 4.9 0.3 5.5-6.5 11.5-6.7 6-19.3 11.3 1.1 2.3 3.1 3.5 2 1.2 4 1.1 4.4-0.2 11.7-5.6zm-19.5-2q8.1-3.3 13.8-7.9 5.7-4.7 5.5-8.2-0.1-1.3-1.2-2.3-1.1-1-2.4-0.9-4.8 0.3-10 6.6-5.2 6.2-5.7 12.7zm71.3-28.7l4 0.7q-0.1 0.7-2.6 6.4-2.5 5.5-5.1 14.6-2.7 8.9-3.1 17.9l-6.5-0.1q-0.3-5.6 2.7-14.7-0.9 0-3.8 0.1-2.7 0.2-10.1 1.9-4.5 12-4 20.2l-6.9-0.5q-0.4-7.3 4.4-18.2-5.2 1.2-10.3 3.1l-1.2-3.9q0-0.3 5.3-2.1 5.4-1.7 8-2.3 7.1-19.2 9.9-22.3l4.5 1.5q-0.5 1-2.1 4.7-4.1 9.1-5.4 14.2 8.8-1.4 10.5-1.5 1.8-0.1 3.1-0.1 6.2-16.8 8.7-19.6zm79 22l2.2 1.9q-5.2 10.7-12.7 11.1-3.1 0.2-4.9-1.3-1.8-1.7-1.9-4.4-0.2-2.9 2.8-9.9 3-7 3-10.6 0-1.6-1.2-2.6-1.1-0.9-2.9-0.8-1.8 0.1-3.7 1.1-1.8 0.9-3.5 3-1.6 2-3.1 3.9-1.3 2-2.9 5.4-1.6 3.5-2.7 5.8-1.9 4.3-5.4 12.9l-6.2-1.8q0-0.3 2.7-11.7 2.7-11.4 2.6-13.6-0.1-2.1-1.2-3-1.1-0.9-2.6-0.8-4.6 0.2-12.1 12.1-7.4 11.9-9.1 20l-6-1.6q0.2-5.4 3.7-19.6 3.5-14.3 6.2-19.5l4.6 1.3q-2.7 7.2-3.7 12.2-0.9 4.8-1.5 10.4 8-13 13.7-18.4 5.6-5.4 10.4-5.7 5.1-0.3 5.4 4.9 0.2 2.1-1.3 8.2-1.4 6.1-2.2 9.6 12.7-23.4 23.8-24 2.8-0.2 4.5 1.5 1.7 1.5 1.9 4.9 0.2 3.2-3.2 11.1-3.4 7.8-3.3 9.9 0.2 1.9 1 2.8 0.9 0.8 2.1 0.8 2.7-0.2 6.7-5.5zm50.4 0.1l2.5 1.6q-1.3 3.1-5 6.1-3.6 2.9-6.8 3.1-6 0.4-6.3-6-0.2-2.9 1.1-7.1l-3.6 4.1q-5.1 5.9-9.1 8.1-3.9 2.2-7.7 2.4-3.9 0.2-6.1-1.8-2-2.2-2.2-6-0.4-7.2 4.7-14.4 5.1-7.3 13.4-12.2 8.3-4.9 16.8-5.5l0.4 3.4-4.2 1.2q-9.2 2.5-15.9 9-6.7 6.5-6.4 12.7 0.4 6 5.3 5.7 4.5-0.3 10.9-7.1 6.3-6.8 10.3-15.7l4.5 2.3q-5.6 13.1-5.4 16.6 0 1.4 1 2.4 1.1 0.8 2 0.8 1-0.1 1.3-0.2 0.3-0.1 0.6-0.2 0.3-0.3 0.7-0.6 0.5-0.3 0.8-0.7 0.4-0.3 1.2-0.9 0.7-0.7 1.2-1.1zm45.2-2.3q2.2-2.6 4.7-5.1 2.5-2.6 4.5-2.7 2.2-0.1 3.4 1.2 1.2 1.1 1.4 3.1 0.3 5.2-7.1 22.8h-4.8q0-0.1 2.5-7.1 2.7-7.1 2.5-9.7-0.1-2.7-1.8-2.6-1.4 0.1-4.3 5.2-1.2 1.9-3.5 3.5-2.3 1.7-5 1.8-2.7 0.2-4.5-1.8-1.9-2.1-2.1-5.3-0.1-3.3 0.7-8.4-4.4 7.7-9.6 12.2-5.2 4.5-9 4.7-5.7 0.4-6.1-6.5-0.3-6.8 3.7-18.6 4.1-11.8 6.1-13.6l5 1.9q-3.8 6.9-5.6 13.6-1.8 6.6-1.6 8.8 0.1 2.2 1.5 3.4 1.5 1.3 3.3 1.2 4.1-0.3 9.7-8 5.7-7.9 11.1-23.1l5.4 2q-0.2 0.8-4.1 12.1-3.7 11.2-3.6 13.5 0.1 2.1 1.1 3.2 1.1 0.9 2.5 0.9 1.4-0.1 3.6-2.6zm59.2-5.3l2.3 1.6q-1.5 4.4-5.1 7.5-3.5 3.2-6.6 3.4-2.9 0.1-4.8-1.8-1.8-2-2-5.4-0.2-3.4 0.6-8.7-4.4 7.8-9.6 12.4-5.3 4.6-9 4.8-5.7 0.3-6.1-6.5-0.4-6.8 3.6-18.6 4.1-11.9 6.1-13.6l5 1.8q-3.8 7-5.6 13.6-1.7 6.7-1.6 8.9 0.1 2.1 1.5 3.4 1.5 1.2 3.3 1.1 4.1-0.2 9.7-8 5.7-7.9 11.1-23.1l5.4 2.1q-0.2 0.8-4 12-3.8 11.3-3.7 13.5 0.2 2.2 1.1 3.2 1.1 1.1 2 1 1.1 0 1.6-0.1 0.5-0.2 1-0.5 0.4-0.3 0.7-0.6 0.4-0.2 0.9-0.7l0.7-0.9q0.3-0.2 0.8-0.8 0.5-0.8 0.7-1zm50.9-2.9l2.3 1.6q-1.5 4.4-5.1 7.5-3.5 3.2-6.6 3.4-2.9 0.1-4.8-1.8-1.8-2-2-5.4-0.2-3.4 0.6-8.7-4.3 7.8-9.6 12.4-5.3 4.6-9 4.8-5.7 0.3-6.1-6.5-0.4-6.8 3.6-18.6 4.2-11.9 6.1-13.6l5 1.8q-3.8 7-5.6 13.6-1.7 6.7-1.6 8.9 0.1 2.1 1.5 3.4 1.5 1.2 3.4 1.1 4-0.2 9.6-8 5.7-7.9 11.2-23.1l5.3 2.1q-0.2 0.8-4 12-3.8 11.3-3.6 13.5 0.1 2.2 1.1 3.2 1 1.1 2 1 1 0 1.5-0.1 0.5-0.2 1-0.5 0.5-0.3 0.8-0.6 0.4-0.2 0.8-0.7l0.7-0.9q0.3-0.2 0.8-0.8 0.5-0.8 0.7-1z"/><g style="opacity:.5;mix-blend-mode:multiply"><path class="a" d="m807.3 1022.7c-51.7 0-93.9-42.2-93.9-93.9 0-51.8 42.2-93.9 93.9-93.9h63.8l646.7 33.7c51.7 0 93.9 42.1 93.9 93.9 0 51.8-42.2 93.9-93.9 93.9l-637.3-33.7z"/><path class="aO" d="m807.3 1022.7c-51.7 0-93.9-42.2-93.9-93.9 0-51.8 42.2-93.9 93.9-93.9h63.8l646.4 33.3c51.8 0 94 42.2 94 93.9 0 51.8-42.2 93.9-94 93.9l-637-33.3z"/><path class="aP" d="m807.3 1022.7c-51.7 0-93.9-42.2-93.9-93.9 0-51.8 42.2-93.9 93.9-93.9h63.8l646.2 33c51.8 0 94 42.1 94 93.9 0 51.8-42.2 93.9-94 93.9l-636.8-33z"/><path class="aQ" d="m807.3 1022.7c-51.7 0-93.9-42.2-93.9-93.9 0-51.8 42.2-93.9 93.9-93.9h63.8l646 32.7c51.8 0 93.9 42.1 93.9 93.9 0 51.7-42.1 93.9-93.9 93.9l-636.6-32.7z"/><path class="aR" d="m807.3 1022.7c-51.7 0-93.9-42.2-93.9-93.9 0-51.8 42.2-93.9 93.9-93.9h63.8l645.8 32.3c51.8 0 93.9 42.2 93.9 93.9 0 51.8-42.1 93.9-93.9 93.9l-636.4-32.3z"/><path class="aS" d="m807.3 1022.7c-51.7 0-93.9-42.2-93.9-93.9 0-51.8 42.2-93.9 93.9-93.9h63.8l645.6 32c51.8 0 93.9 42.1 93.9 93.9 0 51.8-42.1 93.9-93.9 93.9l-636.2-32z"/><path class="f" d="m807.3 1022.7c-51.7 0-93.9-42.2-93.9-93.9 0-51.8 42.2-93.9 93.9-93.9h63.8l645.4 31.7c51.8 0 93.9 42.1 93.9 93.9 0 51.7-42.1 93.9-93.9 93.9l-636-31.7z"/><path class="aT" d="m807.3 1022.7c-51.7 0-93.9-42.2-93.9-93.9 0-51.8 42.2-93.9 93.9-93.9h63.8l645.2 31.3c51.7 0 93.9 42.2 93.9 93.9 0 51.8-42.2 93.9-93.9 93.9l-635.8-31.3z"/><path class="aU" d="m807.3 1022.7c-51.7 0-93.9-42.2-93.9-93.9 0-51.8 42.2-93.9 93.9-93.9h63.8l644.9 31c51.8 0 94 42.1 94 93.9 0 51.8-42.2 93.9-94 93.9l-635.5-31z"/><path class="i" d="m807.3 1022.7c-51.7 0-93.9-42.2-93.9-93.9 0-51.8 42.2-93.9 93.9-93.9h63.8l644.7 30.7c51.8 0 94 42.1 94 93.9 0 51.7-42.2 93.9-94 93.9l-635.3-30.7z"/><path class="aV" d="m807.3 1022.7c-51.7 0-93.9-42.2-93.9-93.9 0-51.8 42.2-93.9 93.9-93.9h63.8l644.5 30.3c51.8 0 94 42.2 94 93.9 0 51.8-42.2 93.9-94 93.9l-635.1-30.3z"/><path class="aW" d="m807.3 1022.7c-51.7 0-93.9-42.2-93.9-93.9 0-51.8 42.2-93.9 93.9-93.9h63.8l644.3 30c51.8 0 93.9 42.1 93.9 93.9 0 51.8-42.1 93.9-93.9 93.9l-634.9-30z"/><path class="aX" d="m807.3 1022.7c-51.7 0-93.9-42.2-93.9-93.9 0-51.8 42.2-93.9 93.9-93.9h63.8l644.1 29.7c51.8 0 93.9 42.1 93.9 93.9 0 51.7-42.1 93.9-93.9 93.9l-634.7-29.7z"/><path class="aY" d="m807.3 1022.7c-51.7 0-93.9-42.2-93.9-93.9 0-51.8 42.2-93.9 93.9-93.9h63.8l643.9 29.3c51.8 0 93.9 42.2 93.9 93.9 0 51.8-42.1 93.9-93.9 93.9l-634.5-29.3z"/><path class="aZ" d="m807.3 1022.7c-51.7 0-93.9-42.2-93.9-93.9 0-51.8 42.2-93.9 93.9-93.9h63.8l643.7 29c51.7 0 93.9 42.1 93.9 93.9 0 51.8-42.2 93.9-93.9 93.9l-634.3-29z"/><path class="n" d="m807.3 1022.7c-51.7 0-93.9-42.2-93.9-93.9 0-51.8 42.2-93.9 93.9-93.9h63.8l643.4 28.7c51.8 0 94 42.1 94 93.9 0 51.7-42.2 93.9-94 93.9l-634-28.7z"/><path class="o" d="m807.3 1022.7c-51.7 0-93.9-42.2-93.9-93.9 0-51.8 42.2-93.9 93.9-93.9h63.8l643.2 28.3c51.8 0 94 42.2 94 93.9 0 51.8-42.2 93.9-94 93.9l-633.8-28.3z"/><path class="b0" d="m807.3 1022.7c-51.7 0-93.9-42.2-93.9-93.9 0-51.8 42.2-93.9 93.9-93.9h63.8l643 28c51.8 0 94 42.1 94 93.9 0 51.8-42.2 93.9-94 93.9l-633.6-28z"/><path class="b1" d="m807.3 1022.7c-51.7 0-93.9-42.2-93.9-93.9 0-51.8 42.2-93.9 93.9-93.9h63.8l642.8 27.7c51.8 0 93.9 42.1 93.9 93.9 0 51.7-42.1 93.9-93.9 93.9l-633.4-27.7z"/><path class="b2" d="m807.3 1022.7c-51.7 0-93.9-42.2-93.9-93.9 0-51.8 42.2-93.9 93.9-93.9h63.8l642.6 27.3c51.8 0 93.9 42.2 93.9 93.9 0 51.8-42.1 93.9-93.9 93.9l-633.2-27.3z"/><path class="b3" d="m807.3 1022.7c-51.7 0-93.9-42.2-93.9-93.9 0-51.8 42.2-93.9 93.9-93.9h63.8l642.4 27c51.8 0 93.9 42.1 93.9 93.9 0 51.8-42.1 93.9-93.9 93.9l-633-27z"/><path class="b4" d="m807.3 1022.7c-51.7 0-93.9-42.2-93.9-93.9 0-51.8 42.2-93.9 93.9-93.9h63.8l642.2 26.7c51.8 0 93.9 42.1 93.9 93.9 0 51.7-42.1 93.9-93.9 93.9l-632.8-26.7z"/><path class="b5" d="m807.3 1022.7c-51.7 0-93.9-42.2-93.9-93.9 0-51.8 42.2-93.9 93.9-93.9h63.8l642 26.3c51.7 0 93.9 42.2 93.9 93.9 0 51.8-42.2 93.9-93.9 93.9l-632.6-26.3z"/><path class="b6" d="m807.3 1022.7c-51.7 0-93.9-42.2-93.9-93.9 0-51.8 42.2-93.9 93.9-93.9h63.8l641.7 26c51.8 0 94 42.1 94 93.9 0 51.8-42.2 93.9-94 93.9l-632.3-26z"/><path class="b7" d="m807.3 1022.7c-51.7 0-93.9-42.2-93.9-93.9 0-51.8 42.2-93.9 93.9-93.9h63.8l641.5 25.7c51.8 0 94 42.1 94 93.9 0 51.7-42.2 93.9-94 93.9l-632.1-25.7z"/><path class="b8" d="m807.3 1022.7c-51.7 0-93.9-42.2-93.9-93.9 0-51.8 42.2-93.9 93.9-93.9h63.8l641.3 25.3c51.8 0 93.9 42.2 93.9 93.9 0 51.8-42.1 93.9-93.9 93.9l-631.9-25.3z"/><path class="b9" d="m807.3 1022.7c-51.7 0-93.9-42.2-93.9-93.9 0-51.8 42.2-93.9 93.9-93.9h63.8l641.1 25c51.8 0 93.9 42.1 93.9 93.9 0 51.8-42.1 93.9-93.9 93.9l-631.7-25z"/><path class="ba" d="m807.3 1022.7c-51.7 0-93.9-42.2-93.9-93.9 0-51.8 42.2-93.9 93.9-93.9h63.8l640.9 24.7c51.8 0 93.9 42.1 93.9 93.9 0 51.7-42.1 93.9-93.9 93.9l-631.5-24.7z"/><path class="bb" d="m807.3 1022.7c-51.7 0-93.9-42.2-93.9-93.9 0-51.8 42.2-93.9 93.9-93.9h63.8l640.7 24.3c51.8 0 93.9 42.2 93.9 93.9 0 51.8-42.1 93.9-93.9 93.9l-631.3-24.3z"/><path class="bc" d="m807.3 1022.7c-51.7 0-93.9-42.2-93.9-93.9 0-51.8 42.2-93.9 93.9-93.9h63.8l640.5 24c51.7 0 93.9 42.1 93.9 93.9 0 51.8-42.2 93.9-93.9 93.9l-631.1-24z"/><path class="bd" d="m807.3 1022.7c-51.7 0-93.9-42.2-93.9-93.9 0-51.8 42.2-93.9 93.9-93.9h63.8l640.2 23.7c51.8 0 94 42.1 94 93.9 0 51.7-42.2 93.9-94 93.9l-630.8-23.7z"/><path class="be" d="m807.3 1022.7c-51.7 0-93.9-42.2-93.9-93.9 0-51.8 42.2-93.9 93.9-93.9h63.8l640 23.3c51.8 0 94 42.2 94 93.9 0 51.8-42.2 93.9-94 93.9l-630.6-23.3z"/><path class="bf" d="m807.3 1022.7c-51.7 0-93.9-42.2-93.9-93.9 0-51.8 42.2-93.9 93.9-93.9h63.8l639.8 23c51.8 0 94 42.1 94 93.9 0 51.8-42.2 93.9-94 93.9l-630.4-23z"/><path class="bg" d="m807.3 1022.7c-51.7 0-93.9-42.2-93.9-93.9 0-51.8 42.2-93.9 93.9-93.9h63.8l639.6 22.7c51.8 0 93.9 42.1 93.9 93.9 0 51.7-42.1 93.9-93.9 93.9l-630.2-22.7z"/><path class="bh" d="m807.3 1022.7c-51.7 0-93.9-42.2-93.9-93.9 0-51.8 42.2-93.9 93.9-93.9h63.8l639.4 22.3c51.8 0 93.9 42.2 93.9 93.9 0 51.8-42.1 93.9-93.9 93.9l-630-22.3z"/><path class="bi" d="m807.3 1022.7c-51.7 0-93.9-42.2-93.9-93.9 0-51.8 42.2-93.9 93.9-93.9h63.8l639.2 22c51.8 0 93.9 42.1 93.9 93.9 0 51.8-42.1 93.9-93.9 93.9l-629.8-22z"/><path class="bj" d="m807.3 1022.7c-51.7 0-93.9-42.2-93.9-93.9 0-51.8 42.2-93.9 93.9-93.9h63.8l639 21.7c51.7 0 93.9 42.1 93.9 93.9 0 51.7-42.2 93.9-93.9 93.9l-629.6-21.7z"/><path class="bk" d="m807.3 1022.7c-51.7 0-93.9-42.2-93.9-93.9 0-51.8 42.2-93.9 93.9-93.9h63.8l638.7 21.3c51.8 0 94 42.2 94 93.9 0 51.8-42.2 93.9-94 93.9l-629.3-21.3z"/><path class="bl" d="m807.3 1022.7c-51.7 0-93.9-42.2-93.9-93.9 0-51.8 42.2-93.9 93.9-93.9h63.8l638.5 21c51.8 0 94 42.1 94 93.9 0 51.8-42.2 93.9-94 93.9l-629.1-21z"/><path class="bm" d="m807.3 1022.7c-51.7 0-93.9-42.2-93.9-93.9 0-51.8 42.2-93.9 93.9-93.9h63.8l638.3 20.7c51.8 0 94 42.1 94 93.9 0 51.7-42.2 93.9-94 93.9l-628.9-20.7z"/><path class="bn" d="m807.3 1022.7c-51.7 0-93.9-42.2-93.9-93.9 0-51.8 42.2-93.9 93.9-93.9h63.8l638.1 20.3c51.8 0 93.9 42.2 93.9 93.9 0 51.8-42.1 93.9-93.9 93.9l-628.7-20.3z"/><path class="bo" d="m807.3 1022.7c-51.7 0-93.9-42.2-93.9-93.9 0-51.8 42.2-93.9 93.9-93.9h63.8l637.9 20c51.8 0 93.9 42.1 93.9 93.9 0 51.8-42.1 93.9-93.9 93.9l-628.5-20z"/><path class="bp" d="m807.3 1022.7c-51.7 0-93.9-42.2-93.9-93.9 0-51.8 42.2-93.9 93.9-93.9h63.8l637.7 19.7c51.8 0 93.9 42.1 93.9 93.9 0 51.7-42.1 93.9-93.9 93.9l-628.3-19.7z"/><path class="bq" d="m807.3 1022.7c-51.7 0-93.9-42.2-93.9-93.9 0-51.8 42.2-93.9 93.9-93.9h63.8l637.5 19.3c51.8 0 93.9 42.2 93.9 93.9 0 51.8-42.1 93.9-93.9 93.9l-628.1-19.3z"/><path class="br" d="m807.3 1022.7c-51.7 0-93.9-42.2-93.9-93.9 0-51.8 42.2-93.9 93.9-93.9h63.8l637.3 19c51.7 0 93.9 42.1 93.9 93.9 0 51.8-42.2 93.9-93.9 93.9l-627.9-19z"/><path class="bs" d="m807.3 1022.7c-51.7 0-93.9-42.2-93.9-93.9 0-51.8 42.2-93.9 93.9-93.9h63.8l637 18.7c51.8 0 94 42.1 94 93.9 0 51.7-42.2 93.9-94 93.9l-627.6-18.7z"/><path class="bt" d="m807.3 1022.7c-51.7 0-93.9-42.2-93.9-93.9 0-51.8 42.2-93.9 93.9-93.9h63.8l636.8 18.3c51.8 0 94 42.2 94 93.9 0 51.8-42.2 93.9-94 93.9l-627.4-18.3z"/><path class="bu" d="m807.3 1022.7c-51.7 0-93.9-42.2-93.9-93.9 0-51.8 42.2-93.9 93.9-93.9h63.8l636.6 18c51.8 0 93.9 42.1 93.9 93.9 0 51.8-42.1 93.9-93.9 93.9l-627.2-18z"/><path class="bv" d="m807.3 1022.7c-51.7 0-93.9-42.2-93.9-93.9 0-51.8 42.2-93.9 93.9-93.9h63.8l636.4 17.7c51.8 0 93.9 42.1 93.9 93.9 0 51.7-42.1 93.9-93.9 93.9l-627-17.7z"/><path class="bw" d="m807.3 1022.7c-51.7 0-93.9-42.2-93.9-93.9 0-51.8 42.2-93.9 93.9-93.9h63.8l636.2 17.3c51.8 0 93.9 42.2 93.9 93.9 0 51.8-42.1 93.9-93.9 93.9l-626.8-17.3z"/><path class="bx" d="m807.3 1022.7c-51.7 0-93.9-42.2-93.9-93.9 0-51.8 42.2-93.9 93.9-93.9h63.8l636 17c51.8 0 93.9 42.1 93.9 93.9 0 51.8-42.1 93.9-93.9 93.9l-626.6-17z"/><path class="by" d="m807.3 1022.7c-51.7 0-93.9-42.2-93.9-93.9 0-51.8 42.2-93.9 93.9-93.9h63.8l635.8 16.7c51.7 0 93.9 42.1 93.9 93.9 0 51.7-42.2 93.8-93.9 93.8l-626.4-16.6z"/><path class="bz" d="m807.3 1022.7c-51.7 0-93.9-42.2-93.9-93.9 0-51.8 42.2-93.9 93.9-93.9h63.8l635.5 16.3c51.8 0 94 42.2 94 93.9 0 51.8-42.2 93.9-94 93.9l-626.1-16.3z"/><path class="bA" d="m807.3 1022.7c-51.7 0-93.9-42.2-93.9-93.9 0-51.8 42.2-93.9 93.9-93.9h63.8l635.3 16c51.8 0 94 42.1 94 93.9 0 51.8-42.2 93.9-94 93.9l-625.9-16z"/><path class="bB" d="m807.3 1022.7c-51.7 0-93.9-42.2-93.9-93.9 0-51.8 42.2-93.9 93.9-93.9h63.8l635.1 15.7c51.8 0 94 42.1 94 93.9 0 51.7-42.2 93.8-94 93.8l-625.7-15.6z"/><path class="bC" d="m807.3 1022.7c-51.7 0-93.9-42.2-93.9-93.9 0-51.8 42.2-93.9 93.9-93.9h63.8l634.9 15.3c51.8 0 93.9 42.2 93.9 93.9 0 51.8-42.1 93.9-93.9 93.9l-625.5-15.3z"/><path class="bD" d="m807.3 1022.7c-51.7 0-93.9-42.2-93.9-93.9 0-51.8 42.2-93.9 93.9-93.9h63.8l634.7 15c51.8 0 93.9 42.1 93.9 93.9 0 51.8-42.1 93.9-93.9 93.9l-625.3-15z"/><path class="bE" d="m807.3 1022.7c-51.7 0-93.9-42.2-93.9-93.9 0-51.8 42.2-93.9 93.9-93.9h63.8l634.5 14.7c51.8 0 93.9 42.1 93.9 93.9 0 51.7-42.1 93.8-93.9 93.8l-625.1-14.6z"/><path class="bF" d="m807.3 1022.7c-51.7 0-93.9-42.2-93.9-93.9 0-51.8 42.2-93.9 93.9-93.9h63.8l634.3 14.3c51.7 0 93.9 42.2 93.9 93.9 0 51.8-42.2 93.9-93.9 93.9l-624.9-14.3z"/><path class="bG" d="m807.3 1022.7c-51.7 0-93.9-42.2-93.9-93.9 0-51.8 42.2-93.9 93.9-93.9h63.8l634 14c51.8 0 94 42.1 94 93.9 0 51.8-42.2 93.9-94 93.9l-624.6-14z"/><path class="bH" d="m807.3 1022.7c-51.7 0-93.9-42.2-93.9-93.9 0-51.8 42.2-93.9 93.9-93.9h63.8l633.8 13.7c51.8 0 94 42.1 94 93.9 0 51.7-42.2 93.8-94 93.8l-624.4-13.6z"/><path class="bI" d="m807.3 1022.7c-51.7 0-93.9-42.2-93.9-93.9 0-51.8 42.2-93.9 93.9-93.9h63.8l633.6 13.3c51.8 0 94 42.2 94 93.9 0 51.8-42.2 93.9-94 93.9l-624.2-13.3z"/><path class="bJ" d="m807.3 1022.7c-51.7 0-93.9-42.2-93.9-93.9 0-51.8 42.2-93.9 93.9-93.9h63.8l633.4 13c51.8 0 93.9 42.1 93.9 93.9 0 51.8-42.1 93.9-93.9 93.9l-624-13z"/><path class="bK" d="m807.3 1022.7c-51.7 0-93.9-42.2-93.9-93.9 0-51.8 42.2-93.9 93.9-93.9h63.8l633.2 12.7c51.8 0 93.9 42.1 93.9 93.9 0 51.7-42.1 93.8-93.9 93.8l-623.8-12.6z"/><path class="bL" d="m807.3 1022.7c-51.7 0-93.9-42.2-93.9-93.9 0-51.8 42.2-93.9 93.9-93.9h63.8l633 12.3c51.8 0 93.9 42.2 93.9 93.9 0 51.8-42.1 93.9-93.9 93.9l-623.6-12.3z"/><path class="bM" d="m807.3 1022.7c-51.7 0-93.9-42.2-93.9-93.9 0-51.8 42.2-93.9 93.9-93.9h63.8l632.8 12c51.8 0 93.9 42.1 93.9 93.9 0 51.8-42.1 93.9-93.9 93.9l-623.4-12z"/><path class="bN" d="m807.3 1022.7c-51.7 0-93.9-42.2-93.9-93.9 0-51.8 42.2-93.9 93.9-93.9h63.8l632.6 11.7c51.7 0 93.9 42.1 93.9 93.9 0 51.7-42.2 93.8-93.9 93.8l-623.2-11.6z"/><path class="bO" d="m807.3 1022.7c-51.7 0-93.9-42.2-93.9-93.9 0-51.8 42.2-93.9 93.9-93.9h63.8l632.3 11.3c51.8 0 94 42.1 94 93.9 0 51.8-42.2 93.9-94 93.9l-622.9-11.3z"/><path class="bP" d="m807.3 1022.7c-51.7 0-93.9-42.2-93.9-93.9 0-51.8 42.2-93.9 93.9-93.9h63.8l632.1 11c51.8 0 94 42.1 94 93.9 0 51.8-42.2 93.9-94 93.9l-622.7-11z"/><path class="bQ" d="m807.3 1022.7c-51.7 0-93.9-42.2-93.9-93.9 0-51.8 42.2-93.9 93.9-93.9h63.8l631.9 10.7c51.8 0 93.9 42.1 93.9 93.9 0 51.7-42.1 93.8-93.9 93.8l-622.5-10.6z"/><path class="bR" d="m807.3 1022.7c-51.7 0-93.9-42.2-93.9-93.9 0-51.8 42.2-93.9 93.9-93.9h63.8l631.7 10.3c51.8 0 93.9 42.1 93.9 93.9 0 51.8-42.1 93.9-93.9 93.9l-622.3-10.3z"/><path class="bS" d="m807.3 1022.7c-51.7 0-93.9-42.2-93.9-93.9 0-51.8 42.2-93.9 93.9-93.9h63.8l631.5 10c51.8 0 93.9 42.1 93.9 93.9 0 51.8-42.1 93.9-93.9 93.9l-622.1-10z"/><path class="bT" d="m807.3 1022.7c-51.7 0-93.9-42.2-93.9-93.9 0-51.8 42.2-93.9 93.9-93.9h63.8l631.3 9.7c51.8 0 93.9 42.1 93.9 93.9 0 51.7-42.1 93.8-93.9 93.8l-621.9-9.6z"/><path class="bU" d="m807.3 1022.7c-51.7 0-93.9-42.2-93.9-93.9 0-51.8 42.2-93.9 93.9-93.9h63.8l631.1 9.3c51.7 0 93.9 42.1 93.9 93.9 0 51.8-42.2 93.9-93.9 93.9l-621.7-9.3z"/><path class="bV" d="m807.3 1022.7c-51.7 0-93.9-42.2-93.9-93.9 0-51.8 42.2-93.9 93.9-93.9h63.8l630.8 9c51.8 0 94 42.1 94 93.9 0 51.8-42.2 93.9-94 93.9l-621.4-9z"/><path class="bW" d="m807.3 1022.7c-51.7 0-93.9-42.2-93.9-93.9 0-51.8 42.2-93.9 93.9-93.9h63.8l630.6 8.7c51.8 0 94 42.1 94 93.9 0 51.7-42.2 93.8-94 93.8l-621.2-8.6z"/><path class="bX" d="m807.3 1022.7c-51.7 0-93.9-42.2-93.9-93.9 0-51.8 42.2-93.9 93.9-93.9h63.8l630.4 8.3c51.8 0 94 42.1 94 93.9 0 51.8-42.2 93.9-94 93.9l-621-8.3z"/><path class="bY" d="m807.3 1022.7c-51.7 0-93.9-42.2-93.9-93.9 0-51.8 42.2-93.9 93.9-93.9h63.8l630.2 8c51.8 0 93.9 42.1 93.9 93.9 0 51.8-42.1 93.9-93.9 93.9l-620.8-8z"/><path class="bZ" d="m807.3 1022.7c-51.7 0-93.9-42.2-93.9-93.9 0-51.8 42.2-93.9 93.9-93.9h63.8l630 7.7c51.8 0 93.9 42.1 93.9 93.9 0 51.7-42.1 93.8-93.9 93.8l-620.6-7.6z"/><path class="c0" d="m807.3 1022.7c-51.7 0-93.9-42.2-93.9-93.9 0-51.8 42.2-93.9 93.9-93.9h63.8l629.8 7.3c51.8 0 93.9 42.1 93.9 93.9 0 51.8-42.1 93.9-93.9 93.9l-620.4-7.3z"/><path class="c1" d="m807.3 1022.7c-51.7 0-93.9-42.2-93.9-93.9 0-51.8 42.2-93.9 93.9-93.9h63.8l629.6 7c51.7 0 93.9 42.1 93.9 93.9 0 51.8-42.2 93.9-93.9 93.9l-620.2-7z"/><path class="c2" d="m807.3 1022.7c-51.7 0-93.9-42.2-93.9-93.9 0-51.8 42.2-93.9 93.9-93.9h63.8l629.3 6.7c51.8 0 94 42.1 94 93.9 0 51.7-42.2 93.8-94 93.8l-619.9-6.6z"/><path class="c3" d="m807.3 1022.7c-51.7 0-93.9-42.2-93.9-93.9 0-51.8 42.2-93.9 93.9-93.9h63.8l629.1 6.3c51.8 0 94 42.1 94 93.9 0 51.8-42.2 93.9-94 93.9l-619.7-6.3z"/><path class="c4" d="m807.3 1022.7c-51.7 0-93.9-42.2-93.9-93.9 0-51.8 42.2-93.9 93.9-93.9h63.8l628.9 6c51.8 0 94 42.1 94 93.9 0 51.8-42.2 93.9-94 93.9l-619.5-6z"/><path class="c5" d="m807.3 1022.7c-51.7 0-93.9-42.2-93.9-93.9 0-51.8 42.2-93.9 93.9-93.9h63.8l628.7 5.7c51.8 0 93.9 42.1 93.9 93.8 0 51.8-42.1 93.9-93.9 93.9l-619.3-5.6z"/><path class="c6" d="m807.3 1022.7c-51.7 0-93.9-42.2-93.9-93.9 0-51.8 42.2-93.9 93.9-93.9h63.8l628.5 5.3c51.8 0 93.9 42.1 93.9 93.9 0 51.8-42.1 93.9-93.9 93.9l-619.1-5.3z"/><path class="c7" d="m807.3 1022.7c-51.7 0-93.9-42.2-93.9-93.9 0-51.8 42.2-93.9 93.9-93.9h63.8l628.3 5c51.8 0 93.9 42.1 93.9 93.9 0 51.8-42.1 93.9-93.9 93.9l-618.9-5z"/><path class="c8" d="m807.3 1022.7c-51.7 0-93.9-42.2-93.9-93.9 0-51.8 42.2-93.9 93.9-93.9h63.8l628.1 4.7c51.8 0 93.9 42.1 93.9 93.8 0 51.8-42.1 93.9-93.9 93.9l-618.7-4.6z"/><path class="c9" d="m807.3 1022.7c-51.7 0-93.9-42.2-93.9-93.9 0-51.8 42.2-93.9 93.9-93.9h63.8l627.9 4.3c51.7 0 93.9 42.1 93.9 93.9 0 51.8-42.2 93.9-93.9 93.9l-618.5-4.3z"/><path class="ca" d="m807.3 1022.7c-51.7 0-93.9-42.2-93.9-93.9 0-51.8 42.2-93.9 93.9-93.9h63.8l627.6 4c51.8 0 94 42.1 94 93.9 0 51.8-42.2 93.9-94 93.9l-618.2-4z"/><path class="cb" d="m807.3 1022.7c-51.7 0-93.9-42.2-93.9-93.9 0-51.8 42.2-93.9 93.9-93.9h63.8l627.4 3.6c51.8 0 94 42.2 94 93.9 0 51.8-42.2 93.9-94 93.9l-618-3.6z"/><path class="cc" d="m807.3 1022.7c-51.7 0-93.9-42.2-93.9-93.9 0-51.8 42.2-93.9 93.9-93.9h63.8l627.2 3.3c51.8 0 93.9 42.1 93.9 93.9 0 51.8-42.1 93.9-93.9 93.9l-617.8-3.3z"/><path class="cd" d="m807.3 1022.7c-51.7 0-93.9-42.2-93.9-93.9 0-51.8 42.2-93.9 93.9-93.9h63.8l627 3c51.8 0 93.9 42.1 93.9 93.9 0 51.8-42.1 93.9-93.9 93.9l-617.6-3z"/><path class="ce" d="m807.3 1022.7c-51.7 0-93.9-42.2-93.9-93.9 0-51.8 42.2-93.9 93.9-93.9h63.8l626.8 2.6c51.8 0 93.9 42.2 93.9 93.9 0 51.8-42.1 93.9-93.9 93.9l-617.4-2.6z"/><path class="cf" d="m807.3 1022.7c-51.7 0-93.9-42.2-93.9-93.9 0-51.8 42.2-93.9 93.9-93.9h63.8l626.6 2.3c51.8 0 93.9 42.1 93.9 93.9 0 51.8-42.1 93.9-93.9 93.9l-617.2-2.3z"/><path class="cg" d="m807.3 1022.7c-51.7 0-93.9-42.2-93.9-93.9 0-51.8 42.2-93.9 93.9-93.9h63.8l626.4 2c51.7 0 93.9 42.1 93.9 93.9 0 51.8-42.2 93.9-93.9 93.9l-617-2z"/><path class="ch" d="m807.3 1022.7c-51.7 0-93.9-42.2-93.9-93.9 0-51.8 42.2-93.9 93.9-93.9h63.8l626.1 1.6c51.8 0 94 42.2 94 93.9 0 51.8-42.2 93.9-94 93.9l-616.7-1.6z"/><path class="ci" d="m807.3 1022.7c-51.7 0-93.9-42.2-93.9-93.9 0-51.8 42.2-93.9 93.9-93.9h63.8l625.9 1.3c51.8 0 94 42.1 94 93.9 0 51.8-42.2 93.9-94 93.9l-616.5-1.3z"/><path class="cj" d="m807.3 1022.7c-51.7 0-93.9-42.2-93.9-93.9 0-51.8 42.2-93.9 93.9-93.9h63.8l625.7 1c51.8 0 94 42.1 94 93.9 0 51.8-42.2 93.9-94 93.9l-616.3-1z"/><path class="ck" d="m807.3 1022.7c-51.7 0-93.9-42.2-93.9-93.9 0-51.8 42.2-93.9 93.9-93.9h63.8l625.5 0.6c51.8 0 93.9 42.2 93.9 93.9 0 51.8-42.1 93.9-93.9 93.9l-616.1-0.6z"/><path class="cl" d="m807.3 1022.7c-51.7 0-93.9-42.2-93.9-93.9 0-51.8 42.2-93.9 93.9-93.9h63.8l625.3 0.3c51.8 0 93.9 42.1 93.9 93.9 0 51.8-42.1 93.9-93.9 93.9l-615.9-0.3z"/><path class="cm" d="m807.3 1022.7c-51.7 0-93.9-42.2-93.9-93.9 0-51.8 42.2-93.9 93.9-93.9h63.8 625.1c51.8 0 93.9 42.1 93.9 93.9 0 51.7-42.1 93.9-93.9 93.9h-615.7z"/></g><path class="cp" d="m1591.9 928.8c0 52.8-42.8 95.6-95.7 95.6h-688.9c-52.8 0-95.6-42.8-95.6-95.6 0-52.9 42.8-95.7 95.6-95.7h688.9c52.9 0 95.7 42.8 95.7 95.7z"/><path class="cq" d="m807.3 1022.7c-51.7 0-93.9-42.2-93.9-93.9 0-51.8 42.2-93.9 93.9-93.9h688.9c51.8 0 93.9 42.1 93.9 93.9 0 51.7-42.1 93.9-93.9 93.9z"/><path class="cr" d="m807.3 1022.7c-51.7 0-93.9-42.2-93.9-93.9 0-51.8 42.2-93.9 93.9-93.9h688.9c51.8 0 93.9 42.1 93.9 93.9 0 51.7-42.1 93.9-93.9 93.9z"/><path class="av" d="m895.7 914q-0.2 1.3-3 6.4-8.9 16-9.4 27.3l-4.7 0.7q-0.5-1.2-0.5-3.9 0-6.6 8.6-24.1-2.8 1.1-4.6 1.1-1.8 0-3.3-0.5l1.6-3.8q0.9 0.2 1.8 0.2 2.3 0 4.8-1.5 2.4-1.5 3.8-3.3 1.3-1.9 2.3-1.9 0.9 0 1.8 0.7 1 0.7 1 1.5 0 0.8-0.2 1.1zm23.3-1.4q4.2 0 6.6 2.4 2.5 2.3 2.5 6.8 0 4.5-3.7 10.9-3.8 6.5-9.9 11.3-6 4.7-11.5 4.7-8.9 0-8.9-10 0-5.8 3.7-11.9 3.8-6.1 9.6-10.1 5.9-4.1 11.6-4.1zm-5 28.1q3.7-3.5 5.9-8.5 2.3-5 2.3-8.7 0-3.7-1.7-5.7-1.7-2-4.7-2-5.1 0-10.3 6.8-5.1 6.6-5.1 13.4 0 3.6 1.7 6 1.7 2.3 4.9 2.3 3.4 0 7-3.6zm65-13.4v3.5l-15.3 2.1-0.9-4q6.3-1.2 16.2-1.6zm52.4-13.3q-0.3 1.3-3.1 6.4-8.9 16-9.4 27.3l-4.7 0.7q-0.5-1.2-0.5-3.9 0-6.6 8.6-24.1-2.8 1.1-4.6 1.1-1.7 0-3.3-0.5l1.6-3.8q0.9 0.2 1.8 0.2 2.4 0 4.8-1.5 2.5-1.5 3.8-3.3 1.3-1.9 2.3-1.9 1 0 1.8 0.7 1 0.7 1 1.5 0 0.8-0.1 1.1zm16.1 0q-0.2 1.3-3 6.4-8.9 16-9.4 27.3l-4.8 0.7q-0.4-1.2-0.4-3.9 0-6.6 8.6-24.1-2.8 1.1-4.6 1.1-1.8 0-3.4-0.5l1.7-3.8q0.9 0.2 1.8 0.2 2.3 0 4.8-1.5 2.4-1.5 3.7-3.3 1.4-1.9 2.3-1.9 1 0 1.9 0.7 0.9 0.7 0.9 1.5 0 0.8-0.1 1.1zm81.3 26.4l1.6 1.3q-1.3 3.1-4 5.2-2.7 2.2-4.9 2.2-2.2 0-3.4-1.5-1.3-1.6-1.3-4 0-2.4 0.8-6.3-3.4 5.5-7.4 8.6-4 3.1-6.8 3.1-4.1 0-4.1-5.3 0-0.5 1-6.3-3.4 5.4-7 8.1-3.5 2.7-6.3 2.7-4.1 0-4.1-5.3l2.8-2.6q0 1.3 0.9 2.3 1.1 0.9 2.4 0.9 2.4 0 6.6-4.1 4.2-4.2 7.7-10.9 0.7-1.5 1.7-3.5 1-2 1.5-2.9 0.4-0.9 1-2 1-1.6 2-1.6 1 0 1.7 0.8 0.7 0.8 0.7 1.9 0 1.1-0.7 2.5-0.6 1.4-2 3.8-1.4 2.4-2.2 4-1.9 5-1.9 6.8 0 1.9 0.9 2.9 1.1 0.9 2.4 0.9 2.5 0 6-3.8 3.5-4 7.3-11.6 0.5-1 1.1-2.2 0.5-1.3 0.8-1.8 0.3-0.7 0.7-1.5 0.4-0.8 0.7-1.2 0.3-0.5 0.6-0.8 0.6-0.7 1.4-0.7 0.9 0 1.6 0.8 0.7 0.8 0.7 1.9 0 1.1-3.7 9.2-3.7 8.1-3.7 9.8 0 1.7 0.7 2.5 0.7 0.8 1.4 0.8 0.7 0 1.1 0 0.4-0.1 0.8-0.3 0.3-0.3 0.6-0.4 0.2-0.2 0.6-0.5l0.5-0.6q0.3-0.2 0.6-0.6 0.5-0.5 0.6-0.7zm38.1 1.1l1.7 1.3q-1.1 2.2-3.9 4.2-2.7 2-5 2-4.4 0-4.4-4.6 0-2.1 1.1-5.1l-2.7 2.8q-4 4.1-7 5.5-2.9 1.4-5.7 1.4-2.8 0-4.3-1.6-1.4-1.6-1.4-4.4 0-5.2 4-10.2 4-5.1 10.2-8.3 6.3-3.2 12.5-3.3l0.1 2.5-3.1 0.7q-6.7 1.4-11.9 5.9-5.1 4.4-5.1 8.9 0 4.3 3.5 4.3 3.4 0 8.3-4.6 4.8-4.7 8.1-11l3.1 1.9q-4.6 9.2-4.6 11.7 0 1.1 0.7 1.8 0.7 0.7 1.4 0.7 0.7 0 1-0.1 0.2-0.1 0.4-0.2 0.2-0.1 0.5-0.3 0.4-0.2 0.6-0.5 0.3-0.2 0.9-0.6 0.6-0.5 1-0.8zm34.5-1.2l1.6 1.3q-1.3 3.1-4 5.3-2.7 2.1-4.9 2.1-2.2 0-3.4-1.5-1.3-1.5-1.3-4 0-2.4 0.8-6.3-3.4 5.5-7.4 8.6-4 3.1-6.8 3.1-4.1 0-4.1-4.9 0-5 3.4-13.4 3.5-8.4 4.9-9.6l3.6 1.6q-3 4.9-4.6 9.6-1.5 4.7-1.5 6.4 0 1.5 0.9 2.5 1.1 0.9 2.4 0.9 2.9 0 7.3-5.4 4.5-5.4 9-16.2l3.8 1.7q-0.1 0.6-3.4 8.5-3.2 8-3.2 9.7 0 1.5 0.7 2.3 0.7 0.9 1.4 0.9 0.7 0 1.1-0.1 0.4-0.1 0.8-0.3 0.3-0.2 0.5-0.4 0.3-0.1 0.7-0.5l0.6-0.6q0.2-0.1 0.5-0.6 0.5-0.5 0.6-0.7zm-4.3-28.2l2.2 1.2q-1.4 2.3-3.8 4.1-2.3 1.8-4.6 1.8-2.3 0-4.8-1.7-2.5-1.8-4.1-3.6l2.4-2q3.8 3.8 6.3 3.8 3.8 0 6.4-3.6zm9.6 34.5q0-1.4 0.9-2.3 1.1-0.9 2.5-0.9 1.5 0 2.3 0.9 0.8 0.8 0.8 2.2 0 3.2-5.6 7.3l-1.7-2.4q3-2.3 3.1-2.5-2.3-0.7-2.3-2.3zm53.1-24.8q3.1-3.7 8.2-6.4 5.1-2.8 8.5-2.8 3.5 0 5.5 1.8 2 1.9 2 5.3 0 3.4-2.7 6.2-2.8 2.7-11 7-8.2 4.1-15.2 10.2 10.1-1.6 18.8-1.6 2 0 3.2 0.2v4.6q-1.6 0.3-2.2 0.3-0.5 0-1.8 0-1.2 0.1-4.9 0.3-3.6 0.2-7.4 0.5-3.8 0.4-5.2 0.6-1.4 0.2-1.6 0.2-1.2 0-2.1-1.5-0.9-1.5-0.9-3 0.6-2.2 5.8-6.6 5.4-4.4 13.7-8.7 2.4-1.2 4.5-3.2 2-2 2-3.8 0-3.4-3.6-3.4-4.8 0-12.3 6.2zm47.2-9.2q4.2 0 6.6 2.4 2.5 2.4 2.5 6.9 0 4.4-3.7 10.9-3.8 6.4-9.9 11.2-6 4.7-11.4 4.7-9 0-9-9.9 0-5.9 3.7-12 3.8-6.1 9.6-10.1 5.9-4.1 11.6-4.1zm-5 28.2q3.7-3.6 5.9-8.6 2.3-4.9 2.3-8.6 0-3.8-1.7-5.7-1.7-2-4.6-2-5.2 0-10.4 6.7-5.1 6.7-5.1 13.4 0 3.6 1.7 6 1.7 2.3 5 2.3 3.3 0 6.9-3.5zm21.8-19q3.1-3.6 8.2-6.4 5.1-2.8 8.5-2.8 3.5 0 5.5 1.9 2 1.8 2 5.2 0 3.4-2.8 6.3-2.7 2.7-10.9 6.9-8.2 4.2-15.3 10.2 10.2-1.5 18.9-1.5 2 0 3.2 0.1v4.7q-1.6 0.3-2.2 0.3-0.6-0.1-1.8 0-1.3 0-4.9 0.3-3.6 0.1-7.5 0.5-3.7 0.4-5.2 0.6-1.3 0.1-1.6 0.1-1.2 0-2.1-1.5-0.8-1.5-0.8-2.9 0.6-2.3 5.8-6.7 5.3-4.3 13.6-8.6 2.5-1.3 4.5-3.3 2.1-2 2.1-3.8 0-3.4-3.6-3.4-4.8 0-12.4 6.3zm55.4-8.6l-0.3 4.6q-1-0.1-4.5-0.1-3.5 0-6 0.3-2.3 0.3-5.9 1.2-4.3 6.3-5.3 8.9 2-0.2 3.6-0.2 5 0 8.5 2.4 3.6 2.5 3.6 6.1 0 5.1-5.3 8.7-5.4 3.7-12.3 3.7-6.8 0-9.5-3.6l3.1-2.8q0.9 1 3 1.8 2.2 0.9 4 0.9 4.1 0 7.2-2.4 3.1-2.4 3.1-5.8 0-2.3-2.7-3.9-2.7-1.6-7.1-1.6-4.4 0-4.4-2.6 0-1.2 2.1-4.8 2.1-3.7 2.4-4.2 0.3-0.5 0.8-1.3 0.6-0.8 0.8-1 0.2-0.3 0.7-0.9 0.5-0.6 0.9-0.9 1.1-0.6 2.6-1.1 5.9-1.4 13.4-1.4zm22.5 35.1l6.2-2 0.1 1.8q-0.8 0.4-6.7 2.7-2.4 14.1-7 20.4-4.6 6.3-11.3 6.3-3.1 0-4.9-2-1.9-2-1.9-5.2 0-6.4 5.9-11.8 5.8-5.6 15.6-8.8 1.1-4.9 4-14-5 7.6-9 10.3-4 2.6-7.3 2.6-3.2 0-4.9-1.8-1.7-1.7-1.7-4.7 0-4.9 4.1-9.9 4.1-5.1 10.2-8.3 6.2-3.3 12-3.3l0.6 2.6q-8.2 0.9-14.1 5.8-5.9 4.9-5.9 9.4 0 1.9 1.2 3.2 1.2 1.2 2.9 1.2 2.5 0 7.6-5.3 5.1-5.3 7.2-9.1l2.7 1.6q-4.1 10.8-5.6 18.3zm-4.4 3.6q-6.5 3-10.7 7.1-4.2 4.2-4.2 7.6 0 1.8 1 2.9 1.1 1.1 2.6 1.1 3.1 0 6.1-4.4 3.1-4.3 5.2-14.3zm12-3.4q-0.9-0.8-0.9-2.1 0-1.3 0.9-2.2 0.9-0.8 2.2-0.8 1.2 0 2.1 0.8 0.9 0.9 0.9 2.2 0 1.3-0.9 2.1-0.9 0.9-2.1 0.9-1.3 0-2.2-0.9z"/></svg>