<svg version="1.2" xmlns="http://www.w3.org/2000/svg" viewBox="0 0 1920 1080" width="1920" height="1080"><defs><linearGradient id="P" gradientUnits="userSpaceOnUse"/><linearGradient id="g1" x2="1" href="#P" gradientTransform="matrix(0,647.341,-647.351,0,680.386,-36.324)"><stop offset=".19" stop-color="#bebfbd"/><stop offset=".23" stop-color="#dce0df"/><stop offset=".25"/><stop offset="1" stop-color="#0a0b14"/></linearGradient><linearGradient id="g2" x2="1" href="#P" gradientTransform="matrix(880.218,0,0,191.318,732.654,765.107)"><stop stop-color="#f1f2f2"/><stop offset="1" stop-color="#fff"/></linearGradient><linearGradient id="g3" x2="1" href="#P" gradientTransform="matrix(876.698,0,0,187.773,666.104,766.879)"><stop offset=".19" stop-color="#414042"/><stop offset=".23" stop-color="#231f20"/><stop offset=".25" stop-color="#fff"/><stop offset="1" stop-color="#f5f4eb"/></linearGradient></defs><style>.a{fill:#fff}.b{fill:#fcfcfc}.c{fill:#fafafa}.d{fill:#f7f7f7}.e{fill:#f5f5f5}.f{fill:#f2f2f2}.g{fill:#f0f0f0}.h{fill:#ededed}.i{fill:#ebebeb}.j{fill:#e8e8e8}.k{fill:#e6e6e6}.l{fill:#e3e3e3}.m{fill:#e1e1e1}.n{fill:#dedede}.o{fill:#dcdcdc}.p{fill:#d9d9d9}.q{fill:#d7d7d7}.r{fill:#d4d4d4}.s{fill:#d2d2d2}.t{fill:#cfcfcf}.u{fill:#cdcdcd}.v{fill:#cacaca}.w{fill:#c7c7c7}.x{fill:#c5c5c5}.y{fill:#c2c2c2}.z{fill:#c0c0c0}.A{fill:#bdbdbd}.B{fill:#bbb}.C{fill:#b8b8b8}.D{fill:#b6b6b6}.E{fill:#b3b3b3}.F{fill:#b1b1b1}.G{fill:#aeaeae}.H{fill:#acacac}.I{fill:#a9a9a9}.J{fill:#a7a7a7}.K{fill:#a4a4a4}.L{fill:#a2a2a2}.M{fill:#9f9f9f}.N{fill:#9d9d9d}.O{fill:#9a9a9a}.P{fill:#979797}.Q{fill:#959595}.R{fill:#929292}.S{fill:#909090}.T{fill:#8d8d8d}.U{fill:#8b8b8b}.V{fill:#888}.W{fill:#868686}.X{fill:#838383}.Y{fill:#818181}.Z{fill:#7e7e7e}.a0{fill:#7c7c7c}.a1{fill:#797979}.a2{fill:#777}.a3{fill:#747474}.a4{fill:#727272}.a5{fill:#6f6f6f}.a6{fill:#6d6d6d}.a7{fill:#6a6a6a}.a8{fill:#686868}.a9{fill:#656565}.aa{fill:#626262}.ab{fill:#606060}.ac{fill:#5d5d5d}.ad{fill:#5b5b5b}.ae{fill:#585858}.af{fill:#565656}.ag{fill:#535353}.ah{fill:#515151}.ai{fill:#4e4e4e}.aj{fill:#4c4c4c}.ak{fill:#494949}.al{fill:#474747}.am{fill:#444}.an{fill:#424242}.ao{fill:#3f3f3f}.ap{fill:#3d3d3d}.aq{fill:#3a3a3a}.ar{fill:#383838}.as{fill:#353535}.at{fill:#323232}.au{fill:#303030}.av{fill:#2d2d2d}.aw{fill:#2b2b2b}.ax{fill:#282828}.ay{fill:#262626}.az{fill:#232323}.aA{fill:#212121}.aB{fill:#1e1e1e}.aC{fill:#1c1c1c}.aD{fill:#191919}.aE{fill:#171717}.aF{fill:#141414}.aG{fill:#121212}.aH{fill:#0f0f0f}.aI{fill:#0d0d0d}.aJ{fill:#0a0a0a}.aK{fill:#080808}.aL{fill:#050505}.aM{fill:#030303}.aN{fill:#f9928b}.aO{fill:#fdfdfd}.aP{fill:#fbfbfb}.aQ{fill:#f8f8f8}.aR{fill:#f6f6f6}.aS{fill:#f4f4f4}.aT{fill:#f0eff0}.aU{fill:#eeeded}.aV{fill:#e9e9e9}.aW{fill:#e7e7e7}.aX{fill:#e5e4e5}.aY{fill:#e3e2e2}.aZ{fill:#e1e0e0}.b0{fill:#dad9d9}.b1{fill:#d8d7d7}.b2{fill:#d6d5d5}.b3{fill:#d3d3d3}.b4{fill:#d1d0d1}.b5{fill:#cfcece}.b6{fill:#cdcccc}.b7{fill:#cbcaca}.b8{fill:#c9c8c8}.b9{fill:#c6c5c6}.ba{fill:#c4c3c3}.bb{fill:#c2c1c1}.bc{fill:#c0bfbf}.bd{fill:#bebcbd}.be{fill:#bbbabb}.bf{fill:#b9b8b8}.bg{fill:#b7b6b6}.bh{fill:#b5b4b4}.bi{fill:#b3b1b2}.bj{fill:#b1afb0}.bk{fill:#aeadad}.bl{fill:#acabab}.bm{fill:#aaa9a9}.bn{fill:#a8a6a7}.bo{fill:#a6a4a4}.bp{fill:#a4a2a2}.bq{fill:#a1a0a0}.br{fill:#9f9d9e}.bs{fill:#9d9b9c}.bt{fill:#9b9999}.bu{fill:#999797}.bv{fill:#969595}.bw{fill:#949293}.bx{fill:#929091}.by{fill:#908e8e}.bz{fill:#8e8c8c}.bA{fill:#8c898a}.bB{fill:#898788}.bC{fill:#878586}.bD{fill:#858383}.bE{fill:#838181}.bF{fill:#817e7f}.bG{fill:#7e7c7d}.bH{fill:#7c7a7b}.bI{fill:#7a7878}.bJ{fill:#787576}.bK{fill:#767374}.bL{fill:#747172}.bM{fill:#716f6f}.bN{fill:#6f6d6d}.bO{fill:#6d6a6b}.bP{fill:#6b6869}.bQ{fill:#696667}.bR{fill:#676464}.bS{fill:#646262}.bT{fill:#625f60}.bU{fill:#605d5e}.bV{fill:#5e5b5c}.bW{fill:#5c5959}.bX{fill:#595657}.bY{fill:#575455}.bZ{fill:#555253}.c0{fill:#535051}.c1{fill:#514e4e}.c2{fill:#4f4b4c}.c3{fill:#4c494a}.c4{fill:#4a4748}.c5{fill:#484546}.c6{fill:#464243}.c7{fill:#444041}.c8{fill:#413e3f}.c9{fill:#3f3c3d}.ca{fill:#3d3a3a}.cb{fill:#3b3738}.cc{fill:#393536}.cd{fill:#373334}.ce{fill:#343132}.cf{fill:#322f2f}.cg{fill:#302c2d}.ch{fill:#2e2a2b}.ci{fill:#2c2829}.cj{fill:#2a2627}.ck{fill:#272324}.cl{fill:#252122}.cm{fill:#231f20}.cn{fill:#fef6ad}.co{opacity:.3;mix-blend-mode:screen;fill:url(#g1)}.cp{mix-blend-mode:overlay;fill:url(#g2)}.cq{fill:#d2ee7f}.cr{opacity:.1;mix-blend-mode:color-burn;fill:url(#g3)}</style><g style="opacity:.5;mix-blend-mode:multiply"><path class="a" d="m1472.5 564.5l82.3-78c23.4-22.1 61.6-58.3 84.9-80.3l82.4-78c23.3-22.1 21.5-56.2-4-75.7l-90-69c-25.5-19.6-67.2-51.6-92.8-71.1l-90-69c-25.5-19.6-45-9.3-43.3 22.8l3.3 65-227.5 11.9c-16.1 0.8-28.4 14.6-27.6 30.7l-5 314.7c0.8 16.1 14.5 28.5 30.7 27.7l247.7-34.9 3.4 65c1.7 32.1 22.1 40.2 45.5 18.2z"/><path class="b" d="m1472.5 564.5l82.3-78c23.4-22.1 61.6-58.3 84.9-80.3l82.4-78c23.3-22.1 21.5-56.2-4-75.7l-90-69c-25.5-19.6-67.2-51.6-92.8-71.1l-90-69c-25.5-19.6-45-9.3-43.3 22.8l3.3 65-227.5 11.9c-16.1 0.8-28.4 14.6-27.6 30.7l-4.8 314.5c0.8 16.1 14.5 28.5 30.7 27.7l247.5-34.7 3.4 65c1.7 32.1 22.1 40.2 45.5 18.2z"/><path class="c" d="m1472.5 564.5l82.3-78c23.4-22.1 61.6-58.3 84.9-80.3l82.4-78c23.3-22.1 21.5-56.2-4-75.7l-90-69c-25.5-19.6-67.2-51.6-92.8-71.1l-90-69c-25.5-19.6-45-9.3-43.3 22.8l3.3 65-227.5 11.9c-16.1 0.8-28.4 14.6-27.6 30.7l-4.6 314.3c0.8 16.1 14.5 28.5 30.7 27.6l247.3-34.4 3.4 65c1.7 32.1 22.1 40.2 45.5 18.2z"/><path class="d" d="m1472.5 564.5l82.3-78c23.4-22.1 61.6-58.3 84.9-80.3l82.4-78c23.3-22.1 21.5-56.2-4-75.7l-90-69c-25.5-19.6-67.2-51.6-92.8-71.1l-90-69c-25.5-19.6-45-9.3-43.3 22.8l3.3 65-227.5 11.9c-16.1 0.8-28.4 14.6-27.6 30.7l-4.4 314.1c0.8 16.1 14.6 28.4 30.7 27.6l247.1-34.2 3.4 65c1.7 32.1 22.1 40.2 45.5 18.2z"/><path class="e" d="m1472.5 564.5l82.3-78c23.4-22.1 61.6-58.3 84.9-80.3l82.4-78c23.3-22.1 21.5-56.2-4-75.7l-90-69c-25.5-19.6-67.2-51.6-92.8-71.1l-90-69c-25.5-19.6-45-9.3-43.3 22.8l3.3 65-227.5 11.9c-16.1 0.8-28.4 14.6-27.6 30.7l-4.2 313.8c0.8 16.1 14.6 28.5 30.7 27.7l246.9-34 3.4 65c1.7 32.1 22.1 40.2 45.5 18.2z"/><path class="f" d="m1472.5 564.5l82.3-78c23.4-22.1 61.6-58.3 84.9-80.3l82.4-78c23.3-22.1 21.5-56.2-4-75.7l-90-69c-25.5-19.6-67.2-51.6-92.8-71.1l-90-69c-25.5-19.6-45-9.3-43.3 22.8l3.3 65-227.5 11.9c-16.1 0.8-28.4 14.6-27.6 30.7l-4 313.6c0.8 16.1 14.6 28.5 30.7 27.7l246.7-33.8 3.4 65c1.7 32.1 22.1 40.2 45.5 18.2z"/><path class="g" d="m1472.5 564.5l82.3-78c23.4-22.1 61.6-58.3 84.9-80.3l82.4-78c23.3-22.1 21.5-56.2-4-75.7l-90-69c-25.5-19.6-67.2-51.6-92.8-71.1l-90-69c-25.5-19.6-45-9.3-43.3 22.8l3.3 65-227.5 11.9c-16.1 0.8-28.4 14.6-27.6 30.7l-3.8 313.4c0.8 16.1 14.6 28.5 30.7 27.6l246.5-33.5 3.4 65c1.7 32.1 22.1 40.2 45.5 18.2z"/><path class="h" d="m1472.5 564.5l82.3-78c23.4-22.1 61.6-58.3 84.9-80.3l82.4-78c23.3-22.1 21.5-56.2-4-75.7l-90-69c-25.5-19.6-67.2-51.6-92.8-71.1l-90-69c-25.5-19.6-45-9.3-43.3 22.8l3.3 65-227.5 11.9c-16.1 0.8-28.4 14.6-27.6 30.7l-3.6 313.1c0.8 16.1 14.6 28.5 30.7 27.7l246.3-33.3 3.4 65c1.7 32.1 22.1 40.2 45.5 18.2z"/><path class="i" d="m1472.5 564.5l82.3-78c23.4-22.1 61.6-58.3 84.9-80.3l82.4-78c23.3-22.1 21.5-56.2-4-75.7l-90-69c-25.5-19.6-67.2-51.6-92.8-71.1l-90-69c-25.5-19.6-45-9.3-43.3 22.8l3.3 65-227.5 11.9c-16.1 0.8-28.4 14.6-27.6 30.7l-3.4 312.9c0.8 16.1 14.6 28.5 30.7 27.7l246.1-33.1 3.4 65c1.7 32.1 22.1 40.2 45.5 18.2z"/><path class="j" d="m1472.5 564.5l82.3-78c23.4-22.1 61.6-58.3 84.9-80.3l82.4-78c23.3-22.1 21.5-56.2-4-75.7l-90-69c-25.5-19.6-67.2-51.6-92.8-71.1l-90-69c-25.5-19.6-45-9.3-43.3 22.8l3.3 65-227.5 11.9c-16.1 0.8-28.4 14.6-27.6 30.7l-3.2 312.7c0.8 16.1 14.6 28.5 30.7 27.6l245.9-32.8 3.4 65c1.7 32.1 22.1 40.2 45.5 18.2z"/><path class="k" d="m1472.5 564.5l82.3-78c23.4-22.1 61.6-58.3 84.9-80.3l82.4-78c23.3-22.1 21.5-56.2-4-75.7l-90-69c-25.5-19.6-67.2-51.6-92.8-71.1l-90-69c-25.5-19.6-45-9.3-43.3 22.8l3.3 65-227.5 11.9c-16.1 0.8-28.4 14.6-27.6 30.7l-3 312.5c0.8 16.1 14.6 28.5 30.7 27.6l245.7-32.6 3.4 65c1.7 32.1 22.1 40.2 45.5 18.2z"/><path class="l" d="m1472.5 564.5l82.3-78c23.4-22.1 61.6-58.3 84.9-80.3l82.4-78c23.3-22.1 21.5-56.2-4-75.7l-90-69c-25.5-19.6-67.2-51.6-92.8-71.1l-90-69c-25.5-19.6-45-9.3-43.3 22.8l3.3 65-227.5 11.9c-16.1 0.8-28.4 14.6-27.6 30.7l-2.8 312.2c0.8 16.1 14.6 28.5 30.7 27.7l245.5-32.4 3.4 65c1.7 32.1 22.1 40.2 45.5 18.2z"/><path class="m" d="m1472.5 564.5l82.3-78c23.4-22.1 61.6-58.3 84.9-80.3l82.4-78c23.3-22.1 21.5-56.2-4-75.7l-90-69c-25.5-19.6-67.2-51.6-92.8-71.1l-90-69c-25.5-19.6-45-9.3-43.3 22.8l3.3 65-227.5 11.9c-16.1 0.8-28.4 14.6-27.6 30.7l-2.6 312c0.8 16.1 14.6 28.5 30.7 27.7l245.3-32.2 3.4 65c1.7 32.1 22.1 40.2 45.5 18.2z"/><path class="n" d="m1472.5 564.5l82.3-78c23.4-22.1 61.6-58.3 84.9-80.3l82.4-78c23.3-22.1 21.5-56.2-4-75.7l-90-69c-25.5-19.6-67.2-51.6-92.8-71.1l-90-69c-25.5-19.6-45-9.3-43.3 22.8l3.3 65-227.5 11.9c-16.1 0.8-28.4 14.6-27.6 30.7l-2.4 311.8c0.8 16.1 14.6 28.5 30.7 27.6l245.1-31.9 3.4 65c1.7 32.1 22.1 40.2 45.5 18.2z"/><path class="o" d="m1472.5 564.5l82.3-78c23.4-22.1 61.6-58.3 84.9-80.3l82.4-78c23.3-22.1 21.5-56.2-4-75.7l-90-69c-25.5-19.6-67.2-51.6-92.8-71.1l-90-69c-25.5-19.6-45-9.3-43.3 22.8l3.3 65-227.5 11.9c-16.1 0.8-28.4 14.6-27.6 30.7l-2.2 311.5c0.8 16.1 14.6 28.5 30.7 27.7l244.9-31.7 3.4 65c1.7 32.1 22.1 40.2 45.5 18.2z"/><path class="p" d="m1472.5 564.5l82.3-78c23.4-22.1 61.6-58.3 84.9-80.3l82.4-78c23.3-22.1 21.5-56.2-4-75.7l-90-69c-25.5-19.6-67.2-51.6-92.8-71.1l-90-69c-25.5-19.6-45-9.3-43.3 22.8l3.3 65-227.5 11.9c-16.1 0.8-28.4 14.6-27.6 30.7l-2 311.3c0.8 16.1 14.6 28.5 30.7 27.7l244.7-31.5 3.4 65c1.7 32.1 22.1 40.2 45.5 18.2z"/><path class="q" d="m1472.5 564.5l82.3-78c23.4-22.1 61.6-58.3 84.9-80.3l82.4-78c23.3-22.1 21.5-56.2-4-75.7l-90-69c-25.5-19.6-67.2-51.6-92.8-71.1l-90-69c-25.5-19.6-45-9.3-43.3 22.8l3.3 65-227.5 11.9c-16.1 0.8-28.4 14.6-27.6 30.7l-1.8 311.1c0.8 16.1 14.6 28.5 30.7 27.6l244.5-31.2 3.4 65c1.7 32.1 22.1 40.2 45.5 18.2z"/><path class="r" d="m1472.5 564.5l82.3-78c23.4-22.1 61.6-58.3 84.9-80.3l82.4-78c23.3-22.1 21.5-56.2-4-75.7l-90-69c-25.5-19.6-67.2-51.6-92.8-71.1l-90-69c-25.5-19.6-45-9.3-43.3 22.8l3.3 65-227.5 11.9c-16.1 0.8-28.4 14.6-27.6 30.7l-1.6 310.9c0.8 16.1 14.6 28.5 30.7 27.6l244.3-31 3.4 65c1.7 32.1 22.1 40.2 45.5 18.2z"/><path class="s" d="m1472.5 564.5l82.3-78c23.4-22.1 61.6-58.3 84.9-80.3l82.4-78c23.3-22.1 21.5-56.2-4-75.7l-90-69c-25.5-19.6-67.2-51.6-92.8-71.1l-90-69c-25.5-19.6-45-9.3-43.3 22.8l3.3 65-227.5 11.9c-16.1 0.8-28.4 14.6-27.6 30.7l-1.4 310.6c0.8 16.1 14.6 28.5 30.7 27.7l244.1-30.8 3.4 65c1.7 32.1 22.1 40.2 45.5 18.2z"/><path class="t" d="m1472.5 564.5l82.3-78c23.4-22.1 61.6-58.3 84.9-80.3l82.4-78c23.3-22.1 21.5-56.2-4-75.7l-90-69c-25.5-19.6-67.2-51.6-92.8-71.1l-90-69c-25.5-19.6-45-9.3-43.3 22.8l3.3 65-227.5 11.9c-16.1 0.8-28.4 14.6-27.6 30.7l-1.2 310.4c0.8 16.1 14.6 28.5 30.7 27.7l243.9-30.6 3.4 65c1.7 32.1 22.1 40.2 45.5 18.2z"/><path class="u" d="m1472.5 564.5l82.3-78c23.4-22.1 61.6-58.3 84.9-80.3l82.4-78c23.3-22.1 21.5-56.2-4-75.7l-90-69c-25.5-19.6-67.2-51.6-92.8-71.1l-90-69c-25.5-19.6-45-9.3-43.3 22.8l3.3 65-227.5 11.9c-16.1 0.8-28.4 14.6-27.6 30.7l-1 310.2c0.8 16.1 14.6 28.5 30.7 27.6l243.7-30.3 3.4 65c1.7 32.1 22.1 40.2 45.5 18.2z"/><path class="v" d="m1472.5 564.5l82.3-78c23.4-22.1 61.6-58.3 84.9-80.3l82.4-78c23.3-22.1 21.5-56.2-4-75.7l-90-69c-25.5-19.6-67.2-51.6-92.8-71.1l-90-69c-25.5-19.6-45-9.3-43.3 22.8l3.3 65-227.5 11.9c-16.1 0.8-28.4 14.6-27.6 30.7l-0.8 309.9c0.8 16.1 14.6 28.5 30.7 27.7l243.5-30.1 3.4 65c1.7 32.1 22.1 40.2 45.5 18.2z"/><path class="w" d="m1472.5 564.5l82.3-78c23.4-22.1 61.6-58.3 84.9-80.3l82.4-78c23.3-22.1 21.5-56.2-4-75.7l-90-69c-25.5-19.6-67.2-51.6-92.8-71.1l-90-69c-25.5-19.6-45-9.3-43.3 22.8l3.3 65-227.5 11.9c-16.1 0.8-28.4 14.6-27.6 30.7l-0.6 309.7c0.8 16.1 14.6 28.5 30.7 27.7l243.3-29.9 3.4 65c1.7 32.1 22.1 40.2 45.5 18.2z"/><path class="x" d="m1472.5 564.5l82.3-78c23.4-22.1 61.6-58.3 84.9-80.3l82.4-78c23.3-22.1 21.5-56.2-4-75.7l-90-69c-25.5-19.6-67.2-51.6-92.8-71.1l-90-69c-25.5-19.6-45-9.3-43.3 22.8l3.3 65-227.5 11.9c-16.1 0.8-28.4 14.6-27.6 30.7l-0.4 309.5c0.8 16.1 14.6 28.5 30.7 27.6l243.1-29.6 3.4 65c1.7 32.1 22.1 40.2 45.5 18.2z"/><path class="y" d="m1472.5 564.5l82.3-78c23.4-22.1 61.6-58.3 84.9-80.3l82.4-78c23.3-22.1 21.5-56.2-4-75.7l-90-69c-25.5-19.6-67.2-51.6-92.8-71.1l-90-69c-25.5-19.6-45-9.3-43.3 22.8l3.3 65-227.5 11.9c-16.1 0.8-28.4 14.6-27.6 30.7l-0.2 309.3c0.8 16.1 14.6 28.5 30.7 27.6l242.9-29.4 3.4 65c1.7 32.1 22.1 40.2 45.5 18.2z"/><path class="z" d="m1472.5 564.5l82.3-78c23.4-22.1 61.6-58.3 84.9-80.3l82.4-78c23.3-22.1 21.5-56.2-4-75.7l-90-69c-25.5-19.6-67.2-51.6-92.8-71.1l-90-69c-25.5-19.6-45-9.3-43.3 22.8l3.3 65-227.5 11.9c-16.1 0.8-28.4 14.6-27.6 30.7v309c0.8 16.1 14.6 28.5 30.7 27.7l242.7-29.2 3.4 65c1.7 32.1 22.1 40.2 45.5 18.2z"/><path class="A" d="m1472.5 564.5l82.3-78c23.4-22.1 61.6-58.3 84.9-80.3l82.4-78c23.3-22.1 21.5-56.2-4-75.7l-90-69c-25.5-19.6-67.2-51.6-92.8-71.1l-90-69c-25.5-19.6-45-9.3-43.3 22.8l3.3 65-227.5 11.9c-16.1 0.8-28.4 14.6-27.6 30.7l0.2 308.8c0.8 16.1 14.6 28.5 30.7 27.7l242.5-29 3.4 65c1.7 32.1 22.1 40.2 45.5 18.2z"/><path class="B" d="m1472.5 564.5l82.3-78c23.4-22.1 61.6-58.3 84.9-80.3l82.4-78c23.3-22.1 21.5-56.2-4-75.7l-90-69c-25.5-19.6-67.2-51.6-92.8-71.1l-90-69c-25.5-19.6-45-9.3-43.3 22.8l3.3 65-227.5 11.9c-16.1 0.8-28.4 14.6-27.6 30.7l0.4 308.6c0.8 16.1 14.6 28.5 30.7 27.6l242.3-28.7 3.4 65c1.7 32.1 22.1 40.2 45.5 18.2z"/><path class="C" d="m1472.5 564.5l82.3-78c23.4-22.1 61.6-58.3 84.9-80.3l82.4-78c23.3-22.1 21.5-56.2-4-75.7l-90-69c-25.5-19.6-67.2-51.6-92.8-71.1l-90-69c-25.5-19.6-45-9.3-43.3 22.8l3.3 65-227.5 11.9c-16.1 0.8-28.4 14.6-27.6 30.7l0.6 308.3c0.8 16.1 14.6 28.5 30.7 27.7l242.1-28.5 3.4 65c1.7 32.1 22.1 40.2 45.5 18.2z"/><path class="D" d="m1472.5 564.5l82.3-78c23.4-22.1 61.6-58.3 84.9-80.3l82.4-78c23.3-22.1 21.5-56.2-4-75.7l-90-69c-25.5-19.6-67.2-51.6-92.8-71.1l-90-69c-25.5-19.6-45-9.3-43.3 22.8l3.3 65-227.5 11.9c-16.1 0.8-28.4 14.6-27.6 30.7l0.8 308.1c0.8 16.1 14.6 28.5 30.7 27.7l241.9-28.3 3.4 65c1.7 32.1 22.1 40.2 45.5 18.2z"/><path class="E" d="m1472.5 564.5l82.3-78c23.4-22.1 61.6-58.3 84.9-80.3l82.4-78c23.3-22.1 21.5-56.2-4-75.7l-90-69c-25.5-19.6-67.2-51.6-92.8-71.1l-90-69c-25.5-19.6-45-9.3-43.3 22.8l3.3 65-227.5 11.9c-16.1 0.8-28.4 14.6-27.6 30.7l1 307.9c0.8 16.1 14.6 28.5 30.7 27.6l241.7-28 3.4 65c1.7 32.1 22.1 40.2 45.5 18.2z"/><path class="F" d="m1472.5 564.5l82.3-78c23.4-22.1 61.6-58.3 84.9-80.3l82.4-78c23.3-22.1 21.5-56.2-4-75.7l-90-69c-25.5-19.6-67.2-51.6-92.8-71.1l-90-69c-25.5-19.6-45-9.3-43.3 22.8l3.3 65-227.5 11.9c-16.1 0.8-28.4 14.6-27.6 30.7l1.2 307.7c0.8 16.1 14.6 28.5 30.7 27.6l241.5-27.8 3.4 65c1.7 32.1 22.1 40.2 45.5 18.2z"/><path class="G" d="m1472.5 564.5l82.3-78c23.4-22.1 61.6-58.3 84.9-80.3l82.4-78c23.3-22.1 21.5-56.2-4-75.7l-90-69c-25.5-19.6-67.2-51.6-92.8-71.1l-90-69c-25.5-19.6-45-9.3-43.3 22.8l3.3 65-227.5 11.9c-16.1 0.8-28.4 14.6-27.6 30.7l1.4 307.4c0.8 16.1 14.6 28.5 30.7 27.7l241.3-27.6 3.4 65c1.7 32.1 22.1 40.2 45.5 18.2z"/><path class="H" d="m1472.5 564.5l82.3-78c23.4-22.1 61.6-58.3 84.9-80.3l82.4-78c23.3-22.1 21.5-56.2-4-75.7l-90-69c-25.5-19.6-67.2-51.6-92.8-71.1l-90-69c-25.5-19.6-45-9.3-43.3 22.8l3.3 65-227.5 11.9c-16.1 0.8-28.4 14.6-27.6 30.7l1.6 307.2c0.8 16.1 14.6 28.5 30.7 27.7l241.1-27.4 3.4 65c1.7 32.1 22.1 40.2 45.5 18.2z"/><path class="I" d="m1472.5 564.5l82.3-78c23.4-22.1 61.6-58.3 84.9-80.3l82.4-78c23.3-22.1 21.5-56.2-4-75.7l-90-69c-25.5-19.6-67.2-51.6-92.8-71.1l-90-69c-25.5-19.6-45-9.3-43.3 22.8l3.3 65-227.5 11.9c-16.1 0.8-28.4 14.6-27.6 30.7l1.8 307c0.8 16.1 14.6 28.5 30.7 27.6l240.9-27.1 3.4 65c1.7 32.1 22.1 40.2 45.5 18.2z"/><path class="J" d="m1472.5 564.5l82.3-78c23.4-22.1 61.6-58.3 84.9-80.3l82.4-78c23.3-22.1 21.5-56.2-4-75.7l-90-69c-25.5-19.6-67.2-51.6-92.8-71.1l-90-69c-25.5-19.6-45-9.3-43.3 22.8l3.3 65-227.5 11.9c-16.1 0.8-28.4 14.6-27.6 30.7l2 306.7c0.8 16.1 14.6 28.5 30.7 27.7l240.7-26.9 3.4 65c1.7 32.1 22.1 40.2 45.5 18.2z"/><path class="K" d="m1472.5 564.5l82.3-78c23.4-22.1 61.6-58.3 84.9-80.3l82.4-78c23.3-22.1 21.5-56.2-4-75.7l-90-69c-25.5-19.6-67.2-51.6-92.8-71.1l-90-69c-25.5-19.6-45-9.3-43.3 22.8l3.3 65-227.5 11.9c-16.1 0.8-28.4 14.6-27.6 30.7l2.2 306.5c0.8 16.1 14.6 28.5 30.7 27.7l240.5-26.7 3.4 65c1.7 32.1 22.1 40.2 45.5 18.2z"/><path class="L" d="m1472.5 564.5l82.3-78c23.4-22.1 61.6-58.3 84.9-80.3l82.4-78c23.3-22.1 21.5-56.2-4-75.7l-90-69c-25.5-19.6-67.2-51.6-92.8-71.1l-90-69c-25.5-19.6-45-9.3-43.3 22.8l3.3 65-227.5 11.9c-16.1 0.8-28.4 14.6-27.6 30.7l2.4 306.3c0.8 16.1 14.6 28.5 30.7 27.6l240.3-26.4 3.4 65c1.7 32.1 22.1 40.2 45.5 18.2z"/><path class="M" d="m1472.5 564.5l82.3-78c23.4-22.1 61.6-58.3 84.9-80.3l82.4-78c23.3-22.1 21.5-56.2-4-75.7l-90-69c-25.5-19.6-67.2-51.6-92.8-71.1l-90-69c-25.5-19.6-45-9.3-43.3 22.8l3.3 65-227.5 11.9c-16.1 0.8-28.4 14.6-27.6 30.7l2.6 306.1c0.8 16.1 14.6 28.5 30.7 27.6l240.1-26.2 3.4 65c1.7 32.1 22.1 40.2 45.5 18.2z"/><path class="N" d="m1472.5 564.5l82.3-78c23.4-22.1 61.6-58.3 84.9-80.3l82.4-78c23.3-22.1 21.5-56.2-4-75.7l-90-69c-25.5-19.6-67.2-51.6-92.8-71.1l-90-69c-25.5-19.6-45-9.3-43.3 22.8l3.3 65-227.5 11.9c-16.1 0.8-28.4 14.6-27.6 30.7l2.8 305.8c0.8 16.1 14.6 28.5 30.7 27.7l239.9-26 3.4 65c1.7 32.1 22.1 40.2 45.5 18.2z"/><path class="O" d="m1472.5 564.5l82.3-78c23.4-22.1 61.6-58.3 84.9-80.3l82.4-78c23.3-22.1 21.5-56.2-4-75.7l-90-69c-25.5-19.6-67.2-51.6-92.8-71.1l-90-69c-25.5-19.6-45-9.3-43.3 22.8l3.3 65-227.5 11.9c-16.1 0.8-28.4 14.6-27.6 30.7l3 305.6c0.8 16.1 14.6 28.5 30.7 27.7l239.7-25.8 3.4 65c1.7 32.1 22.1 40.2 45.5 18.2z"/><path class="P" d="m1472.5 564.5l82.3-78c23.4-22.1 61.6-58.3 84.9-80.3l82.4-78c23.3-22.1 21.5-56.2-4-75.7l-90-69c-25.5-19.6-67.2-51.6-92.8-71.1l-90-69c-25.5-19.6-45-9.3-43.3 22.8l3.3 65-227.5 11.9c-16.1 0.8-28.4 14.6-27.6 30.7l3.2 305.4c0.8 16.1 14.6 28.5 30.7 27.6l239.5-25.5 3.4 65c1.7 32.1 22.1 40.2 45.5 18.2z"/><path class="Q" d="m1472.5 564.5l82.3-78c23.4-22.1 61.6-58.3 84.9-80.3l82.4-78c23.3-22.1 21.5-56.2-4-75.7l-90-69c-25.5-19.6-67.2-51.6-92.8-71.1l-90-69c-25.5-19.6-45-9.3-43.3 22.8l3.3 65-227.5 11.9c-16.1 0.8-28.4 14.6-27.6 30.7l3.4 305.1c0.8 16.2 14.6 28.5 30.7 27.7l239.3-25.3 3.4 65c1.7 32.1 22.1 40.2 45.5 18.2z"/><path class="R" d="m1472.5 564.5l82.3-78c23.4-22.1 61.6-58.3 84.9-80.3l82.4-78c23.3-22.1 21.5-56.2-4-75.7l-90-69c-25.5-19.6-67.2-51.6-92.8-71.1l-90-69c-25.5-19.6-45-9.3-43.3 22.8l3.3 65-227.5 11.9c-16.1 0.8-28.4 14.6-27.6 30.7l3.6 304.9c0.8 16.1 14.6 28.5 30.7 27.7l239.1-25.1 3.4 65c1.7 32.1 22.1 40.2 45.5 18.2z"/><path class="S" d="m1472.5 564.5l82.3-78c23.4-22.1 61.6-58.3 84.9-80.3l82.4-78c23.3-22.1 21.5-56.2-4-75.7l-90-69c-25.5-19.6-67.2-51.6-92.8-71.1l-90-69c-25.5-19.6-45-9.3-43.3 22.8l3.3 65-227.5 11.9c-16.1 0.8-28.4 14.6-27.6 30.7l3.8 304.7c0.8 16.1 14.6 28.5 30.7 27.6l238.9-24.8 3.4 65c1.7 32.1 22.1 40.2 45.5 18.2z"/><path class="T" d="m1472.5 564.5l82.3-78c23.4-22.1 61.6-58.3 84.9-80.3l82.4-78c23.3-22.1 21.5-56.2-4-75.7l-90-69c-25.5-19.6-67.2-51.6-92.8-71.1l-90-69c-25.5-19.6-45-9.3-43.3 22.8l3.3 65-227.5 11.9c-16.1 0.8-28.4 14.6-27.6 30.7l4 304.5c0.8 16.1 14.6 28.5 30.7 27.6l238.7-24.6 3.4 65c1.7 32.1 22.1 40.2 45.5 18.2z"/><path class="U" d="m1472.5 564.5l82.3-78c23.4-22.1 61.6-58.3 84.9-80.3l82.4-78c23.3-22.1 21.5-56.2-4-75.7l-90-69c-25.5-19.6-67.2-51.6-92.8-71.1l-90-69c-25.5-19.6-45-9.3-43.3 22.8l3.3 65-227.5 11.9c-16.1 0.8-28.4 14.6-27.6 30.7l4.2 304.2c0.8 16.1 14.6 28.5 30.7 27.7l238.5-24.4 3.4 65c1.7 32.1 22.1 40.2 45.5 18.2z"/><path class="V" d="m1472.5 564.5l82.3-78c23.4-22.1 61.6-58.3 84.9-80.3l82.4-78c23.3-22.1 21.5-56.2-4-75.7l-90-69c-25.5-19.6-67.2-51.6-92.8-71.1l-90-69c-25.5-19.6-45-9.3-43.3 22.8l3.3 65-227.5 11.9c-16.1 0.8-28.4 14.6-27.6 30.7l4.4 304c0.8 16.1 14.6 28.5 30.7 27.7l238.3-24.2 3.4 65c1.7 32.1 22.1 40.2 45.5 18.2z"/><path class="W" d="m1472.5 564.5l82.3-78c23.4-22.1 61.6-58.3 84.9-80.3l82.4-78c23.3-22.1 21.5-56.2-4-75.7l-90-69c-25.5-19.6-67.2-51.6-92.8-71.1l-90-69c-25.5-19.6-45-9.3-43.3 22.8l3.3 65-227.5 11.9c-16.1 0.8-28.4 14.6-27.6 30.7l4.6 303.8c0.8 16.1 14.6 28.5 30.7 27.6l238.1-23.9 3.4 65c1.7 32.1 22.1 40.2 45.5 18.2z"/><path class="X" d="m1472.5 564.5l82.3-78c23.4-22.1 61.6-58.3 84.9-80.3l82.4-78c23.3-22.1 21.5-56.2-4-75.7l-90-69c-25.5-19.6-67.2-51.6-92.8-71.1l-90-69c-25.5-19.6-45-9.3-43.3 22.8l3.3 65-227.5 11.9c-16.1 0.8-28.4 14.6-27.6 30.7l4.8 303.5c0.8 16.2 14.6 28.5 30.7 27.7l237.9-23.7 3.4 65c1.7 32.1 22.1 40.2 45.5 18.2z"/><path class="Y" d="m1472.5 564.5l82.3-78c23.4-22.1 61.6-58.3 84.9-80.3l82.4-78c23.3-22.1 21.5-56.2-4-75.7l-90-69c-25.5-19.6-67.2-51.6-92.8-71.1l-90-69c-25.5-19.6-45-9.3-43.3 22.8l3.3 65-227.5 11.9c-16.1 0.8-28.4 14.6-27.6 30.7l5 303.3c0.8 16.1 14.6 28.5 30.7 27.7l237.7-23.5 3.4 65c1.7 32.1 22.1 40.2 45.5 18.2z"/><path class="Z" d="m1472.5 564.5l82.3-78c23.4-22.1 61.6-58.3 84.9-80.3l82.4-78c23.3-22.1 21.5-56.2-4-75.7l-90-69c-25.5-19.6-67.2-51.6-92.8-71.1l-90-69c-25.5-19.6-45-9.3-43.3 22.8l3.3 65-227.5 11.9c-16.1 0.8-28.4 14.6-27.6 30.7l5.2 303.1c0.8 16.1 14.6 28.5 30.7 27.6l237.5-23.2 3.4 65c1.7 32.1 22.1 40.2 45.5 18.2z"/><path class="a0" d="m1472.5 564.5l82.3-78c23.4-22.1 61.6-58.3 84.9-80.3l82.4-78c23.3-22.1 21.5-56.2-4-75.7l-90-69c-25.5-19.6-67.2-51.6-92.8-71.1l-90-69c-25.5-19.6-45-9.3-43.3 22.8l3.3 65-227.5 11.9c-16.1 0.8-28.4 14.6-27.6 30.7l5.4 302.9c0.8 16.1 14.6 28.5 30.7 27.6l237.3-23 3.4 65c1.7 32.1 22.1 40.2 45.5 18.2z"/><path class="a1" d="m1472.5 564.5l82.3-78c23.4-22.1 61.6-58.3 84.9-80.3l82.4-78c23.3-22.1 21.5-56.2-4-75.7l-90-69c-25.5-19.6-67.2-51.6-92.8-71.1l-90-69c-25.5-19.6-45-9.3-43.3 22.8l3.3 65-227.5 11.9c-16.1 0.8-28.4 14.6-27.6 30.7l5.6 302.6c0.8 16.1 14.6 28.5 30.7 27.7l237.1-22.8 3.4 65c1.7 32.1 22.1 40.2 45.5 18.2z"/><path class="a2" d="m1472.5 564.5l82.3-78c23.4-22.1 61.6-58.3 84.9-80.3l82.4-78c23.3-22.1 21.5-56.2-4-75.7l-90-69c-25.5-19.6-67.2-51.6-92.8-71.1l-90-69c-25.5-19.6-45-9.3-43.3 22.8l3.3 65-227.5 11.9c-16.1 0.8-28.4 14.6-27.6 30.7l5.8 302.4c0.8 16.1 14.6 28.5 30.7 27.7l236.9-22.6 3.4 65c1.7 32.1 22.1 40.2 45.5 18.2z"/><path class="a3" d="m1472.5 564.5l82.3-78c23.4-22.1 61.6-58.3 84.9-80.3l82.4-78c23.3-22.1 21.5-56.2-4-75.7l-90-69c-25.5-19.6-67.2-51.6-92.8-71.1l-90-69c-25.5-19.6-45-9.3-43.3 22.8l3.3 65-227.5 11.9c-16.1 0.8-28.4 14.6-27.6 30.7l6 302.2c0.8 16.1 14.6 28.5 30.7 27.6l236.7-22.3 3.4 65c1.7 32.1 22.1 40.2 45.5 18.2z"/><path class="a4" d="m1472.5 564.5l82.3-78c23.4-22.1 61.6-58.3 84.9-80.3l82.4-78c23.3-22.1 21.5-56.2-4-75.7l-90-69c-25.5-19.6-67.2-51.6-92.8-71.1l-90-69c-25.5-19.6-45-9.3-43.3 22.8l3.3 65-227.5 11.9c-16.1 0.8-28.4 14.6-27.6 30.7l6.2 301.9c0.8 16.2 14.6 28.5 30.7 27.7l236.5-22.1 3.4 65c1.7 32.1 22.1 40.2 45.5 18.2z"/><path class="a5" d="m1472.5 564.5l82.3-78c23.4-22.1 61.6-58.3 84.9-80.3l82.4-78c23.3-22.1 21.5-56.2-4-75.7l-90-69c-25.5-19.6-67.2-51.6-92.8-71.1l-90-69c-25.5-19.6-45-9.3-43.3 22.8l3.3 65-227.5 11.9c-16.1 0.8-28.4 14.6-27.6 30.7l6.4 301.7c0.8 16.1 14.6 28.5 30.7 27.7l236.3-21.9 3.4 65c1.7 32.1 22.1 40.2 45.5 18.2z"/><path class="a6" d="m1472.5 564.5l82.3-78c23.4-22.1 61.6-58.3 84.9-80.3l82.4-78c23.3-22.1 21.5-56.2-4-75.7l-90-69c-25.5-19.6-67.2-51.6-92.8-71.1l-90-69c-25.5-19.6-45-9.3-43.3 22.8l3.3 65-227.5 11.9c-16.1 0.8-28.4 14.6-27.6 30.7l6.6 301.5c0.8 16.1 14.6 28.5 30.7 27.6l236.1-21.6 3.4 65c1.7 32.1 22.1 40.2 45.5 18.2z"/><path class="a7" d="m1472.5 564.5l82.3-78c23.4-22.1 61.6-58.3 84.9-80.3l82.4-78c23.3-22.1 21.5-56.2-4-75.7l-90-69c-25.5-19.6-67.2-51.6-92.8-71.1l-90-69c-25.5-19.6-45-9.3-43.3 22.8l3.3 65-227.5 11.9c-16.1 0.8-28.4 14.6-27.6 30.7l6.8 301.3c0.8 16.1 14.6 28.5 30.7 27.6l235.9-21.4 3.4 65c1.7 32.1 22.1 40.2 45.5 18.2z"/><path class="a8" d="m1472.5 564.5l82.3-78c23.4-22.1 61.6-58.3 84.9-80.3l82.4-78c23.3-22.1 21.5-56.2-4-75.7l-90-69c-25.5-19.6-67.2-51.6-92.8-71.1l-90-69c-25.5-19.6-45-9.3-43.3 22.8l3.3 65-227.5 11.9c-16.1 0.8-28.4 14.6-27.6 30.7l7 301c0.8 16.1 14.6 28.5 30.7 27.7l235.7-21.2 3.4 65c1.7 32.1 22.1 40.2 45.5 18.2z"/><path class="a9" d="m1472.5 564.5l82.3-78c23.4-22.1 61.6-58.3 84.9-80.3l82.4-78c23.3-22.1 21.5-56.2-4-75.7l-90-69c-25.5-19.6-67.2-51.6-92.8-71.1l-90-69c-25.5-19.6-45-9.3-43.3 22.8l3.3 65-227.5 11.9c-16.1 0.8-28.4 14.6-27.6 30.7l7.2 300.8c0.8 16.1 14.6 28.5 30.7 27.7l235.5-21 3.4 65c1.7 32.1 22.1 40.2 45.5 18.2z"/><path class="aa" d="m1472.5 564.5l82.3-78c23.4-22.1 61.6-58.3 84.9-80.3l82.4-78c23.3-22.1 21.5-56.2-4-75.7l-90-69c-25.5-19.6-67.2-51.6-92.8-71.1l-90-69c-25.5-19.6-45-9.3-43.3 22.8l3.3 65-227.5 11.9c-16.1 0.8-28.4 14.6-27.6 30.7l7.4 300.6c0.8 16.1 14.6 28.5 30.7 27.6l235.3-20.7 3.4 65c1.7 32.1 22.1 40.2 45.5 18.2z"/><path class="ab" d="m1472.5 564.5l82.3-78c23.4-22.1 61.6-58.3 84.9-80.3l82.4-78c23.3-22.1 21.5-56.2-4-75.7l-90-69c-25.5-19.6-67.2-51.6-92.8-71.1l-90-69c-25.5-19.6-45-9.3-43.3 22.8l3.3 65-227.5 11.9c-16.1 0.8-28.4 14.6-27.6 30.7l7.6 300.3c0.8 16.2 14.6 28.5 30.7 27.7l235.1-20.5 3.4 65c1.7 32.1 22.1 40.2 45.5 18.2z"/><path class="ac" d="m1472.5 564.5l82.3-78c23.4-22.1 61.6-58.3 84.9-80.3l82.4-78c23.3-22.1 21.5-56.2-4-75.7l-90-69c-25.5-19.6-67.2-51.6-92.8-71.1l-90-69c-25.5-19.6-45-9.3-43.3 22.8l3.3 65-227.5 11.9c-16.1 0.8-28.4 14.6-27.6 30.7l7.8 300.1c0.8 16.1 14.6 28.5 30.7 27.7l234.9-20.3 3.4 65c1.7 32.1 22.1 40.2 45.5 18.2z"/><path class="ad" d="m1472.5 564.5l82.3-78c23.4-22.1 61.6-58.3 84.9-80.3l82.4-78c23.3-22.1 21.5-56.2-4-75.7l-90-69c-25.5-19.6-67.2-51.6-92.8-71.1l-90-69c-25.5-19.6-45-9.3-43.3 22.8l3.3 65-227.5 11.9c-16.1 0.8-28.4 14.6-27.6 30.7l8 299.9c0.8 16.1 14.6 28.5 30.7 27.6l234.7-20 3.4 65c1.7 32.1 22.1 40.2 45.5 18.2z"/><path class="ae" d="m1472.5 564.5l82.3-78c23.4-22.1 61.6-58.3 84.9-80.3l82.4-78c23.3-22.1 21.5-56.2-4-75.7l-90-69c-25.5-19.6-67.2-51.6-92.8-71.1l-90-69c-25.5-19.6-45-9.3-43.3 22.8l3.3 65-227.5 11.9c-16.1 0.8-28.4 14.6-27.6 30.7l8.2 299.7c0.8 16.1 14.6 28.5 30.7 27.6l234.5-19.8 3.4 65c1.7 32.1 22.1 40.2 45.5 18.2z"/><path class="af" d="m1472.5 564.5l82.3-78c23.4-22.1 61.6-58.3 84.9-80.3l82.4-78c23.3-22.1 21.5-56.2-4-75.7l-90-69c-25.5-19.6-67.2-51.6-92.8-71.1l-90-69c-25.5-19.6-45-9.3-43.3 22.8l3.3 65-227.5 11.9c-16.1 0.8-28.4 14.6-27.6 30.7l8.4 299.4c0.8 16.1 14.6 28.5 30.7 27.7l234.3-19.6 3.4 65c1.7 32.1 22.1 40.2 45.5 18.2z"/><path class="ag" d="m1472.5 564.5l82.3-78c23.4-22.1 61.6-58.3 84.9-80.3l82.4-78c23.3-22.1 21.5-56.2-4-75.7l-90-69c-25.5-19.6-67.2-51.6-92.8-71.1l-90-69c-25.5-19.6-45-9.3-43.3 22.8l3.3 65-227.5 11.9c-16.1 0.8-28.4 14.6-27.6 30.7l8.6 299.2c0.8 16.1 14.6 28.5 30.7 27.7l234.1-19.4 3.4 65c1.7 32.1 22.1 40.2 45.5 18.2z"/><path class="ah" d="m1472.5 564.5l82.3-78c23.4-22.1 61.6-58.3 84.9-80.3l82.4-78c23.3-22.1 21.5-56.2-4-75.7l-90-69c-25.5-19.6-67.2-51.6-92.8-71.1l-90-69c-25.5-19.6-45-9.3-43.3 22.8l3.3 65-227.5 11.9c-16.1 0.8-28.4 14.6-27.6 30.7l8.8 299c0.8 16.1 14.6 28.5 30.7 27.6l233.9-19.1 3.4 65c1.7 32.1 22.1 40.2 45.5 18.2z"/><path class="ai" d="m1472.5 564.5l82.3-78c23.4-22.1 61.6-58.3 84.9-80.3l82.4-78c23.3-22.1 21.5-56.2-4-75.7l-90-69c-25.5-19.6-67.2-51.6-92.8-71.1l-90-69c-25.5-19.6-45-9.3-43.3 22.8l3.3 65-227.5 11.9c-16.1 0.8-28.4 14.6-27.6 30.7l9 298.7c0.8 16.2 14.6 28.5 30.7 27.7l233.7-18.9 3.4 65c1.7 32.1 22.1 40.2 45.5 18.2z"/><path class="aj" d="m1472.5 564.5l82.3-78c23.4-22.1 61.6-58.3 84.9-80.3l82.4-78c23.3-22.1 21.5-56.2-4-75.7l-90-69c-25.5-19.6-67.2-51.6-92.8-71.1l-90-69c-25.5-19.6-45-9.3-43.3 22.8l3.3 65-227.5 11.9c-16.1 0.8-28.4 14.6-27.6 30.7l9.2 298.5c0.8 16.1 14.6 28.5 30.7 27.7l233.5-18.7 3.4 65c1.7 32.1 22.1 40.2 45.5 18.2z"/><path class="ak" d="m1472.5 564.5l82.3-78c23.4-22.1 61.6-58.3 84.9-80.3l82.4-78c23.3-22.1 21.5-56.2-4-75.7l-90-69c-25.5-19.6-67.2-51.6-92.8-71.1l-90-69c-25.5-19.6-45-9.3-43.3 22.8l3.3 65-227.5 11.9c-16.1 0.8-28.4 14.6-27.6 30.7l9.4 298.3c0.8 16.1 14.6 28.5 30.7 27.6l233.3-18.4 3.4 65c1.7 32.1 22.1 40.2 45.5 18.2z"/><path class="al" d="m1472.5 564.5l82.3-78c23.4-22.1 61.6-58.3 84.9-80.3l82.4-78c23.3-22.1 21.5-56.2-4-75.7l-90-69c-25.5-19.6-67.2-51.6-92.8-71.1l-90-69c-25.5-19.6-45-9.3-43.3 22.8l3.3 65-227.5 11.9c-16.1 0.8-28.4 14.6-27.6 30.7l9.6 298.1c0.8 16.1 14.6 28.5 30.7 27.6l233.1-18.2 3.4 65c1.7 32.1 22.1 40.2 45.5 18.2z"/><path class="am" d="m1472.5 564.5l82.3-78c23.4-22.1 61.6-58.3 84.9-80.3l82.4-78c23.3-22.1 21.5-56.2-4-75.7l-90-69c-25.5-19.6-67.2-51.6-92.8-71.1l-90-69c-25.5-19.6-45-9.3-43.3 22.8l3.3 65-227.5 11.9c-16.1 0.8-28.4 14.6-27.6 30.7l9.8 297.8c0.8 16.1 14.6 28.5 30.7 27.7l232.9-18 3.4 65c1.7 32.1 22.1 40.2 45.5 18.2z"/><path class="an" d="m1472.5 564.5l82.3-78c23.4-22.1 61.6-58.3 84.9-80.3l82.4-78c23.3-22.1 21.5-56.2-4-75.7l-90-69c-25.5-19.6-67.2-51.6-92.8-71.1l-90-69c-25.5-19.6-45-9.3-43.3 22.8l3.3 65-227.5 11.9c-16.1 0.8-28.4 14.6-27.6 30.7l10 297.6c0.8 16.1 14.6 28.5 30.7 27.7l232.7-17.8 3.4 65c1.7 32.1 22.1 40.2 45.5 18.2z"/><path class="ao" d="m1472.5 564.5l82.3-78c23.4-22.1 61.6-58.3 84.9-80.3l82.4-78c23.3-22.1 21.5-56.2-4-75.7l-90-69c-25.5-19.6-67.2-51.6-92.8-71.1l-90-69c-25.5-19.6-45-9.3-43.3 22.8l3.3 65-227.5 11.9c-16.1 0.8-28.4 14.6-27.6 30.7l10.2 297.4c0.8 16.1 14.6 28.5 30.7 27.6l232.5-17.5 3.4 65c1.7 32.1 22.1 40.2 45.5 18.2z"/><path class="ap" d="m1472.5 564.5l82.3-78c23.4-22.1 61.6-58.3 84.9-80.3l82.4-78c23.3-22.1 21.5-56.2-4-75.7l-90-69c-25.5-19.6-67.2-51.6-92.8-71.1l-90-69c-25.5-19.6-45-9.3-43.3 22.8l3.3 65-227.5 11.9c-16.1 0.8-28.4 14.6-27.6 30.7l10.4 297.1c0.8 16.2 14.6 28.5 30.7 27.7l232.3-17.3 3.4 65c1.7 32.1 22.1 40.2 45.5 18.2z"/><path class="aq" d="m1472.5 564.5l82.3-78c23.4-22.1 61.6-58.3 84.9-80.3l82.4-78c23.3-22.1 21.5-56.2-4-75.7l-90-69c-25.5-19.6-67.2-51.6-92.8-71.1l-90-69c-25.5-19.6-45-9.3-43.3 22.8l3.3 65-227.5 11.9c-16.1 0.8-28.4 14.6-27.6 30.7l10.6 296.9c0.8 16.1 14.6 28.5 30.7 27.7l232.1-17.1 3.4 65c1.7 32.1 22.1 40.2 45.5 18.2z"/><path class="ar" d="m1472.5 564.5l82.3-78c23.4-22.1 61.6-58.3 84.9-80.3l82.4-78c23.3-22.1 21.5-56.2-4-75.7l-90-69c-25.5-19.6-67.2-51.6-92.8-71.1l-90-69c-25.5-19.6-45-9.3-43.3 22.8l3.3 65-227.5 11.9c-16.1 0.8-28.4 14.6-27.6 30.7l10.8 296.7c0.8 16.1 14.6 28.5 30.7 27.6l231.9-16.8 3.4 65c1.7 32.1 22.1 40.2 45.5 18.2z"/><path class="as" d="m1472.5 564.5l82.3-78c23.4-22.1 61.6-58.3 84.9-80.3l82.4-78c23.3-22.1 21.5-56.2-4-75.7l-90-69c-25.5-19.6-67.2-51.6-92.8-71.1l-90-69c-25.5-19.6-45-9.3-43.3 22.8l3.3 65-227.5 11.9c-16.1 0.8-28.4 14.6-27.6 30.7l11 296.5c0.8 16.1 14.6 28.5 30.7 27.6l231.7-16.6 3.4 65c1.7 32.1 22.1 40.2 45.5 18.2z"/><path class="at" d="m1472.5 564.5l82.3-78c23.4-22.1 61.6-58.3 84.9-80.3l82.4-78c23.3-22.1 21.5-56.2-4-75.7l-90-69c-25.5-19.6-67.2-51.6-92.8-71.1l-90-69c-25.5-19.6-45-9.3-43.3 22.8l3.3 65-227.5 11.9c-16.1 0.8-28.4 14.6-27.6 30.7l11.2 296.2c0.8 16.1 14.6 28.5 30.7 27.7l231.5-16.4 3.4 65c1.7 32.1 22.1 40.2 45.5 18.2z"/><path class="au" d="m1472.5 564.5l82.3-78c23.4-22.1 61.6-58.3 84.9-80.3l82.4-78c23.3-22.1 21.5-56.2-4-75.7l-90-69c-25.5-19.6-67.2-51.6-92.8-71.1l-90-69c-25.5-19.6-45-9.3-43.3 22.8l3.3 65-227.5 11.9c-16.1 0.8-28.4 14.6-27.6 30.7l11.4 296c0.8 16.1 14.6 28.5 30.7 27.7l231.3-16.2 3.4 65c1.7 32.1 22.1 40.2 45.5 18.2z"/><path class="av" d="m1472.5 564.5l82.3-78c23.4-22.1 61.6-58.3 84.9-80.3l82.4-78c23.3-22.1 21.5-56.2-4-75.7l-90-69c-25.5-19.6-67.2-51.6-92.8-71.1l-90-69c-25.5-19.6-45-9.3-43.3 22.8l3.3 65-227.5 11.9c-16.1 0.8-28.4 14.6-27.6 30.7l11.6 295.8c0.8 16.1 14.6 28.5 30.7 27.6l231.1-15.9 3.4 65c1.7 32.1 22.1 40.2 45.5 18.2z"/><path class="aw" d="m1472.5 564.5l82.3-78c23.4-22.1 61.6-58.3 84.9-80.3l82.4-78c23.3-22.1 21.5-56.2-4-75.7l-90-69c-25.5-19.6-67.2-51.6-92.8-71.1l-90-69c-25.5-19.6-45-9.3-43.3 22.8l3.3 65-227.5 11.9c-16.1 0.8-28.4 14.6-27.6 30.7l11.8 295.5c0.8 16.2 14.6 28.5 30.7 27.7l230.9-15.7 3.4 65c1.7 32.1 22.1 40.2 45.5 18.2z"/><path class="ax" d="m1472.5 564.5l82.3-78c23.4-22.1 61.6-58.3 84.9-80.3l82.4-78c23.3-22.1 21.5-56.2-4-75.7l-90-69c-25.5-19.6-67.2-51.6-92.8-71.1l-90-69c-25.5-19.6-45-9.3-43.3 22.8l3.3 65-227.5 11.9c-16.1 0.8-28.4 14.6-27.6 30.7l12 295.3c0.8 16.1 14.6 28.5 30.7 27.7l230.7-15.5 3.4 65c1.7 32.1 22.1 40.2 45.5 18.2z"/><path class="ay" d="m1472.5 564.5l82.3-78c23.4-22.1 61.6-58.3 84.9-80.3l82.4-78c23.3-22.1 21.5-56.2-4-75.7l-90-69c-25.5-19.6-67.2-51.6-92.8-71.1l-90-69c-25.5-19.6-45-9.3-43.3 22.8l3.3 65-227.5 11.9c-16.1 0.8-28.4 14.6-27.6 30.7l12.2 295.1c0.8 16.1 14.6 28.5 30.7 27.6l230.5-15.2 3.4 65c1.7 32.1 22.1 40.2 45.5 18.2z"/><path class="az" d="m1472.5 564.5l82.3-78c23.4-22.1 61.6-58.3 84.9-80.3l82.4-78c23.3-22.1 21.5-56.2-4-75.7l-90-69c-25.5-19.6-67.2-51.6-92.8-71.1l-90-69c-25.5-19.6-45-9.3-43.3 22.8l3.3 65-227.5 11.9c-16.1 0.8-28.4 14.6-27.6 30.7l12.4 294.9c0.8 16.1 14.6 28.5 30.7 27.6l230.3-15 3.4 65c1.7 32.1 22.1 40.2 45.5 18.2z"/><path class="aA" d="m1472.5 564.5l82.3-78c23.4-22.1 61.6-58.3 84.9-80.3l82.4-78c23.3-22.1 21.5-56.2-4-75.7l-90-69c-25.5-19.6-67.2-51.6-92.8-71.1l-90-69c-25.5-19.6-45-9.3-43.3 22.8l3.3 65-227.5 11.9c-16.1 0.8-28.4 14.6-27.6 30.7l12.6 294.6c0.8 16.1 14.6 28.5 30.7 27.7l230.1-14.8 3.4 65c1.7 32.1 22.1 40.2 45.5 18.2z"/><path class="aB" d="m1472.5 564.5l82.3-78c23.4-22.1 61.6-58.3 84.9-80.3l82.4-78c23.3-22.1 21.5-56.2-4-75.7l-90-69c-25.5-19.6-67.2-51.6-92.8-71.1l-90-69c-25.5-19.6-45-9.3-43.3 22.8l3.3 65-227.5 11.9c-16.1 0.8-28.4 14.6-27.6 30.7l12.8 294.4c0.8 16.1 14.6 28.5 30.7 27.7l229.9-14.6 3.4 65c1.7 32.1 22.1 40.2 45.5 18.2z"/><path class="aC" d="m1472.5 564.5l82.3-78c23.4-22.1 61.6-58.3 84.9-80.3l82.4-78c23.3-22.1 21.5-56.2-4-75.7l-90-69c-25.5-19.6-67.2-51.6-92.8-71.1l-90-69c-25.5-19.6-45-9.3-43.3 22.8l3.3 65-227.5 11.9c-16.1 0.8-28.4 14.6-27.6 30.7l13 294.2c0.8 16.1 14.6 28.5 30.7 27.6l229.7-14.3 3.4 65c1.7 32.1 22.1 40.2 45.5 18.2z"/><path class="aD" d="m1472.5 564.5l82.3-78c23.4-22.1 61.6-58.3 84.9-80.3l82.4-78c23.3-22.1 21.5-56.2-4-75.7l-90-69c-25.5-19.6-67.2-51.6-92.8-71.1l-90-69c-25.5-19.6-45-9.3-43.3 22.8l3.3 65-227.5 11.9c-16.1 0.8-28.4 14.6-27.6 30.7l13.2 293.9c0.8 16.2 14.6 28.5 30.7 27.7l229.5-14.1 3.4 65c1.7 32.1 22.1 40.2 45.5 18.2z"/><path class="aE" d="m1472.5 564.5l82.3-78c23.4-22.1 61.6-58.3 84.9-80.3l82.4-78c23.3-22.1 21.5-56.2-4-75.7l-90-69c-25.5-19.6-67.2-51.6-92.8-71.1l-90-69c-25.5-19.6-45-9.3-43.3 22.8l3.3 65-227.5 11.9c-16.1 0.8-28.4 14.6-27.6 30.7l13.4 293.7c0.8 16.1 14.6 28.5 30.7 27.7l229.3-13.9 3.4 65c1.7 32.1 22.1 40.2 45.5 18.2z"/><path class="aF" d="m1472.5 564.5l82.3-78c23.4-22.1 61.6-58.3 84.9-80.3l82.4-78c23.3-22.1 21.5-56.2-4-75.7l-90-69c-25.5-19.6-67.2-51.6-92.8-71.1l-90-69c-25.5-19.6-45-9.3-43.3 22.8l3.3 65-227.5 11.9c-16.1 0.8-28.4 14.6-27.6 30.7l13.6 293.5c0.8 16.1 14.6 28.5 30.7 27.7l229.1-13.7 3.4 65c1.7 32.1 22.1 40.2 45.5 18.2z"/><path class="aG" d="m1472.5 564.5l82.3-78c23.4-22.1 61.6-58.3 84.9-80.3l82.4-78c23.3-22.1 21.5-56.2-4-75.7l-90-69c-25.5-19.6-67.2-51.6-92.8-71.1l-90-69c-25.5-19.6-45-9.3-43.3 22.8l3.3 65-227.5 11.9c-16.1 0.8-28.4 14.6-27.6 30.7l13.8 293.3c0.8 16.1 14.6 28.5 30.7 27.6l228.9-13.4 3.4 65c1.7 32.1 22.1 40.2 45.5 18.2z"/><path class="aH" d="m1472.5 564.5l82.3-78c23.4-22.1 61.6-58.3 84.9-80.3l82.4-78c23.3-22.1 21.5-56.2-4-75.7l-90-69c-25.5-19.6-67.2-51.6-92.8-71.1l-90-69c-25.5-19.6-45-9.3-43.3 22.8l3.3 65-227.5 11.9c-16.1 0.8-28.4 14.6-27.6 30.7l14 293c0.8 16.1 14.6 28.5 30.7 27.7l228.7-13.2 3.4 65c1.7 32.1 22.1 40.2 45.5 18.2z"/><path class="aI" d="m1472.5 564.5l82.3-78c23.4-22.1 61.6-58.3 84.9-80.3l82.4-78c23.3-22.1 21.5-56.2-4-75.7l-90-69c-25.5-19.6-67.2-51.6-92.8-71.1l-90-69c-25.5-19.6-45-9.3-43.3 22.8l3.3 65-227.5 11.9c-16.1 0.8-28.4 14.6-27.6 30.7l14.2 292.8c0.8 16.1 14.6 28.5 30.7 27.7l228.5-13 3.4 65c1.7 32.1 22.1 40.2 45.5 18.2z"/><path class="aJ" d="m1472.5 564.5l82.3-78c23.4-22.1 61.6-58.3 84.9-80.3l82.4-78c23.3-22.1 21.5-56.2-4-75.7l-90-69c-25.5-19.6-67.2-51.6-92.8-71.1l-90-69c-25.5-19.6-45-9.3-43.3 22.8l3.3 65-227.5 11.9c-16.1 0.8-28.4 14.6-27.6 30.7l14.4 292.6c0.8 16.1 14.6 28.5 30.7 27.6l228.3-12.7 3.4 65c1.7 32.1 22.1 40.2 45.5 18.2z"/><path class="aK" d="m1472.5 564.5l82.3-78c23.4-22.1 61.6-58.3 84.9-80.3l82.4-78c23.3-22.1 21.5-56.2-4-75.7l-90-69c-25.5-19.6-67.2-51.6-92.8-71.1l-90-69c-25.5-19.6-45-9.3-43.3 22.8l3.3 65-227.5 11.9c-16.1 0.8-28.4 14.6-27.6 30.7l14.6 292.4c0.8 16.1 14.6 28.4 30.7 27.6l228.1-12.5 3.4 65c1.7 32.1 22.1 40.2 45.5 18.2z"/><path class="aL" d="m1472.5 564.5l82.3-78c23.4-22.1 61.6-58.3 84.9-80.3l82.4-78c23.3-22.1 21.5-56.2-4-75.7l-90-69c-25.5-19.6-67.2-51.6-92.8-71.1l-90-69c-25.5-19.6-45-9.3-43.3 22.8l3.3 65-227.5 11.9c-16.1 0.8-28.4 14.6-27.6 30.7l14.8 292.1c0.8 16.1 14.6 28.5 30.7 27.7l227.9-12.3 3.4 65c1.7 32.1 22.1 40.2 45.5 18.2z"/><path class="aM" d="m1472.5 564.5l82.3-78c23.4-22.1 61.6-58.3 84.9-80.3l82.4-78c23.3-22.1 21.5-56.2-4-75.7l-90-69c-25.5-19.6-67.2-51.6-92.8-71.1l-90-69c-25.5-19.6-45-9.3-43.3 22.8l3.3 65-227.5 11.9c-16.1 0.8-28.4 14.6-27.6 30.7l15 291.9c0.8 16.1 14.6 28.5 30.7 27.7l227.7-12.1 3.4 65c1.7 32.1 22.1 40.2 45.5 18.2z"/><path  d="m1472.5 564.5l82.3-78c23.4-22.1 61.6-58.3 84.9-80.3l82.4-78c23.3-22.1 21.5-56.2-4-75.7l-90-69c-25.5-19.6-67.2-51.6-92.8-71.1l-90-69c-25.5-19.6-45-9.3-43.3 22.8l3.3 65-227.5 11.9c-16.1 0.8-28.4 14.6-27.6 30.7l15.2 291.7c0.8 16.1 14.6 28.5 30.7 27.6l227.5-11.8 3.4 65c1.7 32.1 22.1 40.2 45.5 18.2z"/></g><path class="aN" d="m1472.5 564.5l82.3-78c23.4-22.1 61.6-58.3 84.9-80.3l82.4-78c23.3-22.1 21.5-56.2-4-75.7l-90-69c-25.5-19.6-67.2-51.6-92.8-71.1l-90-69c-25.5-19.6-45-9.3-43.3 22.8l3.3 65-227.5 11.9c-16.1 0.8-28.4 14.6-27.6 30.7l15.2 291.7c0.8 16.1 14.6 28.5 30.7 27.6l227.5-11.8 3.4 65c1.7 32.1 22.1 40.2 45.5 18.2z"/><path class="av" d="m1223.5 251.5l4.3-0.2 0.1 2.7-3.8 0.3q-0.5 4.8-2.2 7.8-1.7 3-5.7 6.6-4.1 3.6-9.9 6.2-5.7 2.5-9.6 2.7-4 0.2-6.1-1.3-2.1-1.5-2.2-4.1-0.2-3.9 4.2-8.1 4.5-4.2 11-7.2 6.5-3 13-4.3-1.1-1.7-3.3-2.6-2.1-1-7.1-2.1-2.8-0.7-2.8-2.4-0.1-1 0.7-1.8 0.8-1 2.7-2.2 2-1.3 3.7-2.6 1.8-1.4 3.9-3.3 2.2-1.9 3.6-3.8 1.4-2 1.3-3.4-0.1-2.4-2.5-2.3-1.8 0.1-4.9 2-3.1 1.9-6 4.7l-2.5 9.4q-2.6 9.9-6.1 15.4-3.4 5.5-6.7 5.7-3.5 0.2-3.7-4.2-0.2-4.3 3.6-11.2 3.9-7 11.1-14.5 0-0.1 0.2-1.3 0.4-1.2 0.7-2.4 0.9-3.8 1.5-4.8l3.4 0.4q0 1.3-0.4 3 3.6-3 7.7-5.3 4.2-2.4 6.2-2.5 2-0.1 3.3 1.2 1.3 1.1 1.4 3.6 0.1 2.4-2 5.6-2.1 3.2-5.4 5.9-6 4.9-10.2 7.2 7.1 0.7 10.5 2.4 3.3 1.6 5 5.1zm-30.8 5.4q1.8-0.1 5.1-9 1.3-4 2-6.6 0.7-2.6 0.6-2.9-3.4 4.2-6.2 9.5-2.7 5.3-2.6 7.6 0.1 1.4 1.1 1.4zm18.6 11.3q3.3-2.4 5.1-5.2 1.8-2.9 1.7-5.4 0-1.1-0.4-2.3-10.2 1.7-16.6 6.2-6.4 4.4-6.2 8.1 0.1 1.7 1.4 2.6 1.4 0.9 3.6 0.8 5.5-0.3 11.4-4.8zm39.8-13.7l1.6 1.1q-1.9 3.1-5.5 5.2-3.6 2.1-7 2.2-3.5 0.2-5.7-1.7-2.2-2-2.4-5.3-0.3-6.2 6-12.6 6.4-6.4 13.2-6.7 4.5-0.2 4.6 3.3 0.2 3.7-4.4 7.7-4.5 3.9-12.9 7.4 0.7 1.5 2 2.3 1.4 0.9 2.7 0.8 2.9-0.1 7.8-3.7zm-12.9-1.4q5.4-2.2 9.2-5.2 3.8-3.1 3.7-5.5-0.1-0.8-0.8-1.5-0.7-0.6-1.6-0.6-3.2 0.2-6.7 4.3-3.5 4.2-3.8 8.5zm18.6 3.2l3.3-1.9q0.1 1.2 1 2.1 1 0.8 2.2 0.7 5.8-0.2 12.4-15.8 0.4-0.9 0.9-2 0.5-1.2 0.7-1.8 0.3-0.6 0.6-1.4 0.3-0.7 0.5-1.1 0.3-0.4 0.5-0.7 0.6-0.7 1.4-0.7 0.8-0.1 1.4 0.7 0.7 0.7 0.7 1.7 0.1 0.9-2.1 8.5-2.2 7.6-2.1 9.1 0 1.6 0.7 2.3 0.7 0.7 1.3 0.7 0.7 0 1-0.1 0.4-0.1 0.7-0.3 0.3-0.2 0.5-0.4 0.3-0.1 0.6-0.5l0.5-0.6q0.2-0.1 0.5-0.5 0.4-0.5 0.5-0.7l1.5 1.1q-1 2.9-3.5 5-2.3 2.1-4.3 2.2-2 0.1-3.2-1.2-1.3-1.4-1.4-3.6-0.1-2.3 0.5-5.8-2.9 5-6.5 7.8-3.6 2.7-5.9 2.8-2.3 0.1-3.6-1.6-1.2-1.6-1.3-4zm64.2-5.1l1.5 1.1q-1 2.9-3.4 5-2.4 2.1-4.4 2.2-2 0.1-3.2-1.2-1.3-1.4-1.4-3.7-0.1-2.2 0.5-5.8-2.9 5.2-6.5 8.2-3.5 3.1-6 3.2-3.8 0.2-4-4.4-0.3-4.5 2.5-12.4 2.8-7.8 4.1-9l3.4 1.3q-2.6 4.6-3.8 9-1.2 4.4-1.2 5.9 0.1 1.4 1 2.3 1 0.8 2.2 0.8 2.8-0.2 6.5-5.3 3.9-5.2 7.6-15.4l3.5 1.4q-0.1 0.6-2.7 8.1-2.6 7.4-2.5 8.9 0.1 1.5 0.7 2.2 0.7 0.7 1.3 0.7 0.7-0.1 1-0.2 0.4 0 0.7-0.3 0.3-0.2 0.5-0.3 0.3-0.2 0.6-0.5l0.5-0.6q0.2-0.1 0.5-0.6 0.4-0.5 0.5-0.6zm30.2-1l1.8 1.4q-3.7 6.6-8.1 6.8-2.5 0.1-5.3-3-2.7-3.1-3.4-6.2-0.4 0.8-2.2 4.1-1.7 3.3-2.4 5.4l-4.2-1.3q1.1-8.4 2.7-15.9 1.8-7.5 3.5-10.6l2.8 0.8q-1.1 3.2-3.3 16.8 3.4-7.8 7-11.6 3.7-3.7 8.2-5.1l0.2 4.5q-4.9 0.4-9.2 7 0.5 4.4 3 7.2 2.5 2.8 4.6 2.7 1 0 4.3-3zm20.1-12.6l3.5-1.2q1.9 2.8 2.1 6.3 0.3 5.5-3.3 10.1-3.6 4.4-8.8 4.7-3.9 0.2-6.3-2-2.3-2.2-2.5-6.2-0.3-6.4 4.5-11.8 4.8-5.4 11-5.7 1.2 0 1.7 0l0.3 2.2q-5.4 0.3-8.9 3.6-3.4 3.3-3.2 8.2 0.1 2.9 1.6 4.7 1.6 1.7 4.3 1.5 2.8-0.1 4.3-2.6 1.5-2.5 1.3-5.8-0.1-3.3-1.6-6zm68-21.8l-9.7 0.3q-14.9 0.7-14.6 7.2 0.1 1.7 1.4 2.8 1.3 0.9 3.9 0.8 2.5-0.1 6.4-2.6l1.1 1.7q-2 2.3-4.5 3.8-2.6 1.4-5.3 1.5-2.6 0.1-4.6-1.6-2-1.6-2.1-4.3-0.3-5.3 5.3-9.6 5.6-4.3 15.6-4.8 0.2 0 4.3 0 11.3 0.1 16.1-0.1 10.7-0.5 13.1-1.6 0.9-0.3 1.1-0.3 1 0 1.1 1.5 0 1.5-2.1 2.8-2 1.4-5.9 1.6-2 1.4-4.2 5.8-2.1 4.3-4 12.3-1.8 7.9-1.6 11 0.1 3 1.7 4.2 1.6 1.1 4.9 1.6l-1.3 2.6q-1.8 0.2-2.7 0.2-3.2 0.2-5-1.8-1.8-2.1-2-5.9-0.3-7 2.9-16.5 3.2-9.5 7.1-13.4l-4.2 0.2q-2.3 2.6-3.8 6-1.4 3.3-2.6 7.9-1 4.6-1.4 6.3-0.4 1.8-1.2 4.7-0.8 2.9-1.3 4.2-0.5 1.2-1.3 3.2-0.8 1.9-1.6 2.8-0.7 0.8-1.7 1.8-1.7 1.6-4.8 1.8l0.1-3.5q3.1-0.7 4.2-3.4 1.3-2.6 3.8-12.8 2.6-10.2 3.7-12.8 1.2-2.6 4.6-6l-3.9 0.3h-0.8q-4.3 4.6-7.2 15.6-2.8 11-7.2 16.9-4.3 5.9-10.7 6.2-2.5 0.1-4.9-1.4l1.5-2.7q1.9 0.9 3.8 0.8 3.4-0.2 5.9-3.6 2.6-3.4 5.1-12.5 2.5-9.3 4-12.3 1.6-3.1 5.5-6.9zm34.8 22.2q5.4-2.7 7.8-2.8 2.3-0.1 3.3 0.6 0.9 0.7 0.9 2.3 0.3 4.3-4.6 8.9-4.8 4.6-9.5 4.8-1.9 0.1-3.1-1-1.3-1-1.3-2.7-0.1-1.7 2.2-8.4 2.4-6.7 2.3-8.8-0.2-2.5-2.6-2.4-1.4 0.1-2.7 1.1-1.2 0.9-2.2 1.8-1.1 0.8-1.3 1l-1.1-2.2q2.4-2.4 5.2-3.9 2.9-1.6 4.9-1.7 4.5-0.2 4.6 2.5 0.1 2.2-2.8 10.9zm1.7 9.5q1.3 0 3.1-1.6 1.8-1.5 2.3-3.1 0.6-1.6 0.6-2.2-0.3-1.9-3.4-1.8-1.5 0.1-5 1.5-0.7 3.4-0.7 4.4 0.1 1 0.9 2 0.9 0.9 2.2 0.8zm22.6-9.4q4.8-8 8.5-10.9 3.6-3.1 6.5-3.2 2.8-0.1 4.5 1.6 1.6 1.6 1.8 4.2 0.3 7.4-4.7 13.9-4.9 6.4-11.5 6.7-2.9 0.2-4.7-0.8l1.5-3q3.6 0.3 4.4 0.3 3.7-0.2 6.7-4.6 3-4.5 2.8-8.9-0.1-1.7-1.2-2.8-1-1.1-2.5-1-3.8 0.2-8.2 7-4.4 6.8-8.1 16.8-3.6 9.9-6.1 21l-4.1-1.2q0.1-0.4 2.1-7.1 2.2-6.8 4.2-13.4 5.5-18.3 5.4-20-0.2-4.3-2.2-7.8l3.4-1.8q2.2 2.8 2.4 6.1 0.1 3.2-0.9 8.9zm51.6-16.4l2.6 0.5q0 0.5-1.7 4.2-1.7 3.7-3.5 9.7-1.8 6-2.2 12l-4.3-0.2q-0.2-3.7 1.9-9.7-0.6-0.1-2.5 0-1.9 0.1-6.8 1.2-3.1 7.9-2.8 13.4l-4.6-0.3q-0.2-4.9 3-12.1-3.4 0.7-6.8 2l-0.8-2.7q0-0.2 3.5-1.3 3.7-1.1 5.4-1.5 4.8-12.7 6.7-14.8l3 1q-0.3 0.7-1.4 3.2-2.8 6-3.7 9.4 5.9-0.9 7-1 1.2 0 2.1 0 4.2-11.2 5.9-13zm21.9 6.3l3.4-1.3q1.9 2.9 2.1 6.4 0.3 5.5-3.3 10-3.6 4.5-8.8 4.8-3.9 0.1-6.3-2-2.3-2.2-2.5-6.2-0.3-6.5 4.5-11.8 4.8-5.4 11-5.7 1.2-0.1 1.7 0l0.3 2.2q-5.4 0.3-8.9 3.6-3.4 3.3-3.2 8.2 0.1 2.9 1.6 4.7 1.6 1.7 4.3 1.5 2.8-0.1 4.3-2.6 1.5-2.6 1.3-5.8-0.1-3.3-1.5-6zm16-3q-1.3 7.8-1.1 11.3 0.2 4.9 3 4.7 3-0.1 5.2-2.8 2.3-2.7 2.1-6.2-0.2-3.4-2.8-3.3-0.7 0-3.2 1l-0.9-2q4.2-3.2 6.7-3.4 4.7-0.2 4.9 4.5 0.3 5.5-4 11.4-4.3 5.9-9.3 6.1-5.5 0.3-5.9-7.6-0.2-3.7 1.5-12.4l-5.4 2.3-0.2-1.7q0.7-0.4 6.1-2.7 1.7-13.7 5.5-19.3 3.8-5.7 10-6 2.9-0.2 4.7 1.6 1.8 1.7 1.9 4.7 0.3 5.8-4.8 11.1-5.2 5.3-14 8.7zm0.3-2.1q5.8-3 9.5-7 3.7-4 3.5-7.1-0.1-1.6-1.1-2.6-1-1-2.4-0.9-2.8 0.2-5.4 4.3-2.6 4.1-4.1 13.3zm37.4 2.5l3.5-1.2q1.9 2.8 2.1 6.3 0.3 5.5-3.3 10.1-3.6 4.4-8.8 4.7-3.9 0.2-6.3-2-2.3-2.2-2.5-6.2-0.3-6.4 4.5-11.8 4.8-5.4 11-5.7 1.2 0 1.7 0l0.3 2.2q-5.4 0.3-8.9 3.6-3.4 3.3-3.2 8.2 0.1 2.9 1.6 4.7 1.6 1.7 4.3 1.5 2.8-0.1 4.3-2.6 1.5-2.5 1.3-5.8-0.1-3.3-1.6-6zm7.4 16.6q-0.1-1.3 0.8-2.1 0.9-1 2.2-1 1.3-0.1 2.1 0.7 0.8 0.7 0.8 2 0.2 3-4.8 7l-1.6-2.1q2.6-2.3 2.7-2.5-2.2-0.6-2.2-2zm-415.2 95.6l1.5 1q-1.4 3-3.9 5.2-2.5 2.2-4.6 2.3-2.1 0.1-3.4-1.1-1.3-1.2-1.4-3-0.1-1.8 2-6.5 2.2-4.7 2.1-6.9-0.1-0.9-0.9-1.6-0.8-0.8-1.9-0.8-3.5 0.2-6.7 5.7-3.3 5.4-7.2 15.5l-4.1-1.2q0.9-8 2.9-15.6 2.1-7.6 4-11l2.8 0.8q-1.7 4.9-4 16.8 8.6-16.4 16.5-16.8 1.6-0.1 2.8 1 1.2 1.1 1.3 2.7 0.1 1.5-0.3 2.8-0.3 1.3-2.3 6-1.9 4.6-1.8 5.8 0 1.2 0.7 1.8 0.7 0.6 1.4 0.6 0.6-0.1 1-0.3 0.4-0.2 0.8-0.7 0.5-0.4 0.9-0.7 0.4-0.4 0.9-1 0.6-0.6 0.9-0.8zm33.6-0.3l1.6 1.1q-0.8 2.1-3.3 4-2.4 2-4.6 2.1-4 0.2-4.2-4-0.1-2 0.8-4.8l-2.4 2.7q-3.4 4-6.1 5.4-2.6 1.4-5.2 1.5-2.5 0.1-4-1.2-1.3-1.5-1.5-4-0.2-4.8 3.3-9.6 3.4-4.8 9-8 5.5-3.2 11.2-3.6l0.3 2.3-2.8 0.7q-6.2 1.7-10.7 6-4.5 4.3-4.3 8.3 0.2 4 3.4 3.9 3.1-0.2 7.4-4.6 4.2-4.5 7-10.5l2.9 1.6q-3.8 8.7-3.7 11 0 1 0.7 1.6 0.7 0.6 1.3 0.6 0.7-0.1 0.9-0.2 0.2 0 0.4-0.1 0.2-0.2 0.4-0.4 0.4-0.2 0.6-0.4 0.2-0.2 0.8-0.7 0.5-0.4 0.8-0.7zm13.9-6.3q4.8-8 8.5-11 3.7-3 6.5-3.1 2.9-0.2 4.5 1.5 1.7 1.6 1.8 4.3 0.3 7.3-4.7 13.8-4.9 6.5-11.5 6.8-2.9 0.1-4.7-0.8l1.5-3q3.7 0.3 4.5 0.3 3.6-0.2 6.6-4.7 3-4.4 2.8-8.9-0.1-1.7-1.2-2.7-1-1.1-2.5-1-3.8 0.1-8.2 7-4.4 6.8-8 16.7-3.6 10-6.2 21.1l-4.1-1.2q0.1-0.4 2.2-7.1 2.1-6.8 4.1-13.4 5.5-18.3 5.4-20-0.2-4.3-2.1-7.8l3.3-1.8q2.2 2.8 2.4 6 0.1 3.2-0.9 9zm49.6 2.6l1.8 1.4q-3.7 6.6-8.1 6.9-2.5 0.1-5.3-3.1-2.7-3.1-3.4-6.1-0.4 0.7-2.2 4-1.7 3.3-2.4 5.4l-4.2-1.2q1.1-8.5 2.7-16 1.8-7.5 3.5-10.5l2.8 0.7q-1.1 3.2-3.3 16.8 3.4-7.8 7-11.5 3.7-3.8 8.2-5.2l0.2 4.5q-4.9 0.4-9.2 7 0.5 4.4 3 7.3 2.5 2.8 4.6 2.7 1-0.1 4.3-3.1zm92.7-37.7l4.3 1.9q-4 7.2-9.7 13-5.6 5.8-15.2 11.7 2.4 9.8 5.4 15.6 3.1 5.8 7.6 6.3l0.2 3.1q-0.6 0.1-1.5 0.1-4.5 0.2-9.1-5.9-4.5-6.1-8.5-18.3-2.5 9.3-8.2 15-5.7 5.6-12.2 5.9-3.3 0.1-5.6-1.5-2.1-1.8-2.3-4.9-0.1-3.2 2.5-6.7 2.7-3.6 7.6-6.1l1.7 2.4q-5.9 4.6-5.8 8.4 0.1 1.8 1.4 2.9 1.3 1.1 3.2 1 4.7-0.2 7.8-4.3 3.2-4.1 5.4-14 2.7-12.4 6-16.4 1.5-1.9 4.4-4.1-4.7 0.4-9.5 2.1-4.8 1.6-8.4 4.7-3.5 3.1-3.3 6.6 0.2 4.6 4.5 7.1l-1.3 2.1q-3.9-1.6-6.2-4.4-2.3-2.8-2.5-6-0.2-4.2 4.3-8.3 4.5-4 11.2-6.4 6.8-2.5 13.4-2.8 4.1-0.2 4.1 1.6 0.1 1.1-2.2 3-4.2 3.5-6.3 8.8-2.1 5.4-3.2 12.4 7.6-3.2 14.3-10.1 6.8-7 11.7-15.5zm18.2 30.3l1.7 1.2q-1.5 3.9-5 6.3-3.5 2.4-6.9 2.5-3.3 0.2-5.6-1.8-2.3-2-2.5-5.7-0.2-3.6 2.8-8.1 3-4.4 7.9-7.4 5-3 9.8-3.3 0.7 0 2.1 0.1l-0.1 2.6q-7.4 0.7-12.2 5.2-4.7 4.4-4.5 9.2 0.1 1.9 1.4 3.1 1.3 1.2 3.3 1.1 3.1-0.2 7.8-5zm36-0.1l1.5 1.1q-1 2.9-3.4 5-2.4 2.1-4.4 2.2-2 0.1-3.2-1.2-1.2-1.4-1.3-3.6-0.1-2.3 0.5-5.8-3 5.2-6.5 8.2-3.6 3-6.1 3.1-3.8 0.2-4-4.3-0.2-4.6 2.5-12.4 2.9-7.9 4.2-9.1l3.3 1.3q-2.6 4.6-3.8 9-1.2 4.5-1.1 6 0 1.4 1 2.2 1 0.9 2.2 0.8 2.7-0.1 6.5-5.3 3.8-5.2 7.5-15.3l3.6 1.4q-0.1 0.5-2.8 8-2.5 7.5-2.5 9 0.1 1.4 0.7 2.1 0.8 0.7 1.4 0.7 0.6 0 1-0.1 0.3-0.1 0.6-0.3 0.4-0.2 0.6-0.4 0.2-0.1 0.6-0.5l0.4-0.6q0.2-0.1 0.5-0.5 0.4-0.5 0.5-0.7zm8.9 1.6l3.3-1.9q0.1 1.2 1 2.1 1 0.8 2.2 0.8 5.8-0.3 12.5-15.9 0.3-0.9 0.8-2 0.5-1.2 0.8-1.7 0.2-0.7 0.5-1.4 0.4-0.8 0.6-1.1 0.2-0.5 0.5-0.8 0.5-0.7 1.3-0.7 0.8 0 1.5 0.7 0.6 0.7 0.7 1.7 0 1-2.2 8.6-2.2 7.5-2.1 9.1 0.1 1.5 0.7 2.2 0.7 0.8 1.3 0.7 0.7 0 1.1-0.1 0.3-0.1 0.6-0.3 0.4-0.2 0.6-0.4 0.2-0.1 0.5-0.5l0.5-0.5q0.2-0.2 0.5-0.6 0.4-0.5 0.5-0.6l1.5 1q-1 3-3.4 5-2.4 2.1-4.4 2.2-2 0.1-3.2-1.2-1.2-1.3-1.3-3.6-0.2-2.2 0.4-5.8-2.9 5-6.5 7.8-3.6 2.7-5.9 2.8-2.3 0.1-3.5-1.5-1.3-1.7-1.4-4.1zm64.2-5.1l1.5 1.1q-1 2.9-3.4 5-2.4 2.1-4.4 2.2-2 0.1-3.2-1.2-1.2-1.4-1.3-3.6-0.1-2.3 0.4-5.8-2.9 5.1-6.4 8.2-3.6 3-6.1 3.1-3.8 0.2-4-4.3-0.2-4.6 2.5-12.4 2.8-7.9 4.2-9.1l3.3 1.3q-2.6 4.6-3.8 9-1.2 4.5-1.2 5.9 0.1 1.5 1 2.3 1 0.9 2.3 0.8 2.7-0.1 6.4-5.3 3.9-5.2 7.6-15.3l3.6 1.4q-0.2 0.5-2.8 8-2.6 7.5-2.5 9 0.1 1.4 0.7 2.1 0.7 0.7 1.4 0.7 0.6 0 1-0.1 0.3-0.1 0.6-0.3 0.4-0.2 0.6-0.4 0.2-0.1 0.5-0.5l0.5-0.6q0.2-0.1 0.5-0.5 0.4-0.5 0.5-0.7zm30.3-11.4q0.3 4.9-3.1 9.4-3.4 4.4-8 5.9-0.5 5.5-0.7 10l-3.3-2.2q0.3-6.2 0.4-7.1-4.2 0.1-7.5-2-3.3-2.2-3.5-5.9-0.2-5.7 3.4-10.7 3.7-5.1 9.8-6.6 0.9-9.2 1.1-10l3.8 1q0 0.8-1.2 12.1-1.3 11.3-1.8 16.4 3.4-1.1 5.1-4 1.7-2.9 1.6-6.1-0.2-3.2-1.6-4.8l3.5-1.3q0.8 1 1.4 2.9 0.6 1.9 0.6 3zm-20.3 4.6q0.1 2.1 1.9 3.5 1.9 1.5 4.1 2.2l1.6-17q-3.5 1.2-5.7 4.4-2.1 3.1-1.9 6.9zm38.7-6.7l3.5-1.2q1.9 2.8 2 6.3 0.3 5.5-3.3 10.1-3.6 4.4-8.8 4.7-3.9 0.2-6.3-2-2.2-2.2-2.4-6.2-0.3-6.4 4.4-11.8 4.8-5.4 11.1-5.7 1.1 0 1.6 0l0.3 2.3q-5.4 0.2-8.9 3.5-3.4 3.3-3.2 8.2 0.2 2.9 1.7 4.7 1.5 1.7 4.2 1.6 2.8-0.2 4.3-2.7 1.5-2.5 1.4-5.8-0.2-3.3-1.6-6zm18.4 5.8q4.8-8 8.5-11 3.6-3 6.5-3.2 2.9-0.1 4.5 1.6 1.6 1.6 1.8 4.2 0.3 7.4-4.7 13.9-4.9 6.4-11.5 6.7-2.9 0.2-4.7-0.8l1.5-3q3.6 0.3 4.5 0.3 3.6-0.2 6.6-4.6 3-4.4 2.8-8.9-0.1-1.7-1.2-2.8-1-1.1-2.5-1-3.8 0.2-8.2 7-4.4 6.8-8 16.8-3.7 9.9-6.2 21.1l-4.1-1.3q0.1-0.4 2.1-7.1 2.2-6.8 4.2-13.4 5.5-18.2 5.4-19.9-0.2-4.4-2.1-7.8l3.3-1.9q2.2 2.8 2.4 6.1 0.1 3.2-0.9 9z"/><g style="opacity:.4;mix-blend-mode:multiply"><path class="a" d="m734.6 743.2l-711.6-65.2 7.2-511h644.8z"/><path class="aO" d="m734 742.5l-710.9-64.6 7.1-510.9h644.8z"/><path class="aP" d="m733.5 741.7l-710.4-63.9 7.1-510.8h644.8z"/><path class="aQ" d="m732.9 741l-709.7-63.3 7-510.7h644.8z"/><path class="aR" d="m732.3 740.3l-709-62.7 6.9-510.6h644.8z"/><path class="aS" d="m731.7 739.5l-708.3-61.9 6.8-510.6h644.8z"/><path class="f" d="m731.1 738.8l-707.7-61.3 6.8-510.5h644.8z"/><path class="aT" d="m730.5 738l-707-60.6 6.7-510.4h644.8z"/><path class="aU" d="m729.9 737.3l-706.3-60 6.6-510.3h644.8z"/><path class="i" d="m729.3 736.6l-705.7-59.4 6.6-510.2h644.8z"/><path class="aV" d="m728.7 735.8l-705-58.7 6.5-510.1h644.8z"/><path class="aW" d="m728.1 735.1l-704.3-58.1 6.4-510h644.8z"/><path class="aX" d="m727.6 734.3l-703.8-57.4 6.4-509.9h644.8z"/><path class="aY" d="m727 733.6l-703.1-56.8 6.3-509.8h644.8z"/><path class="aZ" d="m726.4 732.9l-702.4-56.2 6.2-509.7h644.8z"/><path class="n" d="m725.8 732.1l-701.7-55.5 6.1-509.6h644.8z"/><path class="o" d="m725.2 731.4l-701.1-54.9 6.1-509.5h644.8z"/><path class="b0" d="m724.6 730.6l-700.4-54.2 6-509.4h644.8z"/><path class="b1" d="m724 729.9l-699.7-53.6 5.9-509.3h644.8z"/><path class="b2" d="m723.4 729.2l-699.1-53 5.9-509.2h644.8z"/><path class="b3" d="m722.8 728.4l-698.4-52.3 5.8-509.1h644.8z"/><path class="b4" d="m722.2 727.7l-697.7-51.6 5.7-509.1h644.8z"/><path class="b5" d="m721.7 726.9l-697.1-50.9 5.6-509h644.8z"/><path class="b6" d="m721.1 726.2l-696.5-50.3 5.6-508.9h644.8z"/><path class="b7" d="m720.5 725.5l-695.8-49.7 5.5-508.8h644.8z"/><path class="b8" d="m719.9 724.7l-695.1-49 5.4-508.7h644.8z"/><path class="b9" d="m719.3 724l-694.5-48.4 5.4-508.6h644.8z"/><path class="ba" d="m718.7 723.2l-693.8-47.7 5.3-508.5h644.8z"/><path class="bb" d="m718.1 722.5l-693.1-47.1 5.2-508.4h644.8z"/><path class="bc" d="m717.5 721.8l-692.4-46.5 5.1-508.3h644.8z"/><path class="bd" d="m716.9 721l-691.8-45.8 5.1-508.2h644.8z"/><path class="be" d="m716.3 720.3l-691.1-45.2 5-508.1h644.8z"/><path class="bf" d="m715.8 719.6l-690.5-44.6 4.9-508h644.8z"/><path class="bg" d="m715.2 718.8l-689.9-43.9 4.9-507.9h644.8z"/><path class="bh" d="m714.6 718.1l-689.2-43.3 4.8-507.8h644.8z"/><path class="bi" d="m714 717.3l-688.5-42.6 4.7-507.7h644.8z"/><path class="bj" d="m713.4 716.6l-687.9-42 4.7-507.6h644.8z"/><path class="bk" d="m712.8 715.9l-687.2-41.3 4.6-507.6h644.8z"/><path class="bl" d="m712.2 715.1l-686.5-40.6 4.5-507.5h644.8z"/><path class="bm" d="m711.6 714.4l-685.8-40 4.4-507.4h644.8z"/><path class="bn" d="m711 713.6l-685.2-39.3 4.4-507.3h644.8z"/><path class="bo" d="m710.4 712.9l-684.5-38.7 4.3-507.2h644.8z"/><path class="bp" d="m709.9 712.2l-683.9-38.1 4.2-507.1h644.8z"/><path class="bq" d="m709.3 711.4l-683.3-37.4 4.2-507h644.8z"/><path class="br" d="m708.7 710.7l-682.6-36.8 4.1-506.9h644.8z"/><path class="bs" d="m708.1 709.9l-681.9-36.1 4-506.8h644.8z"/><path class="bt" d="m707.5 709.2l-681.2-35.5 3.9-506.7h644.8z"/><path class="bu" d="m706.9 708.5l-680.6-34.9 3.9-506.6h644.8z"/><path class="bv" d="m706.3 707.7l-679.9-34.2 3.8-506.5h644.8z"/><path class="bw" d="m705.7 707l-679.2-33.6 3.7-506.4h644.8z"/><path class="bx" d="m705.1 706.2l-678.6-32.9 3.7-506.3h644.8z"/><path class="by" d="m704.5 705.5l-677.9-32.3 3.6-506.2h644.8z"/><path class="bz" d="m704 704.8l-677.3-31.7 3.5-506.1h644.8z"/><path class="bA" d="m703.4 704l-676.6-30.9 3.4-506.1h644.8z"/><path class="bB" d="m702.8 703.3l-676-30.3 3.4-506h644.8z"/><path class="bC" d="m702.2 702.6l-675.3-29.7 3.3-505.9h644.8z"/><path class="bD" d="m701.6 701.8l-674.6-29 3.2-505.8h644.8z"/><path class="bE" d="m701 701.1l-674-28.4 3.2-505.7h644.8z"/><path class="bF" d="m700.4 700.3l-673.3-27.7 3.1-505.6h644.8z"/><path class="bG" d="m699.8 699.6l-672.6-27.1 3-505.5h644.8z"/><path class="bH" d="m699.2 698.9l-672-26.5 3-505.4h644.8z"/><path class="bI" d="m698.6 698.1l-671.3-25.8 2.9-505.3h644.8z"/><path class="bJ" d="m698.1 697.4l-670.7-25.2 2.8-505.2h644.8z"/><path class="bK" d="m697.5 696.6l-670-24.5 2.7-505.1h644.8z"/><path class="bL" d="m696.9 695.9l-669.4-23.9 2.7-505h644.8z"/><path class="bM" d="m696.3 695.2l-668.7-23.3 2.6-504.9h644.8z"/><path class="bN" d="m695.7 694.4l-668-22.6 2.5-504.8h644.8z"/><path class="bO" d="m695.1 693.7l-667.4-22 2.5-504.7h644.8z"/><path class="bP" d="m694.5 692.9l-666.7-21.3 2.4-504.6h644.8z"/><path class="bQ" d="m693.9 692.2l-666-20.6 2.3-504.6h644.8z"/><path class="bR" d="m693.3 691.5l-665.3-20 2.2-504.5h644.8z"/><path class="bS" d="m692.7 690.7l-664.7-19.3 2.2-504.4h644.8z"/><path class="bT" d="m692.2 690l-664.1-18.7 2.1-504.3h644.8z"/><path class="bU" d="m691.6 689.2l-663.4-18 2-504.2h644.8z"/><path class="bV" d="m691 688.5l-662.8-17.4 2-504.1h644.8z"/><path class="bW" d="m690.4 687.8l-662.1-16.8 1.9-504h644.8z"/><path class="bX" d="m689.8 687l-661.4-16.1 1.8-503.9h644.8z"/><path class="bY" d="m689.2 686.3l-660.7-15.5 1.7-503.8h644.8z"/><path class="bZ" d="m688.6 685.6l-660.1-14.9 1.7-503.7h644.8z"/><path class="c0" d="m688 684.8l-659.4-14.2 1.6-503.6h644.8z"/><path class="c1" d="m687.4 684.1l-658.7-13.6 1.5-503.5h644.8z"/><path class="c2" d="m686.8 683.3l-658.1-12.9 1.5-503.4h644.8z"/><path class="c3" d="m686.3 682.6l-657.5-12.3 1.4-503.3h644.8z"/><path class="c4" d="m685.7 681.9l-656.8-11.7 1.3-503.2h644.8z"/><path class="c5" d="m685.1 681.1l-656.2-11 1.3-503.1h644.8z"/><path class="c6" d="m684.5 680.4l-655.5-10.3 1.2-503.1h644.8z"/><path class="c7" d="m683.9 679.6l-654.8-9.6 1.1-503h644.8z"/><path class="c8" d="m683.3 678.9l-654.1-9 1-502.9h644.8z"/><path class="c9" d="m682.7 678.2l-653.5-8.4 1-502.8h644.8z"/><path class="ca" d="m682.1 677.4l-652.8-7.7 0.9-502.7h644.8z"/><path class="cb" d="m681.5 676.7l-652.1-7.1 0.8-502.6h644.8z"/><path class="cc" d="m680.9 675.9l-651.5-6.4 0.8-502.5h644.8z"/><path class="cd" d="m680.4 675.2l-650.9-5.8 0.7-502.4h644.8z"/><path class="ce" d="m679.8 674.5l-650.2-5.2 0.6-502.3h644.8z"/><path class="cf" d="m679.2 673.7l-649.5-4.5 0.5-502.2h644.8z"/><path class="cg" d="m678.6 673l-648.9-3.9 0.5-502.1h644.8z"/><path class="ch" d="m678 672.2l-648.2-3.2 0.4-502h644.8z"/><path class="ci" d="m677.4 671.5l-647.5-2.6 0.3-501.9h644.8z"/><path class="cj" d="m676.8 670.8l-646.9-2 0.3-501.8h644.8z"/><path class="ck" d="m676.2 670l-646.2-1.3 0.2-501.7h644.8z"/><path class="cl" d="m675.6 669.3l-645.5-0.7 0.1-501.6h644.8z"/><path class="cm" d="m675 167v501.5h-644.8v-501.5z"/></g><path class="cn" d="m680.4 13v655.5h-655.6v-655.5z"/><path class="co" d="m680.4 13v655.5h-655.6v-655.5z"/><path class="av" d="m157.6 228.9q-0.3 2.6-5.1 13.5-15.5 33.7-14.8 56.5l-9.5 2.2q-1-2.3-1.5-7.8-1-13.3 13.6-50-5.5 2.7-9.1 3-3.6 0.3-6.8-0.7l2.7-7.9q1.8 0.3 3.6 0.2 4.8-0.4 9.5-3.8 4.7-3.3 7.1-7.3 2.4-3.9 4.4-4.1 1.9-0.1 3.8 1.1 2.1 1.2 2.2 2.8 0.1 1.7-0.1 2.3zm63.3-6.4l0.1 9.2q-2 0-9.2 0.5-7 0.6-11.9 1.6-4.7 0.9-11.9 3.4-7.7 13.4-9.2 18.8 4-0.8 7.1-1 10.2-0.8 17.7 3.6 7.6 4.4 8.2 11.7 0.8 10.3-9.4 18.5-10.2 8.1-24.1 9.2-13.8 1.1-19.9-5.7l5.9-6.1q1.9 1.9 6.4 3.2 4.4 1.3 8 1.1 8.4-0.7 14.3-6 5.9-5.2 5.4-12.1-0.4-4.8-6.2-7.5-5.7-2.7-14.6-2-8.8 0.6-9.2-4.7-0.2-2.4 3.4-10.1 3.8-7.7 4.2-8.7 0.5-1.1 1.4-2.9 1.1-1.7 1.5-2.2 0.4-0.6 1.4-1.9 0.9-1.3 1.6-1.9 2.2-1.4 5.1-2.5 11.6-3.8 26.8-4.9zm162.7 42.6l3.3 2.3q-2.1 6.5-7.3 11.3-5 4.7-9.5 5.1-4.3 0.3-7.1-2.5-2.8-2.9-3.2-7.9-0.4-4.9 0.7-12.8-6.2 11.6-13.8 18.5-7.6 6.9-13.1 7.3-8.4 0.7-9.2-9.9-0.1-1.1 1.1-13.1-6.2 11.5-12.9 17.6-6.6 5.9-12.3 6.3-8.4 0.7-9.2-9.9l5.2-5.8q0.3 2.6 2.3 4.4 2.3 1.8 5 1.6 4.9-0.4 12.6-9.4 7.9-9 13.9-23.2 1.3-3.1 2.9-7.3 1.8-4.3 2.5-6.2 0.8-1.8 1.8-4 1.7-3.5 3.8-3.6 2.1-0.2 3.6 1.3 1.4 1.6 1.6 3.8 0.2 2.1-0.9 5.1-1 2.9-3.5 8.1-2.5 5-3.9 8.2-3.1 10.5-2.8 14.2 0.3 3.8 2.4 5.6 2.3 1.8 4.9 1.5 5.1-0.3 11.6-8.7 6.5-8.4 13-24.6 0.7-2 1.7-4.5 1-2.6 1.5-3.9 0.5-1.4 1.1-3.1 0.8-1.7 1.2-2.5 0.5-0.9 1.1-1.7 1.2-1.4 2.9-1.6 1.7-0.1 3.2 1.4 1.5 1.6 1.7 3.8 0.1 2.1-6.1 19.1-6 16.9-5.8 20.3 0.3 3.5 1.8 5 1.6 1.6 2.9 1.5 1.5-0.2 2.3-0.4 0.7-0.2 1.4-0.7 0.7-0.5 1.1-0.8 0.6-0.4 1.3-1.2l1-1.1q0.4-0.5 1.1-1.4 0.8-1.2 1.1-1.5zm74.9-5.9l3.3 2.3q-2 6.5-7.2 11.2-5.1 4.8-9.6 5.1-4.3 0.4-7.1-2.4-2.8-3-3.2-7.9-0.3-4.9 0.7-12.8-6.2 11.6-13.8 18.5-7.6 6.9-13.1 7.3-8.4 0.6-9.1-9.4-0.8-10 4.8-27.4 5.7-17.6 8.5-20.2l7.4 2.5q-5.4 10.4-7.8 20.2-2.4 9.8-2.1 13.1 0.2 3.1 2.3 4.9 2.3 1.8 5 1.6 5.9-0.4 13.9-12 8.1-11.8 15.7-34.4l7.9 2.9q-0.2 1.2-5.5 17.9-5.2 16.6-4.9 19.9 0.2 3.2 1.7 4.7 1.6 1.5 2.9 1.4 1.5-0.1 2.3-0.3 0.7-0.2 1.4-0.7 0.7-0.5 1.2-0.9 0.5-0.3 1.2-1.1l1-1.3q0.4-0.3 1.1-1.3 0.8-1.1 1.1-1.4zm69.7-46.3l5.9 0.9q-0.1 1.1-3.6 9.4-3.5 8.3-7.1 21.7-3.6 13.2-4 26.4h-9.6q-0.6-8.2 3.6-21.6-1.4-0.1-5.5 0.3-4.1 0.3-14.8 3.1-6.4 17.6-5.4 29.7l-10.1-0.6q-0.9-10.6 5.9-26.7-7.6 1.7-15 4.7l-2-5.7q0-0.4 7.8-3.1 7.9-2.8 11.7-3.7 9.9-28.4 13.9-33.1l6.6 2.1q-0.6 1.5-2.9 7-5.8 13.5-7.6 21 12.9-2.3 15.5-2.5 2.7-0.2 4.5-0.2 8.6-24.9 12.2-29.1zm15.6 56.4q-1.9-1.6-2.1-4.2-0.2-2.5 1.4-4.5 1.7-1.9 4.2-2.1 2.6-0.2 4.5 1.5 1.9 1.6 2.1 4.2 0.2 2.5-1.4 4.4-1.7 2-4.2 2.2-2.6 0.2-4.5-1.5z"/><path class="av" d="m126.7 408.3l2.2 1.5q-2 4.6-5.8 7.9-3.7 3.3-6.8 3.4-3.2 0.2-5.1-1.5-1.9-1.7-2.1-4.5-0.2-2.7 2.9-9.8 3.2-7.1 3-10.3-0.1-1.5-1.4-2.5-1.2-1.2-2.8-1.1-5.2 0.3-10 8.6-4.9 8.1-10.5 23.3l-6.3-1.8q1.3-11.9 4.2-23.3 3-11.5 5.8-16.6l4.3 1.1q-2.5 7.4-5.8 25.4 12.6-24.8 24.4-25.5 2.6-0.2 4.3 1.5 1.9 1.6 2 4 0.1 2.3-0.4 4.3-0.5 1.8-3.4 8.9-2.7 7-2.6 8.8 0.1 1.7 1.2 2.7 1 0.8 1.9 0.8 1-0.1 1.6-0.4 0.5-0.4 1.2-1 0.8-0.7 1.4-1.2 0.6-0.6 1.3-1.4 0.9-1 1.3-1.3zm21.4-7.7q7.1-12 12.6-16.5 5.4-4.6 9.7-4.9 4.3-0.2 6.8 2.3 2.5 2.4 2.7 6.4 0.6 11-6.8 20.8-7.3 9.7-17.2 10.3-4.4 0.2-7-1.1l2.2-4.6q5.4 0.4 6.6 0.4 5.5-0.3 10-7 4.4-6.7 4-13.4-0.1-2.6-1.8-4.1-1.5-1.7-3.8-1.5-5.6 0.3-12.2 10.6-6.5 10.2-11.8 25.3-5.3 14.9-9 31.6l-6.2-1.8q0.2-0.6 3.2-10.7 3.1-10.2 6-20.1 8-27.5 7.9-30-0.4-6.5-3.3-11.7l4.9-2.8q3.4 4.2 3.7 9.1 0.3 4.8-1.2 13.4zm66.2 3l2.4 1.7q-2.9 4.6-8.2 7.8-5.3 3.2-10.5 3.5-5.2 0.3-8.6-2.6-3.3-2.9-3.6-7.9-0.5-9.3 8.9-18.9 9.4-9.7 19.6-10.3 6.7-0.3 7 5 0.3 5.5-6.5 11.5-6.7 6-19.3 11.3 1.1 2.3 3.1 3.5 2 1.2 4.1 1.1 4.3-0.3 11.6-5.7zm-19.4-2q8-3.3 13.7-7.9 5.7-4.6 5.5-8.2-0.1-1.3-1.2-2.2-1.1-1-2.4-0.9-4.8 0.2-10 6.6-5.2 6.2-5.6 12.6zm62.5-23.2q0.4 7.4-13 13.1 3.8 2 5.7 3.7 1.9 1.7 2 3.9 0.4 5.7-5.8 10.4-6.2 4.7-13.5 5.1-3.6 0.2-7.2-0.7-3.6-0.9-5-2.5l3.6-3.8q1.3 1.2 3.4 2 2.2 0.8 3.6 0.7 5.1-0.3 9.1-3.1 4.2-2.9 3.9-6.6-0.1-2.1-1.7-3.3-1.6-1.3-3.4-1.7-1.8-0.6-3.4-1.3-1.6-0.8-1.6-1.9-0.1-1.2 2.2-2.2 2.4-1.2 5.3-1.9 2.9-0.9 5.2-2.6 2.3-1.8 2.2-3.7-0.1-1.9-1.5-3-1.4-1-3.4-0.9-1.9 0.1-6 2.5-4 2.4-8.1 6l-1.6-2.8q3.4-4.5 9.4-8.1 6.2-3.7 9.9-3.9 3.9-0.3 6.7 1.7 2.8 1.9 3 4.9zm33.4 20.9l2.4 1.7q-2.9 4.5-8.2 7.8-5.4 3.1-10.6 3.4-5.2 0.3-8.5-2.5-3.3-2.9-3.6-7.9-0.5-9.4 8.8-19 9.5-9.6 19.7-10.2 6.7-0.4 7 4.9 0.3 5.5-6.5 11.5-6.7 6-19.3 11.3 1.1 2.3 3.1 3.5 2 1.2 4 1.1 4.4-0.2 11.7-5.6zm-19.5-2q8.1-3.3 13.8-7.9 5.7-4.7 5.5-8.2-0.1-1.3-1.2-2.3-1.1-1-2.4-0.9-4.8 0.3-10 6.6-5.2 6.2-5.7 12.7zm71.3-28.7l4 0.7q-0.1 0.7-2.6 6.4-2.5 5.5-5.1 14.6-2.7 8.9-3.1 17.9l-6.5-0.1q-0.3-5.6 2.7-14.7-0.9 0-3.8 0.1-2.7 0.2-10.1 1.9-4.5 12-4 20.2l-6.9-0.5q-0.4-7.3 4.4-18.2-5.2 1.2-10.3 3.1l-1.2-3.9q0-0.3 5.3-2.1 5.4-1.7 8-2.3 7.1-19.2 9.9-22.3l4.5 1.5q-0.5 1-2.1 4.7-4.1 9.1-5.4 14.2 8.8-1.4 10.5-1.5 1.8-0.1 3.1-0.1 6.2-16.8 8.7-19.6zm79 22l2.2 1.9q-5.2 10.7-12.7 11.1-3.1 0.2-4.9-1.3-1.8-1.7-1.9-4.4-0.2-2.9 2.8-9.9 3-7 3-10.6 0-1.6-1.2-2.6-1.1-0.9-2.9-0.8-1.8 0.1-3.7 1.1-1.8 0.9-3.5 3-1.6 2-3.1 3.9-1.3 2-2.9 5.4-1.6 3.5-2.7 5.8-1.9 4.3-5.4 12.9l-6.2-1.8q0-0.3 2.7-11.7 2.7-11.4 2.6-13.6-0.1-2.1-1.2-3-1.1-0.9-2.6-0.8-4.6 0.2-12.1 12.1-7.4 11.9-9.1 20l-6-1.6q0.2-5.4 3.7-19.6 3.5-14.3 6.2-19.5l4.6 1.3q-2.7 7.2-3.7 12.2-0.9 4.8-1.5 10.4 8-13 13.7-18.4 5.6-5.4 10.4-5.7 5.1-0.3 5.4 4.9 0.2 2.1-1.3 8.2-1.4 6.1-2.2 9.6 12.7-23.4 23.8-24 2.8-0.2 4.5 1.5 1.7 1.5 1.9 4.9 0.2 3.2-3.2 11.1-3.4 7.8-3.3 9.9 0.2 1.9 1 2.8 0.9 0.8 2.1 0.8 2.7-0.2 6.7-5.5zm50.4 0.1l2.5 1.6q-1.3 3.1-5 6.1-3.6 2.9-6.8 3.1-6 0.4-6.3-6-0.2-2.9 1.1-7.1l-3.6 4.1q-5.1 5.9-9.1 8.1-3.9 2.2-7.7 2.4-3.9 0.2-6.1-1.8-2-2.2-2.2-6-0.4-7.2 4.7-14.4 5.1-7.3 13.4-12.2 8.3-4.9 16.8-5.5l0.4 3.4-4.2 1.2q-9.2 2.5-15.9 9-6.7 6.5-6.4 12.7 0.4 6 5.3 5.7 4.5-0.3 10.9-7.1 6.3-6.8 10.3-15.7l4.5 2.3q-5.6 13.1-5.4 16.6 0 1.4 1 2.4 1.1 0.8 2 0.8 1-0.1 1.3-0.2 0.3-0.1 0.6-0.2 0.3-0.3 0.7-0.6 0.5-0.3 0.8-0.7 0.4-0.3 1.2-0.9 0.7-0.7 1.2-1.1zm45.2-2.3q2.2-2.6 4.7-5.1 2.5-2.6 4.5-2.7 2.2-0.1 3.4 1.2 1.2 1.1 1.4 3.1 0.3 5.2-7.1 22.8h-4.8q0-0.1 2.5-7.1 2.7-7.1 2.5-9.7-0.1-2.7-1.8-2.6-1.4 0.1-4.3 5.2-1.2 1.9-3.5 3.5-2.3 1.7-5 1.8-2.7 0.2-4.5-1.8-1.9-2.1-2.1-5.3-0.1-3.3 0.7-8.4-4.4 7.7-9.6 12.2-5.2 4.5-9 4.7-5.7 0.4-6.1-6.5-0.3-6.8 3.7-18.6 4.1-11.8 6.1-13.6l5 1.9q-3.8 6.9-5.6 13.6-1.8 6.6-1.6 8.8 0.1 2.2 1.5 3.4 1.5 1.3 3.3 1.2 4.1-0.3 9.7-8 5.7-7.9 11.1-23.1l5.4 2q-0.2 0.8-4.1 12.1-3.7 11.2-3.6 13.5 0.1 2.1 1.1 3.2 1.1 0.9 2.5 0.9 1.4-0.1 3.6-2.6zm59.2-5.3l2.3 1.6q-1.5 4.4-5.1 7.5-3.5 3.2-6.6 3.4-2.9 0.1-4.8-1.8-1.8-2-2-5.4-0.2-3.4 0.6-8.7-4.4 7.8-9.6 12.4-5.3 4.6-9 4.8-5.7 0.3-6.1-6.5-0.4-6.8 3.6-18.6 4.1-11.9 6.1-13.6l5 1.8q-3.8 7-5.6 13.6-1.7 6.7-1.6 8.9 0.1 2.1 1.5 3.4 1.5 1.2 3.3 1.1 4.1-0.2 9.7-8 5.7-7.9 11.1-23.1l5.4 2.1q-0.2 0.8-4 12-3.8 11.3-3.7 13.5 0.2 2.2 1.1 3.2 1.1 1.1 2 1 1.1 0 1.6-0.1 0.5-0.2 1-0.5 0.4-0.3 0.7-0.6 0.4-0.2 0.9-0.7l0.7-0.9q0.3-0.2 0.8-0.8 0.5-0.8 0.7-1zm50.9-2.9l2.3 1.6q-1.5 4.4-5.1 7.5-3.5 3.2-6.6 3.4-2.9 0.1-4.8-1.8-1.8-2-2-5.4-0.2-3.4 0.6-8.7-4.3 7.8-9.6 12.4-5.3 4.6-9 4.8-5.7 0.3-6.1-6.5-0.4-6.8 3.6-18.6 4.2-11.9 6.1-13.6l5 1.8q-3.8 7-5.6 13.6-1.7 6.7-1.6 8.9 0.1 2.1 1.5 3.4 1.5 1.2 3.4 1.1 4-0.2 9.6-8 5.7-7.9 11.2-23.1l5.3 2.1q-0.2 0.8-4 12-3.8 11.3-3.6 13.5 0.1 2.2 1.1 3.2 1 1.1 2 1 1 0 1.5-0.1 0.5-0.2 1-0.5 0.5-0.3 0.8-0.6 0.4-0.2 0.8-0.7l0.7-0.9q0.3-0.2 0.8-0.8 0.5-0.8 0.7-1z"/><g style="opacity:.5;mix-blend-mode:multiply"><path class="a" d="m828.3 954.7c-51.7 0-93.9-42.2-93.9-93.9 0-51.8 42.2-93.9 93.9-93.9h63.8l646.7 33.7c51.7 0 93.9 42.1 93.9 93.9 0 51.8-42.2 93.9-93.9 93.9l-637.3-33.7z"/><path class="aO" d="m828.3 954.7c-51.7 0-93.9-42.2-93.9-93.9 0-51.8 42.2-93.9 93.9-93.9h63.8l646.4 33.3c51.8 0 94 42.2 94 93.9 0 51.8-42.2 93.9-94 93.9l-637-33.3z"/><path class="aP" d="m828.3 954.7c-51.7 0-93.9-42.2-93.9-93.9 0-51.8 42.2-93.9 93.9-93.9h63.8l646.2 33c51.8 0 94 42.1 94 93.9 0 51.8-42.2 93.9-94 93.9l-636.8-33z"/><path class="aQ" d="m828.3 954.7c-51.7 0-93.9-42.2-93.9-93.9 0-51.8 42.2-93.9 93.9-93.9h63.8l646 32.7c51.8 0 93.9 42.1 93.9 93.9 0 51.7-42.1 93.9-93.9 93.9l-636.6-32.7z"/><path class="aR" d="m828.3 954.7c-51.7 0-93.9-42.2-93.9-93.9 0-51.8 42.2-93.9 93.9-93.9h63.8l645.8 32.3c51.8 0 93.9 42.2 93.9 93.9 0 51.8-42.1 93.9-93.9 93.9l-636.4-32.3z"/><path class="aS" d="m828.3 954.7c-51.7 0-93.9-42.2-93.9-93.9 0-51.8 42.2-93.9 93.9-93.9h63.8l645.6 32c51.8 0 93.9 42.1 93.9 93.9 0 51.8-42.1 93.9-93.9 93.9l-636.2-32z"/><path class="f" d="m828.3 954.7c-51.7 0-93.9-42.2-93.9-93.9 0-51.8 42.2-93.9 93.9-93.9h63.8l645.4 31.7c51.8 0 93.9 42.1 93.9 93.9 0 51.7-42.1 93.9-93.9 93.9l-636-31.7z"/><path class="aT" d="m828.3 954.7c-51.7 0-93.9-42.2-93.9-93.9 0-51.8 42.2-93.9 93.9-93.9h63.8l645.2 31.3c51.7 0 93.9 42.2 93.9 93.9 0 51.8-42.2 93.9-93.9 93.9l-635.8-31.3z"/><path class="aU" d="m828.3 954.7c-51.7 0-93.9-42.2-93.9-93.9 0-51.8 42.2-93.9 93.9-93.9h63.8l644.9 31c51.8 0 94 42.1 94 93.9 0 51.8-42.2 93.9-94 93.9l-635.5-31z"/><path class="i" d="m828.3 954.7c-51.7 0-93.9-42.2-93.9-93.9 0-51.8 42.2-93.9 93.9-93.9h63.8l644.7 30.7c51.8 0 94 42.1 94 93.9 0 51.7-42.2 93.9-94 93.9l-635.3-30.7z"/><path class="aV" d="m828.3 954.7c-51.7 0-93.9-42.2-93.9-93.9 0-51.8 42.2-93.9 93.9-93.9h63.8l644.5 30.3c51.8 0 94 42.2 94 93.9 0 51.8-42.2 93.9-94 93.9l-635.1-30.3z"/><path class="aW" d="m828.3 954.7c-51.7 0-93.9-42.2-93.9-93.9 0-51.8 42.2-93.9 93.9-93.9h63.8l644.3 30c51.8 0 93.9 42.1 93.9 93.9 0 51.8-42.1 93.9-93.9 93.9l-634.9-30z"/><path class="aX" d="m828.3 954.7c-51.7 0-93.9-42.2-93.9-93.9 0-51.8 42.2-93.9 93.9-93.9h63.8l644.1 29.7c51.8 0 93.9 42.1 93.9 93.9 0 51.7-42.1 93.9-93.9 93.9l-634.7-29.7z"/><path class="aY" d="m828.3 954.7c-51.7 0-93.9-42.2-93.9-93.9 0-51.8 42.2-93.9 93.9-93.9h63.8l643.9 29.3c51.8 0 93.9 42.2 93.9 93.9 0 51.8-42.1 93.9-93.9 93.9l-634.5-29.3z"/><path class="aZ" d="m828.3 954.7c-51.7 0-93.9-42.2-93.9-93.9 0-51.8 42.2-93.9 93.9-93.9h63.8l643.7 29c51.7 0 93.9 42.1 93.9 93.9 0 51.8-42.2 93.9-93.9 93.9l-634.3-29z"/><path class="n" d="m828.3 954.7c-51.7 0-93.9-42.2-93.9-93.9 0-51.8 42.2-93.9 93.9-93.9h63.8l643.4 28.7c51.8 0 94 42.1 94 93.9 0 51.7-42.2 93.9-94 93.9l-634-28.7z"/><path class="o" d="m828.3 954.7c-51.7 0-93.9-42.2-93.9-93.9 0-51.8 42.2-93.9 93.9-93.9h63.8l643.2 28.3c51.8 0 94 42.2 94 93.9 0 51.8-42.2 93.9-94 93.9l-633.8-28.3z"/><path class="b0" d="m828.3 954.7c-51.7 0-93.9-42.2-93.9-93.9 0-51.8 42.2-93.9 93.9-93.9h63.8l643 28c51.8 0 94 42.1 94 93.9 0 51.8-42.2 93.9-94 93.9l-633.6-28z"/><path class="b1" d="m828.3 954.7c-51.7 0-93.9-42.2-93.9-93.9 0-51.8 42.2-93.9 93.9-93.9h63.8l642.8 27.7c51.8 0 93.9 42.1 93.9 93.9 0 51.7-42.1 93.9-93.9 93.9l-633.4-27.7z"/><path class="b2" d="m828.3 954.7c-51.7 0-93.9-42.2-93.9-93.9 0-51.8 42.2-93.9 93.9-93.9h63.8l642.6 27.3c51.8 0 93.9 42.2 93.9 93.9 0 51.8-42.1 93.9-93.9 93.9l-633.2-27.3z"/><path class="b3" d="m828.3 954.7c-51.7 0-93.9-42.2-93.9-93.9 0-51.8 42.2-93.9 93.9-93.9h63.8l642.4 27c51.8 0 93.9 42.1 93.9 93.9 0 51.8-42.1 93.9-93.9 93.9l-633-27z"/><path class="b4" d="m828.3 954.7c-51.7 0-93.9-42.2-93.9-93.9 0-51.8 42.2-93.9 93.9-93.9h63.8l642.2 26.7c51.8 0 93.9 42.1 93.9 93.9 0 51.7-42.1 93.9-93.9 93.9l-632.8-26.7z"/><path class="b5" d="m828.3 954.7c-51.7 0-93.9-42.2-93.9-93.9 0-51.8 42.2-93.9 93.9-93.9h63.8l642 26.3c51.7 0 93.9 42.2 93.9 93.9 0 51.8-42.2 93.9-93.9 93.9l-632.6-26.3z"/><path class="b6" d="m828.3 954.7c-51.7 0-93.9-42.2-93.9-93.9 0-51.8 42.2-93.9 93.9-93.9h63.8l641.7 26c51.8 0 94 42.1 94 93.9 0 51.8-42.2 93.9-94 93.9l-632.3-26z"/><path class="b7" d="m828.3 954.7c-51.7 0-93.9-42.2-93.9-93.9 0-51.8 42.2-93.9 93.9-93.9h63.8l641.5 25.7c51.8 0 94 42.1 94 93.9 0 51.7-42.2 93.9-94 93.9l-632.1-25.7z"/><path class="b8" d="m828.3 954.7c-51.7 0-93.9-42.2-93.9-93.9 0-51.8 42.2-93.9 93.9-93.9h63.8l641.3 25.3c51.8 0 93.9 42.2 93.9 93.9 0 51.8-42.1 93.9-93.9 93.9l-631.9-25.3z"/><path class="b9" d="m828.3 954.7c-51.7 0-93.9-42.2-93.9-93.9 0-51.8 42.2-93.9 93.9-93.9h63.8l641.1 25c51.8 0 93.9 42.1 93.9 93.9 0 51.8-42.1 93.9-93.9 93.9l-631.7-25z"/><path class="ba" d="m828.3 954.7c-51.7 0-93.9-42.2-93.9-93.9 0-51.8 42.2-93.9 93.9-93.9h63.8l640.9 24.7c51.8 0 93.9 42.1 93.9 93.9 0 51.7-42.1 93.9-93.9 93.9l-631.5-24.7z"/><path class="bb" d="m828.3 954.7c-51.7 0-93.9-42.2-93.9-93.9 0-51.8 42.2-93.9 93.9-93.9h63.8l640.7 24.3c51.8 0 93.9 42.2 93.9 93.9 0 51.8-42.1 93.9-93.9 93.9l-631.3-24.3z"/><path class="bc" d="m828.3 954.7c-51.7 0-93.9-42.2-93.9-93.9 0-51.8 42.2-93.9 93.9-93.9h63.8l640.5 24c51.7 0 93.9 42.1 93.9 93.9 0 51.8-42.2 93.9-93.9 93.9l-631.1-24z"/><path class="bd" d="m828.3 954.7c-51.7 0-93.9-42.2-93.9-93.9 0-51.8 42.2-93.9 93.9-93.9h63.8l640.2 23.7c51.8 0 94 42.1 94 93.9 0 51.7-42.2 93.9-94 93.9l-630.8-23.7z"/><path class="be" d="m828.3 954.7c-51.7 0-93.9-42.2-93.9-93.9 0-51.8 42.2-93.9 93.9-93.9h63.8l640 23.3c51.8 0 94 42.2 94 93.9 0 51.8-42.2 93.9-94 93.9l-630.6-23.3z"/><path class="bf" d="m828.3 954.7c-51.7 0-93.9-42.2-93.9-93.9 0-51.8 42.2-93.9 93.9-93.9h63.8l639.8 23c51.8 0 94 42.1 94 93.9 0 51.8-42.2 93.9-94 93.9l-630.4-23z"/><path class="bg" d="m828.3 954.7c-51.7 0-93.9-42.2-93.9-93.9 0-51.8 42.2-93.9 93.9-93.9h63.8l639.6 22.7c51.8 0 93.9 42.1 93.9 93.9 0 51.7-42.1 93.9-93.9 93.9l-630.2-22.7z"/><path class="bh" d="m828.3 954.7c-51.7 0-93.9-42.2-93.9-93.9 0-51.8 42.2-93.9 93.9-93.9h63.8l639.4 22.3c51.8 0 93.9 42.2 93.9 93.9 0 51.8-42.1 93.9-93.9 93.9l-630-22.3z"/><path class="bi" d="m828.3 954.7c-51.7 0-93.9-42.2-93.9-93.9 0-51.8 42.2-93.9 93.9-93.9h63.8l639.2 22c51.8 0 93.9 42.1 93.9 93.9 0 51.8-42.1 93.9-93.9 93.9l-629.8-22z"/><path class="bj" d="m828.3 954.7c-51.7 0-93.9-42.2-93.9-93.9 0-51.8 42.2-93.9 93.9-93.9h63.8l639 21.7c51.7 0 93.9 42.1 93.9 93.9 0 51.7-42.2 93.9-93.9 93.9l-629.6-21.7z"/><path class="bk" d="m828.3 954.7c-51.7 0-93.9-42.2-93.9-93.9 0-51.8 42.2-93.9 93.9-93.9h63.8l638.7 21.3c51.8 0 94 42.2 94 93.9 0 51.8-42.2 93.9-94 93.9l-629.3-21.3z"/><path class="bl" d="m828.3 954.7c-51.7 0-93.9-42.2-93.9-93.9 0-51.8 42.2-93.9 93.9-93.9h63.8l638.5 21c51.8 0 94 42.1 94 93.9 0 51.8-42.2 93.9-94 93.9l-629.1-21z"/><path class="bm" d="m828.3 954.7c-51.7 0-93.9-42.2-93.9-93.9 0-51.8 42.2-93.9 93.9-93.9h63.8l638.3 20.7c51.8 0 94 42.1 94 93.9 0 51.7-42.2 93.9-94 93.9l-628.9-20.7z"/><path class="bn" d="m828.3 954.7c-51.7 0-93.9-42.2-93.9-93.9 0-51.8 42.2-93.9 93.9-93.9h63.8l638.1 20.3c51.8 0 93.9 42.2 93.9 93.9 0 51.8-42.1 93.9-93.9 93.9l-628.7-20.3z"/><path class="bo" d="m828.3 954.7c-51.7 0-93.9-42.2-93.9-93.9 0-51.8 42.2-93.9 93.9-93.9h63.8l637.9 20c51.8 0 93.9 42.1 93.9 93.9 0 51.8-42.1 93.9-93.9 93.9l-628.5-20z"/><path class="bp" d="m828.3 954.7c-51.7 0-93.9-42.2-93.9-93.9 0-51.8 42.2-93.9 93.9-93.9h63.8l637.7 19.7c51.8 0 93.9 42.1 93.9 93.9 0 51.7-42.1 93.9-93.9 93.9l-628.3-19.7z"/><path class="bq" d="m828.3 954.7c-51.7 0-93.9-42.2-93.9-93.9 0-51.8 42.2-93.9 93.9-93.9h63.8l637.5 19.3c51.8 0 93.9 42.2 93.9 93.9 0 51.8-42.1 93.9-93.9 93.9l-628.1-19.3z"/><path class="br" d="m828.3 954.7c-51.7 0-93.9-42.2-93.9-93.9 0-51.8 42.2-93.9 93.9-93.9h63.8l637.3 19c51.7 0 93.9 42.1 93.9 93.9 0 51.8-42.2 93.9-93.9 93.9l-627.9-19z"/><path class="bs" d="m828.3 954.7c-51.7 0-93.9-42.2-93.9-93.9 0-51.8 42.2-93.9 93.9-93.9h63.8l637 18.7c51.8 0 94 42.1 94 93.9 0 51.7-42.2 93.9-94 93.9l-627.6-18.7z"/><path class="bt" d="m828.3 954.7c-51.7 0-93.9-42.2-93.9-93.9 0-51.8 42.2-93.9 93.9-93.9h63.8l636.8 18.3c51.8 0 94 42.2 94 93.9 0 51.8-42.2 93.9-94 93.9l-627.4-18.3z"/><path class="bu" d="m828.3 954.7c-51.7 0-93.9-42.2-93.9-93.9 0-51.8 42.2-93.9 93.9-93.9h63.8l636.6 18c51.8 0 93.9 42.1 93.9 93.9 0 51.8-42.1 93.9-93.9 93.9l-627.2-18z"/><path class="bv" d="m828.3 954.7c-51.7 0-93.9-42.2-93.9-93.9 0-51.8 42.2-93.9 93.9-93.9h63.8l636.4 17.7c51.8 0 93.9 42.1 93.9 93.9 0 51.7-42.1 93.9-93.9 93.9l-627-17.7z"/><path class="bw" d="m828.3 954.7c-51.7 0-93.9-42.2-93.9-93.9 0-51.8 42.2-93.9 93.9-93.9h63.8l636.2 17.3c51.8 0 93.9 42.2 93.9 93.9 0 51.8-42.1 93.9-93.9 93.9l-626.8-17.3z"/><path class="bx" d="m828.3 954.7c-51.7 0-93.9-42.2-93.9-93.9 0-51.8 42.2-93.9 93.9-93.9h63.8l636 17c51.8 0 93.9 42.1 93.9 93.9 0 51.8-42.1 93.9-93.9 93.9l-626.6-17z"/><path class="by" d="m828.3 954.7c-51.7 0-93.9-42.2-93.9-93.9 0-51.8 42.2-93.9 93.9-93.9h63.8l635.8 16.7c51.7 0 93.9 42.1 93.9 93.9 0 51.7-42.2 93.8-93.9 93.8l-626.4-16.6z"/><path class="bz" d="m828.3 954.7c-51.7 0-93.9-42.2-93.9-93.9 0-51.8 42.2-93.9 93.9-93.9h63.8l635.5 16.3c51.8 0 94 42.2 94 93.9 0 51.8-42.2 93.9-94 93.9l-626.1-16.3z"/><path class="bA" d="m828.3 954.7c-51.7 0-93.9-42.2-93.9-93.9 0-51.8 42.2-93.9 93.9-93.9h63.8l635.3 16c51.8 0 94 42.1 94 93.9 0 51.8-42.2 93.9-94 93.9l-625.9-16z"/><path class="bB" d="m828.3 954.7c-51.7 0-93.9-42.2-93.9-93.9 0-51.8 42.2-93.9 93.9-93.9h63.8l635.1 15.7c51.8 0 94 42.1 94 93.9 0 51.7-42.2 93.8-94 93.8l-625.7-15.6z"/><path class="bC" d="m828.3 954.7c-51.7 0-93.9-42.2-93.9-93.9 0-51.8 42.2-93.9 93.9-93.9h63.8l634.9 15.3c51.8 0 93.9 42.2 93.9 93.9 0 51.8-42.1 93.9-93.9 93.9l-625.5-15.3z"/><path class="bD" d="m828.3 954.7c-51.7 0-93.9-42.2-93.9-93.9 0-51.8 42.2-93.9 93.9-93.9h63.8l634.7 15c51.8 0 93.9 42.1 93.9 93.9 0 51.8-42.1 93.9-93.9 93.9l-625.3-15z"/><path class="bE" d="m828.3 954.7c-51.7 0-93.9-42.2-93.9-93.9 0-51.8 42.2-93.9 93.9-93.9h63.8l634.5 14.7c51.8 0 93.9 42.1 93.9 93.9 0 51.7-42.1 93.8-93.9 93.8l-625.1-14.6z"/><path class="bF" d="m828.3 954.7c-51.7 0-93.9-42.2-93.9-93.9 0-51.8 42.2-93.9 93.9-93.9h63.8l634.3 14.3c51.7 0 93.9 42.2 93.9 93.9 0 51.8-42.2 93.9-93.9 93.9l-624.9-14.3z"/><path class="bG" d="m828.3 954.7c-51.7 0-93.9-42.2-93.9-93.9 0-51.8 42.2-93.9 93.9-93.9h63.8l634 14c51.8 0 94 42.1 94 93.9 0 51.8-42.2 93.9-94 93.9l-624.6-14z"/><path class="bH" d="m828.3 954.7c-51.7 0-93.9-42.2-93.9-93.9 0-51.8 42.2-93.9 93.9-93.9h63.8l633.8 13.7c51.8 0 94 42.1 94 93.9 0 51.7-42.2 93.8-94 93.8l-624.4-13.6z"/><path class="bI" d="m828.3 954.7c-51.7 0-93.9-42.2-93.9-93.9 0-51.8 42.2-93.9 93.9-93.9h63.8l633.6 13.3c51.8 0 94 42.2 94 93.9 0 51.8-42.2 93.9-94 93.9l-624.2-13.3z"/><path class="bJ" d="m828.3 954.7c-51.7 0-93.9-42.2-93.9-93.9 0-51.8 42.2-93.9 93.9-93.9h63.8l633.4 13c51.8 0 93.9 42.1 93.9 93.9 0 51.8-42.1 93.9-93.9 93.9l-624-13z"/><path class="bK" d="m828.3 954.7c-51.7 0-93.9-42.2-93.9-93.9 0-51.8 42.2-93.9 93.9-93.9h63.8l633.2 12.7c51.8 0 93.9 42.1 93.9 93.9 0 51.7-42.1 93.8-93.9 93.8l-623.8-12.6z"/><path class="bL" d="m828.3 954.7c-51.7 0-93.9-42.2-93.9-93.9 0-51.8 42.2-93.9 93.9-93.9h63.8l633 12.3c51.8 0 93.9 42.2 93.9 93.9 0 51.8-42.1 93.9-93.9 93.9l-623.6-12.3z"/><path class="bM" d="m828.3 954.7c-51.7 0-93.9-42.2-93.9-93.9 0-51.8 42.2-93.9 93.9-93.9h63.8l632.8 12c51.8 0 93.9 42.1 93.9 93.9 0 51.8-42.1 93.9-93.9 93.9l-623.4-12z"/><path class="bN" d="m828.3 954.7c-51.7 0-93.9-42.2-93.9-93.9 0-51.8 42.2-93.9 93.9-93.9h63.8l632.6 11.7c51.7 0 93.9 42.1 93.9 93.9 0 51.7-42.2 93.8-93.9 93.8l-623.2-11.6z"/><path class="bO" d="m828.3 954.7c-51.7 0-93.9-42.2-93.9-93.9 0-51.8 42.2-93.9 93.9-93.9h63.8l632.3 11.3c51.8 0 94 42.1 94 93.9 0 51.8-42.2 93.9-94 93.9l-622.9-11.3z"/><path class="bP" d="m828.3 954.7c-51.7 0-93.9-42.2-93.9-93.9 0-51.8 42.2-93.9 93.9-93.9h63.8l632.1 11c51.8 0 94 42.1 94 93.9 0 51.8-42.2 93.9-94 93.9l-622.7-11z"/><path class="bQ" d="m828.3 954.7c-51.7 0-93.9-42.2-93.9-93.9 0-51.8 42.2-93.9 93.9-93.9h63.8l631.9 10.7c51.8 0 93.9 42.1 93.9 93.9 0 51.7-42.1 93.8-93.9 93.8l-622.5-10.6z"/><path class="bR" d="m828.3 954.7c-51.7 0-93.9-42.2-93.9-93.9 0-51.8 42.2-93.9 93.9-93.9h63.8l631.7 10.3c51.8 0 93.9 42.1 93.9 93.9 0 51.8-42.1 93.9-93.9 93.9l-622.3-10.3z"/><path class="bS" d="m828.3 954.7c-51.7 0-93.9-42.2-93.9-93.9 0-51.8 42.2-93.9 93.9-93.9h63.8l631.5 10c51.8 0 93.9 42.1 93.9 93.9 0 51.8-42.1 93.9-93.9 93.9l-622.1-10z"/><path class="bT" d="m828.3 954.7c-51.7 0-93.9-42.2-93.9-93.9 0-51.8 42.2-93.9 93.9-93.9h63.8l631.3 9.7c51.8 0 93.9 42.1 93.9 93.9 0 51.7-42.1 93.8-93.9 93.8l-621.9-9.6z"/><path class="bU" d="m828.3 954.7c-51.7 0-93.9-42.2-93.9-93.9 0-51.8 42.2-93.9 93.9-93.9h63.8l631.1 9.3c51.7 0 93.9 42.1 93.9 93.9 0 51.8-42.2 93.9-93.9 93.9l-621.7-9.3z"/><path class="bV" d="m828.3 954.7c-51.7 0-93.9-42.2-93.9-93.9 0-51.8 42.2-93.9 93.9-93.9h63.8l630.8 9c51.8 0 94 42.1 94 93.9 0 51.8-42.2 93.9-94 93.9l-621.4-9z"/><path class="bW" d="m828.3 954.7c-51.7 0-93.9-42.2-93.9-93.9 0-51.8 42.2-93.9 93.9-93.9h63.8l630.6 8.7c51.8 0 94 42.1 94 93.9 0 51.7-42.2 93.8-94 93.8l-621.2-8.6z"/><path class="bX" d="m828.3 954.7c-51.7 0-93.9-42.2-93.9-93.9 0-51.8 42.2-93.9 93.9-93.9h63.8l630.4 8.3c51.8 0 94 42.1 94 93.9 0 51.8-42.2 93.9-94 93.9l-621-8.3z"/><path class="bY" d="m828.3 954.7c-51.7 0-93.9-42.2-93.9-93.9 0-51.8 42.2-93.9 93.9-93.9h63.8l630.2 8c51.8 0 93.9 42.1 93.9 93.9 0 51.8-42.1 93.9-93.9 93.9l-620.8-8z"/><path class="bZ" d="m828.3 954.7c-51.7 0-93.9-42.2-93.9-93.9 0-51.8 42.2-93.9 93.9-93.9h63.8l630 7.7c51.8 0 93.9 42.1 93.9 93.9 0 51.7-42.1 93.8-93.9 93.8l-620.6-7.6z"/><path class="c0" d="m828.3 954.7c-51.7 0-93.9-42.2-93.9-93.9 0-51.8 42.2-93.9 93.9-93.9h63.8l629.8 7.3c51.8 0 93.9 42.1 93.9 93.9 0 51.8-42.1 93.9-93.9 93.9l-620.4-7.3z"/><path class="c1" d="m828.3 954.7c-51.7 0-93.9-42.2-93.9-93.9 0-51.8 42.2-93.9 93.9-93.9h63.8l629.6 7c51.7 0 93.9 42.1 93.9 93.9 0 51.8-42.2 93.9-93.9 93.9l-620.2-7z"/><path class="c2" d="m828.3 954.7c-51.7 0-93.9-42.2-93.9-93.9 0-51.8 42.2-93.9 93.9-93.9h63.8l629.3 6.7c51.8 0 94 42.1 94 93.9 0 51.7-42.2 93.8-94 93.8l-619.9-6.6z"/><path class="c3" d="m828.3 954.7c-51.7 0-93.9-42.2-93.9-93.9 0-51.8 42.2-93.9 93.9-93.9h63.8l629.1 6.3c51.8 0 94 42.1 94 93.9 0 51.8-42.2 93.9-94 93.9l-619.7-6.3z"/><path class="c4" d="m828.3 954.7c-51.7 0-93.9-42.2-93.9-93.9 0-51.8 42.2-93.9 93.9-93.9h63.8l628.9 6c51.8 0 94 42.1 94 93.9 0 51.8-42.2 93.9-94 93.9l-619.5-6z"/><path class="c5" d="m828.3 954.7c-51.7 0-93.9-42.2-93.9-93.9 0-51.8 42.2-93.9 93.9-93.9h63.8l628.7 5.7c51.8 0 93.9 42.1 93.9 93.8 0 51.8-42.1 93.9-93.9 93.9l-619.3-5.6z"/><path class="c6" d="m828.3 954.7c-51.7 0-93.9-42.2-93.9-93.9 0-51.8 42.2-93.9 93.9-93.9h63.8l628.5 5.3c51.8 0 93.9 42.1 93.9 93.9 0 51.8-42.1 93.9-93.9 93.9l-619.1-5.3z"/><path class="c7" d="m828.3 954.7c-51.7 0-93.9-42.2-93.9-93.9 0-51.8 42.2-93.9 93.9-93.9h63.8l628.3 5c51.8 0 93.9 42.1 93.9 93.9 0 51.8-42.1 93.9-93.9 93.9l-618.9-5z"/><path class="c8" d="m828.3 954.7c-51.7 0-93.9-42.2-93.9-93.9 0-51.8 42.2-93.9 93.9-93.9h63.8l628.1 4.7c51.8 0 93.9 42.1 93.9 93.8 0 51.8-42.1 93.9-93.9 93.9l-618.7-4.6z"/><path class="c9" d="m828.3 954.7c-51.7 0-93.9-42.2-93.9-93.9 0-51.8 42.2-93.9 93.9-93.9h63.8l627.9 4.3c51.7 0 93.9 42.1 93.9 93.9 0 51.8-42.2 93.9-93.9 93.9l-618.5-4.3z"/><path class="ca" d="m828.3 954.7c-51.7 0-93.9-42.2-93.9-93.9 0-51.8 42.2-93.9 93.9-93.9h63.8l627.6 4c51.8 0 94 42.1 94 93.9 0 51.8-42.2 93.9-94 93.9l-618.2-4z"/><path class="cb" d="m828.3 954.7c-51.7 0-93.9-42.2-93.9-93.9 0-51.8 42.2-93.9 93.9-93.9h63.8l627.4 3.6c51.8 0 94 42.2 94 93.9 0 51.8-42.2 93.9-94 93.9l-618-3.6z"/><path class="cc" d="m828.3 954.7c-51.7 0-93.9-42.2-93.9-93.9 0-51.8 42.2-93.9 93.9-93.9h63.8l627.2 3.3c51.8 0 93.9 42.1 93.9 93.9 0 51.8-42.1 93.9-93.9 93.9l-617.8-3.3z"/><path class="cd" d="m828.3 954.7c-51.7 0-93.9-42.2-93.9-93.9 0-51.8 42.2-93.9 93.9-93.9h63.8l627 3c51.8 0 93.9 42.1 93.9 93.9 0 51.8-42.1 93.9-93.9 93.9l-617.6-3z"/><path class="ce" d="m828.3 954.7c-51.7 0-93.9-42.2-93.9-93.9 0-51.8 42.2-93.9 93.9-93.9h63.8l626.8 2.6c51.8 0 93.9 42.2 93.9 93.9 0 51.8-42.1 93.9-93.9 93.9l-617.4-2.6z"/><path class="cf" d="m828.3 954.7c-51.7 0-93.9-42.2-93.9-93.9 0-51.8 42.2-93.9 93.9-93.9h63.8l626.6 2.3c51.8 0 93.9 42.1 93.9 93.9 0 51.8-42.1 93.9-93.9 93.9l-617.2-2.3z"/><path class="cg" d="m828.3 954.7c-51.7 0-93.9-42.2-93.9-93.9 0-51.8 42.2-93.9 93.9-93.9h63.8l626.4 2c51.7 0 93.9 42.1 93.9 93.9 0 51.8-42.2 93.9-93.9 93.9l-617-2z"/><path class="ch" d="m828.3 954.7c-51.7 0-93.9-42.2-93.9-93.9 0-51.8 42.2-93.9 93.9-93.9h63.8l626.1 1.6c51.8 0 94 42.2 94 93.9 0 51.8-42.2 93.9-94 93.9l-616.7-1.6z"/><path class="ci" d="m828.3 954.7c-51.7 0-93.9-42.2-93.9-93.9 0-51.8 42.2-93.9 93.9-93.9h63.8l625.9 1.3c51.8 0 94 42.1 94 93.9 0 51.8-42.2 93.9-94 93.9l-616.5-1.3z"/><path class="cj" d="m828.3 954.7c-51.7 0-93.9-42.2-93.9-93.9 0-51.8 42.2-93.9 93.9-93.9h63.8l625.7 1c51.8 0 94 42.1 94 93.9 0 51.8-42.2 93.9-94 93.9l-616.3-1z"/><path class="ck" d="m828.3 954.7c-51.7 0-93.9-42.2-93.9-93.9 0-51.8 42.2-93.9 93.9-93.9h63.8l625.5 0.6c51.8 0 93.9 42.2 93.9 93.9 0 51.8-42.1 93.9-93.9 93.9l-616.1-0.6z"/><path class="cl" d="m828.3 954.7c-51.7 0-93.9-42.2-93.9-93.9 0-51.8 42.2-93.9 93.9-93.9h63.8l625.3 0.3c51.8 0 93.9 42.1 93.9 93.9 0 51.8-42.1 93.9-93.9 93.9l-615.9-0.3z"/><path class="cm" d="m828.3 954.7c-51.7 0-93.9-42.2-93.9-93.9 0-51.8 42.2-93.9 93.9-93.9h63.8 625.1c51.8 0 93.9 42.1 93.9 93.9 0 51.7-42.1 93.9-93.9 93.9h-615.7z"/></g><path class="cp" d="m1612.9 860.8c0 52.8-42.8 95.6-95.7 95.6h-688.9c-52.8 0-95.6-42.8-95.6-95.6 0-52.9 42.8-95.7 95.6-95.7h688.9c52.9 0 95.7 42.8 95.7 95.7z"/><path class="cq" d="m828.3 954.7c-51.7 0-93.9-42.2-93.9-93.9 0-51.8 42.2-93.9 93.9-93.9h688.9c51.8 0 93.9 42.1 93.9 93.9 0 51.7-42.1 93.9-93.9 93.9z"/><path class="cr" d="m828.3 954.7c-51.7 0-93.9-42.2-93.9-93.9 0-51.8 42.2-93.9 93.9-93.9h688.9c51.8 0 93.9 42.1 93.9 93.9 0 51.7-42.1 93.9-93.9 93.9z"/><path class="av" d="m947.1 847.5v3.3q-3.1 1.8-11.3 4.8-3.7 9.2-11.6 17.1-8 7.9-14.6 7.9-3.7 0-6-2.7-2.3-2.6-2.3-7.2 0-4.7 3.1-11.3 3.1-6.6 8.2-12.3 5.1-5.7 10.4-8.5 2.2-1.4 6.8-1.4 3.5 0 5.7 2.7 2.2 2.7 2.2 6.4 0 3.6-0.5 5.4 5.1-1.7 9.9-4.2zm-27-2.3q-2.3 2.3-2.3 4.5 0 2.1 2.2 3.4 2.2 1.2 5.5 1.2 3.3 0 5.7-0.6 0.5-2.1 0.5-4 0-6.7-5.8-6.7-2.7 0-5.8 2.2zm0.9 25.7q6.6-6.6 9.3-13.8-1.7 0.4-4.4 0.4-11.4 0-12.9-5.1-5.7 7.9-5.7 15.6 0 3.1 1.4 4.9 1.5 1.8 4.4 1.8 4 0 7.9-3.8zm73.6 1.3l1.4 1.3q-3.8 7-8.9 7-2 0-3.2-1.1-1-1.2-1-3 0-1.9 2.2-6.5 2.2-4.5 2.4-6.9 0-1.1-0.7-1.8-0.7-0.7-1.9-0.7-1.2 0-2.5 0.6-1.2 0.6-2.5 1.9-1.1 1.3-2.1 2.5-1 1.2-2.2 3.5-1.2 2.2-2 3.7-1.4 2.8-4.1 8.4l-4.1-1.5q0-0.2 2.3-7.6 2.2-7.5 2.2-9 0-1.4-0.6-2-0.7-0.7-1.7-0.7-3.1 0-8.5 7.6-5.4 7.7-6.9 13l-3.9-1.3q0.4-3.6 3.2-12.9 2.9-9.4 4.8-12.8l3.1 1.1q-2.1 4.7-2.9 8-0.8 3.2-1.5 6.8 5.9-8.3 9.8-11.6 4-3.4 7.2-3.4 3.4 0 3.4 3.4 0 1.4-1.2 5.4-1.1 4-1.8 6.3 9.4-15.1 16.8-15.1 1.8 0 2.9 1.2 1.1 1.1 1.1 3.3 0 2.2-2.6 7.3-2.5 5.1-2.5 6.4 0 1.3 0.5 1.9 0.6 0.7 1.4 0.7 1.8 0 4.6-3.4zm51.4-23.4q-0.2 1.2-2.8 6-8.1 14.6-8.6 25l-4.3 0.7q-0.5-1.1-0.5-3.6 0-6.1 7.9-22.1-2.6 1-4.2 1-1.6 0-3-0.6l1.5-3.4q0.8 0.2 1.6 0.2 2.2 0 4.4-1.4 2.2-1.4 3.5-3.1 1.2-1.7 2.1-1.7 0.9 0 1.7 0.7 0.9 0.6 0.9 1.3 0 0.8-0.2 1zm21.4-1.3q3.9 0 6.1 2.2 2.3 2.2 2.3 6.3 0 4.1-3.5 10-3.4 6-9 10.4-5.5 4.3-10.5 4.3-8.3 0-8.3-9.2 0-5.3 3.4-10.9 3.5-5.6 8.9-9.3 5.4-3.8 10.6-3.8zm-4.6 25.9q3.4-3.3 5.5-7.8 2.1-4.6 2.1-8 0-3.5-1.6-5.2-1.6-1.9-4.3-1.9-4.7 0-9.5 6.2-4.7 6.1-4.7 12.3 0 3.4 1.6 5.5 1.5 2.1 4.5 2.1 3.1 0 6.4-3.2zm70.7 7l5.7-1.8 0.1 1.6q-0.7 0.4-6.2 2.4-2.2 13-6.4 18.8-4.2 5.8-10.4 5.8-2.8 0-4.5-1.9-1.7-1.8-1.7-4.7 0-5.9 5.4-10.9 5.3-5.1 14.3-8 1-4.6 3.7-12.9-4.6 7-8.3 9.4-3.7 2.5-6.7 2.5-3 0-4.5-1.7-1.5-1.6-1.5-4.3 0-4.5 3.7-9.1 3.7-4.7 9.4-7.7 5.7-2.9 11-2.9l0.5 2.3q-7.5 0.9-12.9 5.3-5.4 4.5-5.4 8.7 0 1.7 1.1 2.9 1.1 1.2 2.6 1.2 2.3 0 7-4.9 4.7-4.9 6.6-8.4l2.5 1.4q-3.7 10-5.1 16.9zm-4.1 3.3q-5.9 2.7-9.8 6.5-3.9 3.9-3.9 7 0 1.6 1 2.6 0.9 1.1 2.4 1.1 2.8 0 5.6-4.1 2.8-4 4.7-13.1zm28.2-21.8l3.6-1.1q1.7 2.9 1.7 6.5 0 5.5-3.8 9.8-3.8 4.3-9 4.3-3.9 0-6.2-2.2-2.1-2.3-2.1-6.4 0-6.4 5-11.5 5-5.2 11.3-5.2 1.1 0 1.6 0.1l0.2 2.2q-5.4 0-9 3.2-3.6 3.1-3.6 8 0 2.9 1.4 4.7 1.4 1.8 4.2 1.8 2.7 0 4.4-2.4 1.6-2.5 1.6-5.8 0-3.3-1.3-6zm55-13.1q-0.2 1.2-2.8 6-8.1 14.6-8.6 25l-4.3 0.7q-0.5-1.1-0.5-3.6 0-6.1 7.9-22.1-2.6 1-4.2 1-1.6 0-3-0.6l1.5-3.4q0.8 0.2 1.6 0.2 2.2 0 4.4-1.4 2.2-1.4 3.5-3.1 1.2-1.7 2.1-1.7 0.9 0 1.7 0.7 0.9 0.6 0.9 1.3 0 0.8-0.2 1zm14.9 0q-0.3 1.2-2.8 6-8.2 14.6-8.7 25l-4.3 0.7q-0.4-1.1-0.4-3.6 0-6.1 7.9-22.1-2.6 1-4.3 1-1.6 0-3-0.6l1.5-3.4q0.8 0.2 1.6 0.2 2.2 0 4.4-1.4 2.3-1.4 3.5-3.1 1.2-1.7 2.1-1.7 0.9 0 1.7 0.7 0.9 0.6 0.9 1.3 0 0.8-0.1 1zm74.7 24.3l1.4 1.2q-1.1 2.8-3.7 4.8-2.4 2-4.4 2-2 0-3.2-1.4-1.1-1.4-1.1-3.7 0-2.2 0.7-5.7-3.2 5-6.9 7.8-3.6 2.9-6.1 2.9-3.8 0-3.8-4.8 0-0.5 0.9-5.9-3.2 5-6.5 7.5-3.2 2.5-5.7 2.5-3.8 0-3.8-4.9l2.5-2.4q0 1.2 0.9 2.1 1 0.9 2.2 0.9 2.2 0 6.1-3.8 3.8-3.8 7-10 0.7-1.4 1.6-3.2 0.9-1.9 1.3-2.8 0.5-0.8 1-1.7 0.9-1.5 1.8-1.5 1 0 1.6 0.7 0.6 0.8 0.6 1.8 0 1-0.6 2.2-0.5 1.3-1.8 3.6-1.3 2.2-2.1 3.6-1.7 4.6-1.7 6.3 0 1.7 0.8 2.6 1 0.9 2.2 0.9 2.3 0 5.5-3.6 3.3-3.6 6.8-10.6 0.4-0.9 0.9-2 0.6-1.2 0.8-1.7 0.3-0.6 0.6-1.4 0.4-0.7 0.6-1.1 0.3-0.4 0.6-0.7 0.6-0.6 1.4-0.6 0.8 0 1.4 0.7 0.6 0.8 0.6 1.8 0 1-3.4 8.4-3.3 7.4-3.3 9 0 1.6 0.6 2.3 0.7 0.8 1.3 0.8 0.6 0 1-0.1 0.3-0.1 0.7-0.3 0.3-0.2 0.5-0.3 0.3-0.1 0.6-0.5l0.5-0.5q0.2-0.2 0.5-0.6 0.4-0.5 0.6-0.6zm34.9 1l1.6 1.2q-1 2-3.5 3.9-2.6 1.8-4.7 1.8-4 0-4-4.2 0-2 1-4.7l-2.5 2.6q-3.6 3.7-6.4 5-2.6 1.3-5.2 1.3-2.6 0-3.9-1.4-1.3-1.5-1.3-4.1 0-4.8 3.6-9.4 3.7-4.7 9.4-7.6 5.7-2.9 11.4-3l0.2 2.2-2.9 0.7q-6.2 1.3-10.9 5.4-4.7 4.1-4.7 8.2 0 4 3.3 4 3 0 7.5-4.3 4.5-4.3 7.5-10.1l2.8 1.7q-4.2 8.5-4.2 10.8 0 1 0.6 1.7 0.7 0.6 1.3 0.6 0.7 0 0.9-0.1 0.2-0.1 0.4-0.1 0.2-0.2 0.5-0.4 0.3-0.2 0.5-0.4 0.3-0.2 0.9-0.6 0.5-0.4 0.8-0.7zm31.8-1.1l1.4 1.2q-1.1 2.9-3.7 4.8-2.4 2-4.4 2-2 0-3.2-1.4-1.1-1.4-1.1-3.6 0-2.3 0.7-5.8-3.2 5-6.8 7.9-3.7 2.8-6.2 2.8-3.8 0-3.8-4.5 0-4.6 3.1-12.3 3.2-7.7 4.5-8.8l3.3 1.4q-2.8 4.5-4.2 8.9-1.4 4.3-1.4 5.8 0 1.4 0.8 2.3 1 0.9 2.2 0.9 2.7 0 6.8-5 4-5 8.3-14.9l3.4 1.5q-0.1 0.6-3.1 7.9-2.9 7.4-2.9 8.9 0 1.4 0.6 2.2 0.7 0.7 1.3 0.7 0.7 0 1-0.1 0.3 0 0.7-0.2 0.3-0.2 0.5-0.4 0.3-0.1 0.6-0.5l0.6-0.5q0.1-0.1 0.4-0.5 0.5-0.5 0.6-0.7zm-4-25.9l2.1 1.1q-1.4 2.1-3.5 3.8-2.2 1.6-4.3 1.6-2.1 0-4.4-1.6-2.3-1.6-3.7-3.2l2.2-1.9q3.5 3.5 5.7 3.5 3.5 0 5.9-3.3zm43.4 21.5q-0.7-0.8-0.7-1.9 0-1.2 0.7-2 0.8-0.8 1.9-0.8 1.2 0 1.9 0.8 0.9 0.8 0.9 2 0 1-0.9 1.9-0.7 0.7-1.9 0.7-1.1 0-1.9-0.7zm-2.3 11.7q-0.7-0.8-0.7-2 0-1.1 0.7-1.9 0.8-0.8 1.9-0.8 1.2 0 1.9 0.8 0.8 0.8 0.8 1.9 0 1.1-0.8 2-0.7 0.7-1.9 0.7-1.1 0-1.9-0.7zm7.8 9.9l-2.7-1.6q8.5-11.5 12.2-24.7 3.7-13.2 3.7-28.9h3q0.2 2.9 0.2 5.9 0 14.2-4.3 27.4-4.2 13.1-12.1 21.9z"/></svg>