<?xml version="1.0" encoding="UTF-8"?>
<!DOCTYPE svg PUBLIC "-//W3C//DTD SVG 1.1//EN" "http://www.w3.org/Graphics/SVG/1.1/DTD/svg11.dtd">
<svg xmlns="http://www.w3.org/2000/svg" version="1.1" width="1024px" height="1024px" style="shape-rendering:geometricPrecision; text-rendering:geometricPrecision; image-rendering:optimizeQuality; fill-rule:evenodd; clip-rule:evenodd" xmlns:xlink="http://www.w3.org/1999/xlink">
<g><path style="opacity:1" fill="#fefefe" d="M -0.5,-0.5 C 340.833,-0.5 682.167,-0.5 1023.5,-0.5C 1023.5,340.833 1023.5,682.167 1023.5,1023.5C 682.167,1023.5 340.833,1023.5 -0.5,1023.5C -0.5,682.167 -0.5,340.833 -0.5,-0.5 Z"/></g>
<g><path style="opacity:1" fill="#d3e1d9" d="M 745.5,155.5 C 589.833,156.833 434.167,156.833 278.5,155.5C 347.917,109.146 424.583,86.146 508.5,86.5C 594.714,85.4806 673.714,108.481 745.5,155.5 Z"/></g>
<g><path style="opacity:1" fill="#f3f0eb" d="M 278.5,155.5 C 434.167,156.833 589.833,156.833 745.5,155.5C 768.751,157.048 792.084,158.215 815.5,159C 824.943,159.461 833.943,161.627 842.5,165.5C 843.333,166.5 844.167,167.5 845,168.5C 846.023,174.793 846.689,181.126 847,187.5C 847.5,207.497 847.667,227.497 847.5,247.5C 846.87,255.61 845.87,263.777 844.5,272C 816.705,273.146 788.872,273.646 761,273.5C 568.167,272.579 375.334,272.412 182.5,273C 179.667,272.833 178.167,271.333 178,268.5C 177.872,261.599 177.039,254.932 175.5,248.5C 176.115,222.885 176.948,197.219 178,171.5C 179.545,166.959 182.712,164.126 187.5,163C 192.415,161.584 197.415,160.584 202.5,160C 227.14,158.388 251.807,157.388 276.5,157C 277.044,156.283 277.711,155.783 278.5,155.5 Z"/></g>
<g><path style="opacity:1" fill="#104615" d="M 748.5,197.5 C 754.645,196.51 760.978,196.177 767.5,196.5C 767.5,194.167 767.5,191.833 767.5,189.5C 758.5,189.5 749.5,189.5 740.5,189.5C 740.5,207.167 740.5,224.833 740.5,242.5C 749.5,242.5 758.5,242.5 767.5,242.5C 767.5,240.167 767.5,237.833 767.5,235.5C 760.978,235.823 754.645,235.49 748.5,234.5C 755.167,234.5 761.833,234.5 768.5,234.5C 768.5,237.5 768.5,240.5 768.5,243.5C 758.833,243.5 749.167,243.5 739.5,243.5C 739.5,225.167 739.5,206.833 739.5,188.5C 749.167,188.5 758.833,188.5 768.5,188.5C 768.5,191.5 768.5,194.5 768.5,197.5C 761.833,197.5 755.167,197.5 748.5,197.5 Z"/></g>
<g><path style="opacity:1" fill="#144a1b" d="M 453.5,242.5 C 455.523,242.285 457.856,242.285 460.5,242.5C 460.5,224.833 460.5,207.167 460.5,189.5C 458.167,189.5 455.833,189.5 453.5,189.5C 453.828,200.014 453.494,210.347 452.5,220.5C 452.5,210.167 452.5,199.833 452.5,189.5C 455.287,188.523 458.287,188.19 461.5,188.5C 461.5,206.833 461.5,225.167 461.5,243.5C 458.615,243.806 455.948,243.473 453.5,242.5 Z"/></g>
<g><path style="opacity:1" fill="#114615" d="M 523.5,197.5 C 529.31,196.51 535.31,196.177 541.5,196.5C 541.5,194.167 541.5,191.833 541.5,189.5C 532.5,189.5 523.5,189.5 514.5,189.5C 514.5,207.167 514.5,224.833 514.5,242.5C 523.5,242.5 532.5,242.5 541.5,242.5C 541.5,240.167 541.5,237.833 541.5,235.5C 535.491,235.666 529.491,235.499 523.5,235C 529.825,234.5 536.158,234.334 542.5,234.5C 543.817,237.23 543.817,240.063 542.5,243C 532.839,243.5 523.172,243.666 513.5,243.5C 513.5,225.167 513.5,206.833 513.5,188.5C 523.167,188.5 532.833,188.5 542.5,188.5C 542.5,191.5 542.5,194.5 542.5,197.5C 536.167,197.5 529.833,197.5 523.5,197.5 Z"/></g>
<g><path style="opacity:1" fill="#406b44" d="M 523.5,197.5 C 523.5,202.167 523.5,206.833 523.5,211.5C 529.167,211.5 534.833,211.5 540.5,211.5C 540.5,214.5 540.5,217.5 540.5,220.5C 534.833,220.5 529.167,220.5 523.5,220.5C 523.5,224.833 523.5,229.167 523.5,233.5C 530.022,233.177 536.355,233.51 542.5,234.5C 536.158,234.334 529.825,234.5 523.5,235C 529.491,235.499 535.491,235.666 541.5,235.5C 541.5,237.833 541.5,240.167 541.5,242.5C 532.5,242.5 523.5,242.5 514.5,242.5C 514.5,224.833 514.5,207.167 514.5,189.5C 523.5,189.5 532.5,189.5 541.5,189.5C 541.5,191.833 541.5,194.167 541.5,196.5C 535.31,196.177 529.31,196.51 523.5,197.5 Z"/></g>
<g><path style="opacity:1" fill="#3f6a43" d="M 678.5,188.5 C 679.831,206.569 679.831,224.736 678.5,243C 675.773,243.818 673.106,243.652 670.5,242.5C 664.122,230.951 657.455,220.284 650.5,210.5C 649.506,220.987 649.172,231.654 649.5,242.5C 647.167,242.5 644.833,242.5 642.5,242.5C 642.805,225.805 642.472,209.138 641.5,192.5C 641.608,191.558 641.941,190.725 642.5,190C 644.81,189.503 647.143,189.337 649.5,189.5C 655.917,200.003 662.584,210.337 669.5,220.5C 670.494,210.347 670.828,200.014 670.5,189.5C 673.385,189.806 676.052,189.473 678.5,188.5 Z"/></g>
<g><path style="opacity:1" fill="#29582c" d="M 748.5,197.5 C 748.5,202.167 748.5,206.833 748.5,211.5C 754.5,211.5 760.5,211.5 766.5,211.5C 766.5,214.5 766.5,217.5 766.5,220.5C 760.5,220.5 754.5,220.5 748.5,220.5C 748.5,225.167 748.5,229.833 748.5,234.5C 747.676,230.688 747.176,226.688 747,222.5C 746.333,224.5 745,225.833 743,226.5C 742.667,224.953 743.167,223.62 744.5,222.5C 743.117,219.924 742.283,220.258 742,223.5C 742.003,220.142 743.17,217.142 745.5,214.5C 744.502,211.972 743.669,211.972 743,214.5C 742.334,211.504 743.501,209.504 746.5,208.5C 747.167,204.687 747.834,201.021 748.5,197.5 Z"/></g>
<g><path style="opacity:1" fill="#426c46" d="M 576.5,188.5 C 588.916,193.003 593.083,201.669 589,214.5C 587.5,218.667 584.667,221.5 580.5,223C 584.873,229.517 588.539,236.35 591.5,243.5C 587.818,243.665 584.152,243.499 580.5,243C 577.46,237.087 574.294,231.253 571,225.5C 568.959,224.577 566.792,224.244 564.5,224.5C 564.823,231.022 564.49,237.355 563.5,243.5C 563.666,237.158 563.5,230.825 563,224.5C 562.501,230.491 562.334,236.491 562.5,242.5C 560.167,242.5 557.833,242.5 555.5,242.5C 555.5,224.833 555.5,207.167 555.5,189.5C 562.687,189.825 569.687,189.491 576.5,188.5 Z"/></g>
<g><path style="opacity:1" fill="#3e6a42" d="M 338.5,187.5 C 349.575,185.121 357.741,188.788 363,198.5C 363.497,200.81 363.663,203.143 363.5,205.5C 357.751,206.743 353.918,204.743 352,199.5C 342.871,194.562 336.871,197.229 334,207.5C 332.927,215.017 333.594,222.35 336,229.5C 339.343,234.218 343.843,235.718 349.5,234C 351.741,232.261 353.408,230.094 354.5,227.5C 357.446,226.345 360.446,226.179 363.5,227C 364.202,231.241 363.035,235.075 360,238.5C 350.869,245.796 341.369,246.296 331.5,240C 320.982,225.951 319.816,211.117 328,195.5C 330.855,191.789 334.355,189.123 338.5,187.5 Z"/></g>
<g><path style="opacity:1" fill="#08400e" d="M 609.5,211.5 C 615.5,211.5 621.5,211.5 627.5,211.5C 627.5,214.5 627.5,217.5 627.5,220.5C 621.5,220.5 615.5,220.5 609.5,220.5C 614.975,219.511 620.642,219.178 626.5,219.5C 626.5,217.167 626.5,214.833 626.5,212.5C 620.642,212.822 614.975,212.489 609.5,211.5 Z"/></g>
<g><path style="opacity:1" fill="#0a410f" d="M 483.5,211.5 C 489.5,211.5 495.5,211.5 501.5,211.5C 501.5,214.5 501.5,217.5 501.5,220.5C 495.5,220.5 489.5,220.5 483.5,220.5C 488.975,219.511 494.642,219.178 500.5,219.5C 500.5,217.167 500.5,214.833 500.5,212.5C 494.642,212.822 488.975,212.489 483.5,211.5 Z"/></g>
<g><path style="opacity:1" fill="#164d1d" d="M 237.5,189.5 C 237.167,238.833 236.833,238.833 236.5,189.5C 234.167,189.5 231.833,189.5 229.5,189.5C 229.829,203.677 229.496,217.677 228.5,231.5C 228.5,217.167 228.5,202.833 228.5,188.5C 231.713,188.19 234.713,188.523 237.5,189.5 Z"/></g>
<g><path style="opacity:1" fill="#436d46" d="M 748.5,197.5 C 747.834,201.021 747.167,204.687 746.5,208.5C 743.501,209.504 742.334,211.504 743,214.5C 743.669,211.972 744.502,211.972 745.5,214.5C 743.17,217.142 742.003,220.142 742,223.5C 742.283,220.258 743.117,219.924 744.5,222.5C 743.167,223.62 742.667,224.953 743,226.5C 745,225.833 746.333,224.5 747,222.5C 747.176,226.688 747.676,230.688 748.5,234.5C 754.645,235.49 760.978,235.823 767.5,235.5C 767.5,237.833 767.5,240.167 767.5,242.5C 758.5,242.5 749.5,242.5 740.5,242.5C 740.5,224.833 740.5,207.167 740.5,189.5C 749.5,189.5 758.5,189.5 767.5,189.5C 767.5,191.833 767.5,194.167 767.5,196.5C 760.978,196.177 754.645,196.51 748.5,197.5 Z"/></g>
<g><path style="opacity:1" fill="#436e47" d="M 748.5,220.5 C 747.883,220.611 747.383,220.944 747,221.5C 746.56,219.924 745.727,218.59 744.5,217.5C 745.262,217.089 746.262,216.923 747.5,217C 746.483,215.951 746.316,214.784 747,213.5C 747.914,214.654 748.747,214.487 749.5,213C 754.823,212.501 760.156,212.334 765.5,212.5C 765.5,214.833 765.5,217.167 765.5,219.5C 759.642,219.178 753.975,219.511 748.5,220.5 Z"/></g>
<g><path style="opacity:1" fill="#436d46" d="M 609.5,197.5 C 609.5,202.167 609.5,206.833 609.5,211.5C 614.975,212.489 620.642,212.822 626.5,212.5C 626.5,214.833 626.5,217.167 626.5,219.5C 620.642,219.178 614.975,219.511 609.5,220.5C 609.5,224.833 609.5,229.167 609.5,233.5C 616.354,233.176 623.021,233.509 629.5,234.5C 622.825,234.334 616.158,234.5 609.5,235C 615.825,235.5 622.158,235.666 628.5,235.5C 628.5,237.833 628.5,240.167 628.5,242.5C 619.5,242.5 610.5,242.5 601.5,242.5C 601.5,224.833 601.5,207.167 601.5,189.5C 610.5,189.5 619.5,189.5 628.5,189.5C 628.5,191.833 628.5,194.167 628.5,196.5C 621.978,196.177 615.645,196.51 609.5,197.5 Z"/></g>
<g><path style="opacity:1" fill="#0b410f" d="M 678.5,188.5 C 676.052,189.473 673.385,189.806 670.5,189.5C 670.828,200.014 670.494,210.347 669.5,220.5C 669.5,209.833 669.5,199.167 669.5,188.5C 672.5,188.5 675.5,188.5 678.5,188.5 Z"/></g>
<g><path style="opacity:1" fill="#255529" d="M 609.5,197.5 C 615.645,196.51 621.978,196.177 628.5,196.5C 628.5,194.167 628.5,191.833 628.5,189.5C 619.5,189.5 610.5,189.5 601.5,189.5C 601.5,207.167 601.5,224.833 601.5,242.5C 610.5,242.5 619.5,242.5 628.5,242.5C 628.5,240.167 628.5,237.833 628.5,235.5C 622.158,235.666 615.825,235.5 609.5,235C 616.158,234.5 622.825,234.334 629.5,234.5C 630.817,237.23 630.817,240.063 629.5,243C 619.833,243.667 610.167,243.667 600.5,243C 599.84,234.075 599.507,225.075 599.5,216C 599.507,206.925 599.84,197.925 600.5,189C 610.161,188.5 619.828,188.334 629.5,188.5C 629.5,191.5 629.5,194.5 629.5,197.5C 622.833,197.5 616.167,197.5 609.5,197.5 Z"/></g>
<g><path style="opacity:1" fill="#3f6a43" d="M 483.5,211.5 C 488.975,212.489 494.642,212.822 500.5,212.5C 500.5,214.833 500.5,217.167 500.5,219.5C 494.642,219.178 488.975,219.511 483.5,220.5C 483.666,227.841 483.5,235.174 483,242.5C 480,243.833 477,243.833 474,242.5C 473.333,224.833 473.333,207.167 474,189.5C 483.422,188.349 492.922,188.182 502.5,189C 503.444,191.719 503.777,194.552 503.5,197.5C 496.833,197.5 490.167,197.5 483.5,197.5C 483.5,202.167 483.5,206.833 483.5,211.5 Z"/></g>
<g><path style="opacity:1" fill="#f4f1ec" d="M 564.5,198.5 C 577.665,195.821 581.998,200.655 577.5,213C 573.3,214.367 568.967,214.867 564.5,214.5C 564.5,209.167 564.5,203.833 564.5,198.5 Z"/></g>
<g><path style="opacity:1" fill="#0f4312" d="M 306.5,243.5 C 308.607,242.532 310.941,242.198 313.5,242.5C 313.5,224.833 313.5,207.167 313.5,189.5C 310.833,189.5 308.167,189.5 305.5,189.5C 305.828,200.014 305.494,210.347 304.5,220.5C 304.5,209.833 304.5,199.167 304.5,188.5C 307.833,188.5 311.167,188.5 314.5,188.5C 314.5,206.833 314.5,225.167 314.5,243.5C 311.833,243.5 309.167,243.5 306.5,243.5 Z"/></g>
<g><path style="opacity:1" fill="#29582d" d="M 649.5,189.5 C 647.143,189.337 644.81,189.503 642.5,190C 641.941,190.725 641.608,191.558 641.5,192.5C 642.472,209.138 642.805,225.805 642.5,242.5C 644.833,242.5 647.167,242.5 649.5,242.5C 649.172,231.654 649.506,220.987 650.5,210.5C 650.5,221.5 650.5,232.5 650.5,243.5C 647.223,243.784 644.057,243.451 641,242.5C 640.5,224.503 640.333,206.503 640.5,188.5C 643.713,188.19 646.713,188.523 649.5,189.5 Z"/></g>
<g><path style="opacity:1" fill="#406c45" d="M 436.5,196.5 C 441.403,203.964 446.07,211.631 450.5,219.5C 451.006,221.105 451.673,221.439 452.5,220.5C 453.494,210.347 453.828,200.014 453.5,189.5C 455.833,189.5 458.167,189.5 460.5,189.5C 460.5,207.167 460.5,224.833 460.5,242.5C 457.856,242.285 455.523,242.285 453.5,242.5C 446.522,231.893 440.022,220.893 434,209.5C 433.536,210.094 433.369,210.761 433.5,211.5C 432.506,221.653 432.172,231.986 432.5,242.5C 429.881,242.768 427.381,242.435 425,241.5C 424.5,224.17 424.333,206.837 424.5,189.5C 426.857,189.337 429.19,189.503 431.5,190C 433.066,192.326 434.732,194.492 436.5,196.5 Z"/></g>
<g><path style="opacity:1" fill="#6e8b6f" d="M 452.5,189.5 C 452.5,199.833 452.5,210.167 452.5,220.5C 451.673,221.439 451.006,221.105 450.5,219.5C 451.167,209.5 451.833,199.5 452.5,189.5 Z"/></g>
<g><path style="opacity:1" fill="#0f4112" d="M 255.5,189.5 C 258.287,188.523 261.287,188.19 264.5,188.5C 264.5,201.833 264.5,215.167 264.5,228.5C 263.505,215.677 263.171,202.677 263.5,189.5C 260.833,189.5 258.167,189.5 255.5,189.5 Z"/></g>
<g><path style="opacity:1" fill="#0e4513" d="M 576.5,188.5 C 569.687,189.491 562.687,189.825 555.5,189.5C 555.5,207.167 555.5,224.833 555.5,242.5C 557.833,242.5 560.167,242.5 562.5,242.5C 562.334,236.491 562.501,230.491 563,224.5C 563.5,230.825 563.666,237.158 563.5,243.5C 560.5,243.5 557.5,243.5 554.5,243.5C 554.5,225.167 554.5,206.833 554.5,188.5C 561.833,188.5 569.167,188.5 576.5,188.5 Z"/></g>
<g><path style="opacity:1" fill="#124516" d="M 436.5,196.5 C 434.732,194.492 433.066,192.326 431.5,190C 429.19,189.503 426.857,189.337 424.5,189.5C 424.333,206.837 424.5,224.17 425,241.5C 427.381,242.435 429.881,242.768 432.5,242.5C 432.172,231.986 432.506,221.653 433.5,211.5C 433.5,222.167 433.5,232.833 433.5,243.5C 430.167,243.5 426.833,243.5 423.5,243.5C 423.5,225.167 423.5,206.833 423.5,188.5C 430.891,186.436 435.225,189.103 436.5,196.5 Z"/></g>
<g><path style="opacity:1" fill="#3d6941" d="M 386.5,187.5 C 401.049,185.354 410.215,191.354 414,205.5C 414.822,213.555 414.488,221.555 413,229.5C 406.999,243.616 396.832,247.782 382.5,242C 376.516,236.867 373.016,230.367 372,222.5C 369.887,211.12 372.387,200.953 379.5,192C 381.898,190.476 384.231,188.976 386.5,187.5 Z"/></g>
<g><path style="opacity:1" fill="#f2f0ec" d="M 390.5,196.5 C 399.232,196.903 403.732,201.569 404,210.5C 404.942,217.459 403.942,224.125 401,230.5C 392.265,237.226 386.265,235.226 383,224.5C 382.161,217.433 382.494,210.433 384,203.5C 385.694,200.642 387.861,198.309 390.5,196.5 Z"/></g>
<g><path style="opacity:1" fill="#3c6840" d="M 702.5,187.5 C 717.958,184.367 726.958,190.367 729.5,205.5C 726.167,205.5 722.833,205.5 719.5,205.5C 718.411,198.58 714.411,195.747 707.5,197C 700.476,201.724 697.476,208.39 698.5,217C 698.541,223.129 700.541,228.462 704.5,233C 711.569,236.348 716.569,234.515 719.5,227.5C 722.768,226.513 726.102,226.18 729.5,226.5C 728.989,236.178 723.989,242.011 714.5,244C 700.743,245.26 692.243,239.093 689,225.5C 688.333,218.833 688.333,212.167 689,205.5C 690.86,197.416 695.36,191.416 702.5,187.5 Z"/></g>
<g><path style="opacity:1" fill="#3f6a43" d="M 304.5,220.5 C 305.494,210.347 305.828,200.014 305.5,189.5C 308.167,189.5 310.833,189.5 313.5,189.5C 313.5,207.167 313.5,224.833 313.5,242.5C 310.941,242.198 308.607,242.532 306.5,243.5C 299.441,232.396 292.608,221.063 286,209.5C 286.596,220.446 286.596,231.446 286,242.5C 282.606,243.456 279.106,243.789 275.5,243.5C 275.5,225.167 275.5,206.833 275.5,188.5C 278.898,188.18 282.232,188.513 285.5,189.5C 291.498,200.137 297.832,210.471 304.5,220.5 Z"/></g>
<g><path style="opacity:1" fill="#3f6b43" d="M 237.5,189.5 C 238.331,202.66 238.831,215.994 239,229.5C 241.435,234.224 245.269,235.724 250.5,234C 252.487,232.681 253.654,230.848 254,228.5C 254.169,215.327 254.669,202.327 255.5,189.5C 258.167,189.5 260.833,189.5 263.5,189.5C 263.171,202.677 263.505,215.677 264.5,228.5C 263.157,239.339 256.991,244.673 246,244.5C 236.883,244.546 231.05,240.212 228.5,231.5C 229.496,217.677 229.829,203.677 229.5,189.5C 231.833,189.5 234.167,189.5 236.5,189.5C 236.833,238.833 237.167,238.833 237.5,189.5 Z"/></g>
<g><path style="opacity:1" fill="#416c41" d="M 895.5,445.5 C 901.839,454.829 908.672,463.829 916,472.5C 918.781,475.692 918.948,478.858 916.5,482C 912.5,482.667 908.5,482.667 904.5,482C 897.997,480.558 891.664,478.891 885.5,477C 898.387,499.95 912.887,521.783 929,542.5C 929.167,541.5 929.333,540.5 929.5,539.5C 928.344,537.229 927.844,534.895 928,532.5C 928.414,532.957 928.914,533.291 929.5,533.5C 930.321,530.553 930.821,527.553 931,524.5C 931.49,525.793 931.657,527.127 931.5,528.5C 931.161,540.228 930.161,551.895 928.5,563.5C 927.579,560.308 927.412,556.975 928,553.5C 926.6,554.116 925.1,554.449 923.5,554.5C 915.351,553.041 907.351,551.541 899.5,550C 906.215,561.266 913.548,572.099 921.5,582.5C 922.425,583.641 923.259,583.641 924,582.5C 924.464,583.094 924.631,583.761 924.5,584.5C 922.06,598.932 918.393,612.932 913.5,626.5C 913.67,625.178 913.337,624.011 912.5,623C 894.491,620.332 876.491,617.665 858.5,615C 856.943,611.981 855.943,608.814 855.5,605.5C 853.321,577.251 851.655,548.918 850.5,520.5C 848.167,520.5 845.833,520.5 843.5,520.5C 841.607,551.475 840.273,582.475 839.5,613.5C 833.916,612.382 828.249,612.215 822.5,613C 820.77,614.852 819.604,614.686 819,612.5C 818.023,613.774 817.189,613.774 816.5,612.5C 824.134,608.917 828.634,602.917 830,594.5C 830.381,559.498 824.714,525.498 813,492.5C 809.14,483.924 803.307,477.091 795.5,472C 791.39,470.249 787.39,468.415 783.5,466.5C 785.371,466.141 786.871,465.141 788,463.5C 800.874,447.117 812.374,429.784 822.5,411.5C 822,411.167 821.5,410.833 821,410.5C 812.819,413.835 804.319,415.168 795.5,414.5C 795.16,410.869 795.994,407.536 798,404.5C 803.728,396.435 809.061,388.101 814,379.5C 825.469,357.562 836.135,335.229 846,312.5C 848,309.833 850,309.833 852,312.5C 865.798,346.432 882.465,378.766 902,409.5C 902.843,413.827 901.01,415.827 896.5,415.5C 888.778,414.031 881.445,412.365 874.5,410.5C 881.26,422.36 888.26,434.027 895.5,445.5 Z"/></g>
<g><path style="opacity:1" fill="#d3e1da" d="M 847.5,247.5 C 890.902,304.336 917.902,368.336 928.5,439.5C 924.298,439.183 920.298,439.517 916.5,440.5C 909.562,442.318 902.562,443.984 895.5,445.5C 888.26,434.027 881.26,422.36 874.5,410.5C 881.445,412.365 888.778,414.031 896.5,415.5C 901.01,415.827 902.843,413.827 902,409.5C 882.465,378.766 865.798,346.432 852,312.5C 850,309.833 848,309.833 846,312.5C 836.135,335.229 825.469,357.562 814,379.5C 809.061,388.101 803.728,396.435 798,404.5C 795.994,407.536 795.16,410.869 795.5,414.5C 804.319,415.168 812.819,413.835 821,410.5C 821.5,410.833 822,411.167 822.5,411.5C 812.374,429.784 800.874,447.117 788,463.5C 786.871,465.141 785.371,466.141 783.5,466.5C 770.178,462.502 756.845,458.502 743.5,454.5C 742.117,449.402 740.45,444.402 738.5,439.5C 742.889,429.609 745.556,419.275 746.5,408.5C 753.801,414.527 759.634,413.194 764,404.5C 764.667,400.167 764.667,395.833 764,391.5C 763.338,390.016 762.504,388.683 761.5,387.5C 765.197,378.222 765.363,368.889 762,359.5C 759.974,355.974 757.141,353.307 753.5,351.5C 751.286,340.115 744.619,332.615 733.5,329C 721.017,325.19 708.351,324.523 695.5,327C 678.244,331.856 671.911,342.856 676.5,360C 674.944,365.391 674.278,370.891 674.5,376.5C 673.792,386.83 673.125,397.163 672.5,407.5C 672.299,416.208 672.799,424.875 674,433.5C 675.782,444.615 681.949,452.115 692.5,456C 696.014,457.562 699.681,458.395 703.5,458.5C 703.267,460.062 702.6,461.395 701.5,462.5C 692.094,465.358 682.761,468.524 673.5,472C 665.569,475.545 659.402,481.045 655,488.5C 651.513,495.136 648.346,501.803 645.5,508.5C 636.834,507.5 628.167,506.5 619.5,505.5C 616.58,492.565 613.913,479.565 611.5,466.5C 611.179,465.183 610.846,463.849 610.5,462.5C 612.67,442.474 615.003,422.474 617.5,402.5C 619.033,400.366 619.7,397.866 619.5,395C 619.726,392.329 619.059,389.996 617.5,388C 567.834,387.5 518.168,387.333 468.5,387.5C 466.973,387.427 465.973,388.094 465.5,389.5C 464.12,389.962 463.453,390.962 463.5,392.5C 464.139,395.475 464.639,398.475 465,401.5C 465.383,402.056 465.883,402.389 466.5,402.5C 464.026,424.938 460.859,447.272 457,469.5C 455.127,467.61 454.294,465.61 454.5,463.5C 453.148,462.476 451.815,461.476 450.5,460.5C 445.44,454.067 441.107,447.067 437.5,439.5C 438,439.167 438.5,438.833 439,438.5C 443.022,440.274 447.188,440.774 451.5,440C 453.283,438.933 453.783,437.433 453,435.5C 439.836,411.504 428.002,386.837 417.5,361.5C 416.277,360.386 414.944,360.219 413.5,361C 402.885,386.065 391.051,410.565 378,434.5C 377.257,436.441 377.424,438.274 378.5,440C 382.783,440.627 386.949,440.127 391,438.5C 391.5,438.833 392,439.167 392.5,439.5C 382.805,457.012 372.139,473.845 360.5,490C 360.645,490.772 360.978,491.439 361.5,492C 363,492.167 364.5,492.333 366,492.5C 371.568,491.65 377.068,490.816 382.5,490C 375.488,502.361 367.488,514.028 358.5,525C 354.179,525.499 349.846,525.666 345.5,525.5C 341.942,520.738 338.609,515.738 335.5,510.5C 336.852,509.104 338.519,508.437 340.5,508.5C 344.476,509.442 348.476,509.609 352.5,509C 353.554,507.612 353.72,506.112 353,504.5C 342.254,490.685 332.754,476.018 324.5,460.5C 324.833,460.167 325.167,459.833 325.5,459.5C 329.636,461.447 333.97,461.947 338.5,461C 339.022,460.439 339.355,459.772 339.5,459C 327.729,436.958 316.896,414.458 307,391.5C 305.667,390.167 304.333,390.167 303,391.5C 293.104,414.458 282.271,436.958 270.5,459C 270.645,459.772 270.978,460.439 271.5,461C 275.812,461.774 279.978,461.274 284,459.5C 284.5,459.833 285,460.167 285.5,460.5C 276.56,476.067 266.893,491.067 256.5,505.5C 255.833,505.5 255.167,505.5 254.5,505.5C 242.265,489.38 231.265,472.38 221.5,454.5C 221.833,454.167 222.167,453.833 222.5,453.5C 231.113,457.38 240.113,458.88 249.5,458C 250.576,456.274 250.743,454.441 250,452.5C 235.786,433.439 222.953,413.439 211.5,392.5C 211.833,392.167 212.167,391.833 212.5,391.5C 218.967,394.918 225.467,395.251 232,392.5C 232.667,391.167 232.667,389.833 232,388.5C 215.792,359.75 201.458,330.083 189,299.5C 187.387,294.785 184.72,293.785 181,296.5C 167.724,328.72 152.557,360.053 135.5,390.5C 136.529,393.93 138.862,395.263 142.5,394.5C 147.017,394.287 151.35,393.287 155.5,391.5C 155.833,391.833 156.167,392.167 156.5,392.5C 150,403.5 143.5,414.5 137,425.5C 131.539,434.11 125.373,442.11 118.5,449.5C 111.311,444.545 103.311,441.545 94.5,440.5C 105.583,369.528 132.583,305.528 175.5,248.5C 177.039,254.932 177.872,261.599 178,268.5C 178.167,271.333 179.667,272.833 182.5,273C 375.334,272.412 568.167,272.579 761,273.5C 788.872,273.646 816.705,273.146 844.5,272C 845.87,263.777 846.87,255.61 847.5,247.5 Z"/></g>
<g><path style="opacity:1" fill="#b3c4ba" d="M 311.5,299.5 C 328.758,299.042 339.925,307.042 345,323.5C 352.929,318.154 360.762,318.321 368.5,324C 373.476,331.135 374.809,338.968 372.5,347.5C 335.5,347.5 298.5,347.5 261.5,347.5C 259.427,334.419 264.761,326.253 277.5,323C 282.222,322.223 286.889,322.39 291.5,323.5C 294.185,312.151 300.852,304.151 311.5,299.5 Z"/></g>
<g><path style="opacity:1" fill="#b3c4ba" d="M 503.5,293.5 C 508.844,293.334 514.177,293.501 519.5,294C 527.89,297.555 534.224,303.389 538.5,311.5C 551.68,303.736 561.514,306.736 568,320.5C 575.203,317.068 581.203,318.735 586,325.5C 586.498,328.817 586.665,332.15 586.5,335.5C 545.84,334.623 505.174,334.29 464.5,334.5C 464.1,324.723 468.767,318.89 478.5,317C 481.146,316.503 483.813,316.336 486.5,316.5C 486.615,309.536 489.282,303.703 494.5,299C 497.564,297.141 500.564,295.308 503.5,293.5 Z"/></g>
<g><path style="opacity:1" fill="#4f7948" d="M 450.5,460.5 C 452.429,464.855 454.762,469.021 457.5,473C 456.385,478.411 455.552,483.911 455,489.5C 454.481,490.516 453.647,491.182 452.5,491.5C 451.136,490.957 449.803,490.79 448.5,491C 451.208,493.416 452.875,496.416 453.5,500C 449.552,528.184 445.552,556.351 441.5,584.5C 440.595,580.667 440.595,576.667 441.5,572.5C 433.833,572.5 426.167,572.5 418.5,572.5C 418.666,568.154 418.499,563.821 418,559.5C 417.501,563.486 417.334,567.486 417.5,571.5C 416.506,562.348 416.173,553.015 416.5,543.5C 414.833,543.5 413.167,543.5 411.5,543.5C 410.723,553.153 410.056,562.819 409.5,572.5C 392.624,575.279 375.624,577.279 358.5,578.5C 353.484,571.654 348.817,564.488 344.5,557C 349.536,557.338 354.536,558.172 359.5,559.5C 362.387,558.78 364.053,556.947 364.5,554C 357.79,544.746 351.457,535.246 345.5,525.5C 349.846,525.666 354.179,525.499 358.5,525C 367.488,514.028 375.488,502.361 382.5,490C 377.068,490.816 371.568,491.65 366,492.5C 364.5,492.333 363,492.167 361.5,492C 360.978,491.439 360.645,490.772 360.5,490C 372.139,473.845 382.805,457.012 392.5,439.5C 392,439.167 391.5,438.833 391,438.5C 386.949,440.127 382.783,440.627 378.5,440C 377.424,438.274 377.257,436.441 378,434.5C 391.051,410.565 402.885,386.065 413.5,361C 414.944,360.219 416.277,360.386 417.5,361.5C 428.002,386.837 439.836,411.504 453,435.5C 453.783,437.433 453.283,438.933 451.5,440C 447.188,440.774 443.022,440.274 439,438.5C 438.5,438.833 438,439.167 437.5,439.5C 441.107,447.067 445.44,454.067 450.5,460.5 Z"/></g>
<g><path style="opacity:1" fill="#76512f" d="M 468.5,387.5 C 515.332,388.333 562.332,388.833 609.5,389C 612.426,389.218 615.26,389.718 618,390.5C 618.062,394.148 617.895,397.815 617.5,401.5C 567.166,401.667 516.832,401.5 466.5,401C 465.54,397.27 465.207,393.437 465.5,389.5C 465.973,388.094 466.973,387.427 468.5,387.5 Z"/></g>
<g><path style="opacity:1" fill="#e9b395" d="M 672.5,407.5 C 673.125,397.163 673.792,386.83 674.5,376.5C 675.686,370.81 677.686,365.31 680.5,360C 700.879,359.027 721.213,357.527 741.5,355.5C 740.144,371.465 739.311,387.465 739,403.5C 736.801,417.843 729.301,422.009 716.5,416C 708.5,415.333 700.5,415.333 692.5,416C 682.939,420.054 676.273,417.221 672.5,407.5 Z"/></g>
<g><path style="opacity:1" fill="#2f1a13" d="M 717.5,389.5 C 721.138,388.737 722.638,390.07 722,393.5C 717.415,395.413 715.915,394.079 717.5,389.5 Z"/></g>
<g><path style="opacity:1" fill="#291611" d="M 685.5,389.5 C 689.676,388.831 691.009,390.331 689.5,394C 688.207,394.49 686.873,394.657 685.5,394.5C 685.5,392.833 685.5,391.167 685.5,389.5 Z"/></g>
<g><path style="opacity:1" fill="#3d1a0f" d="M 714.5,373.5 C 721.966,373.031 728.633,375.031 734.5,379.5C 734,379.833 733.5,380.167 733,380.5C 727.369,378.178 721.536,376.678 715.5,376C 714.748,375.329 714.414,374.496 714.5,373.5 Z"/></g>
<g><path style="opacity:1" fill="#3f1b10" d="M 687.5,372.5 C 690.187,372.336 692.854,372.503 695.5,373C 695.957,373.414 696.291,373.914 696.5,374.5C 690.725,375.36 685.059,376.694 679.5,378.5C 678.833,378.167 678.167,377.833 677.5,377.5C 680.727,375.436 684.06,373.77 687.5,372.5 Z"/></g>
<g><path style="opacity:1" fill="#bd7952" d="M 702.5,383.5 C 703.289,383.783 703.956,384.283 704.5,385C 701.656,391.879 699.823,399.045 699,406.5C 697.513,407.741 696.68,407.241 696.5,405C 697.653,397.551 699.653,390.384 702.5,383.5 Z"/></g>
<g><path style="opacity:1" fill="#e9b294" d="M 761.5,387.5 C 762.504,388.683 763.338,390.016 764,391.5C 764.667,395.833 764.667,400.167 764,404.5C 759.634,413.194 753.801,414.527 746.5,408.5C 745.889,402.566 746.722,396.9 749,391.5C 752.298,387.835 756.465,386.502 761.5,387.5 Z"/></g>
<g><path style="opacity:1" fill="#5b2d09" d="M 468.5,387.5 C 518.168,387.333 567.834,387.5 617.5,388C 619.059,389.996 619.726,392.329 619.5,395C 619.7,397.866 619.033,400.366 617.5,402.5C 615.167,402.5 612.833,402.5 610.5,402.5C 562.5,402.5 514.5,402.5 466.5,402.5C 465.883,402.389 465.383,402.056 465,401.5C 464.639,398.475 464.139,395.475 463.5,392.5C 463.453,390.962 464.12,389.962 465.5,389.5C 465.207,393.437 465.54,397.27 466.5,401C 516.832,401.5 567.166,401.667 617.5,401.5C 617.895,397.815 618.062,394.148 618,390.5C 615.26,389.718 612.426,389.218 609.5,389C 562.332,388.833 515.332,388.333 468.5,387.5 Z"/></g>
<g><path style="opacity:1" fill="#335733" d="M 345.5,525.5 C 351.457,535.246 357.79,544.746 364.5,554C 364.053,556.947 362.387,558.78 359.5,559.5C 354.536,558.172 349.536,557.338 344.5,557C 348.817,564.488 353.484,571.654 358.5,578.5C 363.59,587.002 369.424,595.002 376,602.5C 376.944,605.347 376.444,607.847 374.5,610C 369.5,610.667 364.5,610.667 359.5,610C 343.167,607.766 326.833,605.599 310.5,603.5C 308.863,579.209 307.696,554.876 307,530.5C 305.644,529.62 304.144,529.286 302.5,529.5C 301.272,555.679 299.605,581.679 297.5,607.5C 297.5,606.5 297.5,605.5 297.5,604.5C 281.784,605.783 266.118,607.617 250.5,610C 245.416,610.778 240.416,610.611 235.5,609.5C 234.463,607.262 234.297,604.929 235,602.5C 238.665,598.492 241.832,594.159 244.5,589.5C 254.422,591.418 264.422,592.251 274.5,592C 276.897,589.419 277.063,586.586 275,583.5C 270.356,577.355 265.523,571.355 260.5,565.5C 261.803,563.063 263.47,560.896 265.5,559C 262.189,559.215 258.856,559.215 255.5,559C 253.167,556 250.833,553 248.5,550C 249.056,549.617 249.389,549.117 249.5,548.5C 259.695,534.623 269.029,520.123 277.5,505C 272.384,505.731 267.218,506.565 262,507.5C 260.5,507.333 259,507.167 257.5,507C 256.944,506.617 256.611,506.117 256.5,505.5C 266.893,491.067 276.56,476.067 285.5,460.5C 285,460.167 284.5,459.833 284,459.5C 279.978,461.274 275.812,461.774 271.5,461C 270.978,460.439 270.645,459.772 270.5,459C 282.271,436.958 293.104,414.458 303,391.5C 304.333,390.167 305.667,390.167 307,391.5C 316.896,414.458 327.729,436.958 339.5,459C 339.355,459.772 339.022,460.439 338.5,461C 333.97,461.947 329.636,461.447 325.5,459.5C 325.167,459.833 324.833,460.167 324.5,460.5C 332.754,476.018 342.254,490.685 353,504.5C 353.72,506.112 353.554,507.612 352.5,509C 348.476,509.609 344.476,509.442 340.5,508.5C 338.519,508.437 336.852,509.104 335.5,510.5C 338.609,515.738 341.942,520.738 345.5,525.5 Z"/></g>
<g><path style="opacity:1" fill="#f0ece6" d="M 466.5,402.5 C 514.5,402.5 562.5,402.5 610.5,402.5C 605.172,443.787 600.006,485.121 595,526.5C 594.758,530.43 593.925,534.097 592.5,537.5C 590.5,534.833 588.167,532.5 585.5,530.5C 582.941,521.398 581.774,512.065 582,502.5C 579.146,499.984 576.479,500.317 574,503.5C 573.667,505.833 573.333,508.167 573,510.5C 568.396,505.897 564.562,500.73 561.5,495C 562.056,494.617 562.389,494.117 562.5,493.5C 566.642,490.393 569.975,486.56 572.5,482C 557.577,478.849 542.577,476.016 527.5,473.5C 529.166,458.173 530.832,442.839 532.5,427.5C 503.138,428.192 486.805,443.192 483.5,472.5C 486.774,501.646 503.107,516.313 532.5,516.5C 536.5,521.5 540.5,526.5 544.5,531.5C 544.833,531.5 545.167,531.5 545.5,531.5C 552.908,539.575 560.575,547.242 568.5,554.5C 568.709,555.922 569.209,557.255 570,558.5C 576.369,564.702 582.536,571.035 588.5,577.5C 587.207,587.469 586.207,597.469 585.5,607.5C 536.5,607.5 487.5,607.5 438.5,607.5C 439.033,599.767 440.033,592.101 441.5,584.5C 445.552,556.351 449.552,528.184 453.5,500C 452.875,496.416 451.208,493.416 448.5,491C 449.803,490.79 451.136,490.957 452.5,491.5C 453.647,491.182 454.481,490.516 455,489.5C 455.552,483.911 456.385,478.411 457.5,473C 454.762,469.021 452.429,464.855 450.5,460.5C 451.815,461.476 453.148,462.476 454.5,463.5C 454.294,465.61 455.127,467.61 457,469.5C 460.859,447.272 464.026,424.938 466.5,402.5 Z"/></g>
<g><path style="opacity:1" fill="#436e43" d="M 254.5,505.5 C 257.883,508.72 260.716,512.386 263,516.5C 263.825,518.701 263.325,520.534 261.5,522C 251.549,523.752 241.882,522.586 232.5,518.5C 232.167,518.833 231.833,519.167 231.5,519.5C 236.774,529.734 242.774,539.401 249.5,548.5C 249.389,549.117 249.056,549.617 248.5,550C 250.833,553 253.167,556 255.5,559C 258.856,559.215 262.189,559.215 265.5,559C 263.47,560.896 261.803,563.063 260.5,565.5C 265.523,571.355 270.356,577.355 275,583.5C 277.063,586.586 276.897,589.419 274.5,592C 264.422,592.251 254.422,591.418 244.5,589.5C 227.348,586.756 210.014,584.256 192.5,582C 191.956,581.283 191.289,580.783 190.5,580.5C 189.182,552.178 188.182,523.845 187.5,495.5C 185.167,495.5 182.833,495.5 180.5,495.5C 179.031,525.331 177.364,554.998 175.5,584.5C 175.649,583.448 175.483,582.448 175,581.5C 150.946,586.387 126.779,590.387 102.5,593.5C 103.239,597.015 103.239,600.348 102.5,603.5C 99.5312,592.688 97.5312,581.688 96.5,570.5C 96.4346,570.062 96.6012,569.728 97,569.5C 97.3333,570.167 97.6667,570.833 98,571.5C 110.985,555.537 122.485,538.537 132.5,520.5C 132.333,520.167 132.167,519.833 132,519.5C 124.686,521.863 117.186,523.53 109.5,524.5C 106.024,524.188 104.024,522.355 103.5,519C 116.016,501.491 127.683,483.324 138.5,464.5C 138.023,463.522 137.357,462.689 136.5,462C 136.728,461.601 137.062,461.435 137.5,461.5C 138.15,461.804 138.817,462.137 139.5,462.5C 141.086,460.33 142.42,457.996 143.5,455.5C 142.833,455.167 142.167,454.833 141.5,454.5C 138.524,455.658 135.524,456.658 132.5,457.5C 127.981,459.148 123.314,459.648 118.5,459C 117.196,458.196 116.529,457.029 116.5,455.5C 117.178,453.484 117.844,451.484 118.5,449.5C 125.373,442.11 131.539,434.11 137,425.5C 143.5,414.5 150,403.5 156.5,392.5C 156.167,392.167 155.833,391.833 155.5,391.5C 151.35,393.287 147.017,394.287 142.5,394.5C 138.862,395.263 136.529,393.93 135.5,390.5C 152.557,360.053 167.724,328.72 181,296.5C 184.72,293.785 187.387,294.785 189,299.5C 201.458,330.083 215.792,359.75 232,388.5C 232.667,389.833 232.667,391.167 232,392.5C 225.467,395.251 218.967,394.918 212.5,391.5C 212.167,391.833 211.833,392.167 211.5,392.5C 222.953,413.439 235.786,433.439 250,452.5C 250.743,454.441 250.576,456.274 249.5,458C 240.113,458.88 231.113,457.38 222.5,453.5C 222.167,453.833 221.833,454.167 221.5,454.5C 231.265,472.38 242.265,489.38 254.5,505.5 Z"/></g>
<g><path style="opacity:1" fill="#d08539" d="M 538.5,424.5 C 558.637,426.462 571.803,437.129 578,456.5C 579.329,463.092 579.829,469.759 579.5,476.5C 564.517,473.725 549.517,471.058 534.5,468.5C 535.944,453.843 537.277,439.177 538.5,424.5 Z"/></g>
<g><path style="opacity:1" fill="#422419" d="M 761.5,387.5 C 756.465,386.502 752.298,387.835 749,391.5C 746.722,396.9 745.889,402.566 746.5,408.5C 745.556,419.275 742.889,429.609 738.5,439.5C 728.975,449.763 717.308,456.096 703.5,458.5C 699.681,458.395 696.014,457.562 692.5,456C 681.949,452.115 675.782,444.615 674,433.5C 672.799,424.875 672.299,416.208 672.5,407.5C 676.273,417.221 682.939,420.054 692.5,416C 700.5,415.333 708.5,415.333 716.5,416C 729.301,422.009 736.801,417.843 739,403.5C 739.311,387.465 740.144,371.465 741.5,355.5C 721.213,357.527 700.879,359.027 680.5,360C 677.686,365.31 675.686,370.81 674.5,376.5C 674.278,370.891 674.944,365.391 676.5,360C 671.911,342.856 678.244,331.856 695.5,327C 708.351,324.523 721.017,325.19 733.5,329C 744.619,332.615 751.286,340.115 753.5,351.5C 757.141,353.307 759.974,355.974 762,359.5C 765.363,368.889 765.197,378.222 761.5,387.5 Z"/></g>
<g><path style="opacity:1" fill="#ebb899" d="M 691.5,422.5 C 700.167,422.5 708.833,422.5 717.5,422.5C 715.568,433.923 708.901,438.423 697.5,436C 692.091,432.921 690.091,428.421 691.5,422.5 Z"/></g>
<g><path style="opacity:1" fill="#2a1712" d="M 709.5,425.5 C 710.552,425.351 711.552,425.517 712.5,426C 706.969,431.122 701.303,431.455 695.5,427C 699.425,427.518 703.425,427.518 707.5,427C 708.416,426.722 709.082,426.222 709.5,425.5 Z"/></g>
<g><path style="opacity:1" fill="#e9b496" d="M 738.5,439.5 C 740.45,444.402 742.117,449.402 743.5,454.5C 742.929,458.808 740.929,462.308 737.5,465C 729.881,471.431 721.047,474.931 711,475.5C 702.994,474.85 699.828,470.516 701.5,462.5C 702.6,461.395 703.267,460.062 703.5,458.5C 717.308,456.096 728.975,449.763 738.5,439.5 Z"/></g>
<g><path style="opacity:1" fill="#dfe8e0" d="M 137.5,461.5 C 135.833,460.167 134.167,458.833 132.5,457.5C 135.524,456.658 138.524,455.658 141.5,454.5C 142.167,454.833 142.833,455.167 143.5,455.5C 142.42,457.996 141.086,460.33 139.5,462.5C 138.817,462.137 138.15,461.804 137.5,461.5 Z"/></g>
<g><path style="opacity:1" fill="#cc6b34" d="M 743.5,454.5 C 756.845,458.502 770.178,462.502 783.5,466.5C 787.39,468.415 791.39,470.249 795.5,472C 803.307,477.091 809.14,483.924 813,492.5C 824.714,525.498 830.381,559.498 830,594.5C 828.634,602.917 824.134,608.917 816.5,612.5C 807.242,616.3 797.575,617.967 787.5,617.5C 774.949,619.037 762.449,618.37 750,615.5C 746.789,612.246 745.289,612.913 745.5,617.5C 759.366,620.085 773.366,621.085 787.5,620.5C 787.916,630.497 788.25,640.497 788.5,650.5C 775.806,647.142 764.639,649.809 755,658.5C 753.711,661.351 753.211,664.351 753.5,667.5C 724.506,667.459 695.839,664.459 667.5,658.5C 665.139,658.326 662.806,657.993 660.5,657.5C 658.68,656.937 657.347,655.771 656.5,654C 657.425,648.884 657.758,643.717 657.5,638.5C 658.543,623.516 658.71,608.516 658,593.5C 653.014,600.019 646.848,604.686 639.5,607.5C 639.167,607.5 638.833,607.5 638.5,607.5C 633.652,607.328 628.985,606.328 624.5,604.5C 614.349,598.586 604.682,591.92 595.5,584.5C 593.5,581.833 591.167,579.5 588.5,577.5C 582.536,571.035 576.369,564.702 570,558.5C 569.209,557.255 568.709,555.922 568.5,554.5C 575.714,547.616 581.38,539.616 585.5,530.5C 588.167,532.5 590.5,534.833 592.5,537.5C 594.794,539.653 597.46,541.32 600.5,542.5C 605.307,545.405 610.307,548.072 615.5,550.5C 620.162,552.497 624.829,554.497 629.5,556.5C 634.81,540.635 640.144,524.635 645.5,508.5C 648.346,501.803 651.513,495.136 655,488.5C 659.402,481.045 665.569,475.545 673.5,472C 682.761,468.524 692.094,465.358 701.5,462.5C 699.828,470.516 702.994,474.85 711,475.5C 721.047,474.931 729.881,471.431 737.5,465C 740.929,462.308 742.929,458.808 743.5,454.5 Z"/></g>
<g><path style="opacity:1" fill="#588455" d="M 94.5,440.5 C 103.311,441.545 111.311,444.545 118.5,449.5C 117.844,451.484 117.178,453.484 116.5,455.5C 116.529,457.029 117.196,458.196 118.5,459C 123.314,459.648 127.981,459.148 132.5,457.5C 134.167,458.833 135.833,460.167 137.5,461.5C 137.062,461.435 136.728,461.601 136.5,462C 137.357,462.689 138.023,463.522 138.5,464.5C 127.683,483.324 116.016,501.491 103.5,519C 104.024,522.355 106.024,524.188 109.5,524.5C 117.186,523.53 124.686,521.863 132,519.5C 132.167,519.833 132.333,520.167 132.5,520.5C 122.485,538.537 110.985,555.537 98,571.5C 97.6667,570.833 97.3333,570.167 97,569.5C 96.6012,569.728 96.4346,570.062 96.5,570.5C 91.9763,546.357 89.9763,521.857 90.5,497C 89.8291,478 91.1624,459.167 94.5,440.5 Z"/></g>
<g><path style="opacity:1" fill="#e7af55" d="M 562.5,493.5 C 560.446,489.942 557.78,486.775 554.5,484C 549.333,482.5 547.5,484.333 549,489.5C 550.167,490.667 551.333,491.833 552.5,493C 550.285,494.391 550.285,496.057 552.5,498C 551.956,498.717 551.289,499.217 550.5,499.5C 547.303,496.636 543.636,494.636 539.5,493.5C 535.987,493.507 534.487,495.173 535,498.5C 535.671,499.252 536.504,499.586 537.5,499.5C 540.764,501.094 543.431,503.427 545.5,506.5C 544.609,507.11 543.609,507.443 542.5,507.5C 541.609,506.89 540.609,506.557 539.5,506.5C 534.401,504.141 531.734,505.807 531.5,511.5C 532.038,513.117 532.371,514.784 532.5,516.5C 503.107,516.313 486.774,501.646 483.5,472.5C 486.805,443.192 503.138,428.192 532.5,427.5C 530.832,442.839 529.166,458.173 527.5,473.5C 542.577,476.016 557.577,478.849 572.5,482C 569.975,486.56 566.642,490.393 562.5,493.5 Z"/></g>
<g><path style="opacity:1" fill="#b8b9b5" d="M 610.5,402.5 C 612.833,402.5 615.167,402.5 617.5,402.5C 615.003,422.474 612.67,442.474 610.5,462.5C 610.846,463.849 611.179,465.183 611.5,466.5C 610.778,466.918 610.278,467.584 610,468.5C 608.569,480.148 607.402,491.814 606.5,503.5C 604.143,516.323 602.143,529.323 600.5,542.5C 597.46,541.32 594.794,539.653 592.5,537.5C 593.925,534.097 594.758,530.43 595,526.5C 600.006,485.121 605.172,443.787 610.5,402.5 Z"/></g>
<g><path style="opacity:1" fill="#e5b093" d="M 545.5,506.5 C 543.431,503.427 540.764,501.094 537.5,499.5C 538.072,496.756 539.738,495.923 542.5,497C 547.919,501.041 552.919,505.541 557.5,510.5C 556.573,512.946 554.906,513.779 552.5,513C 550.297,510.628 547.963,508.461 545.5,506.5 Z"/></g>
<g><path style="opacity:1" fill="#d28c6a" d="M 550.5,499.5 C 553.829,501.834 556.496,504.834 558.5,508.5C 559.325,509.386 560.325,509.719 561.5,509.5C 561.78,512.388 560.447,513.888 557.5,514C 551.843,518.851 547.843,524.684 545.5,531.5C 545.167,531.5 544.833,531.5 544.5,531.5C 545.439,528.531 545.939,525.531 546,522.5C 542.019,519.687 538.519,516.353 535.5,512.5C 534.311,511.571 532.978,511.238 531.5,511.5C 531.734,505.807 534.401,504.141 539.5,506.5C 539.804,507.15 540.137,507.817 540.5,508.5C 539.189,509.258 538.689,510.258 539,511.5C 542.016,514.349 544.85,517.349 547.5,520.5C 549.361,519.472 550.695,517.972 551.5,516C 548.604,512.934 545.604,510.101 542.5,507.5C 543.609,507.443 544.609,507.11 545.5,506.5C 547.963,508.461 550.297,510.628 552.5,513C 554.906,513.779 556.573,512.946 557.5,510.5C 552.919,505.541 547.919,501.041 542.5,497C 539.738,495.923 538.072,496.756 537.5,499.5C 536.504,499.586 535.671,499.252 535,498.5C 534.487,495.173 535.987,493.507 539.5,493.5C 543.636,494.636 547.303,496.636 550.5,499.5 Z"/></g>
<g><path style="opacity:1" fill="#578353" d="M 916.5,440.5 C 920.833,440.5 925.167,440.5 929.5,440.5C 932.554,469.927 933.221,499.26 931.5,528.5C 931.657,527.127 931.49,525.793 931,524.5C 930.821,527.553 930.321,530.553 929.5,533.5C 928.914,533.291 928.414,532.957 928,532.5C 927.844,534.895 928.344,537.229 929.5,539.5C 929.333,540.5 929.167,541.5 929,542.5C 912.887,521.783 898.387,499.95 885.5,477C 891.664,478.891 897.997,480.558 904.5,482C 908.5,482.667 912.5,482.667 916.5,482C 918.948,478.858 918.781,475.692 916,472.5C 908.672,463.829 901.839,454.829 895.5,445.5C 902.562,443.984 909.562,442.318 916.5,440.5 Z"/></g>
<g><path style="opacity:1" fill="#e6b092" d="M 539.5,506.5 C 540.609,506.557 541.609,506.89 542.5,507.5C 545.604,510.101 548.604,512.934 551.5,516C 550.695,517.972 549.361,519.472 547.5,520.5C 544.85,517.349 542.016,514.349 539,511.5C 538.689,510.258 539.189,509.258 540.5,508.5C 540.137,507.817 539.804,507.15 539.5,506.5 Z"/></g>
<g><path style="opacity:1" fill="#e5ae92" d="M 531.5,511.5 C 532.978,511.238 534.311,511.571 535.5,512.5C 538.519,516.353 542.019,519.687 546,522.5C 545.939,525.531 545.439,528.531 544.5,531.5C 540.5,526.5 536.5,521.5 532.5,516.5C 532.371,514.784 532.038,513.117 531.5,511.5 Z"/></g>
<g><path style="opacity:1" fill="#618e64" d="M 619.5,505.5 C 628.167,506.5 636.834,507.5 645.5,508.5C 640.144,524.635 634.81,540.635 629.5,556.5C 626.171,539.523 622.838,522.523 619.5,505.5 Z"/></g>
<g><path style="opacity:1" fill="#5f8a5c" d="M 249.5,548.5 C 242.774,539.401 236.774,529.734 231.5,519.5C 231.833,519.167 232.167,518.833 232.5,518.5C 241.882,522.586 251.549,523.752 261.5,522C 263.325,520.534 263.825,518.701 263,516.5C 260.716,512.386 257.883,508.72 254.5,505.5C 255.167,505.5 255.833,505.5 256.5,505.5C 256.611,506.117 256.944,506.617 257.5,507C 259,507.167 260.5,507.333 262,507.5C 267.218,506.565 272.384,505.731 277.5,505C 269.029,520.123 259.695,534.623 249.5,548.5 Z"/></g>
<g><path style="opacity:1" fill="#e7b093" d="M 562.5,493.5 C 562.389,494.117 562.056,494.617 561.5,495C 564.562,500.73 568.396,505.897 573,510.5C 573.333,508.167 573.667,505.833 574,503.5C 576.479,500.317 579.146,499.984 582,502.5C 581.774,512.065 582.941,521.398 585.5,530.5C 581.38,539.616 575.714,547.616 568.5,554.5C 560.575,547.242 552.908,539.575 545.5,531.5C 547.843,524.684 551.843,518.851 557.5,514C 560.447,513.888 561.78,512.388 561.5,509.5C 560.325,509.719 559.325,509.386 558.5,508.5C 556.496,504.834 553.829,501.834 550.5,499.5C 551.289,499.217 551.956,498.717 552.5,498C 550.285,496.057 550.285,494.391 552.5,493C 551.333,491.833 550.167,490.667 549,489.5C 547.5,484.333 549.333,482.5 554.5,484C 557.78,486.775 560.446,489.942 562.5,493.5 Z"/></g>
<g><path style="opacity:1" fill="#cf8663" d="M 572.5,512.5 C 573.725,513.152 574.392,514.319 574.5,516C 574.333,517.167 574.167,518.333 574,519.5C 570.81,522.545 568.643,526.212 567.5,530.5C 565.878,526.57 566.712,523.237 570,520.5C 570.941,517.846 571.774,515.179 572.5,512.5 Z"/></g>
<g><path style="opacity:1" fill="#55381f" d="M 611.5,466.5 C 613.913,479.565 616.58,492.565 619.5,505.5C 622.838,522.523 626.171,539.523 629.5,556.5C 624.829,554.497 620.162,552.497 615.5,550.5C 613.035,534.704 610.035,519.038 606.5,503.5C 607.402,491.814 608.569,480.148 610,468.5C 610.278,467.584 610.778,466.918 611.5,466.5 Z"/></g>
<g><path style="opacity:1" fill="#b2b5b1" d="M 471.5,537.5 C 496.532,537.195 521.532,537.528 546.5,538.5C 546.5,540.167 546.5,541.833 546.5,543.5C 521.498,543.667 496.498,543.5 471.5,543C 470.248,541.172 470.248,539.339 471.5,537.5 Z"/></g>
<g><path style="opacity:1" fill="#5f8c60" d="M 606.5,503.5 C 610.035,519.038 613.035,534.704 615.5,550.5C 610.307,548.072 605.307,545.405 600.5,542.5C 602.143,529.323 604.143,516.323 606.5,503.5 Z"/></g>
<g><path style="opacity:1" fill="#527d4c" d="M 928.5,563.5 C 927.34,570.658 926.007,577.658 924.5,584.5C 924.631,583.761 924.464,583.094 924,582.5C 923.259,583.641 922.425,583.641 921.5,582.5C 913.548,572.099 906.215,561.266 899.5,550C 907.351,551.541 915.351,553.041 923.5,554.5C 925.1,554.449 926.6,554.116 928,553.5C 927.412,556.975 927.579,560.308 928.5,563.5 Z"/></g>
<g><path style="opacity:1" fill="#b2b6b2" d="M 468.5,555.5 C 493.862,555.09 519.195,555.59 544.5,557C 545.991,559.022 545.658,560.688 543.5,562C 518.155,562.673 492.822,562.34 467.5,561C 466.243,558.924 466.576,557.09 468.5,555.5 Z"/></g>
<g><path style="opacity:1" fill="#a04b26" d="M 661.5,517.5 C 662.787,518.871 663.453,520.705 663.5,523C 661.645,545.51 659.978,568.01 658.5,590.5C 657.752,566.108 658.752,541.775 661.5,517.5 Z"/></g>
<g><path style="opacity:1" fill="#b2b5b1" d="M 467.5,571.5 C 481.171,571.333 494.837,571.5 508.5,572C 510.833,573.243 511.5,574.909 510.5,577C 495.837,577.5 481.17,577.667 466.5,577.5C 466.325,575.379 466.659,573.379 467.5,571.5 Z"/></g>
<g><path style="opacity:1" fill="#9d4a25" d="M 774.5,522.5 C 775.586,522.62 776.253,523.287 776.5,524.5C 780.461,540.264 783.127,556.264 784.5,572.5C 790.634,570.848 796.634,571.181 802.5,573.5C 785.756,575.144 769.256,578.144 753,582.5C 752.5,582.167 752,581.833 751.5,581.5C 761.019,578.43 770.685,575.93 780.5,574C 781.516,573.481 782.182,572.647 782.5,571.5C 780.156,555.106 777.49,538.772 774.5,522.5 Z"/></g>
<g><path style="opacity:1" fill="#3d3426" d="M 310.5,603.5 C 311.388,615.486 312.055,627.486 312.5,639.5C 306.833,639.5 301.167,639.5 295.5,639.5C 296.608,628.864 297.275,618.198 297.5,607.5C 299.605,581.679 301.272,555.679 302.5,529.5C 304.144,529.286 305.644,529.62 307,530.5C 307.696,554.876 308.863,579.209 310.5,603.5 Z"/></g>
<g><path style="opacity:1" fill="#6d4a2a" d="M 417.5,571.5 C 417.913,587.845 418.58,604.179 419.5,620.5C 415.116,620.826 410.783,620.492 406.5,619.5C 407.732,603.872 408.732,588.205 409.5,572.5C 410.056,562.819 410.723,553.153 411.5,543.5C 413.167,543.5 414.833,543.5 416.5,543.5C 416.173,553.015 416.506,562.348 417.5,571.5 Z"/></g>
<g><path style="opacity:1" fill="#6e4f2e" d="M 190.5,580.5 C 191.709,592.467 192.376,604.467 192.5,616.5C 193.167,625.5 193.833,634.5 194.5,643.5C 187.167,643.5 179.833,643.5 172.5,643.5C 173.392,636.209 173.726,628.876 173.5,621.5C 174.924,609.361 175.591,597.028 175.5,584.5C 177.364,554.998 179.031,525.331 180.5,495.5C 182.833,495.5 185.167,495.5 187.5,495.5C 188.182,523.845 189.182,552.178 190.5,580.5 Z"/></g>
<g><path style="opacity:1" fill="#d28b69" d="M 700.5,589.5 C 700.611,590.117 700.944,590.617 701.5,591C 706.679,591.054 711.679,591.721 716.5,593C 710.509,593.499 704.509,593.666 698.5,593.5C 698.261,595.467 698.594,597.301 699.5,599C 705.5,599.833 711.5,600.667 717.5,601.5C 710.859,602.293 704.192,602.293 697.5,601.5C 692.683,595.9 693.683,591.9 700.5,589.5 Z"/></g>
<g><path style="opacity:1" fill="#e8b295" d="M 697.5,601.5 C 704.192,602.293 710.859,602.293 717.5,601.5C 711.5,600.667 705.5,599.833 699.5,599C 698.594,597.301 698.261,595.467 698.5,593.5C 704.509,593.666 710.509,593.499 716.5,593C 711.679,591.721 706.679,591.054 701.5,591C 700.944,590.617 700.611,590.117 700.5,589.5C 700.452,586.708 701.785,584.875 704.5,584C 711.845,582.879 719.178,581.713 726.5,580.5C 724.207,576.908 722.207,573.242 720.5,569.5C 720.427,565.927 722.094,564.76 725.5,566C 732.596,573.097 740.762,578.597 750,582.5C 750.96,592.602 750.46,602.602 748.5,612.5C 734.584,614.75 720.584,615.583 706.5,615C 703.11,613.994 702.11,611.994 703.5,609C 708.833,608.667 714.167,608.333 719.5,608C 712.801,607.639 706.135,606.972 699.5,606C 697.963,604.89 697.297,603.39 697.5,601.5 Z"/></g>
<g><path style="opacity:1" fill="#b9bab5" d="M 588.5,577.5 C 591.167,579.5 593.5,581.833 595.5,584.5C 594.255,592.13 593.255,599.796 592.5,607.5C 590.167,607.5 587.833,607.5 585.5,607.5C 586.207,597.469 587.207,587.469 588.5,577.5 Z"/></g>
<g><path style="opacity:1" fill="#517b4a" d="M 175.5,584.5 C 175.591,597.028 174.924,609.361 173.5,621.5C 173.38,620.414 172.713,619.747 171.5,619.5C 151.59,624.079 131.924,629.413 112.5,635.5C 108.589,625.096 105.256,614.429 102.5,603.5C 103.239,600.348 103.239,597.015 102.5,593.5C 126.779,590.387 150.946,586.387 175,581.5C 175.483,582.448 175.649,583.448 175.5,584.5 Z"/></g>
<g><path style="opacity:1" fill="#537c4a" d="M 190.5,580.5 C 191.289,580.783 191.956,581.283 192.5,582C 210.014,584.256 227.348,586.756 244.5,589.5C 241.832,594.159 238.665,598.492 235,602.5C 234.297,604.929 234.463,607.262 235.5,609.5C 221.291,612.293 206.958,614.626 192.5,616.5C 192.376,604.467 191.709,592.467 190.5,580.5 Z"/></g>
<g><path style="opacity:1" fill="#5a885c" d="M 595.5,584.5 C 604.682,591.92 614.349,598.586 624.5,604.5C 625.117,609.584 626.117,614.584 627.5,619.5C 619.489,615.792 611.155,614.459 602.5,615.5C 603.153,608.167 599.82,605.501 592.5,607.5C 593.255,599.796 594.255,592.13 595.5,584.5 Z"/></g>
<g><path style="opacity:1" fill="#5a875b" d="M 657.5,638.5 C 655.859,636.797 654.859,634.63 654.5,632C 655.769,629.861 655.769,627.695 654.5,625.5C 650.387,623.798 646.387,621.798 642.5,619.5C 640.652,615.772 639.652,611.772 639.5,607.5C 646.848,604.686 653.014,600.019 658,593.5C 658.71,608.516 658.543,623.516 657.5,638.5 Z"/></g>
<g><path style="opacity:1" fill="#74512e" d="M 438.5,607.5 C 487.5,607.5 536.5,607.5 585.5,607.5C 587.833,607.5 590.167,607.5 592.5,607.5C 599.82,605.501 603.153,608.167 602.5,615.5C 602.489,617.017 601.823,618.184 600.5,619C 596.514,619.499 592.514,619.666 588.5,619.5C 588.737,620.791 588.404,621.791 587.5,622.5C 587.5,621.5 587.5,620.5 587.5,619.5C 583.4,619.237 579.4,619.57 575.5,620.5C 571.702,619.517 567.702,619.183 563.5,619.5C 559.5,619.5 555.5,619.5 551.5,619.5C 522.5,619.5 493.5,619.5 464.5,619.5C 460.5,619.5 456.5,619.5 452.5,619.5C 446.107,619.793 439.773,619.46 433.5,618.5C 431.534,615.451 431.034,612.118 432,608.5C 434.041,607.577 436.208,607.244 438.5,607.5 Z"/></g>
<g><path style="opacity:1" fill="#9e4a24" d="M 787.5,617.5 C 787.5,618.5 787.5,619.5 787.5,620.5C 773.366,621.085 759.366,620.085 745.5,617.5C 745.289,612.913 746.789,612.246 750,615.5C 762.449,618.37 774.949,619.037 787.5,617.5 Z"/></g>
<g><path style="opacity:1" fill="#644629" d="M 855.5,605.5 C 856.325,624.997 857.325,644.331 858.5,663.5C 858.5,667.833 858.5,672.167 858.5,676.5C 850.833,676.5 843.167,676.5 835.5,676.5C 835.894,669.504 836.227,662.504 836.5,655.5C 837.687,641.65 838.687,627.65 839.5,613.5C 840.273,582.475 841.607,551.475 843.5,520.5C 845.833,520.5 848.167,520.5 850.5,520.5C 851.655,548.918 853.321,577.251 855.5,605.5 Z"/></g>
<g><path style="opacity:1" fill="#638d54" d="M 441.5,584.5 C 440.033,592.101 439.033,599.767 438.5,607.5C 436.208,607.244 434.041,607.577 432,608.5C 431.034,612.118 431.534,615.451 433.5,618.5C 439.773,619.46 446.107,619.793 452.5,619.5C 443.642,661.421 434.976,703.421 426.5,745.5C 430.833,745.5 435.167,745.5 439.5,745.5C 447.41,703.431 455.743,661.431 464.5,619.5C 493.5,619.5 522.5,619.5 551.5,619.5C 555.821,640.782 559.821,662.115 563.5,683.5C 560.167,704.164 556.834,724.831 553.5,745.5C 557.833,745.5 562.167,745.5 566.5,745.5C 573.394,704.471 580.394,663.471 587.5,622.5C 588.404,621.791 588.737,620.791 588.5,619.5C 592.514,619.666 596.514,619.499 600.5,619C 601.823,618.184 602.489,617.017 602.5,615.5C 611.155,614.459 619.489,615.792 627.5,619.5C 630.715,635.454 633.715,651.454 636.5,667.5C 625.785,669.1 615.952,673.1 607,679.5C 605.077,682.544 604.244,685.877 604.5,689.5C 605.353,695.897 606.353,702.23 607.5,708.5C 605.837,710.493 604.67,712.826 604,715.5C 599.426,730.864 599.426,746.198 604,761.5C 606.625,768.966 611.792,773.299 619.5,774.5C 619.5,779.167 619.5,783.833 619.5,788.5C 602.112,792.553 587.445,801.22 575.5,814.5C 574.675,815.386 573.675,815.719 572.5,815.5C 568.265,806.746 562.265,799.246 554.5,793C 546.733,788.478 538.733,784.645 530.5,781.5C 533.033,777.096 535.033,772.429 536.5,767.5C 537.321,764.359 537.821,761.025 538,757.5C 543.528,751.261 546.528,743.928 547,735.5C 547.776,726.126 547.442,716.793 546,707.5C 544.917,701.47 543.084,695.803 540.5,690.5C 541.627,672.779 533.294,662.612 515.5,660C 497.031,656.491 480.864,660.991 467,673.5C 463.221,678.723 460.221,684.39 458,690.5C 455.056,702.771 452.39,715.104 450,727.5C 446.799,736.103 443.799,744.769 441,753.5C 437.803,766.753 441.97,776.753 453.5,783.5C 449.974,785.072 446.307,786.572 442.5,788C 439.271,790.741 435.938,793.241 432.5,795.5C 421.684,775.019 405.017,762.019 382.5,756.5C 382.5,751.833 382.5,747.167 382.5,742.5C 397.229,743.6 406.063,736.934 409,722.5C 409.263,717.149 409.263,711.816 409,706.5C 417.679,698.815 417.013,691.815 407,685.5C 406.155,678.962 404.488,672.628 402,666.5C 400.418,662.106 397.918,658.439 394.5,655.5C 404.399,647.445 403.399,640.612 391.5,635C 375.618,628.069 359.285,626.736 342.5,631C 317.511,644.485 307.678,665.318 313,693.5C 317.03,708.735 324.53,721.902 335.5,733C 336.901,733.41 338.234,733.91 339.5,734.5C 339.5,740.167 339.5,745.833 339.5,751.5C 315.682,755.997 297.682,768.664 285.5,789.5C 275.807,783.488 265.473,778.821 254.5,775.5C 254.234,772.334 253.901,769.167 253.5,766C 253.494,763.7 253.994,761.534 255,759.5C 263.079,759.481 270.412,757.148 277,752.5C 278.608,749.618 279.941,746.618 281,743.5C 281.333,737.833 281.667,732.167 282,726.5C 288.96,723.916 290.96,719.249 288,712.5C 285,710.5 282,708.5 279,706.5C 278.646,697.271 275.813,688.937 270.5,681.5C 278.824,674.723 279.491,667.223 272.5,659C 270.238,658.358 268.071,657.525 266,656.5C 262.907,645.085 255.573,640.751 244,643.5C 235.7,639.182 227.2,638.515 218.5,641.5C 208.717,638.302 200.717,640.635 194.5,648.5C 179.819,650.853 172.152,659.519 171.5,674.5C 163.658,678.844 159.324,685.51 158.5,694.5C 159.399,699.15 159.566,703.817 159,708.5C 155.893,710.965 152.726,713.298 149.5,715.5C 133.721,690.529 121.388,663.862 112.5,635.5C 131.924,629.413 151.59,624.079 171.5,619.5C 172.713,619.747 173.38,620.414 173.5,621.5C 173.726,628.876 173.392,636.209 172.5,643.5C 179.833,643.5 187.167,643.5 194.5,643.5C 193.833,634.5 193.167,625.5 192.5,616.5C 206.958,614.626 221.291,612.293 235.5,609.5C 240.416,610.611 245.416,610.778 250.5,610C 266.118,607.617 281.784,605.783 297.5,604.5C 297.5,605.5 297.5,606.5 297.5,607.5C 297.275,618.198 296.608,628.864 295.5,639.5C 301.167,639.5 306.833,639.5 312.5,639.5C 312.055,627.486 311.388,615.486 310.5,603.5C 326.833,605.599 343.167,607.766 359.5,610C 364.5,610.667 369.5,610.667 374.5,610C 376.444,607.847 376.944,605.347 376,602.5C 369.424,595.002 363.59,587.002 358.5,578.5C 375.624,577.279 392.624,575.279 409.5,572.5C 408.732,588.205 407.732,603.872 406.5,619.5C 410.783,620.492 415.116,620.826 419.5,620.5C 418.58,604.179 417.913,587.845 417.5,571.5C 417.334,567.486 417.501,563.486 418,559.5C 418.499,563.821 418.666,568.154 418.5,572.5C 426.167,572.5 433.833,572.5 441.5,572.5C 440.595,576.667 440.595,580.667 441.5,584.5 Z"/></g>
<g><path style="opacity:1" fill="#628d54" d="M 638.5,607.5 C 638.833,607.5 639.167,607.5 639.5,607.5C 639.652,611.772 640.652,615.772 642.5,619.5C 646.387,621.798 650.387,623.798 654.5,625.5C 655.769,627.695 655.769,629.861 654.5,632C 654.859,634.63 655.859,636.797 657.5,638.5C 657.758,643.717 657.425,648.884 656.5,654C 657.347,655.771 658.68,656.937 660.5,657.5C 660.482,661.607 659.815,665.607 658.5,669.5C 655.243,668.449 651.91,667.782 648.5,667.5C 645.296,647.48 641.963,627.48 638.5,607.5 Z"/></g>
<g><path style="opacity:1" fill="#517a49" d="M 816.5,612.5 C 817.189,613.774 818.023,613.774 819,612.5C 819.604,614.686 820.77,614.852 822.5,613C 828.249,612.215 833.916,612.382 839.5,613.5C 838.687,627.65 837.687,641.65 836.5,655.5C 833.992,653.763 830.992,652.93 827.5,653C 814.546,651.394 801.546,650.561 788.5,650.5C 788.25,640.497 787.916,630.497 787.5,620.5C 787.5,619.5 787.5,618.5 787.5,617.5C 797.575,617.967 807.242,616.3 816.5,612.5 Z"/></g>
<g><path style="opacity:1" fill="#619055" d="M 563.5,619.5 C 567.702,619.183 571.702,619.517 575.5,620.5C 573.699,630.664 571.699,640.664 569.5,650.5C 567.409,640.308 565.409,629.974 563.5,619.5 Z"/></g>
<g><path style="opacity:1" fill="#573920" d="M 551.5,619.5 C 555.5,619.5 559.5,619.5 563.5,619.5C 565.409,629.974 567.409,640.308 569.5,650.5C 568.196,659.188 566.696,667.855 565,676.5C 564.444,674.405 563.944,674.238 563.5,676C 564.716,678.653 564.716,681.153 563.5,683.5C 559.821,662.115 555.821,640.782 551.5,619.5 Z"/></g>
<g><path style="opacity:1" fill="#64472a" d="M 624.5,604.5 C 628.985,606.328 633.652,607.328 638.5,607.5C 641.963,627.48 645.296,647.48 648.5,667.5C 644.5,667.5 640.5,667.5 636.5,667.5C 633.715,651.454 630.715,635.454 627.5,619.5C 626.117,614.584 625.117,609.584 624.5,604.5 Z"/></g>
<g><path style="opacity:1" fill="#517a49" d="M 855.5,605.5 C 855.943,608.814 856.943,611.981 858.5,615C 876.491,617.665 894.491,620.332 912.5,623C 913.337,624.011 913.67,625.178 913.5,626.5C 909.219,642.677 903.552,658.344 896.5,673.5C 895.957,673.44 895.624,673.107 895.5,672.5C 897.181,670.008 897.848,667.508 897.5,665C 892.833,663.667 888.167,662.333 883.5,661C 875.103,660.025 866.937,658.192 859,655.5C 858.503,658.146 858.336,660.813 858.5,663.5C 857.325,644.331 856.325,624.997 855.5,605.5 Z"/></g>
<g><path style="opacity:1" fill="#272727" d="M 788.5,650.5 C 815.774,659.695 827.941,678.695 825,707.5C 822.473,725.239 814.307,739.573 800.5,750.5C 789.239,752.978 779.739,749.978 772,741.5C 768.998,737.87 768.165,733.87 769.5,729.5C 772.133,728.699 773.967,727.033 775,724.5C 778.085,717.336 776.585,711.502 770.5,707C 766.104,705.864 762.438,707.031 759.5,710.5C 756.605,702.42 755.771,694.087 757,685.5C 757.837,683.649 758.671,681.816 759.5,680C 757.93,678.603 756.596,677.103 755.5,675.5C 754.226,673.007 753.56,670.341 753.5,667.5C 753.211,664.351 753.711,661.351 755,658.5C 764.639,649.809 775.806,647.142 788.5,650.5 Z"/></g>
<g><path style="opacity:1" fill="#994e2c" d="M 540.5,690.5 C 539.119,697.981 537.119,705.315 534.5,712.5C 529.065,707.9 524.899,708.9 522,715.5C 520.011,723.884 522.511,730.384 529.5,735C 533.814,745.433 536.147,756.266 536.5,767.5C 535.033,772.429 533.033,777.096 530.5,781.5C 519.725,788.752 507.725,791.752 494.5,790.5C 480.307,791.019 466.64,788.686 453.5,783.5C 441.97,776.753 437.803,766.753 441,753.5C 443.799,744.769 446.799,736.103 450,727.5C 452.39,715.104 455.056,702.771 458,690.5C 460.221,684.39 463.221,678.723 467,673.5C 480.864,660.991 497.031,656.491 515.5,660C 533.294,662.612 541.627,672.779 540.5,690.5 Z"/></g>
<g><path style="opacity:1" fill="#eab497" d="M 394.5,655.5 C 397.918,658.439 400.418,662.106 402,666.5C 404.488,672.628 406.155,678.962 407,685.5C 417.013,691.815 417.679,698.815 409,706.5C 409.263,711.816 409.263,717.149 409,722.5C 406.063,736.934 397.229,743.6 382.5,742.5C 382.5,747.167 382.5,751.833 382.5,756.5C 368.26,754.095 353.926,752.428 339.5,751.5C 339.5,745.833 339.5,740.167 339.5,734.5C 357.347,737.251 369.347,730.251 375.5,713.5C 366.355,707.889 364.188,700.223 369,690.5C 373.667,685.167 378.333,685.167 383,690.5C 384.934,686.621 385.767,682.454 385.5,678C 385.115,672.437 384.615,666.937 384,661.5C 387.609,659.615 391.109,657.615 394.5,655.5 Z"/></g>
<g><path style="opacity:1" fill="#3b3b3b" d="M 667.5,658.5 C 695.839,664.459 724.506,667.459 753.5,667.5C 753.56,670.341 754.226,673.007 755.5,675.5C 750.444,680.587 746.61,686.587 744,693.5C 742.025,697.963 741.192,702.629 741.5,707.5C 729.579,712.518 728.579,719.185 738.5,727.5C 734.969,739.403 737.969,749.237 747.5,757C 751.621,758.899 755.954,759.732 760.5,759.5C 760.46,764.193 760.127,768.859 759.5,773.5C 747.737,777.049 737.07,782.716 727.5,790.5C 725.372,785.142 723.872,779.475 723,773.5C 720.814,760.864 718.814,748.197 717,735.5C 714.447,758.467 712.281,781.467 710.5,804.5C 710.5,805.5 710.5,806.5 710.5,807.5C 709.778,807.918 709.278,808.584 709,809.5C 696.156,796.662 680.656,788.995 662.5,786.5C 662.814,778.913 662.481,771.413 661.5,764C 668.566,755.702 673.4,746.202 676,735.5C 678.853,722.301 679.853,708.968 679,695.5C 677.487,683.457 671.32,674.791 660.5,669.5C 661.417,666.242 661.751,662.909 661.5,659.5C 663.735,659.795 665.735,659.461 667.5,658.5 Z"/></g>
<g><path style="opacity:1" fill="#638d54" d="M 788.5,650.5 C 801.546,650.561 814.546,651.394 827.5,653C 830.992,652.93 833.992,653.763 836.5,655.5C 836.227,662.504 835.894,669.504 835.5,676.5C 843.167,676.5 850.833,676.5 858.5,676.5C 858.5,672.167 858.5,667.833 858.5,663.5C 858.336,660.813 858.503,658.146 859,655.5C 866.937,658.192 875.103,660.025 883.5,661C 888.167,662.333 892.833,663.667 897.5,665C 897.848,667.508 897.181,670.008 895.5,672.5C 895.624,673.107 895.957,673.44 896.5,673.5C 878.703,712.93 855.37,748.596 826.5,780.5C 823.985,777.842 820.985,775.675 817.5,774C 812.115,771.261 806.449,769.427 800.5,768.5C 800.5,762.5 800.5,756.5 800.5,750.5C 814.307,739.573 822.473,725.239 825,707.5C 827.941,678.695 815.774,659.695 788.5,650.5 Z"/></g>
<g><path style="opacity:1" fill="#313130" d="M 394.5,655.5 C 391.109,657.615 387.609,659.615 384,661.5C 384.615,666.937 385.115,672.437 385.5,678C 385.767,682.454 384.934,686.621 383,690.5C 378.333,685.167 373.667,685.167 369,690.5C 364.188,700.223 366.355,707.889 375.5,713.5C 369.347,730.251 357.347,737.251 339.5,734.5C 338.234,733.91 336.901,733.41 335.5,733C 324.53,721.902 317.03,708.735 313,693.5C 307.678,665.318 317.511,644.485 342.5,631C 359.285,626.736 375.618,628.069 391.5,635C 403.399,640.612 404.399,647.445 394.5,655.5 Z"/></g>
<g><path style="opacity:1" fill="#935634" d="M 755.5,675.5 C 756.596,677.103 757.93,678.603 759.5,680C 758.671,681.816 757.837,683.649 757,685.5C 755.771,694.087 756.605,702.42 759.5,710.5C 762.438,707.031 766.104,705.864 770.5,707C 776.585,711.502 778.085,717.336 775,724.5C 773.967,727.033 772.133,728.699 769.5,729.5C 768.165,733.87 768.998,737.87 772,741.5C 779.739,749.978 789.239,752.978 800.5,750.5C 800.5,756.5 800.5,762.5 800.5,768.5C 786.547,767.959 772.88,769.625 759.5,773.5C 760.127,768.859 760.46,764.193 760.5,759.5C 755.954,759.732 751.621,758.899 747.5,757C 737.969,749.237 734.969,739.403 738.5,727.5C 728.579,719.185 729.579,712.518 741.5,707.5C 741.192,702.629 742.025,697.963 744,693.5C 746.61,686.587 750.444,680.587 755.5,675.5 Z"/></g>
<g><path style="opacity:1" fill="#5a3a20" d="M 452.5,619.5 C 456.5,619.5 460.5,619.5 464.5,619.5C 455.743,661.431 447.41,703.431 439.5,745.5C 435.167,745.5 430.833,745.5 426.5,745.5C 434.976,703.421 443.642,661.421 452.5,619.5 Z"/></g>
<g><path style="opacity:1" fill="#864e31" d="M 270.5,681.5 C 275.813,688.937 278.646,697.271 279,706.5C 282,708.5 285,710.5 288,712.5C 290.96,719.249 288.96,723.916 282,726.5C 281.667,732.167 281.333,737.833 281,743.5C 279.941,746.618 278.608,749.618 277,752.5C 270.412,757.148 263.079,759.481 255,759.5C 253.994,761.534 253.494,763.7 253.5,766C 253.901,769.167 254.234,772.334 254.5,775.5C 246.561,774.177 238.561,773.511 230.5,773.5C 232.683,769.443 234.183,765.11 235,760.5C 241.268,757.896 244.935,753.229 246,746.5C 246.499,742.514 246.666,738.514 246.5,734.5C 239.974,733.81 236.14,730.143 235,723.5C 233.112,716.412 234.945,710.578 240.5,706C 245.437,704.631 249.604,705.797 253,709.5C 258.139,701.248 260.973,692.248 261.5,682.5C 264.57,682.632 267.57,682.299 270.5,681.5 Z"/></g>
<g><path style="opacity:1" fill="#eea274" d="M 540.5,690.5 C 543.084,695.803 544.917,701.47 546,707.5C 547.442,716.793 547.776,726.126 547,735.5C 546.528,743.928 543.528,751.261 538,757.5C 537.821,761.025 537.321,764.359 536.5,767.5C 536.147,756.266 533.814,745.433 529.5,735C 522.511,730.384 520.011,723.884 522,715.5C 524.899,708.9 529.065,707.9 534.5,712.5C 537.119,705.315 539.119,697.981 540.5,690.5 Z"/></g>
<g><path style="opacity:1" fill="#694a2b" d="M 587.5,622.5 C 580.394,663.471 573.394,704.471 566.5,745.5C 562.167,745.5 557.833,745.5 553.5,745.5C 556.834,724.831 560.167,704.164 563.5,683.5C 564.716,681.153 564.716,678.653 563.5,676C 563.944,674.238 564.444,674.405 565,676.5C 566.696,667.855 568.196,659.188 569.5,650.5C 571.699,640.664 573.699,630.664 575.5,620.5C 579.4,619.57 583.4,619.237 587.5,619.5C 587.5,620.5 587.5,621.5 587.5,622.5 Z"/></g>
<g><path style="opacity:1" fill="#262625" d="M 270.5,681.5 C 267.57,682.299 264.57,682.632 261.5,682.5C 260.973,692.248 258.139,701.248 253,709.5C 249.604,705.797 245.437,704.631 240.5,706C 234.945,710.578 233.112,716.412 235,723.5C 236.14,730.143 239.974,733.81 246.5,734.5C 246.666,738.514 246.499,742.514 246,746.5C 244.935,753.229 241.268,757.896 235,760.5C 234.183,765.11 232.683,769.443 230.5,773.5C 224.124,780.234 216.457,782.234 207.5,779.5C 200.956,783.126 193.956,785.126 186.5,785.5C 180.375,783.045 176.375,778.711 174.5,772.5C 155.557,771.55 148.557,761.883 153.5,743.5C 145.692,735.215 144.359,725.881 149.5,715.5C 152.726,713.298 155.893,710.965 159,708.5C 159.566,703.817 159.399,699.15 158.5,694.5C 159.324,685.51 163.658,678.844 171.5,674.5C 172.152,659.519 179.819,650.853 194.5,648.5C 200.717,640.635 208.717,638.302 218.5,641.5C 227.2,638.515 235.7,639.182 244,643.5C 255.573,640.751 262.907,645.085 266,656.5C 268.071,657.525 270.238,658.358 272.5,659C 279.491,667.223 278.824,674.723 270.5,681.5 Z"/></g>
<g><path style="opacity:1" fill="#eca072" d="M 607.5,708.5 C 607.923,715.526 609.59,722.193 612.5,728.5C 618.028,725.339 622.194,726.672 625,732.5C 626.516,740.119 624.349,746.452 618.5,751.5C 628.55,766.389 642.216,771.056 659.5,765.5C 660.498,772.472 661.165,779.472 661.5,786.5C 647.356,784.71 633.356,785.377 619.5,788.5C 619.5,783.833 619.5,779.167 619.5,774.5C 611.792,773.299 606.625,768.966 604,761.5C 599.426,746.198 599.426,730.864 604,715.5C 604.67,712.826 605.837,710.493 607.5,708.5 Z"/></g>
<g><path style="opacity:1" fill="#303030" d="M 660.5,657.5 C 662.806,657.993 665.139,658.326 667.5,658.5C 665.735,659.461 663.735,659.795 661.5,659.5C 661.751,662.909 661.417,666.242 660.5,669.5C 671.32,674.791 677.487,683.457 679,695.5C 679.853,708.968 678.853,722.301 676,735.5C 673.4,746.202 668.566,755.702 661.5,764C 662.481,771.413 662.814,778.913 662.5,786.5C 662.167,786.5 661.833,786.5 661.5,786.5C 661.165,779.472 660.498,772.472 659.5,765.5C 642.216,771.056 628.55,766.389 618.5,751.5C 624.349,746.452 626.516,740.119 625,732.5C 622.194,726.672 618.028,725.339 612.5,728.5C 609.59,722.193 607.923,715.526 607.5,708.5C 606.353,702.23 605.353,695.897 604.5,689.5C 604.244,685.877 605.077,682.544 607,679.5C 615.952,673.1 625.785,669.1 636.5,667.5C 640.5,667.5 644.5,667.5 648.5,667.5C 651.91,667.782 655.243,668.449 658.5,669.5C 659.815,665.607 660.482,661.607 660.5,657.5 Z"/></g>
<g><path style="opacity:1" fill="#efece6" d="M 339.5,751.5 C 353.926,752.428 368.26,754.095 382.5,756.5C 405.017,762.019 421.684,775.019 432.5,795.5C 420.52,813.944 414.02,834.277 413,856.5C 412.833,858.5 412.667,860.5 412.5,862.5C 412.539,864.952 413.206,866.952 414.5,868.5C 413.951,881.016 412.951,893.349 411.5,905.5C 410.833,909.167 410.167,912.833 409.5,916.5C 405.137,883.323 399.804,850.323 393.5,817.5C 393.167,817.833 392.833,818.167 392.5,818.5C 397.233,850.836 401.9,883.17 406.5,915.5C 374.979,908.076 344.645,897.243 315.5,883C 314.809,881.933 314.309,880.766 314,879.5C 313.768,880.737 313.268,881.737 312.5,882.5C 312.27,875.786 311.603,869.12 310.5,862.5C 312.868,841.857 308.701,822.19 298,803.5C 293.997,798.665 289.83,793.998 285.5,789.5C 297.682,768.664 315.682,755.997 339.5,751.5 Z"/></g>
<g><path style="opacity:1" fill="#659056" d="M 727.5,790.5 C 721.474,796.037 716.307,802.37 712,809.5C 711.802,807.618 711.302,805.952 710.5,804.5C 712.281,781.467 714.447,758.467 717,735.5C 718.814,748.197 720.814,760.864 723,773.5C 723.872,779.475 725.372,785.142 727.5,790.5 Z"/></g>
<g><path style="opacity:1" fill="#384f3f" d="M 230.5,773.5 C 238.561,773.511 246.561,774.177 254.5,775.5C 265.473,778.821 275.807,783.488 285.5,789.5C 289.83,793.998 293.997,798.665 298,803.5C 308.701,822.19 312.868,841.857 310.5,862.5C 298.093,865.892 285.427,867.892 272.5,868.5C 272.5,871.167 272.5,873.833 272.5,876.5C 238.692,861.177 208.525,840.51 182,814.5C 176.207,803.648 177.707,793.981 186.5,785.5C 193.956,785.126 200.956,783.126 207.5,779.5C 216.457,782.234 224.124,780.234 230.5,773.5 Z"/></g>
<g><path style="opacity:1" fill="#72aa70" d="M 800.5,768.5 C 806.449,769.427 812.115,771.261 817.5,774C 820.985,775.675 823.985,777.842 826.5,780.5C 797.971,812.389 765.638,839.389 729.5,861.5C 727.293,842.781 720.626,825.947 709.5,811C 710.337,809.989 710.67,808.822 710.5,807.5C 710.5,806.5 710.5,805.5 710.5,804.5C 711.302,805.952 711.802,807.618 712,809.5C 716.307,802.37 721.474,796.037 727.5,790.5C 737.07,782.716 747.737,777.049 759.5,773.5C 772.88,769.625 786.547,767.959 800.5,768.5 Z"/></g>
<g><path style="opacity:1" fill="#679470" d="M 661.5,786.5 C 661.833,786.5 662.167,786.5 662.5,786.5C 680.656,788.995 696.156,796.662 709,809.5C 709.278,808.584 709.778,807.918 710.5,807.5C 710.67,808.822 710.337,809.989 709.5,811C 720.626,825.947 727.293,842.781 729.5,861.5C 689.61,887.769 646.276,906.435 599.5,917.5C 598.432,916.566 597.099,916.232 595.5,916.5C 596.577,895.732 598.577,875.065 601.5,854.5C 600.5,854.5 599.5,854.5 598.5,854.5C 595.741,875.811 593.741,897.144 592.5,918.5C 578.875,922.292 564.875,924.625 550.5,925.5C 550.717,909.022 552.05,892.689 554.5,876.5C 555.859,856.048 561.692,837.048 572,819.5C 572.49,818.207 572.657,816.873 572.5,815.5C 573.675,815.719 574.675,815.386 575.5,814.5C 587.445,801.22 602.112,792.553 619.5,788.5C 633.356,785.377 647.356,784.71 661.5,786.5 Z"/></g>
<g><path style="opacity:1" fill="#e7ab55" d="M 530.5,781.5 C 538.733,784.645 546.733,788.478 554.5,793C 562.265,799.246 568.265,806.746 572.5,815.5C 572.657,816.873 572.49,818.207 572,819.5C 561.692,837.048 555.859,856.048 554.5,876.5C 550.881,877.244 547.215,877.577 543.5,877.5C 542.396,866.336 540.396,855.336 537.5,844.5C 537.167,846 536.833,847.5 536.5,849C 538.366,857.424 539.866,865.924 541,874.5C 541.122,876.437 541.955,877.77 543.5,878.5C 545.218,893.196 547.218,907.862 549.5,922.5C 549.377,923.925 549.043,925.258 548.5,926.5C 511.831,930.192 475.497,928.859 439.5,922.5C 438.937,906.506 438.604,890.506 438.5,874.5C 439.66,861.34 439.827,848.006 439,834.5C 437.768,837.3 437.101,840.3 437,843.5C 436.5,853.494 436.334,863.494 436.5,873.5C 428.93,872.685 421.597,871.019 414.5,868.5C 413.206,866.952 412.539,864.952 412.5,862.5C 412.667,860.5 412.833,858.5 413,856.5C 414.02,834.277 420.52,813.944 432.5,795.5C 435.938,793.241 439.271,790.741 442.5,788C 446.307,786.572 449.974,785.072 453.5,783.5C 466.64,788.686 480.307,791.019 494.5,790.5C 507.725,791.752 519.725,788.752 530.5,781.5 Z"/></g>
<g><path style="opacity:1" fill="#be8a44" d="M 543.5,877.5 C 543.5,877.833 543.5,878.167 543.5,878.5C 541.955,877.77 541.122,876.437 541,874.5C 539.866,865.924 538.366,857.424 536.5,849C 536.833,847.5 537.167,846 537.5,844.5C 540.396,855.336 542.396,866.336 543.5,877.5 Z"/></g>
<g><path style="opacity:1" fill="#c18a44" d="M 438.5,874.5 C 437.508,874.672 436.842,874.338 436.5,873.5C 436.334,863.494 436.5,853.494 437,843.5C 437.101,840.3 437.768,837.3 439,834.5C 439.827,848.006 439.66,861.34 438.5,874.5 Z"/></g>
<g><path style="opacity:1" fill="#874e32" d="M 310.5,862.5 C 311.603,869.12 312.27,875.786 312.5,882.5C 298.569,884.4 285.236,882.4 272.5,876.5C 272.5,873.833 272.5,871.167 272.5,868.5C 285.427,867.892 298.093,865.892 310.5,862.5 Z"/></g>
<g><path style="opacity:1" fill="#c3c2bd" d="M 409.5,916.5 C 408.391,916.443 407.391,916.11 406.5,915.5C 401.9,883.17 397.233,850.836 392.5,818.5C 392.833,818.167 393.167,817.833 393.5,817.5C 399.804,850.323 405.137,883.323 409.5,916.5 Z"/></g>
<g><path style="opacity:1" fill="#ebb397" d="M 554.5,876.5 C 552.05,892.689 550.717,909.022 550.5,925.5C 550.158,926.338 549.492,926.672 548.5,926.5C 549.043,925.258 549.377,923.925 549.5,922.5C 547.218,907.862 545.218,893.196 543.5,878.5C 543.5,878.167 543.5,877.833 543.5,877.5C 547.215,877.577 550.881,877.244 554.5,876.5 Z"/></g>
<g><path style="opacity:1" fill="#e9b295" d="M 414.5,868.5 C 421.597,871.019 428.93,872.685 436.5,873.5C 436.842,874.338 437.508,874.672 438.5,874.5C 438.604,890.506 438.937,906.506 439.5,922.5C 430.119,921.09 420.786,919.424 411.5,917.5C 411.5,913.5 411.5,909.5 411.5,905.5C 412.951,893.349 413.951,881.016 414.5,868.5 Z"/></g>
<g><path style="opacity:1" fill="#517750" d="M 599.5,917.5 C 597.139,917.674 594.806,918.007 592.5,918.5C 593.741,897.144 595.741,875.811 598.5,854.5C 599.5,854.5 600.5,854.5 601.5,854.5C 598.577,875.065 596.577,895.732 595.5,916.5C 597.099,916.232 598.432,916.566 599.5,917.5 Z"/></g>
</svg>
