<svg version="1.2" xmlns="http://www.w3.org/2000/svg" viewBox="0 0 1024 1024" width="1024" height="1024"><style>.a{fill:#fefefe}.b{fill:#dae7e4}.c{fill:#1e7472}.d{fill:#d49d74}.e{fill:#efdbca}.f{fill:#c6a482}.g{fill:#1d7372}.h{fill:#c7d5d4}.i{fill:#d59b70}.j{fill:#efd3be}.k{fill:#f1ddcb}.l{fill:#f0d8c5}.m{fill:#81917f}.n{fill:#1e7372}.o{fill:#f4a370}.p{fill:#c6d4d4}.q{fill:#c18459}.r{fill:#d9a47c}.s{fill:#efd5c1}.t{fill:#487e44}.u{fill:#d79e74}.v{fill:#efd1bb}.w{fill:#f0d4bd}.x{fill:#efd3bd}.y{fill:#d69c72}.z{fill:#dba67f}.A{fill:#ba7d53}.B{fill:#dca781}.C{fill:#b87c52}.D{fill:#477d44}.E{fill:#d59c71}.F{fill:#421d11}.G{fill:#d59c72}.H{fill:#bd8057}.I{fill:#c45d35}.J{fill:#346436}.K{fill:#92663b}.L{fill:#d3cec1}.M{fill:#c45d36}.N{fill:#3a6a3a}.O{fill:#568c48}.P{fill:#262d31}.Q{fill:#d4cfc2}.R{fill:#252c31}.S{fill:#f3b899}.T{fill:#3e1712}.U{fill:#82391e}.V{fill:#c25d36}.W{fill:#225128}.X{fill:#ede7e0}.Y{fill:#b1c3c5}.Z{fill:#d3cec0}.a0{fill:#275926}.a1{fill:#c15c36}.a2{fill:#b1c2c5}.a3{fill:#b3c4c7}.a4{fill:#7e9977}.a5{fill:#336635}.a6{fill:#d5a68f}.a7{fill:#c35d36}.a8{fill:#b3c4c6}.a9{fill:#477e44}.aa{fill:#d3cfc1}.ab{fill:#ef5600}.ac{fill:#f3b898}.ad{fill:#b1632f}.ae{fill:#b56632}.af{fill:#172e44}.ag{fill:#162e45}.ah{fill:#ba6531}.ai{fill:#343637}.aj{fill:#497f45}.ak{fill:#3a6b3b}.al{fill:#487d43}.am{fill:#22567b}.an{fill:#183953}.ao{fill:#e0bc59}.ap{fill:#2b2e36}.aq{fill:#e2be5a}.ar{fill:#2f3336}.as{fill:#172f46}.at{fill:#134265}.au{fill:#f2b898}.av{fill:#f1a5a0}.aw{fill:#013675}.ax{fill:#3b6d3b}.ay{fill:#272526}.az{fill:#181617}.aA{fill:#241e1c}.aB{fill:#454745}.aC{fill:#303231}</style><path fill-rule="evenodd" class="a" d="m-0.5-0.5q512 0 1024 0 0 512 0 1024-512 0-1024 0 0-512 0-1024z"/><path fill-rule="evenodd" class="b" d="m896.5 334.5q-10.3 2.8-21 4 0 5.5 0 11-6 0-12 0 0-4.5 0-9-8.5 1.2-17 2 0 4.5 0 9-6 0.5-12 1 0-4 0-8-11.5 1.3-23 3-1.5-13.7-1-28-4.7 0.3-9 2-1 4.5-2 9-3.4 1.3-7 1 0-4.5 0-9-6 0.8-12 2 0 5 0 10-4 0-8 0 0-4 0-8-5.9-0.4-11.5 1-0.7 14-0.5 28-4.5 0-9 0-13.9-7.5-27-16.5-19-17-38-34-34.6-28.4-79-20-12.2 2.3-24 5.5 0-1.5 0-3 0-50.5 0-101-3.5 0-7 0 0 4.5 0 9-3 0-6 0 0-19 0-38 4.3 0.5 8-1-12.6-26.6-26-53-12.8 25.6-24 52-0.8 0.1-1 1 3.4 1.5 7 1-1.4 19-1 38-3 0-6 0 0-4 0-8-3.5 0-7 0 0 24 0 48-10 0-20 0 0-0.5 0-1 1.5-8.7 1-18 2.5 0.2 5-0.5-10.4-19.1-20.5-38.5-11.1 19.4-22.5 38.5 2.5 0.7 5 0.5 0 0.5 0 1 0 9 0 18-14-0.2-28 0.5-11.5 11.2-22 22.5 0 21 0 42-21.8 0.3-41 10.5-12.4 7.9-24 17-14.4 13.7-29 26.5 0-19-1-38-5.2 0-10-2-1 5-2 10-3-1-6-2-1.5-4.9-1-10-6-1-12-2 0.5 4.6-1 9-3.4-1.3-7-1 0-5.5 0-11-6.6-0.3-13-2 0 12.5 0 25 0.5 7.3-1 14-9.5-1.8-19-4 0.5 5.6-1 11-5.1-1.1-10-3-1.5-4.9-1-10-8.4-0.8-16.5-3-0.3 4.6-1.5 9-4.9-1.3-10-2 0-5 0-10-7.8 0.1-15-3-1.5 4.4-1 9-5-0.5-10-1 0-5 0-10-9.7-0.8-19-4-1.2 4.9-1.5 10-5-1.9-10.5-2 0-5.5 0-11-9.7-1.3-19-4 4-11.5 10.5-22 108-175.8 313.5-205.5 213.9-21.2 363.5 131.5 46.2 51 73.5 114z"/><path fill-rule="evenodd" class="c" d="m468.5 235.5q16 0 32 0 10 0 20 0 0 11.5 0 23-4.5 0-9 0-46.5 0-93 0 10.5-11.3 22-22.5 14-0.7 28-0.5z"/><path fill-rule="evenodd" class="d" d="m468.5 217.5q16 0 32 0 0 8.5 0 17 0 0.5 0 1-16 0-32 0 0-9 0-18z"/><path fill-rule="evenodd" class="e" d="m480.5 224.5q2.7-0.4 5 1 1.3 3.9 1 8-3 0-6 0 0-4.5 0-9z"/><path fill-rule="evenodd" class="f" d="m468.5 217.5q0-0.5 0-1 16.5 0 33 0 0.5 9.3-1 18 0-8.5 0-17-16 0-32 0z"/><path fill-rule="evenodd" class="g" d="m501.5 216.5q-16.5 0-33 0-2.5 0.2-5-0.5 11.4-19.1 22.5-38.5 10.1 19.4 20.5 38.5-2.5 0.7-5 0.5z"/><path fill-rule="evenodd" class="h" d="m648.5 164.5q12.1-1.7 20.5 7 3.7 4.8 6.5 10 12.5-10 23.5 2 1.8 3.9 3 8 15.8-6.7 19.5 10-57.6 0.7-115-1.5 1.4-14.4 15.5-17.5 5.2 0.2 9.5 3 3.9-14.4 17-21z"/><path fill-rule="evenodd" class="i" d="m534.5 157.5q18 0 36 0 0 19 0 38 3 0 6 0 0-4.5 0-9 3.5 0 7 0 0 50.5 0 101-1.9-7.7-2.5-16-0.4 9.3-4.5 0.5 0.3-0.8 0.5-1.5 1.1 1.4 2.5 0.5-2-1 0-2-5.3-1.3-2.5-5.5 1.5 4 3 0 0.5 0.5 1 1 0.5-1.9 1.5-3.5-1.2-6.6-1.5-13.5-0.5 4-1 8-0.5-1-1-2-3.8 4.2-5-1-0.2 4.2-2.5 1.5 1-2 3-3-1-0.5-2-1 1.8-1.8 3.5-3.5-0.7 3 0.5 6 1-0.8 1.5-2 0.5 0.5 1 1 1-1.5 0-3-1 1.8-1.5 0 1.7-2.9 2-5 1.1 1.3 1.5 3 1-8 0-16-2.8 2.3-3 6-1-4-2 0-1-1.5 0-3 4.2-2.4 0.5-5 1.3-1.1 3-1.5-2-0.5-4-1 1.7-0.4 3-1.5-2.6-1.7-6.5-4-0.3 1.9-1.5 3 0.7-8.7-2-17-4.6-4.4-7.5 1-0.7 8-0.5 16 4.7 1.2 10 1.5-5.5 1-11 0-1.2-6.1-1.5-12.5-0.3 2.8-2 5-2.1-0.8-4-1-1-1.5 0-3 1.3 1.8 2.5 0-0.7-2.5-3-3.5 4.5-4-1-6 2.9-1.1 5.5 0.5 1.2-2.7 3.5-4.5-3.2-1.1-5 2-4 0.7-8 0.5 0.4-7.5 0.5-15-0.5 2.9-2.5 5-1.5-0.7-2.5-2-0.7 4.5-0.5 9-4 0-8 0 0-2 0-4-0.4-19 1-38z"/><path fill-rule="evenodd" class="j" d="m570.5 223.5q-5 0-10 0-0.2-8 0.5-16 2.9-5.4 7.5-1 2.7 8.3 2 17z"/><path fill-rule="evenodd" class="k" d="m557.5 165.5q2.5-0.3 4.5 1 0.7 5 0.5 10-2.5 0-5 0 0-5.5 0-11z"/><path fill-rule="evenodd" class="h" d="m404.5 140.5q9.3-0.7 17 4.5 6.9 7.2 12 15.5 7.1-2.2 14 0.5 9.5 6.8 9 18.5-61.5 0-123 0 1.2-15.1 16-15 5.5-16.6 23-13.5 6.8 1.1 11 6.5 5.8-14.6 21-17z"/><path fill-rule="evenodd" class="l" d="m543.5 165.5q2.8-0.3 4.5 2 0.7 4.5 0.5 9-3 0-6 0-0.4-5.7 1-11z"/><path fill-rule="evenodd" class="m" d="m528.5 155.5q24.7 1.5 50 1-3.7 1.5-8 1-18 0-36 0-3.6 0.5-7-1 0.2-0.9 1-1z"/><path fill-rule="evenodd" class="n" d="m578.5 156.5q-25.3 0.5-50-1 11.2-26.4 24-52 13.4 26.4 26 53z"/><path fill-rule="evenodd" class="o" d="m418.5 258.5q46.5 0 93 0-45.7 1.5-92 1 0 20.5 0 41-0.5 0-1 0 0-21 0-42z"/><path fill-rule="evenodd" class="p" d="m268.5 240.5q22.6-3.2 28 19 16.5-6.4 22 10.5-49.5 0.8-99 0.5 1.7-24.5 26-22.5 5.5 1.2 9 5.5 5.1-8.7 14-13z"/><path fill-rule="evenodd" class="q" d="m562.5 296.5q-9 2.5-18 5-1.7-20.2-0.5-41-0.1-7.6 5.5-12.5 10.3-2.2 11.5 8.5 0.3 20.1 1.5 40z"/><path fill-rule="evenodd" class="h" d="m750.5 248.5q24-3.2 33 19 18.8-12.6 29.5 7 0.7 6 0.5 12-42 0-84 0-3.4-27.1 21-38z"/><path fill-rule="evenodd" class="r" d="m560.5 223.5q5 0 10 0 1.2-1.1 1.5-3 3.9 2.3 6.5 4-1.3 1.1-3 1.5 2 0.5 4 1-1.7 0.4-3 1.5 3.7 2.6-0.5 5-1 1.5 0 3 1-4 2 0 0.2-3.7 3-6 1 8 0 16-0.4-1.7-1.5-3-0.3 2.1-2 5 0.5 1.8 1.5 0 1 1.5 0 3-0.5-0.5-1-1-0.5 1.2-1.5 2-1.2-3-0.5-6-1.8 1.8-3.5 3.5 1 0.5 2 1-2 1-3 3 2.3 2.7 2.5-1.5 1.2 5.2 5 1 0.5 1 1 2 0.5-4 1-8 0.3 6.9 1.5 13.5-1 1.6-1.5 3.5-0.5-0.5-1-1-1.5 4-3 0-2.8 4.2 2.5 5.5-2 1 0 2-1.4 0.9-2.5-0.5-0.3 0.8-0.5 1.5 4.1 8.8 4.5-0.5 0.6 8.3 2.5 16 0 1.5 0 3-10.7 2.3-21 6-1.2-19.9-1.5-40-1.2-10.7-11.5-8.5-5.6 4.9-5.5 12.5-1.2 20.8 0.5 41-11.7 3.9-24 7 0.4-23.7-1-47.5 0.8-0.8 1.5-1.5 0.8-35.5 0.5-71 2.5 0 5 0-0.5 3.8 1 7 3 0 6 0 0 2 0 4 4 0 8 0-0.2-4.5 0.5-9 1 1.3 2.5 2 2-2.1 2.5-5-0.1 7.5-0.5 15 4 0.2 8-0.5 1.8-3.1 5-2-2.3 1.8-3.5 4.5-2.6-1.6-5.5-0.5 5.5 2 1 6 2.3 1 3 3.5-1.2 1.8-2.5 0-1 1.5 0 3 1.9 0.2 4 1 1.7-2.2 2-5 0.3 6.4 1.5 12.5 5.5 1 11 0-5.3-0.3-10-1.5z"/><path fill-rule="evenodd" class="s" d="m536.5 205.5q4.2-0.6 6.5 3 0.7 7.5 0.5 15-4.5 0-9 0-0.2-8 0.5-16 1.1-0.8 1.5-2z"/><path fill-rule="evenodd" class="t" d="m751.5 355.5q-6.4 1.2-13 1 0 5 0 10-6.6-0.2-13 1 0-4 0-8-8.6 0.1-17 2-1.5 4.4-1 9-6.5 0.4-13 1 0-4 0-8-9 1.3-18 2 0.5 4.6-1 9-5.4 1.5-11 2 0.5-4.6-1-9-8.5 1.7-17 3 0 4.5 0 9-6 0.2-12 1 0.5-4.6-1-9-8.9 2.1-18 3 0 5 0 10-5.5 0.1-11 1 0.5-4.6-1-9-8.4 1.7-17 2 0 5 0 10-6 1-12 2 0-4.5 0-9-9 0.8-18 2 0.5 4.6-1 9-5.9 1.4-12 2 0.2-4.5-0.5-9-8.6 1.5-17.5 2 0 5 0 10-6.1-0.2-12 1 0-4.5 0-9-11.1 0-22 2 0 5 0 10-6.6 0-13-1 0-5.5 0-11-10.6-1.1-21-3 0 4.5 0 9-5.7 0.1-11-2-1.1-5.3-2-10.5-9.1-1.1-18-3.5-1.9 4.8 0 9.5-6.6 0.1-13-1.5 0-5 0-10-9-2-18-4-1 5-2 10-6.3-2.4-13-3 0-5.5 0-11-9.5-0.8-18.5-4-0.7 4.5-0.5 9-7-0.8-14-2 0.4-5.9-1-11.5-10.1-1.8-20-4.5-1.8-0.4-2-2 14.6-12.8 29-26.5 11.6-9.1 24-17 19.2-10.2 41-10.5 0.5 0 1 0 10.6-0.3 21 1.5 20.2 6 41 9 19.7 1.5 39-2.5 12.3-3.1 24-7 9-2.5 18-5 10.3-3.7 21-6 11.8-3.2 24-5.5 44.4-8.4 79 20 19 17 38 34 13.1 9 27 16.5z"/><path fill-rule="evenodd" class="u" d="m527.5 195.5q-1.5-3.2-1-7-2.5 0-5 0 0.3 35.5-0.5 71-0.8 0.8-1.5 1.5 1.4 23.8 1 47.5-19.3 4-39 2.5-20.8-3-41-9-10.4-1.8-21-1.5 0-20.5 0-41 46.3 0.5 92-1 4.5 0 9 0 0-11.5 0-23 0-24 0-48 3.5 0 7 0 0 4 0 8z"/><path fill-rule="evenodd" class="v" d="m465.5 270.5q3.8-0.6 6.5 2 1.9 8.4 1.5 17-5.5 0-11 0-0.2-8 0.5-16 1.6-1.3 2.5-3z"/><path fill-rule="evenodd" class="w" d="m494.5 270.5q3-0.2 6 0.5 0.9 1.1 1.5 2.5 0.3 7.9 1.5 15.5-5.5 0.7-11 0.5-0.2-8.5 0.5-17 1.1-0.8 1.5-2z"/><path fill-rule="evenodd" class="x" d="m436.5 269.5q5.7-1 8.5 4 0.7 8 0.5 16-6 0-12 0-0.6-10.5 3-20z"/><path fill-rule="evenodd" class="y" d="m896.5 334.5q12.1 23.3 19 49-53.8 7.1-105 25-0.7 0.1-1-0.5 0.5-28.9 3-57.5-2.9-1.1-1-3 11.5-1.7 23-3 0 4 0 8 6-0.5 12-1 0-4.5 0-9 8.5-0.8 17-2 0 4.5 0 9 6 0 12 0 0-5.5 0-11 10.7-1.2 21-4z"/><path fill-rule="evenodd" class="z" d="m313.5 419.5q-21-7.5-42-15 0.4-30.5-1-60 1.5-6.7 1-14 1.2 6.7 1.5 14 0.5-8 1-16 0.5 0.5 1 1 0.2-4.2 2.5-1.5-0.9 3.4-1.5 7.5 1.1-0.9 2.5-1.5-0.5-0.5-1-1 1.5-0.5 3-1-2.3-1.3-1.5-3.5 2.6 2.1 4 5 1.8-1.5 1.5-3 1 1 2 2 2.8-1.7 6-2.5-3.3-1.2 0-3.5 2.5 3 5 6 0.5-1 1-2 4 3.9 5.5-2-0.2 2.9 0.5 5.5-1 0.5-2 1 3.5 1.3 5.5 4.5 1-2.2 2.5-4-2.2 0.3-4-2.5 1.4-0.6 2.5-1.5 2.1 3.8 3-1 0.7 1.4 0.5 3 5.2 1.9 10 5 3.8 40.8 3 83-4.4 0.1-8-2.5 0.5-0.5 1-1-3.2-2.6-5 1.5z"/><path fill-rule="evenodd" class="A" d="m293.5 344.5q3.8-0.6 6.5 2 2.1 6.8 1.5 14-5 0-10 0-0.2-7 0.5-14 1.1-0.8 1.5-2z"/><path fill-rule="evenodd" class="B" d="m811.5 347.5q-1.9 1.9 1 3-2.5 28.6-3 57.5 0.3 0.6 1 0.5-24.7 9-51 13 1.4-33 1-66-0.2-14 0.5-28 5.6-1.4 11.5-1 0 4 0 8 4 0 8 0 0-5 0-10 6-1.2 12-2 0 4.5 0 9 3.6 0.3 7-1 1-4.5 2-9 4.3-1.7 9-2-0.5 14.3 1 28z"/><path fill-rule="evenodd" class="C" d="m784.5 349.5q4.7-0.8 7.5 3 0.7 6 0.5 12-5.5 0-11 0-1.1-8.2 3-15z"/><path fill-rule="evenodd" class="D" d="m112.5 367.5q81.5 10.2 159 37 21 7.5 42 15 97 37.6 201 34 10.1-1.3 20-3 9.5-1.3 19-3 1.4 1.6 1 4-1.1 0.6-1.5 2-0.7-3.6-2.5-0.5 0.5 0.5 1 1-89.6 9-167 53.5-1.3-2.2-4-2.5-14.8-3.3-29.5-6.5 1-4.5 3-9 1.1-21.4-10-40-6.1-7.8-12 0-7.1 10.2-11 22-2.1 11.7 3.5 22-6.4 1.2-13 0 0.2 2.5-0.5 5-3.3 2-1.5-1 0.2-15.5-0.5-31-8.5-14.1-18.5-27-13.5-0.2-27 0.5-7.6 13-14 26.5-1.5 3.2-1 7-2.5 0-5 0 0.2-12.5-0.5-25-6.8-11.6-13.5-23-14-0.5-28 1-6.8 10.6-12 22-0.5 2-1 4 0-1-1-1-14.9-3-31-2 3.7-1.5 8-1-0.5-9.7-3.5-19-3.5-6.8-8-1-6.4 12.6-11 26-1.1 8.6 0.5 17 0 0.5 0 1-15.3 2.4-31 3.5-9.6 2.5-19 5.5 0.5-6.3-1-12 4.4-52.3 21-102z"/><path fill-rule="evenodd" class="E" d="m135.5 316.5q9.3 2.7 19 4 0 5.5 0 11 5.5 0.1 10.5 2 0.3-5.1 1.5-10 9.3 3.2 19 4 0 5 0 10 5 0.5 10 1-0.5-4.6 1-9 7.2 3.1 15 3 0 5 0 10 5.1 0.7 10 2 1.2-4.4 1.5-9 8.1 2.2 16.5 3-0.5 5.1 1 10 4.9 1.9 10 3 1.5-5.4 1-11 9.5 2.2 19 4 1.4 29.5 1 60-77.5-26.8-159-37 9.5-26.7 23-51z"/><path fill-rule="evenodd" class="F" d="m729.5 424.5q19.4 23.8 26 54 3 14.1 9.5 27 14.7 20.8 28.5 42 11.7 28.2-12 47.5-30 19.5-66 22.5-9.4-1.1-8 1-17.7 1.7-36 0.5-12.2-1.2-23-6.5-13.7-7.5-13-23.5 0.1-5.8 1.5-11.5 5.3-18.6 10.5-37 20.8-2.8 22-24-3.3-27-27.5-15-7.4 16.7-18 2-2.9-9.3-3.5-19-21.8-2.2-43-8-9.8-4.3-17.5-12-4.1-6-5.5-13 0.4-2.4-1-4-0.8-23.7 22-29.5 12.9-2.2 26-3 43.8-19.5 91-11 21.7 4.8 37 20.5z"/><path fill-rule="evenodd" class="t" d="m915.5 383.5q13.2 42 16 86-1.2 2.7-1.5 6-23.3-5.9-47.5-7.5-46.7-2.4-93 4-16.9 3.9-34 6.5-6.6-30.2-26-54 15.3 0.5 30-3 26.3-4 51-13 51.2-17.9 105-25z"/><path fill-rule="evenodd" class="G" d="m324.5 354.5q0.2 1.6 2 2 9.9 2.7 20 4.5 1.4 5.6 1 11.5 7 1.2 14 2-0.2-4.5 0.5-9 9 3.2 18.5 4 0 5.5 0 11 6.7 0.6 13 3 1-5 2-10 9 2 18 4 0 5 0 10 6.4 1.6 13 1.5-1.9-4.7 0-9.5 8.9 2.4 18 3.5 0.9 5.2 2 10.5 5.3 2.1 11 2 0-4.5 0-9 10.4 1.9 21 3 0 5.5 0 11 6.4 1 13 1 0-5 0-10 10.9-2 22-2 0 4.5 0 9 5.9-1.2 12-1 0-5 0-10 8.9-0.5 17.5-2 0.7 4.5 0.5 9 6.1-0.6 12-2 1.5-4.4 1-9 9-1.2 18-2 0 4.5 0 9 6-1 12-2 0-5 0-10 8.6-0.3 17-2 1.5 4.4 1 9 5.5-0.9 11-1 0-5 0-10 9.1-0.9 18-3 1.5 4.4 1 9 6-0.8 12-1 0-4.5 0-9 8.5-1.3 17-3 1.5 4.4 1 9 5.6-0.5 11-2 1.5-4.4 1-9 9-0.7 18-2 0 4 0 8 6.5-0.6 13-1-0.5-4.6 1-9 8.4-1.9 17-2 0 4 0 8 6.4-1.2 13-1 0-5 0-10 6.6 0.2 13-1 4.5 0 9 0 0.4 33-1 66-14.7 3.5-30 3-15.3-15.7-37-20.5-47.2-8.5-91 11-13.1 0.8-26 3-22.8 5.8-22 29.5-9.5 1.7-19 3 0.6-14.6-1.5-29-4.4-8.3-13.5-5.5-3.2 2.6-4.5 6.5-0.7 15.5-0.5 31-104 3.6-201-34 1.8-4.1 5-1.5-0.5 0.5-1 1 3.6 2.6 8 2.5 0.8-42.2-3-83-4.8-3.1-10-5 0.2-1.6-0.5-3-0.9 4.8-3 1-1.1 0.9-2.5 1.5 1.8 2.8 4 2.5-1.5 1.8-2.5 4-2-3.2-5.5-4.5 1-0.5 2-1-0.7-2.6-0.5-5.5-1.5 5.9-5.5 2-0.5 1-1 2-2.5-3-5-6-3.3 2.3 0 3.5-3.2 0.8-6 2.5-1-1-2-2 0.3 1.5-1.5 3-1.4-2.9-4-5-0.8 2.2 1.5 3.5-1.5 0.5-3 1 0.5 0.5 1 1-1.4 0.6-2.5 1.5 0.6-4.1 1.5-7.5-2.3-2.7-2.5 1.5-0.5-0.5-1-1-0.5 8-1 16-0.3-7.3-1.5-14 0-12.5 0-25 6.4 1.7 13 2 0 5.5 0 11 3.6-0.3 7 1 1.5-4.4 1-9 6 1 12 2-0.5 5.1 1 10 3 1 6 2 1-5 2-10 4.8 2 10 2 1 19 1 38z"/><path fill-rule="evenodd" class="H" d="m534.5 450.5q-9.9 1.7-20 3-0.2-15.5 0.5-31 1.3-3.9 4.5-6.5 9.1-2.8 13.5 5.5 2.1 14.4 1.5 29z"/><path fill-rule="evenodd" class="I" d="m229.5 425.5q-6.6 11.8-14 23-13 0-26 0 5.2-11.4 12-22 14-1.5 28-1z"/><path fill-rule="evenodd" class="J" d="m156.5 449.5q0 0.5 0 1-5.9 11.3-14 21-1.6-8.4-0.5-17 4.6-13.4 11-26 4.5-5.8 8 1 3 9.3 3.5 19-4.3-0.5-8 1z"/><path fill-rule="evenodd" class="K" d="m156.5 450.5q0-0.5 0-1 16.1-1 31 2-0.5 0-1 0-14.7-1.5-30-1z"/><path fill-rule="evenodd" class="L" d="m189.5 448.5q13 0 26 0 0 12 0 24-7.1 0.5-14-1-6.1-9.8-13-19 0.5-2 1-4z"/><path fill-rule="evenodd" class="M" d="m156.5 450.5q15.3-0.5 30 1-5.8 11.5-13 22-15.5 0-31 0 0-0.5 0-1 0-0.5 0-1 8.1-9.7 14-21z"/><path fill-rule="evenodd" class="N" d="m931.5 469.5q4.8 63.9-9 126 0.4-3-1-5.5-18.8-10.2-38-19.5-7.6-23.4-15.5-47-2-5.9-5.5-11-2.1 2.8-3.5 6-6.3 19.1-12.5 38-26.3-8.3-53-9-13.8-21.2-28.5-42-6.5-12.9-9.5-27 17.1-2.6 34-6.5 46.3-6.4 93-4 24.2 1.6 47.5 7.5 0.3-3.3 1.5-6z"/><path fill-rule="evenodd" class="N" d="m384.5 507.5q-45 30.5-89 62.5-76.4 50.6-168 59-9 0.7-18 0.5-23.8-78.3-18-160 1.5 5.7 1 12 9.4-3 19-5.5 15.7-1.1 31-3.5 0 0.5 0 1 0 15.5 0 31 4 0 8 0-4.5 8-9 16 0 16 0 32 30.5 0 61 0 0-7 0-14 34 0 68 0 0.3-19-0.5-38-0.6-1.4-1.5-2.5 20.5-0.8 41-0.5-1.8 3 1.5 1 0.7-2.5 0.5-5 6.6 1.2 13 0-5.6-10.3-3.5-22 3.9-11.8 11-22 5.9-7.8 12 0 11.1 18.6 10 40-2 4.5-3 9 14.7 3.2 29.5 6.5 2.7 0.3 4 2.5z"/><path fill-rule="evenodd" class="O" d="m554.5 451.5q1.4 7 5.5 13 7.7 7.7 17.5 12-4.7 5.8-7 13-6.5 0.2-13-0.5-1.6-5.3-7-5.5-5.3-9.1-11-1-0.5 0-1 0-2-6.9-9-4.5-1.3 1.6-3 2.5-0.5 0-1 0 0-8.2-8-5.5-2.7 2.7-5 5.5-22-1.7-44-1.5-5 5.9-6.5 13.5-1.3 12.1 1 24 1.8 4.9 5.5 8.5 9 0.6 18-0.5-17.1 25.1-33 51-2 1-3.5 0-0.3 2.2-1.5 4-0.5-1-1-2-64.8 38.8-122 88-1.5-5.5-7-3.5-9.3 11.4-16 24.5-1-1.7-0.5-4-22.8 19.3-46.5 34-2 0-4 0-7.7-23.8-19.5-46-7.4-15.9-14 0-12.2 32.5-15.5 67-1.4-2.6-1-6-16 2.5-32 5-4-2.3-7 1-35.2-49.4-53-108 9 0.2 18-0.5 91.6-8.4 168-59 44-32 89-62.5 77.4-44.5 167-53.5-0.5-0.5-1-1 1.8-3.1 2.5 0.5 0.4-1.4 1.5-2z"/><path fill-rule="evenodd" class="P" d="m512.5 480.5q-12.2 22.5-26 44-9 1.1-18 0.5-3.7-3.6-5.5-8.5-2.3-11.9-1-24 1.5-7.6 6.5-13.5 22-0.2 44 1.5z"/><path fill-rule="evenodd" class="Q" d="m142.5 473.5q15.5 0 31 0 0 10.5 0 21-8.8-0.5-17 1-2.6 4.8-6 9-4 0-8 0 0-15.5 0-31z"/><path fill-rule="evenodd" class="R" d="m550.5 483.5q5.4 0.2 7 5.5 6.5 0.7 13 0.5 11.3-0.5 13.5 11 1.7 8.6-3 16-2.7 2.6-6.5 2-8.5 0-17 0 0.7 4.2-3 6-9.6-0.3-19-2 9.6-18.8 15-39z"/><path fill-rule="evenodd" class="S" d="m577.5 476.5q21.2 5.8 43 8 0.6 9.7 3.5 19 10.6 14.7 18-2 24.2-12 27.5 15-1.2 21.2-22 24-5.2 18.4-10.5 37-1.4 5.7-1.5 11.5-0.7 16 13 23.5-14.6 3.9-30 5 0-15.2-5-29.5-54.7 11.8-47.5-44.5-4-4.8-7.5-10 8.9-6.4 16-15 3.8 0.6 6.5-2 4.7-7.4 3-16-2.2-11.5-13.5-11 2.3-7.2 7-13z"/><path fill-rule="evenodd" class="T" d="m584.5 486.5q10.5-1.7 17 6.5-0.5 0.8-1 1.5-7.4-6-17-6 0.5-1 1-2z"/><path fill-rule="evenodd" class="U" d="m587.5 507.5q5-0.7 9 2-2.9 1.7-6 0.5-2.4-0.4-3-2.5z"/><path fill-rule="evenodd" class="V" d="m156.5 495.5q15-0.5 30 1-7 12-14 24-15 0-30 0-0.5 0-1 0 4.5-8 9-16 3.4-4.2 6-9z"/><path fill-rule="evenodd" class="W" d="m883.5 570.5q7.9 22.9 13 46.5-2.6 21.5-20 33.5-18.4-1.3-36-5-15.8-14-11.5-35 9.8-26.7 17.5-54 6.2-18.9 12.5-38 1.4-3.2 3.5-6 3.5 5.1 5.5 11 7.9 23.6 15.5 47z"/><path fill-rule="evenodd" class="X" d="m229.5 425.5q6.7 11.4 13.5 23 0.7 12.5 0.5 25-14 0-28 0-6.5 0-13 0-0.5 11.3 1 22-2 3.5-4 7-4.1-0.5-8 1 3.9 6.3 7 13 1.7 2.5 3.5 5 0.7 7.5 0.5 15 16 0 32 0 0-16.5 0-33-17.3 0.5-34-1 17.5 0.5 35-1 7-13 14-26 1.3-0.5 1-2 9 10.9 16.5 23 4.6-1.4 9.5-1 0-14.5 0-29 7.4-13.3 14-27 10 12.9 18.5 27 0.7 15.5 0.5 31-20.5-0.3-41 0.5 0.9 1.1 1.5 2.5 0.8 19 0.5 38-34 0-68 0 0 7 0 14-30.5 0-61 0 0-16 0-32 0.5 0 1 0 0 15.5 0 31 14.5 0 29 0-0.5-15.6 1-31 7-12 14-24-15-1.5-30-1 8.2-1.5 17-1 0-10.5 0-21 7.2-10.5 13-22 0.5 0 1 0 1 0 1 1 6.9 9.2 13 19 6.9 1.5 14 1 0-12 0-24 7.4-11.2 14-23z"/><path fill-rule="evenodd" class="Y" d="m248.5 508.5q4.5 0 9 0 0 6.5 0 13-4.5 0-9 0 0-6.5 0-13z"/><path fill-rule="evenodd" class="Z" d="m199.5 502.5q0.5 0 1 0 16.7 1.5 34 1 0 16.5 0 33-16 0-32 0 0.2-7.5-0.5-15-1.8-2.5-3.5-5 1.5-6.7 1-14z"/><path fill-rule="evenodd" class="a0" d="m199.5 502.5q0.5 7.3-1 14-3.1-6.7-7-13 3.9-1.5 8-1z"/><path fill-rule="evenodd" class="a1" d="m215.5 474.5q17.3-0.5 34 1-7 13-14 26-17.5 1.5-35 1-0.5 0-1 0 2-3.5 4-7 0-0.5 0-1 6.8-9.5 12-20z"/><path fill-rule="evenodd" class="a2" d="m185.5 479.5q3.5 0 7 0 0 5 0 10-3.5 0-7 0 0-5 0-10z"/><path fill-rule="evenodd" class="a3" d="m289.5 473.5q4.5 0 9 0 0 5.5 0 11-4.5 0-9 0 0-5.5 0-11z"/><path fill-rule="evenodd" class="Z" d="m249.5 466.5q13.5 0 27 0 0 14.5 0 29-4.9-0.4-9.5 1-7.5-12.1-16.5-23-1 0-2 0-0.5-3.8 1-7z"/><path fill-rule="evenodd" class="a4" d="m215.5 473.5q0 0.5 0 1-6 0-12 0 0 10 0 20 0 0.5 0 1-1.5-10.7-1-22 6.5 0 13 0z"/><path fill-rule="evenodd" class="a5" d="m215.5 474.5q-5.3 10.5-12 20 0-10 0-20 6 0 12 0z"/><path fill-rule="evenodd" class="a6" d="m215.5 474.5q0-0.5 0-1 14 0 28 0 2.5 0 5 0 1 0 2 0 0.3 1.5-1 2-16.7-1.5-34-1z"/><path fill-rule="evenodd" class="Y" d="m226.5 455.5q3.5 0 7 0 0 5 0 10-3.5 0-7 0 0-5 0-10z"/><path fill-rule="evenodd" class="a7" d="m290.5 439.5q-6.6 13.7-14 27-13.5 0-27 0 6.4-13.5 14-26.5 13.5-0.7 27-0.5z"/><path fill-rule="evenodd" class="a8" d="m184.5 528.5q4 0 8 0 0 5.5 0 11-4 0-8 0 0-5.5 0-11z"/><path fill-rule="evenodd" class="a9" d="m574.5 518.5q-7.1 8.6-16 15 3.5 5.2 7.5 10-7.2 56.3 47.5 44.5 5 14.3 5 29.5-2.5 1-5 2-13.4-0.2-26 3-40.7 2.4-80 13.5-3.2 1.5-5 4.5-13.9 3.5-28 6 13.3-44.3 33.5-86 25-13 45-33 0.8-1.5 1.5-3 3.7-1.8 3-6 8.5 0 17 0z"/><path fill-rule="evenodd" class="aa" d="m142.5 520.5q15 0 30 0-1.5 15.4-1 31-14.5 0-29 0 0-15.5 0-31z"/><path fill-rule="evenodd" class="t" d="m883.5 570.5q19.2 9.3 38 19.5 1.4 2.5 1 5.5-6.5 31.6-19 61-1.8 0.8-3.5 2-0.7-1.8-2.5-2.5-10.8-2.3-21-5.5 17.4-12 20-33.5-5.1-23.6-13-46.5z"/><path fill-rule="evenodd" class="t" d="m846.5 556.5q-7.7 27.3-17.5 54-4.3 21 11.5 35-26.8 2.7-54 5.5-5.5 1.2-11 2-0.8 0.6-1 1.5-14-19-36-28-11-6-23-9 36-3 66-22.5 23.7-19.3 12-47.5 26.7 0.7 53 9z"/><path fill-rule="evenodd" class="ab" d="m648.5 612.5q10.8 5.3 23 6.5 18.3 1.2 36-0.5 6-1.3 8.5 4 6 11.3 7.5 24-23.5-0.3-47 0.5-16.2 1.6-32 5.5-5-17.3-19-28.5-5.6-3.5-12-4.5 2.5-1 5-2 15.4-1.1 30-5z"/><path fill-rule="evenodd" class="ab" d="m587.5 622.5q12.6 1.8 20.5 12 11 13.5 16.5 30-3 5.1-4.5 11-6.2 74.9-8.5 150-42.7-51.4-53-118-9.2 2-18 4-14 1-28 1-1.5-5-3-10-8.2-30.4-7-62 1.8-3 5-4.5 39.3-11.1 80-13.5z"/><path fill-rule="evenodd" class="ac" d="m525.5 480.5q-9.7 13.5-16 28 9.3-13.5 17-28 1.7-0.9 3-2.5 7-2.4 9 4.5-6.2 11.4-12.5 23-2 3.9-2 8 7.8-15.6 15.5-31 5.7-8.1 11 1-5.4 20.2-15 39 9.4 1.7 19 2-0.7 1.5-1.5 3-20 20-45 33-20.2 41.7-33.5 86 14.1-2.5 28-6-1.2 31.6 7 62-35.9 3.7-72 0.5-14.3-1.8-25.5-10.5-6.4-9.5-4-21 3.2-10.1 7-20 18.9-38.3 38.5-76 15.9-25.9 33-51 13.8-21.5 26-44 2.3-2.8 5-5.5 8-2.7 8 5.5z"/><path fill-rule="evenodd" class="ad" d="m525.5 480.5q0.5 0 1 0-7.7 14.5-17 28 6.3-14.5 16-28z"/><path fill-rule="evenodd" class="ae" d="m538.5 482.5q0.5 0 1 0-7.7 15.4-15.5 31 0-4.1 2-8 6.3-11.6 12.5-23z"/><path fill-rule="evenodd" class="af" d="m715.5 617.5q12 3 23 9 5 11 7 23-10.7-3.4-22-3-1.5-12.7-7.5-24-2.5-5.3-8.5-4-1.4-2.1 8-1z"/><path fill-rule="evenodd" class="ag" d="m613.5 619.5q6.4 1 12 4.5 14 11.2 19 28.5-11 4.5-20 12-5.5-16.5-16.5-30-7.9-10.2-20.5-12 12.6-3.2 26-3z"/><path fill-rule="evenodd" class="N" d="m840.5 645.5q17.6 3.7 36 5 10.2 3.2 21 5.5 1.8 0.7 2.5 2.5 1.7-1.2 3.5-2-26 68.5-74 123-11-23.6-18-49 3.6-1.8 6-5-12-24-25.5-47-8.4-12.3-17.5-24 0.2-0.9 1-1.5 5.5-0.8 11-2 27.2-2.8 54-5.5z"/><path fill-rule="evenodd" class="ah" d="m474.5 646.5q-5.4 3.9-12 4.5 5.5-3.5 12-4.5z"/><path fill-rule="evenodd" class="t" d="m453.5 575.5q-19.6 37.7-38.5 76-3.8 9.9-7 20-2.4 11.5 4 21 11.2 8.7 25.5 10.5 36.1 3.2 72-0.5 1.5 5 3 10 14 0 28-1 0.1 5.5 1 11 0.2 1.6-0.5 3-0.6-2.2-2.5-1.5-54.1 43.3-113 80-34.9 19.3-73 32-1.9 3.6-4.5 4.5-0.9-6.2-2.5-10-4.7-25.3-7-51-3.7-44-7.5-88-2-13.2-5.5-26 57.2-49.2 122-88 0.5 1 1 2 1.2-1.8 1.5-4 1.5 1 3.5 0z"/><path fill-rule="evenodd" class="ab" d="m738.5 626.5q22 9 36 28 9.1 11.7 17.5 24 13.5 23 25.5 47-2.4 3.2-6 5-13.2 9.7-28 17-1.9-11.9-5-23.5 3.6-3.5 3-8.5-1.9-28.1-14.5-53-8.8-9.8-21.5-13-2-12-7-23z"/><path fill-rule="evenodd" class="ai" d="m325.5 665.5q3.5 12.8 5.5 26 3.8 44 7.5 88-42.7 9.3-61.5-30-5-14.6-7-30-8.8 14.5-17.5 29-13.3-19.5-33.5-7-3.8 15.6 11.5 20.5 5.6 0.9 11-0.5-16.2 10.9-35 4.5-6.4-2-12-5.5 0.3-4.1 1.5-8 3.7-7.4 6.5-15 3.3-34.5 15.5-67 6.6-15.9 14 0 11.8 22.2 19.5 46 2 0 4 0 9.7 2 20 3.5 4.5 1 9 0 8.4-17.1 18-33.5 6.7-13.1 16-24.5 5.5-2 7 3.5z"/><path fill-rule="evenodd" class="aj" d="m302.5 686.5q-9.6 16.4-18 33.5-4.5 1-9 0-10.3-1.5-20-3.5 23.7-14.7 46.5-34-0.5 2.3 0.5 4z"/><path fill-rule="evenodd" class="ak" d="m541.5 722.5q2.9 9.7 5 20-5.2 38.3-25 71.5-4.7 0.4-9.5-0.5-3.5-0.3-6 2-1.2 4.8 0.5 9-24.5 14.4-13.5 41 5.5 9 15.5 12.5 15.9-1.6 32-1.5 3.7 1.5 8 1-0.3 19.5 0.5 39 2.8 4.1 7.5 5-94.2 10.4-184-21.5-8-2.6-15-6.5-7.7-31.2-12-63 1.6 3.8 2.5 10 2.6-0.9 4.5-4.5 38.1-12.7 73-32 58.9-36.7 113-80 1.9-0.7 2.5 1.5 0.7-1.4 0.5-3z"/><path fill-rule="evenodd" class="al" d="m202.5 737.5q-2.8 7.6-6.5 15-1.2 3.9-1.5 8-1.5 8.2-1 17-17.8-18.3-31-40 3-3.3 7-1 16-2.5 32-5-0.4 3.4 1 6z"/><path fill-rule="evenodd" class="am" d="m723.5 646.5q11.3-0.4 22 3 12.7 3.2 21.5 13 12.6 24.9 14.5 53 0.6 5-3 8.5 3.1 11.6 5 23.5 1.9 17.5 3 35-1.3-0.2-2 1 1 17.7 2 35 0 1.5 0 3-29.1 25.8-63 45-30.4 3.4-61 5-11.4 0.2-22-3 17.4-7.2 19.5-26 1.7-11.5 3-23 1.5-44.5 2-89 3.4 4.4 8.5 6.5 11 1 22 0 11.4-2 23-2.5 1 8.5 2.5 17 1.2 2.7 3.5 4.5 7.7 1.3 15-1 3.8-4.1 3-10-1-13.4-4-26.5-1.7-1.6-4-2.5-7.1-0.9-14 1-1.3 1.3-2.5 2.5-0.7 5.5-0.5 11-0.7 1.8-3 2-15.7 2.3-31.5 4-14.4 0.6-19-13-2.4-14.9-4-30-2-21-18.5-33.5-3.3-2.1-7-1 8.9 2.9 14.5 10.5 5.2 10.6 8 22 2.4 16 4 32 1.3 52-1 104-2.1 12.6-5 25-7.8 14.3-23.5 14-8.7-3.2-14-11-4.9-14.6-6-30 2.3-75.1 8.5-150 1.5-5.9 4.5-11 9-7.5 20-12 15.8-3.9 32-5.5 23.5-0.8 47-0.5z"/><path fill-rule="evenodd" class="an" d="m718.5 734.5q0.4-2.4-1-4-0.2-5.5 0.5-11 1.3-1.3 2.5-2.5 6.9-1.9 14-1 2.3 0.9 4 2.5 3 13.1 4 26.5 0.8 5.9-3 10-7.3 2.3-15 1-2.3-1.8-3.5-4.5-1.5-8.5-2.5-17z"/><path fill-rule="evenodd" class="ao" d="m252.5 748.5q-2.9 8.9-11 13-5.4 1.4-11 0.5-15.3-4.9-11.5-20.5 20.2-12.5 33.5 7z"/><path fill-rule="evenodd" class="ap" d="m233.5 740.5q1.5-0.1 2.5 1 5.7 10.5-2.5 19-3.7-3.9-3-9.5-0.7-6 3-10.5z"/><path fill-rule="evenodd" class="aq" d="m299.5 739.5q9.4-0.1 16.5 6 2.7 23.2-20.5 20.5-10.6-3.3-15-13.5 7.5-9.6 19-13z"/><path fill-rule="evenodd" class="ar" d="m298.5 743.5q1.5-0.1 2.5 1 5.5 10.5-1.5 20-4.3-4.5-4-11-0.2-5.6 3-10z"/><path fill-rule="evenodd" class="as" d="m611.5 825.5q1.1 15.4 6 30-23-12.5-36-35-2-2.5-4-5-17-32-29-66-0.6-3.8-2-7-2.1-10.3-5-20-0.9-5.5-1-11 8.8-2 18-4 10.3 66.6 53 118z"/><path fill-rule="evenodd" class="at" d="m717.5 730.5q1.4 1.6 1 4-11.6 0.5-23 2.5-11 1-22 0-5.1-2.1-8.5-6.5-0.5 44.5-2 89-1.3 11.5-3 23-2.1 18.8-19.5 26-4.6-0.8-9-2 15.7 0.3 23.5-14 2.9-12.4 5-25 2.3-52 1-104-1.6-16-4-32-2.8-11.4-8-22-5.6-7.6-14.5-10.5 3.7-1.1 7 1 16.5 12.5 18.5 33.5 1.6 15.1 4 30 4.6 13.6 19 13 15.8-1.7 31.5-4 2.3-0.2 3-2z"/><path fill-rule="evenodd" class="au" d="m811.5 730.5q7 25.4 18 49-19.9 22.7-43 42 0-1.5 0-3 0-18 0-36-1.1-17.5-3-35 14.8-7.3 28-17z"/><path fill-rule="evenodd" class="ab" d="m548.5 749.5q12 34 29 66-1.6 4.6-4 9-1.2 1.3-3 1 0.1-4-2-7.5-9.5-1.3-19-1.5 0-0.5 0-1 0.3-26.5-1-53 0-6.5 0-13z"/><path fill-rule="evenodd" class="ai" d="m338.5 779.5q2.3 25.7 7 51 4.3 31.8 12 63-97.2-36.6-164-116-0.5-8.8 1-17 5.6 3.5 12 5.5 18.8 6.4 35-4.5 8.1-4.1 11-13 8.7-14.5 17.5-29 2 15.4 7 30 18.8 39.3 61.5 30z"/><path fill-rule="evenodd" class="av" d="m262.5 779.5q1.5 2 3 0 1.1 14.3 13 7 0.9 0.3 1.5 1-0.7 5.4-6.5 5-6.9-0.1-10.5-6-8.1 9.3-17 1-1.1-1.7 0.5-3 11.8 9.5 16-5z"/><path fill-rule="evenodd" class="av" d="m265.5 779.5q-1.5 2-3 0-17.6-21.2 10-14.5 1.8 4.5-1.5 8.5-2.4 3.4-5.5 6z"/><path fill-rule="evenodd" class="aw" d="m786.5 782.5q0 18 0 36-1-17.3-2-35 0.7-1.2 2-1z"/><path fill-rule="evenodd" class="ax" d="m548.5 762.5q1.3 26.5 1 53-11 0.2-22-0.5 13.9-25 21-52.5z"/><path fill-rule="evenodd" class="ay" d="m506.5 824.5q9.8-0.5 19 1-2.1-0.2-4 0.5 19.6 9.7 15.5 31.5-2.8 10.3-11.5 16.5 4.5 0.7 9 0.5 5.2 1.2 11 1.5-2.5 0.7-5 0.5-16.1-0.1-32 1.5-10-3.5-15.5-12.5-11-26.6 13.5-41z"/><path fill-rule="evenodd" class="az" d="m577.5 815.5q2 2.5 4 5-2.4 1.5-3 4.5 1 5.6 1 11.5-0.8 19-1.5 38-2.2 2.3-5.5 2.5-11 0.7-22 0.5 9.1-1 18.5-2 0.4-20.3 1.5-40.5-0.4-4.5-3-8 2.2-4-0.5-7.5-3 5.8-1.5 0-10.9-1.7-22-2.5 3-0.7 6-0.5 9.5 0.2 19 1.5 2.1 3.5 2 7.5 1.8 0.3 3-1 2.4-4.4 4-9z"/><path fill-rule="evenodd" class="aA" d="m546.5 742.5q1.4 3.2 2 7 0 6.5 0 13-7.1 27.5-21 52.5 11 0.7 22 0.5 0 0.5 0 1-3-0.2-6 0.5 11.1 0.8 22 2.5-1.5 5.8 1.5 0 2.7 3.5 0.5 7.5 2.6 3.5 3 8-1.1 20.2-1.5 40.5-9.4 1-18.5 2-1 0-2 0-4.3 0.5-8-1 2.5 0.2 5-0.5-5.8-0.3-11-1.5 14.1-4.1 15.5-19 3.3-15.4-6.5-27.5-8.7-3.3-18-2.5-9.2-1.5-19-1-1.7-4.2-0.5-9 2.5-2.3 6-2 4.8 0.9 9.5 0.5 19.8-33.2 25-71.5z"/><path fill-rule="evenodd" class="ab" d="m581.5 820.5q13 22.5 36 35 5.3 7.8 14 11 4.4 1.2 9 2 10.6 3.2 22 3 30.6-1.6 61-5-77.1 46.4-167 55-4.7-0.9-7.5-5-0.8-19.5-0.5-39 1 0 2 0 11 0.2 22-0.5 3.3-0.2 5.5-2.5 0.7-19 1.5-38 0-5.9-1-11.5 0.6-3 3-4.5z"/><path fill-rule="evenodd" class="aB" d="m511.5 836.5q12.9 0.7 15 13.5-2.1 19.5-20 13-13.7-16.5 5-26.5z"/><path fill-rule="evenodd" class="aC" d="m525.5 825.5q9.3-0.8 18 2.5 9.8 12.1 6.5 27.5-1.4 14.9-15.5 19-4.5 0.2-9-0.5 8.7-6.2 11.5-16.5 4.1-21.8-15.5-31.5 1.9-0.7 4-0.5z"/></svg>