<svg width="354" height="427" viewBox="0 0 354 427" fill="none" xmlns="http://www.w3.org/2000/svg">
<path d="M254.038 193L236.5 210L229.938 226.5L225.5 218.5L230.538 202L254.038 193Z" fill="#6F3121"/>
<path d="M312.537 34.5L314.587 0L321.037 39L301.587 40L312.537 34.5Z" fill="#6F3121"/>
<path d="M314.575 51.5L301.575 40L320.575 39L314.575 0L353.075 40L340.575 71.5L212.075 172.5L204.575 157.5L314.575 51.5Z" fill="#350B00"/>
<path d="M206.538 176V160L230.538 202L225.038 225L213.038 216V186.5L206.538 176Z" fill="#894D3E"/>
<path fill-rule="evenodd" clip-rule="evenodd" d="M232.538 93L219.038 130.5L190.538 160V176L198.538 191.5L213.038 216V186.5L206.538 176V160L232.538 130.5V93Z" fill="#FFDAD1"/>
<path d="M205.038 226L213.038 216L225.038 225L228.038 237H216.038L205.038 251V226Z" fill="#FFDAD1"/>
<path d="M176.538 282H192.538L196.038 297H176.538V282Z" fill="#FFDAD1"/>
<path d="M231.54 219.49L250 214L247.557 228L234.557 237L229.557 227L231.54 219.49Z" fill="#420E00"/>
<path d="M216.038 237H228.038L218.538 248.5H207.038L216.038 237Z" fill="#140400"/>
<path d="M225.038 225L226.538 218.723L234.538 237L220.038 255.5L218.538 248.5L228.038 237L225.038 225Z" fill="#5C1907"/>
<path d="M218.5 284L230.538 279.5L226.538 310L218.5 284Z" fill="#894D3E"/>
<path d="M234.538 209L240.038 204.5L276.538 184.5L263.038 218L247.538 228L231.538 219.5L234.538 209Z" fill="#270800"/>
<path d="M220.038 255L230.538 279.5L216.5 286.2L220.038 255Z" fill="#6F3121"/>
<path d="M196.038 309L226.5 346.5L246.038 387.5L176.538 427L179 366L196.038 309Z" fill="#894D3E"/>
<path fill-rule="evenodd" clip-rule="evenodd" d="M292.22 32.4081L272.537 3.5L298.537 59L291.537 89.5L278.537 100.282V56L265.806 110.842L206.537 160L214.537 174L300.537 99.5L314.037 70L304.537 50.5L298.55 41.706L300.037 7L292.22 32.4081Z" fill="#612313"/>
<path d="M239.959 204.555L282.538 169.5L276.538 184.5L239.959 204.555Z" fill="#894D3E"/>
<path fill-rule="evenodd" clip-rule="evenodd" d="M207.108 248.365L196.038 262.5V270.5L192.538 273V282L196.038 297L196.412 291.173L220.038 270.5V255.5L218.538 248.365H207.108Z" fill="#894D3E"/>
<path d="M282.537 169.5L277.537 208L269.537 216.5L263.037 218L282.537 169.5Z" fill="#FFDAD1"/>
<path d="M40.5376 34.5L38.4876 0L32.0376 39L51.4875 40L40.5376 34.5Z" fill="#6F3121"/>
<path d="M99.0376 193L113 212.5L124 228L128 222L122.538 202L99.0376 193Z" fill="#6F3121"/>
<path d="M38.5 51.5L51.5 40L32.5 39L38.5 0L0 40L12.5 71.5L141 172.5L148.5 157.5L38.5 51.5Z" fill="#350B00"/>
<path d="M146.538 176V160L122.538 202L128.038 225L140.038 216V186.5L146.538 176Z" fill="#894D3E"/>
<path fill-rule="evenodd" clip-rule="evenodd" d="M120.538 93L134.038 130.5L162.538 160V176L154.538 191.5L140.038 216V186.5L146.538 176V160L120.538 130.5V93Z" fill="#FFDAD1"/>
<path d="M148.038 226L140.038 216L128.038 225L125.038 237H137.038L148.038 251V226Z" fill="#FFDAD1"/>
<path d="M196.038 309L220.038 284.5L246.038 387.5L196.038 309Z" fill="#AA7365"/>
<path d="M176.538 282H160.538L157.038 297H176.538V282Z" fill="#FFDAD1"/>
<path fill-rule="evenodd" clip-rule="evenodd" d="M163.971 282L176.537 274L189.104 282L185.67 297H176.537H167.405L163.971 282Z" fill="#350B00"/>
<path fill-rule="evenodd" clip-rule="evenodd" d="M166.038 260H176.538H187.038L192.538 273V282H189.038L176.538 274L164.038 282H160.538V273L166.038 260Z" fill="#FFDAD1"/>
<path fill-rule="evenodd" clip-rule="evenodd" d="M176.538 260H166.038L160.538 273L157.038 270.5V262.5L148.038 251V226L140.038 216L162.538 176L176.538 176L190.538 176L213.038 216L205.038 226V251L196.038 262.5V270.5L192.538 273L187.038 260H176.538Z" fill="#D5A497"/>
<path d="M121.5 219.5L108 215L105.538 228L118.538 237L123.538 227L121.5 219.5Z" fill="#420E00"/>
<path d="M137.038 237H125.038L134.538 248.5H146.038L137.038 237Z" fill="#140400"/>
<path d="M128.038 225L126.538 218.723L118.538 237L133.038 255.5L134.538 248.5L125.038 237L128.038 225Z" fill="#5C1907"/>
<path d="M136 283L122.538 279.5L126.538 310L136 283Z" fill="#894D3E"/>
<path d="M118.538 209L113.038 204.5L76.5375 184.5L90.0375 218L105.538 228L121.5 219.5L118.538 209Z" fill="#270800"/>
<path d="M113.116 204.555L70.5374 169.5L76.5374 184.5L113.116 204.555Z" fill="#894D3E"/>
<path d="M157.038 309L126 341L107.038 387.5L176.538 427L171.5 365.5L157.038 309Z" fill="#894D3E"/>
<path d="M157.038 309L133.038 284.5L107.038 387.5L157.038 309Z" fill="#AA7365"/>
<path d="M133.038 255L122.538 279.5L137.5 286.5L133.038 255Z" fill="#6F3121"/>
<path fill-rule="evenodd" clip-rule="evenodd" d="M60.8554 32.4081L80.5375 3.5L54.5375 59L61.5375 89.5L74.5375 100.282V56L87.2686 110.842L146.538 160L138.538 174L52.5375 99.5L39.0375 70L48.5375 50.5L54.5249 41.706L53.0375 7L60.8554 32.4081Z" fill="#612313"/>
<path fill-rule="evenodd" clip-rule="evenodd" d="M145.967 248.365L157.038 262.5V270.5L160.538 273V282L157.038 297L156.418 290.958L133.038 270.5V255.5L134.538 248.365H145.967Z" fill="#894D3E"/>
<path d="M70.5375 169.5L75.5375 208L83.5375 216.5L90.0375 218L70.5375 169.5Z" fill="#FFDAD1"/>
<path fill-rule="evenodd" clip-rule="evenodd" d="M171.5 318L176.538 319.5H181.038L188 313.5L196.038 309L176.538 427L157.038 309L171.5 318Z" fill="#612313"/>
<path d="M181.038 319.5L196.038 302L198 303L196.038 309L181.038 319.5Z" fill="#894D3E"/>
<path d="M172.038 319.5L154.5 299L157.038 309L172.038 319.5Z" fill="#894D3E"/>
<path fill-rule="evenodd" clip-rule="evenodd" d="M157.038 297H176.538H196.038L198.5 298L196.038 302L181.038 319.5H176.538H172.038L157.038 302L155.5 299L157.038 297Z" fill="#D4A497"/>
<path d="M196 291L220.038 270.5V284.5L196 309V291Z" fill="#5C1907"/>
<path d="M157 291L133.038 270.5V284.5L157 309V291Z" fill="#5C1907"/>
</svg>
